<svg width="18" height="18" viewBox="0 0 18 18" fill="none" xmlns="http://www.w3.org/2000/svg">
<path d="M15.4839 4.91119C15.4785 4.83792 15.4171 4.78125 15.3437 4.78125H12.8125V4.07812C12.8125 1.82939 10.983 0 8.73436 0C6.48576 0 4.65623 1.82939 4.65623 4.07812V4.78125H2.12498C2.05158 4.78125 1.99026 4.83792 1.98478 4.91119L1.0004 17.8487C0.99745 17.8876 1.01081 17.9262 1.03753 17.9549C1.06411 17.9837 1.10151 18 1.14061 18H16.3281C16.3672 18 16.4046 17.9837 16.4312 17.955C16.4578 17.9263 16.4713 17.8878 16.4683 17.8488L15.4839 4.91119ZM5.78123 4.07812C5.78123 2.44983 7.10592 1.125 8.73436 1.125C10.3628 1.125 11.6875 2.44983 11.6875 4.07812V4.78125H5.78123V4.07812ZM5.21873 8.71875C4.44318 8.71875 3.81248 8.08791 3.81248 7.3125C3.81248 6.75127 4.09373 6.24558 4.65623 6.02367V7.3125C4.65623 7.62272 4.90865 7.875 5.21873 7.875C5.52881 7.875 5.78123 7.62272 5.78123 7.3125V6.02452C6.34373 6.24642 6.62498 6.75591 6.62498 7.3125C6.62498 8.08791 5.99428 8.71875 5.21873 8.71875ZM12.25 8.71875C11.4744 8.71875 10.8437 8.08791 10.8437 7.3125C10.8437 6.75127 11.125 6.24558 11.6875 6.02367V7.3125C11.6875 7.62272 11.9399 7.875 12.25 7.875C12.5601 7.875 12.8125 7.62272 12.8125 7.3125V6.02452C13.375 6.24642 13.6562 6.75591 13.6562 7.3125C13.6562 8.08791 13.0255 8.71875 12.25 8.71875Z" fill="white"/>
</svg>
