<svg width="24" height="17" viewBox="0 0 24 17" fill="none" xmlns="http://www.w3.org/2000/svg">
<path d="M0.771815 11.5329L0.071449 2.12716C0.0495972 1.83369 0.419358 1.68748 0.604121 1.91653L2.32958 4.05552C4.05131 6.18989 7.3614 5.99823 8.82528 3.67941L10.835 0.495929C11.2274 -0.125633 12.1338 -0.125632 12.5262 0.495931L14.536 3.67942C15.9999 5.99824 19.3099 6.18989 21.0317 4.05552L22.7571 1.91652C22.9419 1.68748 23.3117 1.83369 23.2898 2.12716L22.5894 11.5329C22.5856 11.5851 22.5421 11.6255 22.4897 11.6255H0.871539C0.819191 11.6255 0.775702 11.5851 0.771815 11.5329Z" fill="#FFD600"/>
<path d="M0.778708 15.4521V14.2344C0.778708 13.6821 1.22642 13.2344 1.77871 13.2344H21.5825C22.1348 13.2344 22.5825 13.6821 22.5825 14.2344V15.4521C22.5825 16.0044 22.1348 16.4521 21.5825 16.4521H1.77871C1.22642 16.4521 0.778708 16.0044 0.778708 15.4521Z" fill="#FFD600"/>
</svg>
