<svg width="35" height="35" viewBox="0 0 35 35" fill="none" xmlns="http://www.w3.org/2000/svg">
<path fill-rule="evenodd" clip-rule="evenodd" d="M2.92953 2.03662C2.70001 2.11965 2.33104 2.31726 2.26285 2.39368C2.14079 2.53042 2.07349 2.88705 2.03578 3.59736C1.98871 4.48401 1.98781 15.9304 2.0347 17.1474C2.07439 18.1772 2.13997 18.6017 2.38803 19.4346C2.98232 21.4301 4.31563 23.2184 6.08492 24.3933C7.28103 25.1875 8.40076 25.6205 9.79145 25.8266C10.2587 25.8959 12.2447 25.8968 12.6488 25.828C13.1346 25.7452 13.2285 25.7111 13.2543 25.6083C13.2671 25.5574 13.2566 25.3611 13.2309 25.1721C13.2023 24.9613 13.1767 24.043 13.1647 22.7964C13.1538 21.6788 13.1427 20.7612 13.1399 20.7574C13.137 20.7536 11.6215 20.7405 9.77201 20.7282L6.40929 20.706L6.42107 20.4143C6.46722 19.2691 6.97893 18.1787 7.87272 17.321C8.85226 16.3811 10.0961 15.9147 11.4048 15.9967C11.992 16.0335 12.2677 16.0835 12.7061 16.233C12.9194 16.3057 13.1026 16.3563 13.1135 16.3455C13.1243 16.3347 13.1462 14.9332 13.1622 13.231C13.1782 11.5288 13.2085 9.96837 13.2295 9.76338C13.2601 9.46407 13.2943 9.33678 13.403 9.11739C13.6595 8.59964 14.1949 8.05687 14.6926 7.81003C15.3179 7.49991 15.9821 7.51426 18.2857 7.88769C18.9863 8.00129 19.6697 8.09576 20.1226 8.14161L20.3461 8.16421L20.3451 5.89848C20.344 3.39544 20.3218 2.9772 20.1744 2.68626C20.0519 2.44443 19.7371 2.16041 19.5031 2.08064C19.2357 1.98948 19.0667 2.0013 17.9141 2.19207C14.7342 2.71834 13.8768 2.78162 10.4135 2.74564C8.32033 2.7239 7.8296 2.6994 6.7203 2.56138C6.2391 2.50152 3.56716 2.08375 3.14377 2.0022C3.10101 1.99399 3.0046 2.00947 2.92953 2.03662ZM7.05074 6.95928C7.39754 7.01373 7.74765 7.19375 8.04155 7.46883C8.49686 7.89489 8.64462 8.24172 8.64462 8.88416C8.64462 9.47364 8.48333 9.8468 8.0543 10.25C7.68926 10.593 7.24161 10.7699 6.74238 10.7683C6.37963 10.7671 6.17068 10.7207 5.85971 10.5723C4.91633 10.1218 4.54157 8.84037 5.07719 7.89648C5.32771 7.45503 5.82912 7.08509 6.32233 6.97791C6.62455 6.91222 6.73328 6.90946 7.05074 6.95928ZM15.6531 9.13964C15.5415 9.15411 15.3724 9.21155 15.2773 9.26728C15.0731 9.38703 14.8443 9.64204 14.8088 9.78944C14.7055 10.2191 14.6851 23.3887 14.7856 24.7701C14.8443 25.5765 14.9162 25.9421 15.1595 26.6724C16.6424 31.1229 21.1068 33.7312 25.6802 32.8189C28.4617 32.264 30.8585 30.4146 32.1042 27.862C32.3994 27.2572 32.5781 26.7848 32.8176 25.9761L32.9963 25.3729L32.9981 17.6336L33 9.89421L32.8946 9.7148C32.6702 9.33293 32.3383 9.13785 31.9115 9.137C31.6239 9.13641 30.944 9.21283 30.3821 9.30886C29.3447 9.4862 27.8469 9.67089 26.5273 9.78418C25.3845 9.88231 22.3303 9.8834 21.2013 9.78609C19.5679 9.64527 18.7067 9.54069 17.2944 9.31173C16.1149 9.12051 15.9413 9.1023 15.6531 9.13964ZM20.0619 14.0957C20.4132 14.2137 20.6185 14.3489 20.8781 14.6329C21.2101 14.9964 21.3663 15.41 21.3677 15.9291C21.3697 16.7007 20.899 17.4392 20.2428 17.694C19.9692 17.8003 19.3452 17.8404 19.0189 17.7726C18.6612 17.6983 18.3369 17.5195 18.076 17.2527C17.747 16.9162 17.5913 16.5959 17.5616 16.1946C17.5097 15.4928 17.6784 14.9865 18.107 14.5578C18.6285 14.036 19.3655 13.8618 20.0619 14.0957ZM28.6732 14.0402C29.923 14.3009 30.5649 15.6731 29.9792 16.8318C29.8128 17.1608 29.4803 17.4939 29.1615 17.6509C28.2372 18.1061 26.9995 17.6974 26.5578 16.7911C26.4195 16.5073 26.3739 16.2976 26.3727 15.9402C26.3709 15.3802 26.5464 14.9496 26.9351 14.5608C27.409 14.0867 28.0195 13.9038 28.6732 14.0402ZM28.6654 23.8718C28.6654 23.9851 28.4954 24.8744 28.4267 25.1201C28.0517 26.4618 27.0492 27.596 25.7169 28.1858C24.8459 28.5714 23.5037 28.6497 22.5681 28.3694C21.7405 28.1215 21.1839 27.7899 20.5771 27.1834C19.6878 26.2943 19.141 25.1375 19.141 24.1453V23.8367H23.9032C26.7018 23.8367 28.6654 23.8512 28.6654 23.8718Z" fill="url(#paint0_linear)"/>
<defs>
<linearGradient id="paint0_linear" x1="2" y1="26.5417" x2="36.0449" y2="26.5927" gradientUnits="userSpaceOnUse">
<stop stop-color="#00B191"/>
<stop offset="1" stop-color="#00CABE"/>
</linearGradient>
</defs>
</svg>
