<svg width="47" height="46" viewBox="0 0 47 46" fill="none" xmlns="http://www.w3.org/2000/svg">
<g clip-path="url(#clip0)" filter="url(#filter0_d)">
<mask id="mask0" mask-type="alpha" maskUnits="userSpaceOnUse" x="9" y="3" width="33" height="32">
<rect x="9.08008" y="3" width="32" height="32" rx="4" fill="#C4C4C4"/>
</mask>
<g mask="url(#mask0)">
<path d="M7.64922 2.77675C4.55833 6.03135 5.19093 9.48863 5.19093 19.9917C5.19093 28.7138 3.68974 37.4576 11.5464 39.516C13.9998 40.1556 35.7376 40.1556 38.1877 39.5127C41.4589 38.6571 44.1204 35.9673 44.4842 31.2773C44.535 30.6227 44.535 9.37234 44.4826 8.70447C44.0958 3.70877 41.0623 0.829642 37.0651 0.246506C36.149 0.111936 35.9654 0.0720638 31.2652 0.063757C14.5931 0.0720638 10.9384 -0.680531 7.64922 2.77675Z" fill="url(#paint0_linear)"/>
<path d="M24.8556 7.78897C20.3661 7.78897 16.1028 7.38444 14.4744 11.6176C13.8018 13.366 13.8995 15.6367 13.8995 18.888C13.8995 21.741 13.8092 24.4224 14.4744 26.157C16.0991 30.3927 20.397 29.9869 24.8531 29.9869C29.1522 29.9869 33.5849 30.4403 35.233 26.157C35.9069 24.3911 35.808 22.1543 35.808 18.888C35.808 14.5521 36.0441 11.7529 33.9682 9.65132C31.8662 7.5222 29.0236 7.78897 24.8506 7.78897H24.8556ZM23.8738 9.78909C33.2387 9.77406 34.4306 8.71952 33.7728 23.3691C33.5391 28.5504 29.6443 27.9818 24.8568 27.9818C16.1275 27.9818 15.8765 27.7288 15.8765 18.8829C15.8765 9.93437 16.569 9.7941 23.8738 9.78659V9.78909ZM30.704 11.6314C29.9782 11.6314 29.3896 12.2276 29.3896 12.9627C29.3896 13.6979 29.9782 14.2941 30.704 14.2941C31.4297 14.2941 32.0183 13.6979 32.0183 12.9627C32.0183 12.2276 31.4297 11.6314 30.704 11.6314ZM24.8556 13.1882C21.7484 13.1882 19.2298 15.7406 19.2298 18.888C19.2298 22.0353 21.7484 24.5865 24.8556 24.5865C27.9628 24.5865 30.4802 22.0353 30.4802 18.888C30.4802 15.7406 27.9628 13.1882 24.8556 13.1882ZM24.8556 15.1883C29.6839 15.1883 29.6901 22.5876 24.8556 22.5876C20.0285 22.5876 20.0211 15.1883 24.8556 15.1883Z" fill="white"/>
</g>
</g>
<defs>
<filter id="filter0_d" x="-0.919922" y="-1" width="47.5396" height="48" filterUnits="userSpaceOnUse" color-interpolation-filters="sRGB">
<feFlood flood-opacity="0" result="BackgroundImageFix"/>
<feColorMatrix in="SourceAlpha" type="matrix" values="0 0 0 0 0 0 0 0 0 0 0 0 0 0 0 0 0 0 127 0" result="hardAlpha"/>
<feOffset dx="-2" dy="4"/>
<feGaussianBlur stdDeviation="3.5"/>
<feColorMatrix type="matrix" values="0 0 0 0 0.933333 0 0 0 0 0.294118 0 0 0 0 0.372549 0 0 0 0.3 0"/>
<feBlend mode="normal" in2="BackgroundImageFix" result="effect1_dropShadow"/>
<feBlend mode="normal" in="SourceGraphic" in2="effect1_dropShadow" result="shape"/>
</filter>
<linearGradient id="paint0_linear" x1="7.72464" y1="37.3896" x2="44.7062" y2="5.81595" gradientUnits="userSpaceOnUse">
<stop stop-color="#FFDD55"/>
<stop offset="0.5" stop-color="#FF543E"/>
<stop offset="1" stop-color="#C837AB"/>
</linearGradient>
<clipPath id="clip0">
<rect width="33.5396" height="34" fill="white" transform="translate(8.08008 2)"/>
</clipPath>
</defs>
</svg>
