<svg width="18" height="18" viewBox="0 0 18 18" fill="none" xmlns="http://www.w3.org/2000/svg">
<g clip-path="url(#clip0)">
<path fill-rule="evenodd" clip-rule="evenodd" d="M7.91645 0.00346101C7.31331 0.0746558 7.02302 0.15229 6.58772 0.358774C6.27907 0.50518 6.05994 0.651552 5.81858 0.872475C5.36474 1.28792 5.06939 1.82463 4.97624 2.40315L4.95519 2.53385L3.52757 2.5396C2.1495 2.54514 2.09567 2.54654 1.97675 2.58008C1.42512 2.73567 1.11399 3.04565 1.02693 3.52639C1.00308 3.65807 1 4.41593 1 10.1614C1 15.9181 1.00304 16.6644 1.02703 16.7969C1.10487 17.2268 1.37388 17.5338 1.80563 17.6855C2.11337 17.7936 1.8641 17.7876 5.98248 17.7876C8.04317 17.7876 9.72916 17.7811 9.72916 17.7732C9.72916 17.7653 9.64799 17.6842 9.54877 17.5931C9.44955 17.5019 8.6946 16.7796 7.87108 15.9879C6.85017 15.0064 6.35532 14.5191 6.31572 14.4562C6.28378 14.4055 6.23736 14.3125 6.21254 14.2497C6.17298 14.1495 6.1674 14.1095 6.16708 13.9236C6.16677 13.7285 6.17125 13.6991 6.22394 13.5508C6.28813 13.3701 6.39793 13.1765 6.53628 13C6.58742 12.9347 6.91691 12.6063 7.26845 12.2702C7.94011 11.6281 7.99093 11.5879 8.21088 11.5256C8.31739 11.4955 8.56005 11.4663 8.70429 11.4663C9.00811 11.4663 9.37484 11.6016 9.76443 11.8575C9.96904 11.9918 10.0233 12.0447 10.8541 12.92C11.2547 13.3421 11.5879 13.6853 11.5945 13.6827C11.6011 13.68 12.4869 12.7639 13.5629 11.6468L15.5193 9.61577V6.64542C15.5193 4.05556 15.5158 3.656 15.4923 3.52639C15.4053 3.04565 15.0941 2.73567 14.5425 2.58008C14.4236 2.54654 14.3698 2.54514 12.9894 2.5396C12.2029 2.53643 11.5594 2.52841 11.5594 2.52178C11.5591 2.46635 11.4993 2.17561 11.4645 2.06013C11.2957 1.49992 10.8917 0.965192 10.3605 0.598694C10.1619 0.461643 9.7306 0.252516 9.50037 0.181626C9.08134 0.0526076 8.8035 0.00998565 8.33003 0.00207135C8.13644 -0.00116555 7.95033 -0.000538504 7.91645 0.00346101ZM8.75241 1.39961C9.43205 1.57656 9.90459 2.11309 10.1341 2.96844C10.1956 3.19733 10.2395 3.49029 10.2395 3.67054V3.8049L11.6959 3.81059C13.3301 3.817 13.2457 3.8108 13.5282 3.9451C13.7847 4.067 13.9829 4.29052 14.0937 4.58287C14.1428 4.71249 14.1993 4.9553 14.1993 5.03672V5.07722H8.25963H2.31993V5.03672C2.31993 4.9553 2.37646 4.71249 2.42558 4.58287C2.53639 4.29052 2.73455 4.067 2.99106 3.9451C3.27361 3.8108 3.18914 3.817 4.82341 3.81059L6.27973 3.8049V3.75036C6.27973 3.63419 6.3351 3.24849 6.37859 3.06163C6.58999 2.15335 7.08134 1.5659 7.76686 1.40178C7.97295 1.35245 7.98593 1.3514 8.31243 1.35743C8.55085 1.36184 8.64022 1.3704 8.75241 1.39961ZM8.08364 2.57508C7.81858 2.69436 7.65414 3.06546 7.60762 3.64943L7.59513 3.80619H8.25963H8.92414L8.91165 3.64943C8.85556 2.94539 8.61563 2.53549 8.25963 2.53549C8.20425 2.53549 8.13903 2.55017 8.08364 2.57508ZM4.48975 6.37996C4.70743 6.43809 4.87186 6.58119 4.92923 6.76246C4.96628 6.8795 4.95577 7.13746 4.90936 7.2505C4.84058 7.41799 4.66188 7.55372 4.44746 7.60131C4.32076 7.62944 3.59543 7.62395 3.47584 7.59395C3.26717 7.54162 3.12624 7.43958 3.04642 7.28307C3.00118 7.19436 2.9975 7.17185 2.9975 6.98377C2.9975 6.79569 3.00118 6.77319 3.04642 6.68447C3.10005 6.57931 3.19445 6.48754 3.30471 6.43338C3.44973 6.36213 3.54094 6.35054 3.96584 6.34937C4.31006 6.34842 4.38885 6.35302 4.48975 6.37996ZM13.0434 6.37359C13.2521 6.42592 13.393 6.52796 13.4728 6.68447C13.5181 6.77319 13.5218 6.79569 13.5218 6.98377C13.5218 7.15577 13.516 7.19922 13.4842 7.26547C13.4043 7.43167 13.226 7.5595 13.0152 7.60153C12.951 7.61434 12.0018 7.61849 9.85235 7.61532C6.95732 7.61107 6.77677 7.60908 6.70211 7.5807C6.50993 7.50759 6.36041 7.36418 6.3105 7.20508C6.28266 7.11638 6.28266 6.85116 6.3105 6.76246C6.36622 6.58484 6.53112 6.43895 6.74169 6.38096C6.84537 6.35242 7.02726 6.35059 9.89706 6.34946C12.5457 6.34841 12.9556 6.35156 13.0434 6.37359ZM4.47653 8.91645C4.79669 8.99624 4.9771 9.24067 4.95551 9.56542C4.93551 9.86637 4.77186 10.061 4.47653 10.1351C4.32945 10.1719 3.62176 10.1726 3.47584 10.136C3.26717 10.0837 3.12624 9.98165 3.04642 9.82514C3.00118 9.73642 2.9975 9.71391 2.9975 9.52584C2.9975 9.33776 3.00118 9.31525 3.04642 9.22653C3.12478 9.07287 3.27792 8.96067 3.47268 8.9142C3.6096 8.88152 4.34299 8.88319 4.47653 8.91645ZM13.0434 8.91566C13.2521 8.96799 13.393 9.07003 13.4728 9.22653C13.5181 9.31525 13.5218 9.33776 13.5218 9.52584C13.5218 9.69783 13.516 9.74129 13.4842 9.80753C13.4043 9.97373 13.226 10.1016 13.0152 10.1436C12.951 10.1564 12.0018 10.1606 9.85235 10.1574C6.41919 10.1524 6.73126 10.164 6.53226 10.0329C6.37551 9.92953 6.29973 9.78947 6.28412 9.5742C6.26015 9.24353 6.43475 8.99998 6.75491 8.91749C6.90223 8.87952 12.8924 8.8778 13.0434 8.91566ZM16.5943 10.2145C16.5516 10.2221 16.4873 10.247 16.4514 10.2699C16.4155 10.2928 15.3607 11.393 14.1075 12.7149C12.8542 14.0368 11.8138 15.1308 11.7953 15.146C11.679 15.2419 11.4895 15.2651 11.3576 15.1995C11.3127 15.1771 10.8479 14.7272 10.0549 13.9384C9.23616 13.1241 8.79546 12.6979 8.74315 12.6697C8.62712 12.6074 8.46862 12.6101 8.34328 12.6767C8.21923 12.7425 7.57686 13.3683 7.52894 13.47C7.48042 13.5729 7.48262 13.7383 7.5339 13.843C7.58951 13.9567 11.2696 17.9029 11.3712 17.9579C11.4818 18.0177 11.6364 18.0134 11.7433 17.9475C11.7934 17.9166 12.9164 16.7708 14.6968 14.934C16.2768 13.304 17.6427 11.8933 17.7321 11.7991C18.0918 11.4201 18.0903 11.2912 17.7216 10.9208C17.5227 10.7209 16.9855 10.2976 16.8656 10.2464C16.7741 10.2073 16.6905 10.1975 16.5943 10.2145Z" fill="white"/>
</g>
<defs>
<clipPath id="clip0">
<rect width="18" height="18" fill="white"/>
</clipPath>
</defs>
</svg>
