<svg width="588" height="442" viewBox="0 0 588 442" fill="none" xmlns="http://www.w3.org/2000/svg">
<g clip-path="url(#clip0)" filter="url(#filter0_d)">
<path d="M66.3373 367L168 334.651V257.929L66.3373 279.848V367Z" fill="#253354"/>
<path d="M5.00054 331.686L66.3379 367V279.847L5.00054 249.953V331.686Z" fill="#1E2A47"/>
<path d="M168 257.929L105.95 236L4.99998 249.954L66.3373 279.848L168 257.929Z" fill="#3C465E"/>
<path opacity="0.6" d="M138.492 247.501L42.6815 268.75L40.7121 303.492L37.3378 308.477L35.6673 302.069L33.4016 304.063L31.1512 299.505L29.4653 302.069L31.6365 262.935L130.045 244.516L138.492 247.501Z" fill="#1E2947"/>
<path opacity="0.6" d="M126.234 266.934L66.3377 241.477L56.1459 242.884L113.613 269.656L126.234 266.934Z" fill="#1E2947"/>
<path d="M126.234 266.934V347.942L113.613 351.957V269.655L126.234 266.934Z" fill="#1E2947"/>
<path d="M43.8059 344.929C43.8059 345.873 44.5007 346.196 45.4943 346.636L55.8981 351.957C57.303 352.666 57.584 351.181 57.584 350.247V334.015C57.584 333.073 56.9761 332.848 55.8981 332.307L45.4943 326.986C43.2899 325.848 43.9617 328.163 43.8059 332.54V344.929Z" fill="white"/>
<path d="M56.5195 335.613L46.1924 330.532V331.117L56.5195 336.374V335.613Z" fill="#25304C"/>
<path d="M56.5195 337.616L46.1924 332.532V333.117L56.5195 338.376V337.616Z" fill="#25304C"/>
<path d="M56.5195 339.861L46.1924 334.781V335.363L56.5195 340.622V339.861Z" fill="#25304C"/>
<path d="M56.2754 346.023L49.7491 342.81L49.6673 343.418L56.2754 346.781V346.023Z" fill="#25304C"/>
<path d="M56.2754 347.542L49.7491 344.329L49.6673 344.937L56.2754 348.299V347.542Z" fill="#25304C"/>
<path d="M56.2754 349.091L49.7491 345.878L49.6673 346.486L56.2754 349.849V349.091Z" fill="#25304C"/>
</g>
<g opacity="0.8">
<g filter="url(#filter1_d)">
<path d="M509.092 284.551L552.511 250.214L552.063 324.205L509.092 374.072V284.551Z" fill="#202C49"/>
<path d="M509.093 374.07L374 362.987V279.695L509.093 284.549V374.07Z" fill="#293759"/>
<path d="M374 279.696L432.194 247.732L552.512 250.214L509.093 284.55L374 279.696Z" fill="#1E2A47"/>
<path d="M424.908 319.432V312.502H415.836V319.432C415.836 320.52 416.227 321.572 416.938 322.395C417.649 323.219 418.632 323.76 419.709 323.92V330.156C418.543 330.31 417.468 330.868 416.67 331.731H424.074C423.277 330.867 422.201 330.31 421.035 330.156V323.92C422.112 323.76 423.095 323.219 423.806 322.395C424.517 321.572 424.908 320.52 424.908 319.432Z" fill="#1B2745"/>
<path d="M437.757 313.834V312.142H437.313V313.834C433.46 313.931 430.2 316.622 428.975 320.348C429.092 320.103 429.277 319.895 429.507 319.75C429.737 319.605 430.004 319.528 430.276 319.528C430.549 319.528 430.816 319.605 431.046 319.75C431.276 319.895 431.461 320.103 431.578 320.348H431.86C431.978 320.103 432.162 319.895 432.393 319.75C432.623 319.605 432.89 319.528 433.162 319.528C433.434 319.528 433.701 319.605 433.932 319.75C434.162 319.895 434.347 320.103 434.464 320.348H434.742C434.855 320.111 435.03 319.909 435.25 319.764C435.469 319.619 435.723 319.537 435.986 319.526C436.249 319.516 436.509 319.577 436.74 319.703C436.97 319.83 437.161 320.016 437.293 320.244V328.075H437.084C437.084 328.075 436.838 330.791 437.809 331.476C438.458 331.927 439.643 331.75 440.042 331.073C440.481 330.324 440.497 329.61 440.114 329.699C439.732 329.788 439.937 330.71 439.377 330.964C438.692 331.27 438.099 331.037 438.011 330.211C437.959 329.492 437.951 328.771 437.986 328.051H437.737V320.159C437.879 319.949 438.075 319.781 438.304 319.671C438.532 319.561 438.786 319.513 439.039 319.532C439.292 319.551 439.535 319.637 439.745 319.78C439.954 319.924 440.122 320.12 440.231 320.348H440.453C440.57 320.103 440.755 319.895 440.985 319.75C441.216 319.605 441.483 319.528 441.755 319.528C442.027 319.528 442.294 319.605 442.524 319.75C442.755 319.895 442.939 320.103 443.057 320.348H443.339C443.456 320.103 443.641 319.895 443.871 319.75C444.102 319.605 444.368 319.528 444.641 319.528C444.913 319.528 445.18 319.605 445.41 319.75C445.64 319.895 445.825 320.103 445.942 320.348H446.075C444.87 316.622 441.614 313.919 437.757 313.834Z" fill="#1B2745"/>
<path d="M456.074 316.566L452.434 312.203L448.799 316.566H451.092V329.333H453.78V316.566H456.074Z" fill="#1B2745"/>
<path d="M464.078 316.566L460.438 312.203L456.799 316.566H459.092V329.333H461.784V316.566H464.078Z" fill="#1B2745"/>
<path d="M463.664 330.609H449.215V331.669H463.664V330.609Z" fill="#1B2745"/>
<path d="M509.092 284.551L545.192 322.118L582.186 284.551L552.511 250.214L509.092 284.551Z" fill="#454F66"/>
<path d="M374 279.696L444.011 270.027C444.011 270.027 494.608 240.102 493.068 241.021C491.529 241.939 432.21 247.732 432.21 247.732L374 279.696Z" fill="#454F66"/>
</g>
</g>
<g clip-path="url(#clip1)" filter="url(#filter2_d)">
<path d="M185.643 424.282L106.221 388.392V303.26L185.643 327.583V424.282Z" fill="#253354"/>
<path d="M245.573 382.062L185.645 424.282V327.583L245.573 291.374V382.062Z" fill="#1E2A47"/>
<path d="M106.221 303.26L185.643 327.583L245.572 291.374L166.864 274.829L106.221 303.26Z" fill="#3C465E"/>
<path d="M143.623 314.712L197.522 281.273L199.36 281.66L145.933 315.421L143.623 314.712Z" fill="#1B2848"/>
<path d="M106.222 303.26L82.916 332.81L163.103 363.773L185.645 327.583L106.222 303.26Z" fill="#3C465E"/>
<path d="M166.865 274.829L188.287 246.7L272.816 256.459L245.573 291.374L166.865 274.829Z" fill="#1B2848"/>
<path d="M187.108 326.696L107.57 302.628L106.221 303.26L185.643 327.583L187.108 326.696Z" fill="#1B2848"/>
<path d="M166.866 274.829L245.573 291.374L244.343 292.117L166.162 275.159L166.866 274.829Z" fill="#1B2848"/>
<path d="M155.771 382.274V400.837L170.825 407.344V385.911L155.771 382.274Z" fill="white"/>
<path d="M156.543 383.366L169.523 386.652V387.335L156.543 384.003V383.366Z" fill="#4C402C"/>
<path d="M156.543 384.872L169.523 388.156V388.842L156.543 385.51V384.872Z" fill="#4C402C"/>
<path d="M156.543 386.62L169.523 389.907V390.593L156.543 387.26V386.62Z" fill="#4C402C"/>
<path d="M156.543 388.311L169.523 391.594V392.28L156.543 388.948V388.311Z" fill="#4C402C"/>
<path d="M156.543 396.179L162.822 398.108L162.802 398.883L156.543 396.819V396.179Z" fill="#4C402C"/>
<path d="M156.543 397.298L162.822 399.224L162.802 399.999L156.543 397.935V397.298Z" fill="#4C402C"/>
<path d="M156.543 398.647L162.822 400.576L162.802 401.351L156.543 399.287V398.647Z" fill="#4C402C"/>
</g>
<g filter="url(#filter3_d)">
<path d="M226 421.715L453.771 432.727V401.445L226 391.734V421.715Z" fill="#293759"/>
<path d="M453.773 401.445L498.401 363.051V390.047L453.773 432.726V401.445Z" fill="#1B2745"/>
<path d="M453.771 401.445L498.399 363.051L297.72 357L226 391.734L453.771 401.445Z" fill="#3C465E"/>
<path d="M412.675 416.487V411.259H405.83V416.487C405.83 417.306 406.125 418.098 406.66 418.719C407.195 419.34 407.935 419.748 408.746 419.87V424.569C407.867 424.685 407.056 425.104 406.453 425.754H412.039C411.436 425.104 410.626 424.685 409.746 424.569V419.87C410.559 419.751 411.302 419.344 411.84 418.723C412.378 418.102 412.674 417.308 412.675 416.487Z" fill="#1B2745"/>
<path d="M422.368 412.262V410.986H422.033V412.262C419.126 412.338 416.667 414.365 415.742 417.18H415.757C415.845 416.994 415.984 416.836 416.158 416.726C416.332 416.616 416.534 416.557 416.74 416.557C416.945 416.557 417.147 416.616 417.321 416.726C417.495 416.836 417.634 416.994 417.722 417.18H417.935C418.022 416.994 418.161 416.836 418.335 416.726C418.509 416.616 418.711 416.557 418.917 416.557C419.123 416.557 419.324 416.616 419.498 416.726C419.672 416.836 419.811 416.994 419.899 417.18H420.109C420.193 417 420.325 416.847 420.49 416.737C420.656 416.627 420.848 416.564 421.047 416.556C421.245 416.548 421.442 416.595 421.616 416.691C421.79 416.787 421.935 416.929 422.033 417.101V423.007H421.875C421.875 423.007 421.69 425.055 422.423 425.572C422.912 425.915 423.806 425.779 424.104 425.268C424.439 424.703 424.451 424.165 424.162 424.232C423.873 424.298 424.028 424.994 423.605 425.186C423.088 425.42 422.641 425.241 422.575 424.621C422.536 424.077 422.53 423.532 422.556 422.988H422.368V417.034C422.475 416.875 422.623 416.748 422.796 416.664C422.968 416.581 423.16 416.545 423.351 416.559C423.543 416.574 423.727 416.64 423.884 416.749C424.042 416.858 424.168 417.006 424.25 417.18H424.417C424.505 416.994 424.644 416.836 424.818 416.726C424.992 416.616 425.193 416.557 425.399 416.557C425.605 416.557 425.807 416.616 425.981 416.726C426.155 416.836 426.294 416.994 426.381 417.18H426.594C426.682 416.994 426.821 416.836 426.995 416.726C427.169 416.616 427.371 416.557 427.576 416.557C427.782 416.557 427.984 416.616 428.158 416.726C428.332 416.836 428.471 416.994 428.559 417.18H428.659C427.735 414.365 425.275 412.338 422.368 412.262Z" fill="#1B2745"/>
<path d="M436.186 414.325L433.44 411.03L430.697 414.325H432.424V423.956H434.456V414.325H436.186Z" fill="#1B2745"/>
<path d="M442.226 414.325L439.48 411.03L436.734 414.325H438.465V423.956H440.496V414.325H442.226Z" fill="#1B2745"/>
<path d="M441.913 424.917H431.012V425.721H441.913V424.917Z" fill="#1B2745"/>
<path opacity="0.6" d="M311.631 425.853V395.383L364.657 358.944L374.165 359.302L325.886 396.851L325.536 426.525L311.631 425.853Z" fill="#1A2644"/>
<path opacity="0.6" d="M260.332 375.109L472.626 385.224V414.697L481.358 406.345V377.714L269.402 370.717L260.332 375.109Z" fill="#1A2644"/>
</g>
<g opacity="0.2">
<path d="M170.785 81.7241L170.722 81.7245C170.561 81.7174 170.404 81.6788 170.258 81.6108C170.113 81.5428 169.982 81.4469 169.874 81.3284C169.765 81.2099 169.681 81.0712 169.627 80.9203C169.572 80.7694 169.547 80.6091 169.555 80.4488C169.661 78.6062 169.969 76.7808 170.474 75.0056C170.517 74.8511 170.591 74.7066 170.69 74.5805C170.789 74.4543 170.912 74.3489 171.052 74.2703C171.192 74.1917 171.346 74.1414 171.505 74.1223C171.664 74.1032 171.826 74.1157 171.981 74.159C172.135 74.2023 172.28 74.2756 172.406 74.3748C172.532 74.4739 172.638 74.5969 172.716 74.7368C172.795 74.8767 172.845 75.0306 172.865 75.19C172.884 75.3492 172.871 75.5108 172.828 75.6652C172.373 77.2605 172.094 78.9006 171.996 80.5565C171.982 80.8692 171.849 81.1648 171.624 81.382C171.398 81.5993 171.098 81.7218 170.785 81.7241ZM173.582 71.6907C173.371 71.6917 173.164 71.6381 172.98 71.5352C172.795 71.4323 172.641 71.2836 172.532 71.1035C172.422 70.9234 172.361 70.718 172.354 70.5074C172.348 70.2968 172.396 70.088 172.494 69.9014C173.351 68.2699 174.397 66.7439 175.608 65.3544C175.713 65.2314 175.841 65.1305 175.985 65.0574C176.129 64.9843 176.287 64.9406 176.448 64.9287C176.609 64.9169 176.771 64.9371 176.925 64.9883C177.078 65.0395 177.22 65.1206 177.342 65.2269C177.463 65.3332 177.563 65.4626 177.634 65.6076C177.706 65.7526 177.748 65.9104 177.758 66.0717C177.768 66.233 177.746 66.3947 177.693 66.5474C177.64 66.7001 177.557 66.8407 177.449 66.9612C176.365 68.207 175.43 69.5755 174.664 71.0386C174.56 71.2355 174.405 71.4006 174.215 71.5158C174.024 71.631 173.806 71.6921 173.584 71.6924L173.582 71.6907ZM180.412 63.8915C180.152 63.8928 179.899 63.8112 179.688 63.6585C179.478 63.5059 179.321 63.2902 179.242 63.0428C179.163 62.7953 179.164 62.529 179.247 62.2826C179.329 62.0361 179.488 61.8224 179.7 61.6724C181.202 60.622 182.814 59.7382 184.508 59.0368C184.656 58.9749 184.814 58.9429 184.975 58.9424C185.135 58.9419 185.294 58.973 185.443 59.034C185.591 59.0949 185.726 59.1845 185.84 59.2976C185.954 59.4107 186.045 59.5451 186.106 59.6931C186.168 59.8411 186.201 59.9998 186.201 60.1603C186.202 60.3207 186.171 60.4796 186.11 60.628C186.049 60.7764 185.959 60.9113 185.846 61.0251C185.733 61.1389 185.598 61.2293 185.45 61.2911C183.918 61.9236 182.46 62.721 181.1 63.6693C180.9 63.8119 180.66 63.8901 180.414 63.8932L180.412 63.8915ZM189.968 59.8212C189.666 59.8238 189.373 59.7141 189.147 59.5135C188.92 59.3128 188.776 59.0354 188.743 58.7349C188.709 58.4344 188.788 58.1322 188.965 57.8866C189.141 57.6411 189.403 57.4698 189.698 57.4058C191.458 57.0245 193.242 56.765 195.038 56.629C195.362 56.604 195.682 56.7086 195.929 56.9198C196.176 57.1311 196.329 57.4317 196.354 57.7556C196.379 58.0794 196.275 58.3999 196.064 58.6466C195.852 58.8933 195.552 59.046 195.228 59.0711C193.546 59.1976 191.875 59.4408 190.227 59.7987C190.142 59.8183 190.057 59.8288 189.97 59.8299L189.968 59.8212ZM204.361 59.1008C203.601 59.1053 202.817 59.0837 202.033 59.036C201.458 59.001 200.884 58.9748 200.323 58.9571C200.163 58.9522 200.005 58.9158 199.858 58.8499C199.712 58.7839 199.58 58.6898 199.47 58.5729C199.36 58.456 199.274 58.3186 199.217 58.1685C199.16 58.0184 199.133 57.8585 199.138 57.6981C199.143 57.5376 199.179 57.3797 199.245 57.2333C199.311 57.087 199.405 56.955 199.522 56.845C199.639 56.7351 199.776 56.6492 199.926 56.5923C200.077 56.5354 200.236 56.5086 200.397 56.5135C200.982 56.531 201.583 56.5589 202.182 56.5955C203.299 56.6654 204.419 56.6757 205.538 56.6262C205.698 56.6187 205.858 56.6429 206.01 56.6974C206.161 56.7518 206.3 56.8355 206.418 56.9436C206.537 57.0517 206.633 57.1822 206.702 57.3275C206.77 57.4728 206.809 57.6301 206.817 57.7905C206.824 57.9509 206.8 58.1111 206.746 58.2622C206.691 58.4132 206.608 58.552 206.499 58.6707C206.391 58.7894 206.261 58.8856 206.116 58.9539C205.97 59.0222 205.813 59.0612 205.652 59.0687C205.23 59.0956 204.795 59.1069 204.362 59.1095L204.361 59.1008ZM210.772 58.3264C210.473 58.3285 210.184 58.2211 209.958 58.0243C209.733 57.8276 209.588 57.5552 209.55 57.2588C209.513 56.9624 209.585 56.6624 209.754 56.4157C209.922 56.169 210.175 55.9926 210.465 55.92C212.062 55.5229 213.603 54.9306 215.055 54.1564C215.197 54.0803 215.353 54.033 215.514 54.0171C215.675 54.0013 215.837 54.0173 215.992 54.0642C216.147 54.1111 216.29 54.1879 216.415 54.2904C216.54 54.3929 216.644 54.5189 216.72 54.6614C216.796 54.8038 216.844 54.9598 216.86 55.1206C216.875 55.2813 216.859 55.4435 216.813 55.5981C216.766 55.7526 216.689 55.8964 216.586 56.0213C216.484 56.1461 216.358 56.2496 216.215 56.3257C214.587 57.1952 212.857 57.8607 211.065 58.3072C210.969 58.3284 210.872 58.3377 210.774 58.3351L210.772 58.3264ZM219.865 53.3863C219.62 53.3879 219.381 53.316 219.177 53.1799C218.974 53.0438 218.816 52.8498 218.724 52.623C218.632 52.3962 218.611 52.1471 218.662 51.9079C218.713 51.6687 218.835 51.4505 219.012 51.2815C220.199 50.1443 221.236 48.861 222.098 47.4624C222.183 47.3258 222.295 47.2075 222.426 47.1141C222.557 47.0207 222.706 46.954 222.863 46.9179C223.02 46.8818 223.183 46.877 223.341 46.9037C223.5 46.9304 223.652 46.9882 223.789 47.0737C223.926 47.1591 224.044 47.2707 224.138 47.4019C224.231 47.5331 224.298 47.6814 224.334 47.8384C224.37 47.9954 224.375 48.1579 224.348 48.3167C224.322 48.4756 224.264 48.6276 224.178 48.7641C223.207 50.338 222.04 51.7822 220.705 53.0619C220.479 53.2775 220.179 53.3986 219.867 53.4002L219.865 53.3863ZM225.387 44.6088C225.191 44.61 224.998 44.564 224.823 44.4749C224.649 44.3857 224.498 44.2559 224.384 44.0964C224.271 43.937 224.197 43.7525 224.169 43.5586C224.142 43.3647 224.161 43.167 224.226 42.9823C224.776 41.4038 225.18 39.778 225.432 38.1255C225.454 37.9644 225.507 37.8093 225.589 37.6692C225.672 37.5291 225.781 37.4068 225.911 37.3095C226.041 37.2122 226.19 37.1418 226.347 37.1025C226.505 37.0632 226.669 37.0557 226.83 37.0806C226.99 37.1054 227.145 37.162 227.283 37.2471C227.422 37.3321 227.542 37.444 227.636 37.576C227.731 37.7081 227.799 37.8577 227.835 38.0161C227.871 38.1745 227.875 38.3386 227.847 38.4986C227.573 40.2999 227.133 42.072 226.532 43.7923C226.451 44.0322 226.298 44.2409 226.093 44.3897C225.888 44.5384 225.642 44.6199 225.389 44.6228L225.387 44.6088ZM387.935 41.6975C387.724 41.6988 387.516 41.6456 387.332 41.543C387.148 41.4405 386.993 41.292 386.884 41.1121C386.002 39.6671 385.043 38.2261 384.036 36.8325C383.846 36.5696 383.769 36.2422 383.82 35.9223C383.872 35.6024 384.049 35.3162 384.312 35.1268C384.575 34.9373 384.903 34.86 385.223 34.912C385.543 34.9639 385.829 35.1408 386.019 35.4037C387.061 36.8478 388.055 38.3409 388.971 39.8398C389.084 40.0245 389.145 40.2358 389.149 40.4521C389.154 40.6684 389.101 40.882 388.995 41.0709C388.89 41.2599 388.736 41.4175 388.55 41.5276C388.363 41.6376 388.151 41.6963 387.935 41.6975ZM217.901 34.6048L217.829 34.6052C216.023 34.5202 214.225 34.2975 212.451 33.939C212.134 33.8729 211.856 33.6834 211.678 33.4123C211.501 33.1412 211.438 32.8108 211.504 32.4936C211.57 32.1764 211.76 31.8984 212.031 31.7209C212.302 31.5434 212.632 31.4808 212.95 31.547C214.6 31.8826 216.272 32.0921 217.954 32.1735C218.278 32.1807 218.586 32.3162 218.811 32.5503C219.035 32.7845 219.157 33.0981 219.15 33.4221C219.143 33.7461 219.007 34.054 218.773 34.2781C218.539 34.5022 218.225 34.6241 217.901 34.617L217.901 34.6048ZM223.138 34.5581C222.814 34.5693 222.499 34.4513 222.262 34.2302C222.025 34.009 221.885 33.7028 221.874 33.3789C221.863 33.055 221.981 32.7399 222.202 32.503C222.423 32.266 222.729 32.1266 223.053 32.1154C223.926 32.0597 224.83 31.981 225.753 31.8761C225.69 30.6119 225.549 29.3528 225.333 28.1057C225.3 27.9452 225.299 27.7797 225.33 27.6189C225.362 27.4581 225.426 27.3054 225.518 27.1699C225.61 27.0343 225.729 26.9186 225.867 26.8298C226.004 26.741 226.159 26.6807 226.32 26.6527C226.482 26.6247 226.647 26.6295 226.807 26.6667C226.967 26.704 227.117 26.773 227.25 26.8696C227.382 26.9662 227.494 27.0885 227.578 27.2292C227.662 27.3698 227.717 27.526 227.74 27.6883C227.963 28.9679 228.111 30.2594 228.183 31.5563C228.504 31.5118 228.83 31.5967 229.088 31.7922C229.347 31.9876 229.517 32.2778 229.562 32.5987C229.606 32.9197 229.521 33.2451 229.326 33.5035C229.13 33.7619 228.84 33.9321 228.519 33.9765C228.258 34.0165 227.996 34.0529 227.738 34.0894C227.532 34.2421 227.283 34.3254 227.027 34.3274C226.869 34.3284 226.711 34.2998 226.564 34.2429C225.414 34.3806 224.296 34.4849 223.21 34.5542L223.138 34.5581ZM381.818 33.2053C381.639 33.2067 381.461 33.1685 381.298 33.0934C381.135 33.0184 380.99 32.9084 380.875 32.7712C379.782 31.4723 378.62 30.1878 377.422 28.9523C377.196 28.7197 377.072 28.407 377.077 28.083C377.082 27.7589 377.215 27.4502 377.448 27.2245C377.68 26.9989 377.993 26.8749 378.317 26.8799C378.642 26.8849 378.951 27.0183 379.176 27.2509C380.406 28.5281 381.616 29.8542 382.745 31.1982C382.894 31.3758 382.99 31.5921 383.021 31.8219C383.052 32.0517 383.016 32.2855 382.919 32.496C382.822 32.7065 382.667 32.885 382.472 33.0106C382.277 33.1362 382.05 33.2037 381.818 33.2053ZM233.493 33.0362C233.19 33.0379 232.898 32.9276 232.673 32.7267C232.447 32.5258 232.304 32.2484 232.271 31.9481C232.237 31.6479 232.317 31.346 232.493 31.1009C232.67 30.8558 232.931 30.6847 233.226 30.6208C234.834 30.2622 236.525 29.8526 238.25 29.3834C238.563 29.2982 238.897 29.3408 239.178 29.5016C239.46 29.6624 239.666 29.9284 239.751 30.241C239.836 30.5536 239.794 30.8872 239.633 31.1685C239.472 31.4497 239.206 31.6556 238.893 31.7407C237.128 32.2206 235.397 32.6479 233.747 33.0067C233.662 33.0269 233.575 33.0373 233.487 33.0379L233.493 33.0362ZM207.721 32.3982C207.553 32.3997 207.386 32.3663 207.231 32.2998C205.831 31.6998 204.492 30.9648 203.234 30.1055C202.972 29.9325 202.718 29.749 202.471 29.5707C202.335 29.4797 202.219 29.3623 202.129 29.2256C202.04 29.0889 201.979 28.9356 201.949 28.7749C201.92 28.6141 201.923 28.4491 201.959 28.2897C201.995 28.1302 202.062 27.9796 202.157 27.8466C202.252 27.7136 202.373 27.6011 202.512 27.5156C202.651 27.4301 202.806 27.3734 202.968 27.3488C203.129 27.3243 203.294 27.3324 203.453 27.3727C203.611 27.413 203.76 27.4846 203.89 27.5834C204.124 27.7519 204.366 27.9209 204.616 28.0904C205.742 28.86 206.941 29.5181 208.195 30.0552C208.453 30.1662 208.664 30.3624 208.794 30.6108C208.924 30.8591 208.965 31.1446 208.909 31.4192C208.853 31.6939 208.705 31.9411 208.489 32.1193C208.272 32.2975 208.001 32.396 207.721 32.3982ZM243.604 30.3028C243.311 30.3045 243.027 30.2013 242.805 30.0118C242.582 29.8223 242.434 29.5591 242.389 29.2702C242.343 28.9812 242.403 28.6856 242.557 28.4371C242.712 28.1886 242.95 28.0037 243.229 27.916C244.813 27.4145 246.472 26.8602 248.158 26.2656C248.31 26.2085 248.472 26.1823 248.635 26.1886C248.797 26.1949 248.957 26.2336 249.104 26.3023C249.252 26.3711 249.384 26.4685 249.493 26.5889C249.602 26.7093 249.686 26.8503 249.74 27.0036C249.794 27.1569 249.817 27.3194 249.808 27.4817C249.798 27.6439 249.756 27.8026 249.684 27.9484C249.613 28.0943 249.513 28.2243 249.39 28.331C249.267 28.4376 249.125 28.5187 248.97 28.5696C247.259 29.173 245.575 29.7362 243.966 30.2448C243.847 30.283 243.723 30.3032 243.598 30.3046L243.604 30.3028ZM253.49 26.8343C253.203 26.8368 252.925 26.7383 252.703 26.5561C252.482 26.374 252.331 26.1198 252.278 25.838C252.225 25.5562 252.273 25.2649 252.413 25.0149C252.554 24.7649 252.778 24.5722 253.046 24.4706C254.603 23.8768 256.235 23.2302 257.896 22.5607C258.045 22.4969 258.206 22.4635 258.368 22.4624C258.531 22.4614 258.692 22.4926 258.842 22.5544C258.992 22.6162 259.128 22.7073 259.243 22.8223C259.357 22.9373 259.448 23.074 259.509 23.2243C259.57 23.3747 259.601 23.5357 259.599 23.698C259.597 23.8602 259.563 24.0205 259.498 24.1694C259.434 24.3183 259.34 24.4529 259.223 24.5652C259.106 24.6776 258.968 24.7655 258.816 24.8239C257.139 25.5039 255.492 26.1541 253.919 26.7533C253.781 26.8076 253.633 26.8357 253.485 26.8361L253.49 26.8343ZM374.531 25.6904C374.227 25.6923 373.933 25.5808 373.707 25.3777C372.443 24.2386 371.116 23.1244 369.763 22.0539C369.637 21.9545 369.532 21.8312 369.454 21.6912C369.375 21.5512 369.325 21.3971 369.306 21.2378C369.288 21.0784 369.3 20.9169 369.344 20.7625C369.388 20.6081 369.461 20.4638 369.561 20.3379C369.66 20.212 369.783 20.1068 369.923 20.0285C370.063 19.9502 370.218 19.9002 370.377 19.8814C370.699 19.8435 371.023 19.935 371.277 20.1358C372.681 21.2356 374.039 22.3881 375.342 23.5618C375.525 23.7268 375.654 23.9433 375.712 24.1828C375.77 24.4223 375.754 24.6736 375.666 24.9038C375.578 25.134 375.423 25.3323 375.221 25.4727C375.018 25.6131 374.778 25.689 374.531 25.6904ZM199.138 26.4824C198.818 26.4844 198.51 26.3609 198.28 26.1385C196.731 24.6346 195.575 23.1407 194.843 21.6983C194.764 21.5547 194.716 21.3969 194.699 21.2341C194.683 21.0713 194.7 20.9069 194.748 20.7507C194.797 20.5944 194.876 20.4495 194.981 20.3246C195.087 20.1996 195.217 20.0971 195.363 20.0232C195.509 19.9492 195.668 19.9054 195.831 19.8942C195.995 19.883 196.158 19.9047 196.313 19.958C196.468 20.0113 196.61 20.0951 196.732 20.2045C196.854 20.3139 196.952 20.4466 197.022 20.5947C197.632 21.7953 198.628 23.072 199.982 24.385C200.157 24.554 200.277 24.771 200.328 25.0085C200.378 25.2461 200.357 25.4932 200.266 25.7185C200.176 25.9438 200.02 26.137 199.819 26.2733C199.618 26.4097 199.381 26.4831 199.138 26.4842L199.138 26.4824ZM225.2 24.0595C224.948 24.061 224.702 23.9847 224.495 23.841C224.288 23.6972 224.13 23.4932 224.044 23.2566C223.485 21.7001 222.75 20.2125 221.853 18.8231C221.765 18.6888 221.705 18.5386 221.675 18.381C221.645 18.2233 221.646 18.0614 221.679 17.9043C221.712 17.7472 221.775 17.5982 221.866 17.4656C221.956 17.3331 222.072 17.2196 222.206 17.1317C222.34 17.0438 222.49 16.9833 222.648 16.9534C222.806 16.9236 222.968 16.9251 223.125 16.9579C223.282 16.9907 223.431 17.0541 223.564 17.1445C223.697 17.2348 223.81 17.3505 223.898 17.4847C224.898 19.0308 225.718 20.6866 226.34 22.4194C226.407 22.6033 226.429 22.8008 226.404 22.995C226.379 23.1892 226.307 23.3745 226.196 23.5353C226.084 23.6961 225.935 23.8277 225.762 23.9189C225.588 24.0101 225.396 24.0584 225.2 24.0595ZM263.197 22.8993C262.914 22.9015 262.64 22.8057 262.42 22.6283C262.2 22.4508 262.048 22.2026 261.991 21.9259C261.933 21.6493 261.973 21.3613 262.104 21.111C262.235 20.8607 262.449 20.6636 262.709 20.5532C264.233 19.9038 265.844 19.2049 267.501 18.4761C267.798 18.3452 268.134 18.3374 268.436 18.4544C268.739 18.5715 268.982 18.8037 269.113 19.1C269.244 19.3964 269.252 19.7326 269.135 20.0347C269.018 20.3368 268.786 20.5801 268.489 20.711C266.823 21.4451 265.202 22.1492 263.668 22.8005C263.519 22.8661 263.359 22.9014 263.197 22.9045L263.197 22.8993ZM366.311 19.1984C366.061 19.1991 365.817 19.1232 365.612 18.9809C364.209 18.0084 362.75 17.0642 361.278 16.1742C361.141 16.091 361.021 15.9817 360.926 15.8523C360.831 15.723 360.763 15.5762 360.725 15.4204C360.647 15.1057 360.698 14.7732 360.866 14.4961C361.034 14.219 361.305 14.0201 361.62 13.9429C361.935 13.8658 362.268 13.9168 362.545 14.0848C364.057 15.0008 365.558 15.9726 367.003 16.9728C367.216 17.1205 367.377 17.3322 367.462 17.5773C367.547 17.8225 367.551 18.0882 367.475 18.3361C367.399 18.584 367.246 18.8012 367.038 18.9562C366.83 19.1112 366.578 19.196 366.318 19.1983L366.311 19.1984ZM272.786 18.6804C272.506 18.6818 272.234 18.5872 272.016 18.4124C271.797 18.2377 271.645 17.9934 271.586 17.7203C271.526 17.4472 271.561 17.1618 271.686 16.9118C271.812 16.6619 272.019 16.4624 272.273 16.3468C273.76 15.6731 275.317 14.9658 277.038 14.1703C277.333 14.0346 277.669 14.0213 277.973 14.1334C278.277 14.2455 278.525 14.4738 278.661 14.768C278.796 15.0623 278.81 15.3984 278.698 15.7024C278.586 16.0065 278.357 16.2535 278.063 16.3893C276.345 17.1813 274.783 17.8955 273.291 18.571C273.133 18.6436 272.96 18.681 272.786 18.6804ZM195.486 17.3265C195.284 17.3278 195.085 17.2789 194.906 17.1843C194.727 17.0896 194.575 16.9522 194.462 16.7843C194.35 16.6163 194.281 16.4231 194.262 16.222C194.242 16.0208 194.273 15.818 194.351 15.6317C195.062 13.9365 196.566 12.5123 198.702 11.512C198.848 11.4393 199.007 11.3965 199.17 11.3862C199.333 11.3759 199.496 11.3982 199.65 11.4518C199.804 11.5054 199.945 11.5892 200.066 11.6984C200.187 11.8075 200.285 11.9397 200.354 12.0873C200.424 12.2348 200.463 12.3947 200.469 12.5575C200.475 12.7203 200.449 12.8827 200.392 13.0352C200.335 13.1877 200.247 13.3272 200.135 13.4455C200.023 13.5637 199.889 13.6584 199.739 13.7239C198.162 14.4627 197.079 15.4498 196.606 16.5765C196.513 16.7975 196.358 16.9864 196.159 17.1198C195.96 17.2532 195.726 17.325 195.486 17.3265ZM219.371 15.5308C219.103 15.5323 218.842 15.4455 218.627 15.2839C217.814 14.6613 216.907 14.1718 215.94 13.8339C215.405 13.6521 214.857 13.4913 214.31 13.3322C214.152 13.2928 214.003 13.2221 213.873 13.1244C213.742 13.0267 213.632 12.9038 213.55 12.7631C213.468 12.6224 213.415 12.4667 213.394 12.3051C213.372 12.1435 213.384 11.9794 213.427 11.8223C213.47 11.6652 213.545 11.5184 213.646 11.3904C213.746 11.2625 213.872 11.156 214.015 11.0773C214.157 10.9986 214.315 10.9493 214.477 10.9322C214.639 10.9151 214.803 10.9306 214.959 10.9777C215.553 11.1487 216.148 11.3197 216.729 11.5222C217.942 11.9435 219.08 12.5553 220.101 13.3346C220.305 13.4886 220.456 13.7027 220.532 13.9467C220.608 14.1907 220.605 14.4523 220.524 14.6948C220.444 14.9372 220.289 15.1483 220.082 15.2982C219.875 15.4482 219.627 15.5295 219.371 15.5308ZM282.303 14.298C282.024 14.2999 281.753 14.2064 281.535 14.0331C281.316 13.8598 281.164 13.6171 281.102 13.3452C281.041 13.0733 281.074 12.7887 281.197 12.5385C281.32 12.2882 281.524 12.0875 281.777 11.9696L285.036 10.4495L286.524 9.75315C286.818 9.61604 287.154 9.60124 287.459 9.71201C287.764 9.82279 288.013 10.0501 288.15 10.3439C288.287 10.6376 288.302 10.9738 288.191 11.2785C288.081 11.5832 287.853 11.8314 287.559 11.9686L286.071 12.6614L282.81 14.1833C282.651 14.2575 282.478 14.2966 282.303 14.298ZM357.356 13.7787C357.156 13.78 356.958 13.732 356.781 13.639C355.266 12.84 353.703 12.0762 352.142 11.3682C351.99 11.3057 351.852 11.2133 351.737 11.0966C351.622 10.9799 351.531 10.8412 351.471 10.6887C351.411 10.5363 351.381 10.3732 351.385 10.2093C351.389 10.0454 351.426 9.88396 351.494 9.73462C351.561 9.58527 351.658 9.45107 351.779 9.34002C351.9 9.22898 352.042 9.14335 352.196 9.08826C352.351 9.03316 352.515 9.00971 352.678 9.01932C352.842 9.02893 353.002 9.07139 353.149 9.14417C354.756 9.8711 356.361 10.6556 357.92 11.4771C358.162 11.6033 358.356 11.8073 358.469 12.0564C358.582 12.3055 358.608 12.5853 358.543 12.851C358.478 13.1166 358.326 13.3528 358.111 13.5216C357.895 13.6904 357.63 13.7822 357.356 13.7822L357.356 13.7787ZM204.266 12.4929C203.942 12.5127 203.623 12.403 203.38 12.1879C203.137 11.9729 202.989 11.6701 202.969 11.3462C202.949 11.0224 203.059 10.7039 203.274 10.461C203.489 10.218 203.792 10.0704 204.116 10.0507C205.936 9.84526 207.772 9.82679 209.596 9.99556C209.756 10.0099 209.912 10.0555 210.054 10.1299C210.196 10.2042 210.322 10.3059 210.425 10.429C210.528 10.5521 210.606 10.6943 210.654 10.8474C210.702 11.0005 210.719 11.1616 210.705 11.3214C210.691 11.4812 210.645 11.6366 210.571 11.7788C210.497 11.921 210.395 12.0471 210.272 12.15C210.149 12.2529 210.007 12.3306 209.853 12.3785C209.7 12.4265 209.539 12.4438 209.379 12.4295C207.723 12.2755 206.056 12.2912 204.404 12.4764C204.358 12.4845 204.312 12.4901 204.266 12.4929ZM291.801 9.88073C291.518 9.88735 291.242 9.79575 291.019 9.62156C290.797 9.44736 290.641 9.20134 290.579 8.92544C290.518 8.64954 290.554 8.36083 290.681 8.10854C290.809 7.85625 291.02 7.65598 291.279 7.54188L292.917 6.78528C293.961 6.30094 295.06 5.84071 296.154 5.42064C296.456 5.30453 296.793 5.31333 297.089 5.44511C297.385 5.57688 297.617 5.82083 297.733 6.1233C297.849 6.42577 297.841 6.76197 297.709 7.05795C297.577 7.35393 297.333 7.58544 297.031 7.70155C295.985 8.10213 294.941 8.5411 293.941 9.00423L292.305 9.75908C292.147 9.83313 291.975 9.87224 291.801 9.87375L291.801 9.88073ZM347.819 9.46541C347.668 9.46574 347.517 9.43824 347.375 9.38427C345.77 8.76902 344.131 8.19586 342.499 7.67849C342.345 7.63035 342.203 7.55243 342.08 7.44919C341.957 7.34596 341.855 7.21943 341.781 7.07688C341.706 6.93432 341.661 6.77852 341.647 6.61842C341.633 6.45832 341.651 6.29706 341.7 6.14387C341.748 5.99068 341.826 5.84859 341.93 5.72572C342.034 5.60285 342.16 5.50163 342.303 5.42785C342.446 5.35407 342.602 5.30918 342.762 5.29576C342.922 5.28234 343.084 5.30065 343.237 5.34964C344.914 5.8807 346.601 6.47103 348.25 7.10347C348.516 7.20554 348.738 7.39727 348.877 7.64555C349.017 7.89382 349.065 8.18302 349.014 8.46317C348.963 8.74331 348.816 8.99679 348.598 9.1798C348.379 9.3628 348.104 9.46383 347.819 9.46541ZM337.837 6.30127C337.734 6.30201 337.632 6.28972 337.532 6.26469C335.86 5.84703 334.162 5.47664 332.488 5.1672C332.33 5.138 332.179 5.07793 332.044 4.99042C331.909 4.90291 331.792 4.78967 331.701 4.65717C331.609 4.52467 331.545 4.3755 331.512 4.21818C331.478 4.06086 331.476 3.89847 331.505 3.74028C331.534 3.5821 331.594 3.43121 331.682 3.29624C331.769 3.16127 331.882 3.04486 332.015 2.95365C332.147 2.86244 332.297 2.79823 332.454 2.76467C332.611 2.73111 332.774 2.72887 332.932 2.75807C334.656 3.07595 336.404 3.4565 338.124 3.88783C338.413 3.96007 338.665 4.13499 338.834 4.37982C339.003 4.62465 339.077 4.92257 339.041 5.21776C339.006 5.51295 338.864 5.78513 338.643 5.98331C338.421 6.18149 338.135 6.29206 337.837 6.29429L337.837 6.30127ZM301.571 6.14247C301.274 6.1435 300.988 6.037 300.764 5.84278C300.541 5.64855 300.395 5.37982 300.355 5.08654C300.315 4.79326 300.383 4.49538 300.546 4.24828C300.709 4.00118 300.956 3.82168 301.241 3.74315C302.932 3.27243 304.684 2.86767 306.449 2.53961C306.766 2.48319 307.094 2.55456 307.359 2.73815C307.624 2.92174 307.806 3.20267 307.865 3.51968C307.924 3.83669 307.855 4.16408 307.673 4.43046C307.491 4.69685 307.212 4.88063 306.895 4.94173C305.202 5.2554 303.521 5.64578 301.9 6.09689C301.793 6.12704 301.682 6.14238 301.571 6.14247ZM327.541 4.4042C327.49 4.40449 327.439 4.40129 327.389 4.39463C325.675 4.19362 323.947 4.04853 322.253 3.96606C322.092 3.95819 321.935 3.91879 321.79 3.85011C321.644 3.78143 321.514 3.68481 321.406 3.56578C321.298 3.44674 321.215 3.30762 321.16 3.15636C321.106 3.00509 321.082 2.84465 321.09 2.68418C321.098 2.52372 321.137 2.36637 321.206 2.22113C321.275 2.0759 321.371 1.94561 321.49 1.83771C321.609 1.72981 321.748 1.64641 321.9 1.59228C322.051 1.53814 322.212 1.51433 322.372 1.52221C324.119 1.60785 325.906 1.75608 327.675 1.96549C328 1.98347 328.304 2.12946 328.52 2.37134C328.737 2.61322 328.848 2.93118 328.831 3.25527C328.813 3.57935 328.667 3.88302 328.425 4.09947C328.183 4.31592 327.865 4.42742 327.541 4.40944L327.541 4.4042ZM311.854 4.22306C311.694 4.23146 311.533 4.20819 311.382 4.15458C311.23 4.10096 311.091 4.01806 310.971 3.9106C310.852 3.80314 310.755 3.67323 310.686 3.52828C310.617 3.38333 310.577 3.22618 310.568 3.06581C310.56 2.90544 310.583 2.74499 310.637 2.59362C310.69 2.44224 310.773 2.30291 310.88 2.18357C310.988 2.06423 311.118 1.96723 311.263 1.8981C311.408 1.82897 311.565 1.78907 311.726 1.78067C313.467 1.60981 315.257 1.498 317.047 1.456C317.371 1.44853 317.685 1.57004 317.919 1.79382C318.154 2.01759 318.29 2.32529 318.297 2.64923C318.305 2.97317 318.183 3.28681 317.96 3.52115C317.736 3.75549 317.428 3.89134 317.104 3.89881C315.379 3.93869 313.651 4.04664 311.973 4.21712C311.933 4.22085 311.894 4.22282 311.854 4.22306Z" fill="white"/>
<path d="M388.93 33.2631L385.013 39.7632L419.224 62.7919L388.93 33.2631Z" fill="#BDCDFF"/>
<path d="M381.547 47.5576L383.657 54.9756L417.702 61.73L381.547 47.5576Z" fill="#BDCDFF"/>
<path d="M419.226 62.794L361.653 43.5607L381.48 36.4581L419.226 62.794Z" fill="white"/>
<path d="M388.933 33.264L419.226 62.7919L401.387 27.921L388.933 33.264Z" fill="white"/>
</g>
<defs>
<filter id="filter0_d" x="0" y="235" width="173" height="141" filterUnits="userSpaceOnUse" color-interpolation-filters="sRGB">
<feFlood flood-opacity="0" result="BackgroundImageFix"/>
<feColorMatrix in="SourceAlpha" type="matrix" values="0 0 0 0 0 0 0 0 0 0 0 0 0 0 0 0 0 0 127 0"/>
<feOffset dy="4"/>
<feGaussianBlur stdDeviation="2.5"/>
<feColorMatrix type="matrix" values="0 0 0 0 0 0 0 0 0 0 0 0 0 0 0 0 0 0 0.17 0"/>
<feBlend mode="normal" in2="BackgroundImageFix" result="effect1_dropShadow"/>
<feBlend mode="normal" in="SourceGraphic" in2="effect1_dropShadow" result="shape"/>
</filter>
<filter id="filter1_d" x="369" y="240" width="218.186" height="143.072" filterUnits="userSpaceOnUse" color-interpolation-filters="sRGB">
<feFlood flood-opacity="0" result="BackgroundImageFix"/>
<feColorMatrix in="SourceAlpha" type="matrix" values="0 0 0 0 0 0 0 0 0 0 0 0 0 0 0 0 0 0 127 0"/>
<feOffset dy="4"/>
<feGaussianBlur stdDeviation="2.5"/>
<feColorMatrix type="matrix" values="0 0 0 0 0 0 0 0 0 0 0 0 0 0 0 0 0 0 0.17 0"/>
<feBlend mode="normal" in2="BackgroundImageFix" result="effect1_dropShadow"/>
<feBlend mode="normal" in="SourceGraphic" in2="effect1_dropShadow" result="shape"/>
</filter>
<filter id="filter2_d" x="79" y="245" width="195" height="183" filterUnits="userSpaceOnUse" color-interpolation-filters="sRGB">
<feFlood flood-opacity="0" result="BackgroundImageFix"/>
<feColorMatrix in="SourceAlpha" type="matrix" values="0 0 0 0 0 0 0 0 0 0 0 0 0 0 0 0 0 0 127 0"/>
<feOffset dy="4"/>
<feGaussianBlur stdDeviation="2.5"/>
<feColorMatrix type="matrix" values="0 0 0 0 0 0 0 0 0 0 0 0 0 0 0 0 0 0 0.17 0"/>
<feBlend mode="normal" in2="BackgroundImageFix" result="effect1_dropShadow"/>
<feBlend mode="normal" in="SourceGraphic" in2="effect1_dropShadow" result="shape"/>
</filter>
<filter id="filter3_d" x="221" y="356" width="282.401" height="85.7268" filterUnits="userSpaceOnUse" color-interpolation-filters="sRGB">
<feFlood flood-opacity="0" result="BackgroundImageFix"/>
<feColorMatrix in="SourceAlpha" type="matrix" values="0 0 0 0 0 0 0 0 0 0 0 0 0 0 0 0 0 0 127 0"/>
<feOffset dy="4"/>
<feGaussianBlur stdDeviation="2.5"/>
<feColorMatrix type="matrix" values="0 0 0 0 0 0 0 0 0 0 0 0 0 0 0 0 0 0 0.17 0"/>
<feBlend mode="normal" in2="BackgroundImageFix" result="effect1_dropShadow"/>
<feBlend mode="normal" in="SourceGraphic" in2="effect1_dropShadow" result="shape"/>
</filter>
<clipPath id="clip0">
<rect width="163" height="131" fill="white" transform="matrix(-1 0 0 1 168 236)"/>
</clipPath>
<clipPath id="clip1">
<rect width="185" height="173" fill="white" transform="translate(84 246)"/>
</clipPath>
</defs>
</svg>
