<svg width="47" height="46" viewBox="0 0 47 46" fill="none" xmlns="http://www.w3.org/2000/svg">
<g filter="url(#filter0_d)">
<ellipse cx="25.3889" cy="19.0001" rx="15.7834" ry="16.0001" fill="#F77C00"/>
<rect x="9.60547" y="3" width="31.5667" height="32" rx="4" fill="#F77C00"/>
<path d="M25.3484 19.4568C28.1298 19.4568 30.3921 17.1576 30.3921 14.3299C30.3921 11.5025 28.1298 9.20337 25.3484 9.20337C22.5669 9.20337 20.3047 11.5025 20.3047 14.3299C20.3047 17.1576 22.5669 19.4568 25.3484 19.4568ZM25.3484 11.7665C26.7392 11.7665 27.8701 12.9163 27.8701 14.3299C27.8701 15.7436 26.7392 16.8935 25.3484 16.8935C23.9576 16.8935 22.8264 15.7436 22.8264 14.3299C22.8264 12.9163 23.9576 11.7665 25.3484 11.7665Z" fill="white"/>
<path d="M32.0355 19.3145C31.5424 18.8132 30.7454 18.8132 30.2525 19.3145C27.5491 22.0623 23.1484 22.0623 20.4438 19.3145C19.9509 18.8132 19.1538 18.8132 18.6608 19.3145C18.1678 19.8155 18.1678 20.6257 18.6608 21.1282C20.2293 22.7224 22.2177 23.6313 24.2681 23.8681L20.6732 27.5223C20.1804 28.0235 20.1804 28.8334 20.6732 29.3346C21.1663 29.8359 21.9631 29.8359 22.4562 29.3346L25.3476 26.3958L28.2389 29.3346C28.4849 29.5845 28.8074 29.7104 29.1303 29.7104C29.4532 29.7104 29.7758 29.5845 30.0217 29.3346C30.5147 28.8334 30.5147 28.0235 30.0217 27.5223L26.4268 23.8681C28.4771 23.6313 30.4656 22.7224 32.0341 21.1281C32.5272 20.6267 32.5272 19.8155 32.0355 19.3145Z" fill="white"/>
</g>
<defs>
<filter id="filter0_d" x="-0.380859" y="-1" width="47.5396" height="48" filterUnits="userSpaceOnUse" color-interpolation-filters="sRGB">
<feFlood flood-opacity="0" result="BackgroundImageFix"/>
<feColorMatrix in="SourceAlpha" type="matrix" values="0 0 0 0 0 0 0 0 0 0 0 0 0 0 0 0 0 0 127 0" result="hardAlpha"/>
<feOffset dx="-2" dy="4"/>
<feGaussianBlur stdDeviation="3.5"/>
<feColorMatrix type="matrix" values="0 0 0 0 0.968627 0 0 0 0 0.486275 0 0 0 0 0 0 0 0 0.3 0"/>
<feBlend mode="normal" in2="BackgroundImageFix" result="effect1_dropShadow"/>
<feBlend mode="normal" in="SourceGraphic" in2="effect1_dropShadow" result="shape"/>
</filter>
</defs>
</svg>
