<svg width="30" height="30" viewBox="0 0 30 30" fill="none" xmlns="http://www.w3.org/2000/svg">
<path d="M3.0537 27.9676L8.09437 26.3149C8.27862 26.2544 8.44636 26.1526 8.58111 26.0152L20.3949 14.1326L15.6897 9.42468L3.90616 21.277C3.75216 21.4337 3.64216 21.629 3.58716 21.8435L2.23418 27.2059C2.11321 27.6871 2.5807 28.1244 3.0537 27.9676Z" fill="url(#paint0_linear)"/>
<path d="M27.3471 4.81844L24.9656 2.43698C24.3909 1.86223 23.2249 1.85398 22.6612 2.41498L16.8532 8.25589L21.5612 12.9638L23.3899 11.1241L24.2809 12.0206C24.4954 12.2351 24.4926 12.5843 24.2809 12.7988L22.8371 14.2398L21.6684 15.4058L16.7762 20.2842C16.3473 20.7132 16.3445 21.4089 16.7735 21.8407C16.988 22.0551 17.2712 22.1624 17.5517 22.1624C17.8322 22.1624 18.1127 22.0551 18.33 21.8407L25.8346 14.3525C26.9071 13.2828 26.9098 11.5393 25.8401 10.4668L24.9409 9.56209L27.3663 7.12288C27.9301 6.55919 27.9218 5.39321 27.3471 4.81844Z" fill="url(#paint1_linear)"/>
<defs>
<linearGradient id="paint0_linear" x1="2.21484" y1="24.1302" x2="22.1806" y2="24.1595" gradientUnits="userSpaceOnUse">
<stop stop-color="#00B191"/>
<stop offset="1" stop-color="#00CABE"/>
</linearGradient>
<linearGradient id="paint1_linear" x1="16.4531" y1="17.9619" x2="28.8967" y2="17.9724" gradientUnits="userSpaceOnUse">
<stop stop-color="#00B191"/>
<stop offset="1" stop-color="#00CABE"/>
</linearGradient>
</defs>
</svg>
