<svg width="23" height="22" viewBox="0 0 23 22" fill="none" xmlns="http://www.w3.org/2000/svg">
<path d="M20.3391 15.4462L17.7493 12.8146C17.2335 12.2925 16.3792 12.3084 15.8454 12.851L14.5406 14.1764C14.4582 14.1302 14.3729 14.082 14.2832 14.0308C13.4592 13.567 12.3315 12.9312 11.1448 11.7246C9.95463 10.5155 9.32831 9.36795 8.87037 8.53026C8.82205 8.44151 8.77575 8.35595 8.73003 8.27469L9.60572 7.38629L10.0362 6.94833C10.5709 6.40498 10.5856 5.53728 10.071 5.01375L7.48114 2.38183C6.9665 1.85904 6.11187 1.8749 5.57723 2.41825L4.84733 3.16411L4.86727 3.18423C4.62253 3.50153 4.41801 3.86748 4.26581 4.26212C4.12552 4.63777 4.03817 4.99623 3.99823 5.35543C3.65626 8.23587 4.95178 10.8684 8.46765 14.4406C13.3276 19.3782 17.2442 19.0052 17.4131 18.987C17.7811 18.9423 18.1338 18.8529 18.4922 18.7115C18.8772 18.5587 19.2372 18.3512 19.5493 18.1031L19.5652 18.1175L20.3047 17.3818C20.8382 16.8385 20.8535 15.9705 20.3391 15.4462Z" fill="url(#paint0_linear)"/>
<defs>
<linearGradient id="paint0_linear" x1="3.94531" y1="15.4583" x2="22.3623" y2="15.4856" gradientUnits="userSpaceOnUse">
<stop stop-color="#00B191"/>
<stop offset="1" stop-color="#00CABE"/>
</linearGradient>
</defs>
</svg>
