<svg width="22" height="22" viewBox="0 0 22 22" fill="none" xmlns="http://www.w3.org/2000/svg">
<path d="M11.5147 1H11.4852C7.90919 1 5 3.66852 5 6.94853C5 9.09857 6.06711 11.9361 8.17169 15.3824C9.73201 17.9374 11.3142 19.8943 11.3301 19.9137C11.3741 19.968 11.4435 20 11.5171 20C11.5192 20 11.5213 20 11.5234 19.9999C11.5993 19.998 11.6693 19.9624 11.7114 19.9043C11.727 19.8826 13.2979 17.7059 14.8477 15.0435C16.9394 11.45 18 8.72638 18 6.94853C17.9999 3.66848 15.0906 1 11.5147 1ZM14.5082 7.0939C14.5082 8.61599 13.1587 9.85421 11.4999 9.85421C9.84114 9.85421 8.49165 8.61594 8.49165 7.0939C8.49165 5.57185 9.84114 4.33358 11.4999 4.33358C13.1587 4.33358 14.5082 5.57185 14.5082 7.0939Z" fill="#6A6A6A"/>
</svg>
