<svg width="15" height="15" viewBox="0 0 15 15" fill="none" xmlns="http://www.w3.org/2000/svg">
<path d="M10.0165 1.71617C7.7283 -0.572058 4.00403 -0.572058 1.7158 1.71617C-0.571934 4.0049 -0.571934 7.72867 1.7158 10.0174C3.75353 12.0546 6.9272 12.2729 9.21394 10.6821C9.26206 10.9098 9.37218 11.127 9.54927 11.3041L12.8817 14.6365C13.3673 15.1212 14.152 15.1212 14.6352 14.6365C15.1203 14.1514 15.1203 13.3667 14.6352 12.883L11.3028 9.54964C11.1267 9.37404 10.9089 9.26342 10.6812 9.21531C12.273 6.92807 12.0548 3.7549 10.0165 1.71617ZM8.96443 8.9653C7.25607 10.6737 4.47577 10.6737 2.7679 8.9653C1.06053 7.25694 1.06053 4.47713 2.7679 2.76877C4.47577 1.06091 7.25607 1.06091 8.96443 2.76877C10.6728 4.47713 10.6728 7.25694 8.96443 8.9653Z" fill="#39424A"/>
</svg>
