<svg width="18" height="18" viewBox="0 0 18 18" fill="none" xmlns="http://www.w3.org/2000/svg">
<g clip-path="url(#clip0)">
<path d="M5.60621 6.46754V16.8016C5.60621 17.071 5.7045 17.3041 5.9015 17.5009C6.09503 17.6944 6.32404 17.7918 6.58791 17.7949C6.85161 17.7918 7.08079 17.6944 7.27452 17.5009C7.47132 17.3041 7.56958 17.071 7.56958 16.8016V6.46754C7.86487 6.36414 8.97176 5.37758 8.97176 5.06126V0.904898C8.97176 0.770514 8.92241 0.653857 8.82412 0.55536C8.72562 0.457063 8.60896 0.407715 8.47458 0.407715C8.3398 0.407715 8.22334 0.457063 8.12504 0.55536C8.02655 0.654057 7.9774 0.770514 7.9774 0.904898V4.1367C7.9774 4.27149 7.92805 4.38794 7.82975 4.48624C7.73125 4.58474 7.6148 4.63368 7.48021 4.63368C7.34543 4.63368 7.22897 4.58474 7.13068 4.48624C7.03238 4.38794 6.98303 4.27129 6.98303 4.1367V0.904898C6.98303 0.770514 6.93368 0.653857 6.83539 0.55536C6.73709 0.457063 6.62047 0.407715 6.48588 0.407715C6.3511 0.407715 6.23464 0.457063 6.13634 0.55536C6.03785 0.654057 5.9887 0.770514 5.9887 0.904898V4.1367C5.9887 4.27149 5.93935 4.38794 5.84105 4.48624C5.74256 4.58474 5.6261 4.63368 5.49152 4.63368C5.35673 4.63368 5.24028 4.58474 5.14198 4.48624C5.04348 4.38794 4.99433 4.27129 4.99433 4.1367V0.904898C4.99433 0.770514 4.94518 0.653857 4.84669 0.55536C4.74839 0.457063 4.63177 0.407715 4.49715 0.407715C4.36237 0.407715 4.24591 0.457063 4.14765 0.55536C4.04935 0.654057 4 0.770514 4 0.904898V5.06109C4.0001 5.37734 5.31092 6.36394 5.60621 6.46754Z" fill="white"/>
<path d="M6.60146 17.7962C6.59717 17.7962 6.5931 17.7949 6.5888 17.7949C6.58454 17.7949 6.58064 17.7962 6.57617 17.7962H6.60146Z" fill="white"/>
<path d="M12.9491 18C12.9448 18 12.9408 17.9988 12.9365 17.9988C12.9322 17.9988 12.9281 18 12.9238 18H12.9491Z" fill="white"/>
<path d="M10.8265 8.94962H11.955V17.0057C11.955 17.275 12.0533 17.5082 12.2501 17.7049C12.4437 17.8984 12.6728 17.9959 12.9367 17.999C13.2003 17.9959 13.4295 17.8984 13.6232 17.7049C13.82 17.5082 13.9185 17.275 13.9185 17.0057V0.497183C13.9185 0.362799 13.8692 0.246142 13.7709 0.147645C13.6724 0.0493484 13.556 0 13.4214 0H13.0641C12.3804 0 11.7951 0.24351 11.3083 0.730263C10.8216 1.21722 10.5781 1.8025 10.5781 2.48605V8.70108C10.5781 8.76839 10.6028 8.8267 10.6519 8.87585C10.7008 8.92497 10.7592 8.94962 10.8265 8.94962Z" fill="white"/>
</g>
<defs>
<clipPath id="clip0">
<rect width="18" height="18" fill="white"/>
</clipPath>
</defs>
</svg>
