<svg width="46" height="46" viewBox="0 0 46 46" fill="none" xmlns="http://www.w3.org/2000/svg">
<g filter="url(#filter0_d)">
<mask id="mask0" mask-type="alpha" maskUnits="userSpaceOnUse" x="9" y="3" width="32" height="32">
<rect x="9" y="3" width="32" height="32" rx="4" fill="white"/>
</mask>
<g mask="url(#mask0)">
<circle cx="25" cy="19" r="15" fill="white"/>
<path d="M39.2979 3H10.7021C9.76187 3 9 3.76221 9 4.70213V33.2979C9 34.2378 9.76187 35 10.7021 35H39.2979C40.2381 35 41 34.2378 41 33.2979V4.70213C41 3.76221 40.2381 3 39.2979 3ZM34.4873 21.0231C35.3595 21.8742 36.2817 22.6756 37.065 23.6162C37.4116 24.0315 37.7384 24.4604 37.9872 24.9435C38.3416 25.6325 38.0216 26.3893 37.4041 26.4298L33.5723 26.4288C32.583 26.5101 31.7952 26.1118 31.1307 25.4354C30.6014 24.8958 30.1091 24.3198 29.5988 23.7626C29.3908 23.5334 29.1702 23.318 28.9094 23.1477C28.3872 22.8087 27.9334 22.9122 27.6335 23.4572C27.3285 24.0121 27.258 24.6276 27.2301 25.2461C27.1876 26.15 26.9152 26.3859 26.0087 26.4277C24.0717 26.519 22.233 26.2249 20.5251 25.2489C19.0174 24.3876 17.8514 23.1709 16.8356 21.7949C14.8557 19.1113 13.3394 16.1656 11.9777 13.1355C11.671 12.4529 11.8953 12.0877 12.6473 12.0737C13.8987 12.0489 15.1498 12.0523 16.3995 12.0723C16.9088 12.0802 17.2454 12.3716 17.4405 12.8516C18.1163 14.5146 18.9455 16.0969 19.9838 17.5641C20.2606 17.9546 20.5431 18.3443 20.9449 18.6204C21.3888 18.9254 21.7271 18.825 21.9365 18.3297C22.0703 18.0138 22.1282 17.6781 22.1568 17.3404C22.2562 16.1843 22.2681 15.0283 22.0965 13.8766C21.9893 13.1563 21.5835 12.6909 20.8652 12.5547C20.4996 12.4853 20.553 12.3498 20.7307 12.1411C21.0392 11.7796 21.3299 11.5563 21.9072 11.5563L25.2691 11.5557C25.9134 11.5556 26.7419 11.4804 27.0137 12.0646C27.0884 12.2253 27.131 12.4278 27.1654 12.6827L27.1695 17.494C27.1624 17.7602 27.3026 18.5486 27.7806 18.7229C28.1629 18.8492 28.4165 18.5425 28.6453 18.2994C29.6829 17.1981 30.4223 15.8974 31.0851 14.5517C31.3769 13.9583 31.6298 13.3435 31.8749 12.7283C32.0563 12.2732 32.3403 12.0492 32.8536 12.0574L37.0225 12.0618C37.145 12.0618 37.2706 12.0631 37.3922 12.0832C38.0941 12.2041 38.2865 12.5064 38.0696 13.192C37.7278 14.2688 37.0623 15.1661 36.4114 16.0655C35.7159 17.0272 34.9734 17.9573 34.2831 18.9237C33.6506 19.8102 33.7016 20.2555 34.4873 21.0231Z" fill="#4A76A8"/>
</g>
</g>
<defs>
<filter id="filter0_d" x="-1" y="-1" width="47.5396" height="48" filterUnits="userSpaceOnUse" color-interpolation-filters="sRGB">
<feFlood flood-opacity="0" result="BackgroundImageFix"/>
<feColorMatrix in="SourceAlpha" type="matrix" values="0 0 0 0 0 0 0 0 0 0 0 0 0 0 0 0 0 0 127 0" result="hardAlpha"/>
<feOffset dx="-2" dy="4"/>
<feGaussianBlur stdDeviation="3.5"/>
<feColorMatrix type="matrix" values="0 0 0 0 0.290196 0 0 0 0 0.462745 0 0 0 0 0.658824 0 0 0 0.3 0"/>
<feBlend mode="normal" in2="BackgroundImageFix" result="effect1_dropShadow"/>
<feBlend mode="normal" in="SourceGraphic" in2="effect1_dropShadow" result="shape"/>
</filter>
</defs>
</svg>
