<svg width="70" height="70" viewBox="0 0 70 70" fill="none" xmlns="http://www.w3.org/2000/svg">
<path d="M19.4998 22C17.4998 20 8.99993 19.5001 6.24991 19.25C5.99995 19.25 5.74988 19.25 5.49992 19.5C5.24996 19.75 5 20.2501 5 20.5V42.9999C5 43.7499 5.50004 44.2499 6.25003 44.2499H13.75C14.25 44.2499 14.7499 43.9999 15 43.4999C15 42.7499 19.5 29.5 20 23.0001C19.9999 22.75 19.9999 22.2501 19.4998 22Z" fill="#39424A"/>
<path d="M47.2283 28.3182C44.5011 27.5 42.0466 26.4092 39.8647 25.591C34.9556 23.4091 32.364 24.5114 28.0004 28.875C26.0914 30.784 24.9028 33.2215 25.3751 34.5625C25.3751 34.5625 25.6212 35.1859 26.2503 35.4375C27.614 35.983 29.2284 35.9547 31.1374 32.9546C31.4101 32.6819 31.6829 32.4091 32.2283 32.4091C33.0464 32.4091 33.3191 32.1364 34.1373 31.8636C34.6828 31.5909 35.2282 31.3181 36.0464 31.0455C36.319 31.0455 36.319 31.0455 36.5919 31.0455C36.8645 31.0455 37.41 31.3181 37.6827 31.3181C39.0465 32.6819 41.5011 34.591 43.9556 36.7728C47.7738 39.7729 51.5919 43.0456 53.5011 45.5001H53.7738C51.8647 40.0456 48.592 30.7728 47.2283 28.3182Z" fill="#39424A"/>
<path d="M63.7499 21.7502C54 21.7502 48.5001 24.2502 48.25 24.2502C48 24.5001 47.75 24.7502 47.5 25.0002C47.5 25.2501 47.5 25.7502 47.75 26.0001C49.25 28.5001 54.2499 42.25 54.9999 45.7499C55.2499 46.25 55.7499 46.7499 56.25 46.7499H63.7499C64.4999 46.7499 64.9999 46.2499 64.9999 45.4999V23C64.9999 22.2503 64.4999 21.7502 63.7499 21.7502Z" fill="#39424A"/>
<path d="M50.2496 46.2497C49.2497 43.9997 44.9997 40.7498 41.2497 37.7498C39.2498 35.9998 36.9372 34.5 35.4372 33.25C34.5622 33.6875 34.3746 34.0002 32.8122 34.125C30.8123 36.6249 28.4998 37.7497 25.7499 36.7498C24.4997 36.3125 23.7495 35.0627 23.6247 34.5625C22.7497 32.375 25.2499 28.4998 26.9999 26.7499H21.9999C21 31.7499 19.2499 38.2498 18 41.7498C19 42.7497 20 43.9997 20.75 44.4998C25.4999 48.4997 31 52.4998 31.9999 53.2498C32.7499 53.7498 34.1247 54.6875 34.9999 54.2497C35.3655 54.2497 35.4327 53.3705 35.1741 53.112L32.3747 50.3125C31.8747 49.8125 31.4997 49 31.7499 48.4997C32.2499 47.9998 32.9999 47.9997 33.4998 48.4997L38.4998 53.4997C38.9998 53.9997 39.9998 53.7497 39.9998 53.7497C41.1879 53.3537 40.6904 51.6903 39.8048 50.8047L35.4998 46.4997C34.9998 45.9997 34.9998 45.2497 35.4998 44.7497C35.8747 44.375 36.6873 44.5625 37.1872 45.0625L43.3122 50.75C43.5622 51 44.6247 51.625 45.4997 50.9997C46.1021 50.3973 46.0934 49.5934 45.491 48.991L39.4998 42.9997C38.9997 42.4996 38.9997 41.7496 39.4998 41.2497C39.8759 40.8737 40.6248 41.0625 41.1247 41.5625L48.4997 48.4997C48.9997 48.7497 49.4996 48.4997 49.9997 48.2498C50.2496 47.9997 50.7497 47.2497 50.2496 46.2497Z" fill="#39424A"/>
</svg>
