<svg width="70" height="70" viewBox="0 0 70 70" fill="none" xmlns="http://www.w3.org/2000/svg">
<path d="M46.2851 32.6026C45.9159 33.17 45.7188 33.8399 45.7188 34.5167C45.7188 35.6412 46.2718 36.7166 47.1844 37.3729C48.11 38.0383 49.3336 38.2118 50.408 37.8311C51.4525 37.4608 52.2806 36.5931 52.6002 35.532C52.9288 34.441 52.6985 33.2297 51.9913 32.3365C51.2902 31.4514 50.1859 30.9505 49.0584 31.006C47.9401 31.0607 46.8953 31.6641 46.2851 32.6026Z" fill="#39424A"/>
<path d="M54.9484 46.5666C54.9553 46.7583 54.9438 46.3746 54.9484 46.5666V46.5666Z" fill="#39424A"/>
<path d="M22.3013 19.7869C23.1366 20.2363 24.0788 20.4712 25.027 20.4712C27.2802 20.4712 29.3746 19.1104 30.2915 17.0519C31.2203 14.9667 30.7998 12.4614 29.247 10.7909C27.6952 9.12118 25.2346 8.51788 23.0868 9.28616C20.9747 10.0416 19.4588 12.0214 19.2846 14.2578C19.1088 16.5149 20.3073 18.7137 22.3013 19.7869Z" fill="#39424A"/>
<path d="M33.2823 15.7331C34.3822 16.7255 35.831 17.2819 37.3123 17.2819C39.5628 17.2819 41.6711 15.983 42.6857 13.9742C43.7145 11.938 43.4789 9.42272 42.0933 7.61173C40.7124 5.80694 38.3758 4.92252 36.1452 5.36084C33.956 5.79102 32.1404 7.46145 31.5265 9.60604C30.9001 11.7958 31.5922 14.2077 33.2823 15.7331Z" fill="#39424A"/>
<path d="M53.7561 47.5988C53.8147 48.145 54.3068 48.5597 54.8545 48.528C55.3955 48.4967 55.8318 48.0368 55.8363 47.4953C55.8389 47.1847 55.8346 46.8767 55.8237 46.5663C55.8071 45.8397 55.6601 45.0865 55.4483 44.3926C55.2658 43.7944 55.031 43.2125 54.7325 42.6626C54.0029 41.3189 52.9605 40.1511 51.7086 39.2726C51.4161 39.0675 51.1061 38.8531 50.7713 38.7233C49.8211 38.258 48.6814 38.2526 47.7265 38.7081C47.4704 38.7983 47.2344 38.9494 47.0076 39.0959C46.7252 39.2781 46.4547 39.4782 46.1937 39.69C45.5868 40.1824 45.0364 40.7472 44.5607 41.3672C43.7274 42.4531 43.1113 43.7271 42.8324 45.0705C42.6656 45.8756 42.6115 46.6751 42.6177 47.4955C42.6217 48.0447 43.0704 48.5065 43.6185 48.5292C44.1599 48.5518 44.6396 48.1373 44.6981 47.599C44.8208 46.4417 45.0967 45.3025 45.7312 44.31V45.4371L43.4095 54.8147C43.3053 55.2192 43.2368 55.6373 44.0257 55.6373H45.9543L46.3121 63.4672C46.3434 64.1082 46.8889 64.6305 47.5312 64.6298C48.1685 64.6291 48.7093 64.1146 48.7442 63.4785L49.1777 55.6372H49.3077L49.6653 63.4671C49.6967 64.1081 50.2421 64.6303 50.8844 64.6297C51.5217 64.6289 52.0627 64.1145 52.0978 63.4784L52.5309 55.6371H54.4177C54.6241 55.6371 54.8182 55.5457 54.9497 55.3866C55.0814 55.2271 55.1345 55.0195 55.0941 54.8124L52.7353 45.3998V44.3299C53.3758 45.299 53.6359 46.4625 53.7561 47.5988Z" fill="#39424A"/>
<path d="M41.8275 55.2628L42.6283 51.796L42.7372 49.6448C41.7383 49.3934 41.0134 48.4977 41.006 47.4418C40.9975 46.4746 41.0693 45.5279 41.2882 44.5841C41.5072 43.6403 41.8591 42.7458 42.3199 41.8955C42.593 41.3918 42.9179 40.913 43.2706 40.4625C43.3139 40.0694 43.3067 39.6751 43.3067 39.2803C43.3067 38.7267 43.3067 38.1729 43.3067 37.6192C43.3067 36.0253 43.3067 34.4313 43.3067 32.8374C43.3067 31.696 43.3067 30.5548 43.3067 29.4134C43.3067 29.3537 43.3067 29.294 43.3067 29.2342C43.8155 30.3313 44.1718 31.4799 44.4613 32.6521C45.0875 31.1257 46.1611 29.4134 48.3486 29.4134C47.9111 28.4373 47.326 26.933 46.8125 25.8123C46.1567 24.3819 45.5285 23.4623 44.5352 22.2383C43.8867 21.4388 43.1614 20.7045 42.3758 20.0399C41.9924 19.7213 41.5937 19.4191 41.177 19.1452C40.8268 18.9151 40.4507 18.7112 40.0711 18.5308C36.1237 16.6551 32.9898 19.7023 32.9121 19.7711C32.0698 20.5193 31.4674 20.6888 30.625 21.4373C32.8476 23.0039 34.4449 25.6627 35.7329 28.0552C36.5574 29.5867 37.1293 31.2724 37.4126 32.9878C37.6053 34.1539 37.6593 35.3193 37.6496 36.5004C37.6361 38.1077 36.2744 39.4484 34.6664 39.4346C34.4224 39.4325 34.1852 39.4012 33.9581 39.3431C33.9581 39.3431 36.1728 47.4217 36.2983 47.9376C36.4679 48.6362 36.5261 50.0885 34.9088 50.0885C33.1017 50.0885 32.2239 50.0885 32.2239 50.0885L32.0185 53.7152L32.3882 62.5706C32.4377 63.6689 33.3698 64.5667 34.4703 64.5676C35.5661 64.5685 36.4965 63.6823 36.5517 62.5886L37.3008 47.7528L37.9199 62.5705C37.9695 63.6688 38.9018 64.5667 40.0021 64.5675C41.098 64.5683 42.0282 63.6822 42.0835 62.5883L42.4092 56.1442C41.5604 56.0773 41.8275 55.2628 41.8275 55.2628Z" fill="#39424A"/>
<path d="M33.5533 48.5766C33.8627 48.5766 34.1534 48.4397 34.3506 48.2009C34.5479 47.9619 34.6337 47.6894 34.567 47.3406L30.5843 32.8969V30.6101C31.1611 31.5005 31.5689 32.528 31.8432 33.5491C32.0571 34.3449 32.1686 35.1493 32.2558 35.9668C32.3514 36.8579 33.1518 37.5362 34.0455 37.49C34.9363 37.444 35.6574 36.6886 35.6647 35.7971C35.6692 35.248 35.665 34.703 35.638 34.1545C35.6012 33.4013 35.4837 32.6475 35.3306 31.91C35.011 30.3724 34.4418 28.8812 33.6591 27.5193C32.8759 26.1557 31.8864 24.9139 30.7456 23.8324C30.1975 23.3127 29.6124 22.8302 28.9975 22.3914C28.527 22.0556 28.0346 21.7211 27.5072 21.4812C27.4601 21.4598 27.4125 21.441 27.3643 21.4226C25.8073 20.6607 23.9403 20.6512 22.3762 21.3981C21.8205 21.5936 21.3097 21.9469 20.8294 22.2805C20.2213 22.7027 19.6445 23.1691 19.0987 23.6693C17.9361 24.7346 16.9448 25.9671 16.1306 27.3157C15.723 27.9909 15.3746 28.7075 15.0818 29.4396C14.7952 30.1571 14.5446 30.9111 14.3887 31.6688C14.2329 32.4253 14.1191 33.177 14.0454 33.946C13.9872 34.5527 13.9998 35.1645 14.0043 35.773C14.0046 35.7809 14.0046 35.7892 14.0046 35.7973C14.0113 36.694 14.7409 37.4487 15.6357 37.4906C16.5261 37.5324 17.3177 36.8525 17.4136 35.9667C17.5012 35.1492 17.6127 34.3447 17.8262 33.5492C18.1055 32.5099 18.5262 31.4864 19.106 30.5773V32.723L15.1119 47.3436C15.0522 47.6483 15.1311 47.9602 15.3279 48.1997C15.5251 48.4393 15.8162 48.5768 16.1265 48.5768H19.4509L20.0585 61.9697C20.1097 63.0165 20.9983 63.8714 22.0476 63.8747C23.0951 63.8778 23.9869 63.0339 24.0443 61.9886L24.7795 48.5771H24.9466L25.5539 61.9699C25.6052 63.0168 26.494 63.8716 27.543 63.8749C28.5906 63.8781 29.4825 63.0341 29.54 61.9889L30.2752 48.5773H33.5533V48.5766Z" fill="#39424A"/>
</svg>
