<svg width="71" height="70" viewBox="0 0 71 70" fill="none" xmlns="http://www.w3.org/2000/svg">
<path d="M61.6435 52.7399L45.1767 38.6863C44.8772 38.4365 44.5103 38.3017 44.1379 38.3017C43.6176 38.3017 43.1337 38.7497 42.7585 39.3749C41.446 41.5624 40.571 41.9999 39.0131 43.3563C38.635 43.6232 38.3846 44.0311 38.3262 44.4759C38.2677 44.9211 38.3977 45.3613 38.6927 45.7151L53.2586 61.6874C53.9826 62.5562 55.0337 63.0575 56.1382 63.0575C57.131 63.0575 58.0764 62.6588 58.8008 61.9345L61.8968 58.287C62.6663 57.5173 63.0637 56.5129 63.0159 55.4581C62.9676 54.4028 62.4803 53.4375 61.6435 52.7399Z" fill="#39424A"/>
<path fill-rule="evenodd" clip-rule="evenodd" d="M38.9936 40.2616C35.2166 44.0386 30.1949 46.1187 24.854 46.1187C13.8279 46.1187 4.85742 37.148 4.85742 26.1219C4.85742 15.0957 13.8276 6.125 24.854 6.125C35.8804 6.125 44.8509 15.0957 44.8508 26.1219C44.8508 31.463 42.7708 36.4843 38.9936 40.2616ZM24.9301 42.427C33.8154 42.427 41.0184 35.224 41.0184 26.3386C41.0184 17.4533 33.8154 10.2503 24.9301 10.2503C16.0447 10.2503 8.84176 17.4533 8.84176 26.3386C8.84176 35.224 16.0447 42.427 24.9301 42.427Z" fill="#39424A"/>
<circle cx="25.0664" cy="26.4006" r="15" fill="#39424A"/>
</svg>
