<svg width="70" height="70" viewBox="0 0 70 70" fill="none" xmlns="http://www.w3.org/2000/svg">
<path fill-rule="evenodd" clip-rule="evenodd" d="M34.4826 8.44454C33.6518 8.56364 33.0266 8.93525 30.9194 10.5624C29.8248 11.4077 26.947 13.6307 24.5242 15.5026C17.4503 20.968 13.0488 24.3647 9.37369 27.1945C4.3218 31.0844 4.61136 30.8222 4.42168 31.6793C4.04459 33.3834 6.03369 34.7072 7.45158 33.6958C7.86365 33.4018 13.6734 28.9382 15.0848 27.8311C15.522 27.4881 19.0005 24.8021 22.8147 21.8622C26.6289 18.9223 30.7739 15.7257 32.0257 14.7587C33.2775 13.7918 34.4358 12.9435 34.5997 12.8736C35.2121 12.6126 35.4863 12.7413 37.3202 14.1503C39.0776 15.5007 43.0775 18.5869 44.5687 19.7431C45.0472 20.1141 47.416 21.9421 49.8327 23.8053C53.8918 26.9349 57.0522 29.3752 61.0133 32.4385C61.8747 33.1047 62.7525 33.7409 62.9639 33.8523C63.7277 34.2546 64.6635 34.0515 65.2495 33.3563C65.8157 32.6846 65.8998 31.7241 65.4524 31.0375C65.1836 30.6251 65.1704 30.6145 58.6205 25.5609C53.2381 21.4081 45.0308 15.0691 42.0889 12.7926C36.6881 8.61338 36.9545 8.80458 36.2158 8.57857C35.624 8.39745 35.0959 8.35663 34.4826 8.44454ZM50.2091 11.5253C49.0598 11.7673 48.304 12.8446 48.3708 14.1458L48.397 14.6577L49.7103 15.6756C50.4327 16.2355 51.7975 17.29 52.7433 18.0189C53.6891 18.7478 55.0653 19.8113 55.8016 20.3823C56.5379 20.9532 57.1602 21.4204 57.1844 21.4204C57.2086 21.4204 57.2284 19.6185 57.2284 17.4161C57.2284 13.02 57.2198 12.9364 56.7022 12.2987C56.559 12.1223 56.2174 11.8661 55.9433 11.7294L55.4447 11.4808L53.0085 11.4648C51.6685 11.456 50.4088 11.4832 50.2091 11.5253ZM34.8945 18.1924C34.7421 18.2597 33.2605 19.3615 31.6021 20.6407C29.9437 21.92 27.8171 23.5587 26.8763 24.2823C25.9355 25.006 24.6763 25.9777 24.0781 26.4418C23.4799 26.9059 20.8122 28.9678 18.1496 31.0237C14.2713 34.0186 13.2765 34.8278 13.1466 35.0931C12.9916 35.41 12.9836 35.8906 12.9617 46.1889C12.9479 52.7171 12.9705 56.9419 13.0191 56.9238C13.1692 56.8679 16.6348 53.6309 18.118 52.161C20.3315 49.9675 21.1325 49.2015 22.4191 48.0472C23.0619 47.4704 24.429 46.2326 25.4569 45.2965C27.9805 42.9984 28.2457 42.8281 28.8614 43.11C29.0456 43.1944 29.2373 43.249 29.2872 43.2313C29.3371 43.2138 30.3977 42.1921 31.6441 40.9611L33.9101 38.7229V38.2759C33.9101 37.8761 33.9502 37.7812 34.2895 37.3776C34.8065 36.7628 35.4716 35.7034 35.7101 35.1151C36.1667 33.9891 35.8344 32.9436 34.6194 31.683C34.0597 31.1023 33.8064 30.9156 33.123 30.5798C32.6706 30.3575 31.9676 30.0788 31.5609 29.9605C30.7885 29.7358 29.3491 29.4605 28.9472 29.4605C28.7355 29.4605 28.6834 29.3875 28.3957 28.6874C28.221 28.2623 28.0785 27.8863 28.0792 27.852C28.0815 27.7431 29.4567 27.3431 30.3292 27.1975C31.362 27.0252 33.6144 27.0784 34.6062 27.2985C36.5494 27.7298 38.6649 28.6923 40.7443 30.0913C42.6237 31.3558 44.2051 32.8026 45.173 34.1432C45.8957 35.1443 45.9191 35.2207 45.8955 36.5022C45.8762 37.5536 45.8901 37.6642 46.0918 38.0748C46.4767 38.8581 47.2597 39.2093 48.0908 38.9712L48.571 38.8335L49.8707 40.1498C51.3864 41.6848 51.3378 41.3704 50.303 42.9526C49.1227 44.7574 48.0398 45.6623 46.8003 45.8799L46.3345 45.9616L45.1906 44.9038L44.0466 43.8459L44.0381 42.9894C44.0268 41.8711 43.96 41.5451 43.6844 41.2652C43.3533 40.929 42.4623 40.6786 41.3863 40.619C39.6802 40.5247 38.5698 40.8196 37.3376 41.6942C36.7079 42.1412 36.6464 42.1571 36.3521 41.9477C36.145 41.8005 36.1448 41.8006 33.9442 44.0902C32.7337 45.3497 31.7414 46.4248 31.7392 46.4797C31.7368 46.5345 31.7936 46.6288 31.8654 46.6893C31.9396 46.7518 31.9959 46.9444 31.9959 47.1361C31.9959 47.4141 31.9072 47.5856 31.4872 48.1192C30.0688 49.9213 27.584 52.6531 25.153 55.0828C23.1332 57.1016 20.3279 59.7191 19.4075 60.4436C19.129 60.6628 18.8842 60.8589 18.8636 60.8794C18.8429 60.8999 26.5366 60.9061 35.9608 60.8933C52.4116 60.8708 53.1146 60.8633 53.574 60.7053C54.7338 60.3064 55.6332 59.7247 56.3567 58.9056C56.8526 58.344 57.4895 57.0965 57.6768 56.3197C57.7716 55.9266 57.794 53.8831 57.794 45.629C57.794 35.8094 57.7878 35.4117 57.6299 35.0891C57.5019 34.8272 56.9113 34.3256 54.9327 32.7975C53.5394 31.7215 52.0862 30.5973 51.7034 30.2993C51.3205 30.0012 49.7739 28.8083 48.2665 27.6482C46.7591 26.4883 45.2908 25.3552 45.0037 25.1305C41.2908 22.224 36.3066 18.4204 36.0054 18.2634C35.5669 18.0349 35.2909 18.0174 34.8945 18.1924Z" fill="#39424A"/>
</svg>
