<svg width="70" height="70" viewBox="0 0 70 70" fill="none" xmlns="http://www.w3.org/2000/svg">
<path d="M64.5526 25.8263C65.6572 25.8263 66.5526 24.9309 66.5526 23.8263V8.99994C66.5526 7.89537 65.6572 6.99994 64.5526 6.99994H46.2051C45.1005 6.99994 44.2051 7.89537 44.2051 8.99994V23.8263C44.2051 24.9309 45.1005 25.8263 46.2051 25.8263H53.2896V57.7514H50.5337C49.9814 57.7514 49.5337 58.1991 49.5337 58.7514V60.5073C49.5337 61.0595 49.9814 61.5073 50.5337 61.5073H59.8014C60.3537 61.5073 60.8014 61.0595 60.8014 60.5073V58.7514C60.8014 58.1991 60.3537 57.7514 59.8014 57.7514H57.0455V25.8263H64.5526Z" fill="#39424A"/>
<path d="M39.181 42.7279V52.1176H12.8897C12.8897 48.0896 12.8897 47.1294 12.8897 42.7279C12.8897 37.5421 8.68588 33.3381 3.5 33.3381V55.7514C3.5 56.856 4.39543 57.7514 5.5 57.7514H7.25589V59.6294C7.25589 60.6665 8.09667 61.5073 9.13384 61.5073C10.171 61.5073 11.0118 60.6665 11.0118 59.6294V57.7514H41.0589V59.6294C41.0589 60.6665 41.8997 61.5073 42.9368 61.5073C43.974 61.5073 44.8148 60.6665 44.8148 59.6294V57.7514H46.5707C47.6753 57.7514 48.5707 56.856 48.5707 55.7514V33.3381C43.3848 33.3381 39.181 37.5421 39.181 42.7279Z" fill="#39424A"/>
<path d="M37.0202 50.8969C37.0309 43.7994 36.9617 41.9828 37.0202 41.0115C35.7017 40.1938 34.1685 39.7231 32.5311 39.7231C28.607 39.7231 23.3323 39.7231 19.1641 39.7231C17.5268 39.7231 15.9936 40.1938 14.6751 41.0115C14.7336 41.9827 14.6639 43.6317 14.6751 50.8969H37.0202Z" fill="#39424A"/>
<path d="M19.349 37.7943H32.347C34.2388 37.7943 36.0368 38.1992 37.6596 38.9249C38.4089 36.9608 39.5598 35.1917 41.0124 33.7168V25.5681C41.0124 22.8067 38.7738 20.5681 36.0124 20.5681H15.6836C12.9222 20.5681 10.6836 22.8067 10.6836 25.5681V33.7168C12.1362 35.1917 13.287 36.9608 14.0364 38.925C15.6591 38.1992 17.457 37.7943 19.349 37.7943ZM28.0143 29.1812C28.0143 27.992 28.9915 27.0279 30.1807 27.0279C31.3699 27.0279 32.347 27.992 32.347 29.1812C32.347 30.3704 31.3699 31.3345 30.1807 31.3345C28.9915 31.3345 28.0143 30.3704 28.0143 29.1812ZM19.349 29.1812C19.349 27.992 20.3261 27.0279 21.5153 27.0279C22.7045 27.0279 23.6817 27.992 23.6817 29.1812C23.6817 30.3704 22.7045 31.3345 21.5153 31.3345C20.3261 31.3345 19.349 30.3704 19.349 29.1812Z" fill="#39424A"/>
</svg>
