<svg width="30" height="30" viewBox="0 0 30 30" fill="none" xmlns="http://www.w3.org/2000/svg">
<g clip-path="url(#clip0)">
<path d="M26.9995 15.9119C26.9995 15.4575 26.8942 15.0235 26.7042 14.6265C26.6846 14.5255 26.6622 14.4248 26.6342 14.3225L24.5755 9.34976L24.5616 9.30502C23.8413 7.21462 22.8164 5.27991 20.2176 5.27991H10.2814C7.61853 5.27991 6.67756 7.26256 5.94149 9.29341L3.7881 14.2783C3.4768 14.7645 3.2998 15.3206 3.2998 15.9119V17.4592C3.2998 17.6985 3.32882 17.9325 3.38399 18.1579C3.33035 18.2941 3.2998 18.4408 3.2998 18.5955V23.1978C3.2998 23.8727 3.86111 24.4199 4.55351 24.4199H7.15517C7.8472 24.4199 8.4085 23.8727 8.4085 23.1978V20.8963H22.0394V23.1978C22.0394 23.8727 22.6008 24.4199 23.2933 24.4199H25.7459C26.4386 24.4199 26.9998 23.8727 26.9998 23.1978V18.595C26.9998 18.4409 26.9689 18.2935 26.9157 18.1577C26.9707 17.932 26.9998 17.6982 26.9998 17.459V15.9119H26.9995V15.9119ZM7.46934 9.79268C8.28906 7.53848 8.94827 6.85035 10.2814 6.85035H20.217C21.5404 6.85035 22.2772 7.61785 23.026 9.78297L24.5283 12.7503C24.0378 12.5732 23.4979 12.475 22.9308 12.475H7.36848C6.85784 12.475 6.36985 12.555 5.91962 12.6999L7.46934 9.79268ZM8.75984 18.0469H6.01481C5.52058 18.0469 5.11975 17.6558 5.11975 17.1742C5.11975 16.6924 5.52058 16.3016 6.01481 16.3016H8.75984C9.25428 16.3016 9.65512 16.6924 9.65512 17.1742C9.65512 17.6558 9.25402 18.0469 8.75984 18.0469ZM18.4568 17.8721H12.0717C11.7587 17.8721 11.505 17.6247 11.505 17.3198C11.505 17.0142 11.7587 16.7669 12.0717 16.7669H18.4568C18.7702 16.7669 19.0238 17.0142 19.0238 17.3198C19.0238 17.6247 18.7702 17.8721 18.4568 17.8721ZM24.2153 18.0469H21.4704C20.9757 18.0469 20.5751 17.6558 20.5751 17.1742C20.5751 16.6924 20.976 16.3016 21.4704 16.3016H24.2153C24.7099 16.3016 25.1109 16.6924 25.1109 17.1742C25.1109 17.6558 24.7099 18.0469 24.2153 18.0469Z" fill="url(#paint0_linear)"/>
</g>
<defs>
<linearGradient id="paint0_linear" x1="3.2998" y1="20.4324" x2="29.3277" y2="20.4807" gradientUnits="userSpaceOnUse">
<stop stop-color="#00B191"/>
<stop offset="1" stop-color="#00CABE"/>
</linearGradient>
<clipPath id="clip0">
<rect width="23.7" height="23.1" fill="white" transform="translate(3.2998 3.30005)"/>
</clipPath>
</defs>
</svg>
