<svg width="30" height="30" viewBox="0 0 30 30" fill="none" xmlns="http://www.w3.org/2000/svg">
<path d="M10.5688 11.7313V25.6822C10.5688 26.0459 10.7015 26.3606 10.9674 26.6262C11.2287 26.8875 11.5378 27.019 11.8941 27.0232C12.2501 27.019 12.5595 26.8875 12.821 26.6262C13.0867 26.3606 13.2193 26.0459 13.2193 25.6822V11.7313C13.618 11.5917 15.1123 10.2598 15.1123 9.83281V4.22173C15.1123 4.04031 15.0456 3.88283 14.9129 3.74986C14.78 3.61716 14.6225 3.55054 14.4411 3.55054C14.2591 3.55054 14.1019 3.61716 13.9692 3.74986C13.8362 3.8831 13.7699 4.04031 13.7699 4.22173V8.58466C13.7699 8.76662 13.7032 8.92383 13.5705 9.05653C13.4376 9.1895 13.2804 9.25558 13.0987 9.25558C12.9167 9.25558 12.7595 9.1895 12.6268 9.05653C12.4941 8.92383 12.4275 8.76635 12.4275 8.58466V4.22173C12.4275 4.04031 12.3609 3.88283 12.2282 3.74986C12.0955 3.61716 11.938 3.55054 11.7563 3.55054C11.5744 3.55054 11.4171 3.61716 11.2844 3.74986C11.1515 3.8831 11.0851 4.04031 11.0851 4.22173V8.58466C11.0851 8.76662 11.0185 8.92383 10.8858 9.05653C10.7528 9.1895 10.5956 9.25558 10.4139 9.25558C10.232 9.25558 10.0748 9.1895 9.94206 9.05653C9.80909 8.92383 9.74274 8.76635 9.74274 8.58466V4.22173C9.74274 4.04031 9.67639 3.88283 9.54342 3.74986C9.41072 3.61716 9.25327 3.55054 9.07154 3.55054C8.88958 3.55054 8.73237 3.61716 8.59971 3.74986C8.46701 3.8831 8.40039 4.04031 8.40039 4.22173V9.83258C8.40053 10.2595 10.1701 11.5914 10.5688 11.7313Z" fill="url(#paint0_linear)"/>
<path d="M11.9111 27.025C11.9053 27.025 11.8998 27.0233 11.894 27.0233C11.8882 27.0233 11.883 27.025 11.877 27.025H11.9111Z" fill="url(#paint1_linear)"/>
<path d="M20.4823 27.3002C20.4765 27.3002 20.4711 27.2986 20.4653 27.2986C20.4595 27.2986 20.454 27.3002 20.4482 27.3002H20.4823Z" fill="url(#paint2_linear)"/>
<path d="M17.6165 15.082H19.14V25.9576C19.14 26.3213 19.2727 26.636 19.5384 26.9015C19.7998 27.1629 20.109 27.2944 20.4653 27.2986C20.8212 27.2944 21.1306 27.1628 21.3921 26.9015C21.6578 26.636 21.7907 26.3213 21.7907 25.9576V3.6712C21.7907 3.48978 21.7242 3.33229 21.5915 3.19932C21.4585 3.06662 21.3014 3 21.1197 3H20.6373C19.7143 3 18.9242 3.32874 18.267 3.98585C17.6099 4.64324 17.2812 5.43337 17.2812 6.35616V14.7464C17.2812 14.8373 17.3145 14.916 17.3809 14.9824C17.4469 15.0487 17.5256 15.082 17.6165 15.082Z" fill="url(#paint3_linear)"/>
<defs>
<linearGradient id="paint0_linear" x1="8.40039" y1="22.133" x2="15.7715" y2="22.1362" gradientUnits="userSpaceOnUse">
<stop stop-color="#00B191"/>
<stop offset="1" stop-color="#00CABE"/>
</linearGradient>
<linearGradient id="paint1_linear" x1="11.877" y1="27.0246" x2="11.9144" y2="27.0258" gradientUnits="userSpaceOnUse">
<stop stop-color="#00B191"/>
<stop offset="1" stop-color="#00CABE"/>
</linearGradient>
<linearGradient id="paint2_linear" x1="20.4482" y1="27.2999" x2="20.4857" y2="27.301" gradientUnits="userSpaceOnUse">
<stop stop-color="#00B191"/>
<stop offset="1" stop-color="#00CABE"/>
</linearGradient>
<linearGradient id="paint3_linear" x1="17.2813" y1="22.2364" x2="22.2337" y2="22.2377" gradientUnits="userSpaceOnUse">
<stop stop-color="#00B191"/>
<stop offset="1" stop-color="#00CABE"/>
</linearGradient>
</defs>
</svg>
