<svg width="30" height="30" viewBox="0 0 30 30" fill="none" xmlns="http://www.w3.org/2000/svg">
<path d="M22.8395 10.0115C22.833 9.92483 22.7605 9.85776 22.6736 9.85776H19.6783V9.02573C19.6783 6.36473 17.5134 4.19995 14.8525 4.19995C12.1917 4.19995 10.0267 6.36473 10.0267 9.02573V9.85776H7.03142C6.94456 9.85776 6.87201 9.92483 6.86552 10.0115L5.70067 25.3209C5.69718 25.367 5.71299 25.4126 5.7446 25.4465C5.77605 25.4806 5.82032 25.5 5.86658 25.5H23.8385C23.8847 25.5 23.929 25.4806 23.9604 25.4467C23.9919 25.4128 24.0079 25.3672 24.0044 25.3211L22.8395 10.0115ZM11.358 9.02573C11.358 7.09891 12.9255 5.5312 14.8525 5.5312C16.7795 5.5312 18.347 7.09891 18.347 9.02573V9.85776H11.358V9.02573ZM10.6924 14.5171C9.77463 14.5171 9.0283 13.7706 9.0283 12.8531C9.0283 12.1889 9.36111 11.5906 10.0267 11.328V12.8531C10.0267 13.2202 10.3254 13.5187 10.6924 13.5187C11.0593 13.5187 11.358 13.2202 11.358 12.8531V11.329C12.0236 11.5915 12.3564 12.1944 12.3564 12.8531C12.3564 13.7706 11.6101 14.5171 10.6924 14.5171ZM19.0127 14.5171C18.0949 14.5171 17.3486 13.7706 17.3486 12.8531C17.3486 12.1889 17.6814 11.5906 18.347 11.328V12.8531C18.347 13.2202 18.6457 13.5187 19.0127 13.5187C19.3796 13.5187 19.6783 13.2202 19.6783 12.8531V11.329C20.3439 11.5915 20.6767 12.1944 20.6767 12.8531C20.6767 13.7706 19.9304 14.5171 19.0127 14.5171Z" fill="url(#paint0_linear)"/>
<defs>
<linearGradient id="paint0_linear" x1="5.7002" y1="21.0624" x2="25.8028" y2="21.0883" gradientUnits="userSpaceOnUse">
<stop stop-color="#00B191"/>
<stop offset="1" stop-color="#00CABE"/>
</linearGradient>
</defs>
</svg>
