<svg width="70" height="70" viewBox="0 0 70 70" fill="none" xmlns="http://www.w3.org/2000/svg">
<path d="M35.2655 50.025C36.8907 51.6523 36.8806 54.2702 35.2655 55.8853L31.6106 59.5401C30.0089 61.1458 27.3763 61.1661 25.7502 59.5401L10.4585 44.2486C8.84348 42.6326 8.84348 40.0033 10.4585 38.3883L14.1134 34.7335C15.7285 33.1183 18.3465 33.1084 19.9738 34.7335L35.2655 50.025ZM11.0746 48.2312C10.7007 47.8573 10.0792 47.926 9.79055 48.3691C8.64406 50.1287 8.99763 52.25 10.3114 53.5639L16.4349 59.6873C17.7373 60.9897 19.8571 61.3644 21.6292 60.2088C22.0724 59.9198 22.1419 59.2984 21.7678 58.9242L11.0746 48.2312ZM37.7787 26.5776C37.1312 25.9312 36.0818 25.9312 35.4343 26.5776L26.5769 35.4349C25.9295 36.0823 25.9295 37.1317 26.5769 37.7792L32.2198 43.4219C32.8651 44.0672 33.9145 44.0695 34.5641 43.4219L43.4215 34.5647C44.069 33.9172 44.069 32.8678 43.4215 32.2203L37.7787 26.5776ZM58.9258 21.7665C59.3 22.1407 59.9217 22.071 60.2106 21.6276C61.3653 19.8551 60.986 17.7348 59.687 16.4358L53.5635 10.3123C52.2529 9.00271 50.1329 8.64179 48.371 9.7893C47.9278 10.0779 47.8588 10.6996 48.2328 11.0736L58.9258 21.7665ZM44.2482 10.4594C42.6321 8.84442 40.0029 8.84338 38.3878 10.4594L34.733 14.1142C33.1178 15.7293 33.1078 18.3472 34.733 19.9745L50.0247 35.266C51.6535 36.8927 54.2717 36.8795 55.8851 35.266L59.5399 31.6112C61.155 29.9962 61.155 27.367 59.5399 25.7509L44.2482 10.4594Z" fill="#39424A"/>
</svg>
