<svg width="70" height="70" viewBox="0 0 70 70" fill="none" xmlns="http://www.w3.org/2000/svg">
<path fill-rule="evenodd" clip-rule="evenodd" d="M34.4105 8.44579C33.5575 8.56806 32.9157 8.94959 30.7522 10.6202C29.6285 11.488 26.6739 13.7703 24.1865 15.6921C16.924 21.3032 12.4051 24.7905 8.63199 27.6958C3.44538 31.6894 3.74266 31.4202 3.54793 32.3002C3.16078 34.0497 5.20292 35.4088 6.65862 34.3704C7.08168 34.0686 13.0463 29.4859 14.4953 28.3494C14.9442 27.9972 18.5155 25.2396 22.4314 22.2213C26.3473 19.2029 30.6029 15.9211 31.888 14.9284C33.1732 13.9357 34.3624 13.0647 34.5307 12.9929C35.1594 12.725 35.441 12.8571 37.3238 14.3038C39.128 15.6901 43.2346 18.8586 44.7655 20.0456C45.2568 20.4265 47.6888 22.3033 50.1699 24.2161C54.3372 27.4292 57.5819 29.9346 61.6486 33.0796C62.533 33.7636 63.4342 34.4167 63.6513 34.5311C64.4354 34.9441 65.3962 34.7356 65.9979 34.0219C66.5791 33.3323 66.6654 32.3462 66.2061 31.6413C65.9302 31.2178 65.9166 31.207 59.1921 26.0186C53.6661 21.755 45.24 15.247 42.2196 12.9098C36.6748 8.61913 36.9483 8.81543 36.1899 8.58339C35.5823 8.39744 35.0402 8.35553 34.4105 8.44579ZM50.5563 11.6087C49.3764 11.8572 48.6005 12.9632 48.669 14.299L48.696 14.8246L50.0443 15.8697C50.7859 16.4445 52.1871 17.5271 53.1581 18.2754C54.1291 19.0238 55.542 20.1156 56.298 20.7019C57.0539 21.288 57.6928 21.7677 57.7176 21.7677C57.7425 21.7677 57.7628 19.9177 57.7628 17.6566C57.7628 13.1432 57.754 13.0574 57.2226 12.4028C57.0755 12.2216 56.7249 11.9586 56.4434 11.8182L55.9316 11.563L53.4304 11.5466C52.0547 11.5376 50.7614 11.5655 50.5563 11.6087ZM34.8334 18.4536C34.6769 18.5227 33.1558 19.6538 31.4532 20.9672C29.7506 22.2806 27.5672 23.963 26.6014 24.7059C25.6355 25.4489 24.3427 26.4465 23.7286 26.923C23.1144 27.3995 20.3755 29.5163 17.642 31.6271C13.6602 34.7019 12.6389 35.5326 12.5056 35.805C12.3464 36.1303 12.3381 36.6237 12.3157 47.1967C12.3015 53.899 12.3247 58.2364 12.3746 58.2178C12.5287 58.1605 16.0867 54.8371 17.6095 53.3281C19.8821 51.076 20.7044 50.2896 22.0252 49.1045C22.6852 48.5124 24.0887 47.2415 25.1441 46.2805C27.735 43.921 28.0072 43.7462 28.6394 44.0357C28.8285 44.1223 29.0253 44.1784 29.0765 44.1602C29.1278 44.1422 30.2166 43.0933 31.4962 41.8295L33.8227 39.5316V39.0727C33.8227 38.6622 33.8639 38.5648 34.2123 38.1504C34.743 37.5192 35.4258 36.4316 35.6707 35.8276C36.1395 34.6716 35.7983 33.5982 34.5509 32.304C33.9763 31.7078 33.7162 31.5161 33.0146 31.1713C32.5501 30.9431 31.8284 30.657 31.4108 30.5355C30.6179 30.3049 29.1401 30.0222 28.7275 30.0222C28.5101 30.0222 28.4566 29.9472 28.1612 29.2285C27.9819 28.792 27.8356 28.406 27.8363 28.3708C27.8387 28.259 29.2506 27.8483 30.1463 27.6988C31.2066 27.5219 33.5191 27.5765 34.5373 27.8025C36.5324 28.2453 38.7043 29.2335 40.8391 30.6698C42.7687 31.968 44.3923 33.4534 45.386 34.8298C46.1279 35.8576 46.152 35.936 46.1278 37.2517C46.1079 38.3311 46.1221 38.4447 46.3293 38.8662C46.7245 39.6704 47.5282 40.0309 48.3815 39.7864L48.8746 39.6451L50.2089 40.9965C51.765 42.5725 51.7152 42.2496 50.6528 43.8741C49.441 45.727 48.3292 46.656 47.0566 46.8794L46.5784 46.9633L45.404 45.8773L44.2295 44.7912L44.2208 43.9119C44.2092 42.7638 44.1406 42.4291 43.8576 42.1417C43.5177 41.7966 42.6029 41.5394 41.4983 41.4783C39.7467 41.3814 38.6066 41.6842 37.3416 42.5821C36.6951 43.0411 36.6319 43.0573 36.3298 42.8423C36.1172 42.6912 36.117 42.6914 33.8577 45.042C32.615 46.3351 31.5962 47.4389 31.5939 47.4952C31.5915 47.5515 31.6498 47.6483 31.7235 47.7104C31.7997 47.7746 31.8575 47.9724 31.8575 48.1691C31.8575 48.4546 31.7664 48.6306 31.3352 49.1784C29.879 51.0286 27.3279 53.8332 24.8321 56.3277C22.7584 58.4004 19.8783 61.0877 18.9334 61.8315C18.6474 62.0565 18.3962 62.2579 18.375 62.2789C18.3537 62.3 26.2526 62.3063 35.9281 62.2932C52.8176 62.2701 53.5394 62.2624 54.011 62.1001C55.2017 61.6907 56.1251 61.0935 56.8678 60.2525C57.377 59.676 58.0309 58.3951 58.2232 57.5976C58.3205 57.1941 58.3435 55.0961 58.3435 46.6219C58.3435 36.5403 58.3371 36.1321 58.1751 35.8009C58.0436 35.532 57.4373 35.017 55.4059 33.4482C53.9755 32.3434 52.4835 31.1893 52.0904 30.8833C51.6974 30.5773 50.1096 29.3526 48.562 28.1616C47.0143 26.9707 45.5069 25.8074 45.2121 25.5767C41.4002 22.5927 36.2831 18.6877 35.9738 18.5265C35.5237 18.2919 35.2404 18.2739 34.8334 18.4536Z" fill="#39424A"/>
</svg>
