<svg width="70" height="70" viewBox="0 0 70 70" fill="none" xmlns="http://www.w3.org/2000/svg">
<path d="M63 54.2574V57.0425C63 58.3973 61.522 59.4999 59.7059 59.4999H10.2941C8.47796 59.4999 7 58.3973 7 57.0425V54.2574C7 52.9025 8.47796 51.7999 10.2941 51.7999H59.7059C61.522 51.7999 63 52.9025 63 54.2574Z" fill="#39424A"/>
<path d="M12.5391 28.9674V49.5835H57.4604C57.4604 48.6529 57.4604 29.9838 57.4604 28.9674H47.2608V45.8943H40.0995V28.9674H29.9V45.8943H22.7386V28.9674H12.5391Z" fill="#39424A"/>
<path d="M8.95822 25.7119H61.0409C62.7051 25.7119 63.2947 23.4907 61.8433 22.6683L35.802 7.91154C35.3042 7.62942 34.6949 7.62942 34.1972 7.91154L8.15583 22.6683C6.70793 23.4887 7.28995 25.7119 8.95822 25.7119Z" fill="#39424A"/>
</svg>
