<svg width="66" height="70" viewBox="0 0 66 70" fill="none" xmlns="http://www.w3.org/2000/svg">
<path d="M22.9265 27.373V59.9251C22.9265 60.7738 23.2144 61.5079 23.7913 62.1278C24.358 62.7375 25.0287 63.0443 25.8015 63.054C26.5737 63.0443 27.2449 62.7374 27.8122 62.1278C28.3886 61.5079 28.6763 60.7738 28.6763 59.9251V27.373C29.5411 27.0473 32.7827 23.9396 32.7827 22.9432V9.85067C32.7827 9.42736 32.6382 9.05989 32.3503 8.74963C32.0618 8.43999 31.7202 8.28455 31.3267 8.28455C30.9319 8.28455 30.5909 8.43999 30.303 8.74963C30.0146 9.06052 29.8706 9.42736 29.8706 9.85067V20.0308C29.8706 20.4554 29.7261 20.8222 29.4383 21.1319C29.1498 21.4421 28.8088 21.5963 28.4146 21.5963C28.0199 21.5963 27.6788 21.4421 27.391 21.1319C27.1031 20.8222 26.9586 20.4548 26.9586 20.0308V9.85067C26.9586 9.42736 26.8141 9.05989 26.5262 8.74963C26.2383 8.43999 25.8968 8.28455 25.5027 8.28455C25.108 8.28455 24.7669 8.43999 24.479 8.74963C24.1906 9.06052 24.0466 9.42736 24.0466 9.85067V20.0308C24.0466 20.4554 23.9021 20.8222 23.6143 21.1319C23.3258 21.4421 22.9848 21.5963 22.5906 21.5963C22.1959 21.5963 21.8549 21.4421 21.567 21.1319C21.2785 20.8222 21.1346 20.4548 21.1346 20.0308V9.85067C21.1346 9.42736 20.9907 9.05989 20.7022 8.74963C20.4144 8.43999 20.0728 8.28455 19.6786 8.28455C19.2839 8.28455 18.9428 8.43999 18.655 8.74963C18.3672 9.06052 18.2227 9.42736 18.2227 9.85067V22.9427C18.2229 23.9388 22.0617 27.0466 22.9265 27.373Z" fill="#39424A"/>
<path d="M25.8377 63.0576C25.8251 63.0576 25.8132 63.0537 25.8007 63.0537C25.7882 63.0537 25.7767 63.0576 25.7637 63.0576H25.8377Z" fill="#39424A"/>
<path d="M44.4314 63.6999C44.4188 63.6999 44.407 63.696 44.3944 63.696C44.3818 63.696 44.3698 63.6999 44.3574 63.6999H44.4314Z" fill="#39424A"/>
<path d="M38.2156 35.1913H41.5206V60.5678C41.5206 61.4163 41.8083 62.1506 42.3847 62.7703C42.9518 63.38 43.6226 63.687 44.3953 63.6967C45.1674 63.687 45.8387 63.3799 46.406 62.7703C46.9823 62.1506 47.2707 61.4163 47.2707 60.5678V8.56612C47.2707 8.14281 47.1263 7.77535 46.8384 7.46508C46.5501 7.15545 46.2091 7 45.815 7H44.7686C42.7662 7 41.0523 7.76705 39.6267 9.30032C38.2013 10.8342 37.4883 12.6779 37.4883 14.831V34.4084C37.4883 34.6204 37.5605 34.8041 37.7044 34.9589C37.8477 35.1136 38.0184 35.1913 38.2156 35.1913Z" fill="#39424A"/>
</svg>
