<svg width="70" height="70" viewBox="0 0 70 70" fill="none" xmlns="http://www.w3.org/2000/svg">
<path d="M58.9911 28.6666H9V30.75C9 31.855 9.43899 32.9148 10.2204 33.6962C11.0018 34.4776 12.0616 34.9166 13.1667 34.9166H19.4167C20.5217 34.9166 21.5815 34.4776 22.3629 33.6962C23.1443 32.9148 23.5833 31.855 23.5833 30.75C23.5833 31.855 24.0223 32.9148 24.8037 33.6962C25.5851 34.4776 26.6449 34.9166 27.75 34.9166H40.25C41.3551 34.9166 42.4149 34.4776 43.1963 33.6962C43.9777 32.9148 44.4167 31.855 44.4167 30.75C44.4167 31.855 44.8557 32.9148 45.6371 33.6962C46.4185 34.4776 47.4783 34.9166 48.5833 34.9166H54.8333C55.9384 34.9166 56.9982 34.4776 57.7796 33.6962C58.561 32.9148 59 31.855 59 30.75V28.6666H58.9911Z" fill="#39424A"/>
<path d="M58.4872 26.5833L54.7523 13.5104C54.6279 13.0752 54.365 12.6924 54.0036 12.4199C53.6422 12.1474 53.2019 12 52.7492 12L43.207 12L46.1237 26.5833H58.4872Z" fill="#39424A"/>
<path d="M24.7919 12H15.2497C14.7971 12 14.3568 12.1474 13.9953 12.4199C13.6339 12.6924 13.3711 13.0752 13.2466 13.5104L9.51172 26.5833H21.8753L24.7919 12Z" fill="#39424A"/>
<path d="M38.9594 12H29.0417L26.125 26.5833H41.876L38.9594 12Z" fill="#39424A"/>
<path d="M48.584 37C47.0457 37.0012 45.5614 36.4329 44.4173 35.4047C43.2732 36.4329 41.7889 37.0012 40.2507 37H27.7507C26.2124 37.0012 24.7281 36.4329 23.584 35.4047C22.4399 36.4329 20.9556 37.0012 19.4173 37H13.1673C12.4571 36.9985 11.7525 36.8752 11.084 36.6354V59.9166C11.084 60.4692 11.3035 60.9991 11.6942 61.3898C12.0849 61.7805 12.6148 62 13.1673 62H17.334V43.25C17.334 42.6974 17.5535 42.1675 17.9442 41.7768C18.3349 41.3861 18.8648 41.1666 19.4173 41.1666H29.834C30.3865 41.1666 30.9164 41.3861 31.3071 41.7768C31.6978 42.1675 31.9173 42.6974 31.9173 43.25V62H54.834C55.3865 62 55.9164 61.7805 56.3071 61.3898C56.6978 60.9991 56.9173 60.4692 56.9173 59.9166V36.6354C56.2488 36.8752 55.5442 36.9985 54.834 37H48.584ZM50.6673 49.5C50.6673 50.0525 50.4478 50.5824 50.0571 50.9731C49.6664 51.3638 49.1365 51.5833 48.584 51.5833H38.1673C37.6148 51.5833 37.0849 51.3638 36.6942 50.9731C36.3035 50.5824 36.084 50.0525 36.084 49.5V43.25C36.084 42.6974 36.3035 42.1675 36.6942 41.7768C37.0849 41.3861 37.6148 41.1666 38.1673 41.1666H48.584C49.1365 41.1666 49.6664 41.3861 50.0571 41.7768C50.4478 42.1675 50.6673 42.6974 50.6673 43.25V49.5Z" fill="#39424A"/>
</svg>
