<svg width="70" height="70" viewBox="0 0 70 70" fill="none" xmlns="http://www.w3.org/2000/svg">
<path d="M32.7703 58.0625C33.5884 58.0625 34.2516 57.3993 34.2516 56.5812C34.2516 55.7632 33.5884 55.1 32.7703 55.1C31.9522 55.1 31.2891 55.7632 31.2891 56.5812C31.2891 57.3993 31.9522 58.0625 32.7703 58.0625Z" fill="#39424A"/>
<path d="M24.658 19.7374L17.6112 14.714L17.2695 16.8964L22.7077 20.7723L24.658 19.7374Z" fill="#39424A"/>
<path d="M27.9316 19.6429L39.1723 27.6555L50.412 35.669C55.5095 27.8283 54.914 18.2624 48.918 13.9865C42.9219 9.71065 33.6769 12.2673 27.9316 19.6429Z" fill="#39424A"/>
<path d="M24.3135 46.791L24.3046 46.8029L19.4471 53.6166C19.1305 54.0608 19.234 54.6776 19.6782 54.9942C20.1224 55.3108 20.7392 55.2073 21.0558 54.7631L36.5328 33.054L34.9242 31.9075L24.3135 46.791Z" fill="#39424A"/>
<path d="M41.6572 9.98206C38.262 8.54579 34.6237 7.7712 30.9379 7.69995H30.7947C25.4415 7.69995 21.0501 9.49127 18.293 12.7747L26.3342 18.5071C30.4431 13.2053 36.218 10.1736 41.6572 9.98206Z" fill="#39424A"/>
<path d="M50.84 12.9791L52.579 10.539C52.7309 10.3316 52.7912 10.0711 52.7459 9.8181C52.7106 9.55406 52.5676 9.31639 52.3509 9.16142C52.1372 9.01036 51.8722 8.95034 51.6142 8.99453C51.3566 9.03498 51.126 9.17732 50.9743 9.38953L49.2344 11.8326C49.5079 12.0173 49.7874 12.1851 50.0579 12.3777C50.3285 12.5703 50.5784 12.7806 50.84 12.9791Z" fill="#39424A"/>
<path d="M51.041 40.9718L56.4792 44.8487L58.4295 43.8138L51.3837 38.7904L51.041 40.9718Z" fill="#39424A"/>
<path d="M60.7166 28.9314C59.4474 25.4709 57.5292 22.2845 55.0652 19.5432C56.656 24.7473 55.6735 31.1957 52.0039 36.8067L60.0451 42.5391C62.267 38.8271 62.5129 34.0377 60.7166 28.9314Z" fill="#39424A"/>
<path d="M46.8299 37.9698L48.7812 36.9349L38.0214 29.264L27.2606 21.5931L26.918 23.7745L35.2633 29.7242L35.2663 29.7252L37.5089 31.3249L46.8299 37.9698Z" fill="#39424A"/>
<path d="M34.3004 46.2124C32.6868 46.2124 31.0505 46.2894 29.4251 46.4247L22.6637 55.9106C21.7139 57.2433 19.8636 57.5536 18.531 56.6038C17.1984 55.6541 16.888 53.8038 17.8378 52.4712L21.1538 47.8191C15.2663 49.4168 11.5879 51.9764 11.5879 54.6061C11.5879 58.6549 20.7143 62.9999 34.3004 62.9999C47.8864 62.9999 57.0128 58.6549 57.0128 54.6061C57.0128 50.5574 47.8864 46.2124 34.3004 46.2124ZM32.7697 60.0374C30.8609 60.0374 29.3135 58.49 29.3135 56.5811C29.3135 54.6723 30.8609 53.1249 32.7697 53.1249C34.6786 53.1249 36.226 54.6723 36.226 56.5811C36.226 58.49 34.6786 60.0374 32.7697 60.0374ZM42.151 55.0999C41.6056 55.0999 41.1635 54.6578 41.1635 54.1124C41.1635 53.567 41.6056 53.1249 42.151 53.1249C42.6963 53.1249 43.1385 53.567 43.1385 54.1124C43.1385 54.6578 42.6963 55.0999 42.151 55.0999ZM44.126 52.1374C43.5806 52.1374 43.1385 51.6953 43.1385 51.1499C43.1385 50.6045 43.5806 50.1624 44.126 50.1624C44.6713 50.1624 45.1135 50.6045 45.1135 51.1499C45.1135 51.6953 44.6713 52.1374 44.126 52.1374ZM47.0885 54.1124C46.5431 54.1124 46.101 53.6703 46.101 53.1249C46.101 52.5795 46.5431 52.1374 47.0885 52.1374C47.6338 52.1374 48.076 52.5795 48.076 53.1249C48.076 53.6703 47.6338 54.1124 47.0885 54.1124Z" fill="#39424A"/>
</svg>
