<svg width="30" height="30" viewBox="0 0 30 30" fill="none" xmlns="http://www.w3.org/2000/svg">
<path d="M16.2519 14.5147C16.5228 14.3762 16.8246 14.3029 17.1377 14.3029C17.6565 14.3029 18.1443 14.5044 18.512 14.8701L19.3036 14.0786C21.2625 14.7653 23.5281 14.3257 25.0941 12.7598C26.4117 11.4422 26.9314 9.62928 26.654 7.92043C26.6234 7.73224 26.4902 7.57702 26.3088 7.51847C26.1274 7.45983 25.9283 7.50748 25.7936 7.64232L24.6182 8.81765C23.6611 9.77479 22.1092 9.77479 21.152 8.81765C20.1948 7.86051 20.1948 6.30856 21.152 5.35142L22.3273 4.17609C22.4622 4.04124 22.5102 3.84215 22.4515 3.6607C22.3929 3.47917 22.2374 3.34625 22.0492 3.31569C20.3404 3.0383 18.5274 3.55794 17.2099 4.87557C15.6206 6.46482 15.1929 8.77441 15.9238 10.753L14.207 12.4697L16.2519 14.5147Z" fill="url(#paint0_linear)"/>
<path d="M13.1236 17.6257L11.0873 15.5894L3.96685 22.7097C3.041 23.6355 3.041 25.1366 3.96685 26.0625C4.89271 26.9884 6.3938 26.9884 7.31966 26.0625L13.4579 19.9243C12.8388 19.3019 12.7272 18.3623 13.1236 17.6257Z" fill="url(#paint1_linear)"/>
<path d="M17.6647 15.7246C17.5191 15.579 17.3282 15.5062 17.1374 15.5062C16.9465 15.5062 16.7556 15.579 16.61 15.7246L16.185 16.1497L8.61317 8.57787L8.96708 8.22396C9.28955 7.90157 9.24953 7.36677 8.88198 7.09611L5.79268 4.82094C5.4958 4.60235 5.08381 4.63339 4.8231 4.89409L3.5114 6.20587C3.2507 6.46658 3.21966 6.87865 3.43825 7.17545L5.71334 10.2647C5.984 10.6322 6.51848 10.6726 6.84119 10.3499L7.1951 9.99586L14.7669 17.5676L14.3119 18.0226C14.0206 18.3139 14.0206 18.7861 14.3119 19.0773L21.2971 26.0625C22.2229 26.9883 23.724 26.9883 24.6499 26.0625C25.5757 25.1366 25.5757 23.6355 24.6499 22.7097L17.6647 15.7246Z" fill="url(#paint2_linear)"/>
<defs>
<linearGradient id="paint0_linear" x1="14.207" y1="12.4479" x2="27.9561" y2="12.4701" gradientUnits="userSpaceOnUse">
<stop stop-color="#00B191"/>
<stop offset="1" stop-color="#00CABE"/>
</linearGradient>
<linearGradient id="paint1_linear" x1="3.27246" y1="24.4303" x2="14.4584" y2="24.4456" gradientUnits="userSpaceOnUse">
<stop stop-color="#00B191"/>
<stop offset="1" stop-color="#00CABE"/>
</linearGradient>
<linearGradient id="paint2_linear" x1="3.29297" y1="22.1566" x2="27.5102" y2="22.1929" gradientUnits="userSpaceOnUse">
<stop stop-color="#00B191"/>
<stop offset="1" stop-color="#00CABE"/>
</linearGradient>
</defs>
</svg>
