<svg width="30" height="30" viewBox="0 0 30 30" fill="none" xmlns="http://www.w3.org/2000/svg">
<path d="M15.1134 21.4392C15.8099 22.1366 15.8056 23.2586 15.1134 23.9508L13.547 25.5171C12.8606 26.2053 11.7323 26.214 11.0354 25.5171L4.48181 18.9636C3.78964 18.271 3.78964 17.1442 4.48181 16.452L6.04817 14.8857C6.74038 14.1935 7.86236 14.1892 8.55976 14.8857L15.1134 21.4392ZM4.74584 20.6704C4.58561 20.5102 4.31922 20.5396 4.19553 20.7295C3.70418 21.4836 3.85571 22.3928 4.41876 22.9559L7.04313 25.5802C7.6013 26.1383 8.50977 26.2989 9.26924 25.8037C9.45918 25.6798 9.48897 25.4135 9.32865 25.2532L4.74584 20.6704ZM16.1904 11.3903C15.913 11.1133 15.4632 11.1133 15.1857 11.3903L11.3897 15.1863C11.1122 15.4638 11.1122 15.9135 11.3897 16.191L13.8081 18.6093C14.0846 18.8859 14.5344 18.8868 14.8128 18.6093L18.6088 14.8133C18.8863 14.5359 18.8863 14.0861 18.6088 13.8086L16.1904 11.3903ZM25.2535 9.32841C25.4139 9.48877 25.6803 9.4589 25.8041 9.26887C26.299 8.50924 26.1364 7.60056 25.5797 7.04381L22.9554 4.41949C22.3937 3.85822 21.4851 3.70354 20.73 4.19533C20.5401 4.31902 20.5105 4.58545 20.6708 4.74572L25.2535 9.32841ZM18.9631 4.48253C18.2705 3.79038 17.1437 3.78993 16.4515 4.48253L14.8851 6.04887C14.1929 6.74102 14.1886 7.86299 14.8851 8.56043L21.4387 15.1139C22.1368 15.8111 23.2589 15.8054 23.9503 15.1139L25.5167 13.5476C26.2089 12.8554 26.2089 11.7286 25.5167 11.036L18.9631 4.48253Z" fill="url(#paint0_linear)"/>
<defs>
<linearGradient id="paint0_linear" x1="3.89941" y1="21.4749" x2="28.28" y2="21.5114" gradientUnits="userSpaceOnUse">
<stop stop-color="#00B191"/>
<stop offset="1" stop-color="#00CABE"/>
</linearGradient>
</defs>
</svg>
