<svg width="30" height="30" viewBox="0 0 30 30" fill="none" xmlns="http://www.w3.org/2000/svg">
<path fill-rule="evenodd" clip-rule="evenodd" d="M14.7474 3.61971C14.3818 3.67211 14.1067 3.83562 13.1795 4.55159C12.6979 4.92351 11.4317 5.90164 10.3657 6.72525C7.25315 9.13003 5.31649 10.6246 3.69942 11.8697C1.47659 13.5813 1.604 13.4659 1.52054 13.843C1.35462 14.5928 2.22982 15.1753 2.8537 14.7303C3.03501 14.6009 5.59129 12.6369 6.21229 12.1498C6.40467 11.9989 7.93522 10.8171 9.61346 9.52348C11.2917 8.22991 13.1155 6.82341 13.6663 6.39796C14.2171 5.97251 14.7268 5.59923 14.7989 5.56848C15.0683 5.45365 15.189 5.51029 15.9959 6.13027C16.7692 6.72443 18.5291 8.08234 19.1852 8.59106C19.3958 8.7543 20.438 9.55863 21.5014 10.3784C23.2874 11.7555 24.678 12.8292 26.4208 14.1771C26.7999 14.4702 27.1861 14.7501 27.2791 14.7991C27.6152 14.9761 28.027 14.8868 28.2848 14.5809C28.5339 14.2853 28.5709 13.8627 28.374 13.5606C28.2558 13.3792 28.25 13.3745 25.368 11.1509C22.9998 9.32367 19.3886 6.53453 18.0941 5.53287C15.7178 3.694 15.835 3.77813 15.51 3.67868C15.2496 3.59899 15.0172 3.58103 14.7474 3.61971ZM21.667 4.97525C21.1613 5.08173 20.8288 5.55573 20.8581 6.12825L20.8697 6.35349L21.4475 6.80137C21.7654 7.04772 22.3659 7.5117 22.782 7.83242C23.1982 8.15314 23.8037 8.62108 24.1277 8.87232C24.4517 9.12354 24.7255 9.32911 24.7361 9.32911C24.7468 9.32911 24.7555 8.53625 24.7555 7.56721C24.7555 5.6329 24.7517 5.59612 24.524 5.31556C24.4609 5.23793 24.3107 5.12519 24.19 5.06505L23.9707 4.95566L22.8987 4.94862C22.3092 4.94477 21.7549 4.95674 21.667 4.97525ZM14.9286 7.90877C14.8615 7.93839 14.2096 8.42316 13.4799 8.98603C12.7502 9.54891 11.8145 10.2699 11.4006 10.5883C10.9866 10.9067 10.4326 11.3343 10.1694 11.5385C9.90618 11.7427 8.73236 12.6499 7.56084 13.5546C5.85438 14.8723 5.41668 15.2283 5.35952 15.3451C5.2913 15.4845 5.28778 15.696 5.27817 20.2272C5.27208 23.0997 5.28204 24.9585 5.3034 24.9506C5.36944 24.926 6.89432 23.5017 7.54694 22.855C8.52088 21.8898 8.87332 21.5528 9.43939 21.0449C9.72223 20.7911 10.3237 20.2465 10.776 19.8346C11.8864 18.8234 12.0031 18.7485 12.274 18.8725C12.3551 18.9097 12.4394 18.9337 12.4614 18.9259C12.4833 18.9182 12.95 18.4687 13.4984 17.927L14.4954 16.9422V16.7455C14.4954 16.5696 14.5131 16.5279 14.6624 16.3503C14.8898 16.0797 15.1825 15.6136 15.2875 15.3548C15.4883 14.8593 15.3421 14.3993 14.8075 13.8446C14.5613 13.5891 14.4498 13.507 14.1491 13.3592C13.9501 13.2614 13.6408 13.1388 13.4618 13.0867C13.1219 12.9879 12.4886 12.8667 12.3118 12.8667C12.2186 12.8667 12.1957 12.8346 12.0691 12.5266C11.9922 12.3395 11.9296 12.1741 11.9299 12.159C11.9309 12.1111 12.536 11.9351 12.9198 11.871C13.3743 11.7952 14.3653 11.8186 14.8017 11.9154C15.6567 12.1052 16.5876 12.5287 17.5025 13.1443C18.3295 13.7007 19.0253 14.3373 19.4511 14.9271C19.7691 15.3676 19.7794 15.4012 19.769 15.9651C19.7605 16.4277 19.7666 16.4764 19.8554 16.657C20.0248 17.0017 20.3692 17.1562 20.7349 17.0514L20.9463 16.9909L21.5181 17.57C22.185 18.2454 22.1636 18.1071 21.7083 18.8033C21.189 19.5974 20.7125 19.9955 20.1671 20.0913L19.9622 20.1272L19.4589 19.6618L18.9555 19.1963L18.9518 18.8195C18.9468 18.3274 18.9174 18.184 18.7961 18.0608C18.6505 17.9129 18.2584 17.8027 17.785 17.7765C17.0343 17.735 16.5457 17.8647 16.0036 18.2496C15.7265 18.4463 15.6994 18.4532 15.5699 18.3611C15.4788 18.2963 15.4787 18.2964 14.5105 19.3038C13.9778 19.858 13.5412 20.331 13.5402 20.3552C13.5392 20.3793 13.5642 20.4208 13.5958 20.4474C13.6284 20.4749 13.6532 20.5597 13.6532 20.644C13.6532 20.7663 13.6142 20.8418 13.4294 21.0766C12.8053 21.8695 11.7119 23.0715 10.6423 24.1405C9.75362 25.0288 8.51927 26.1805 8.11431 26.4993C7.99176 26.5957 7.88407 26.682 7.875 26.6911C7.86588 26.7001 11.2511 26.7028 15.3978 26.6972C22.6361 26.6873 22.9454 26.684 23.1476 26.6144C23.6579 26.4389 24.0536 26.183 24.3719 25.8226C24.5902 25.5755 24.8704 25.0266 24.9528 24.6848C24.9945 24.5118 25.0043 23.6127 25.0043 19.9809C25.0043 15.6602 25.0016 15.4853 24.9322 15.3433C24.8758 15.2281 24.616 15.0074 23.7454 14.335C23.1323 13.8616 22.4929 13.3669 22.3245 13.2358C22.156 13.1047 21.4755 12.5798 20.8123 12.0693C20.149 11.5589 19.503 11.0604 19.3766 10.9615C17.7429 9.68268 15.5499 8.0091 15.4174 7.94002C15.2244 7.83949 15.103 7.83175 14.9286 7.90877Z" fill="url(#paint0_linear)"/>
<defs>
<linearGradient id="paint0_linear" x1="1.5" y1="21.8876" x2="31.152" y2="21.9395" gradientUnits="userSpaceOnUse">
<stop stop-color="#00B191"/>
<stop offset="1" stop-color="#00CABE"/>
</linearGradient>
</defs>
</svg>
