<svg width="30" height="30" viewBox="0 0 30 30" fill="none" xmlns="http://www.w3.org/2000/svg">
<path d="M24.1566 8.97864H21.3305L20.818 7.27664C20.5898 6.51874 19.8918 6 19.1002 6H15.3015C14.5099 6 13.812 6.51874 13.5837 7.27664L13.0712 8.97868H6.46192C5.47114 8.97864 4.66797 9.78181 4.66797 10.7725V21.5959C4.66797 22.5867 5.47114 23.3898 6.46192 23.3898H24.1566C25.1473 23.3898 25.9505 22.5867 25.9505 21.5959V10.7725C25.9504 9.78181 25.1473 8.97864 24.1566 8.97864ZM17.1884 20.874C14.5464 20.874 12.4046 18.7322 12.4046 16.0902C12.4046 13.4482 14.5464 11.3064 17.1884 11.3064C19.8304 11.3064 21.9723 13.4482 21.9723 16.0902C21.9723 18.7322 19.8304 20.874 17.1884 20.874Z" fill="url(#paint0_linear)"/>
<path d="M17.1891 13.1003C15.5379 13.1003 14.1992 14.439 14.1992 16.0902C14.1992 17.7414 15.5379 19.0801 17.1891 19.0801C18.8403 19.0801 20.179 17.7414 20.179 16.0902C20.179 14.439 18.8403 13.1003 17.1891 13.1003ZM19.2713 15.9734C18.9897 16.255 18.288 16.01 17.704 15.426C17.1201 14.8421 16.8751 14.1404 17.1568 13.8588C17.4384 13.5771 18.1401 13.8221 18.724 14.4061C19.3079 14.99 19.553 15.6917 19.2713 15.9734Z" fill="url(#paint1_linear)"/>
<path d="M10.5438 8.03688C10.5438 7.59941 10.1892 7.24487 9.75182 7.24487H8.04696C7.60956 7.24487 7.25488 7.59948 7.25488 8.03688V8.43635H10.5438V8.03688H10.5438Z" fill="url(#paint2_linear)"/>
<defs>
<linearGradient id="paint0_linear" x1="4.66797" y1="19.767" x2="28.0409" y2="19.8098" gradientUnits="userSpaceOnUse">
<stop stop-color="#00B191"/>
<stop offset="1" stop-color="#00CABE"/>
</linearGradient>
<linearGradient id="paint1_linear" x1="14.1992" y1="17.8343" x2="20.7663" y2="17.8442" gradientUnits="userSpaceOnUse">
<stop stop-color="#00B191"/>
<stop offset="1" stop-color="#00CABE"/>
</linearGradient>
<linearGradient id="paint2_linear" x1="7.25488" y1="8.18812" x2="10.8668" y2="8.20307" gradientUnits="userSpaceOnUse">
<stop stop-color="#00B191"/>
<stop offset="1" stop-color="#00CABE"/>
</linearGradient>
</defs>
</svg>
