<svg width="30" height="30" viewBox="0 0 30 30" fill="none" xmlns="http://www.w3.org/2000/svg">
<path d="M8.99893 13.3577L6.98438 18.7312C7.47735 20.7006 8.56092 22.442 10.0948 23.7553L12.6224 22.8075C9.93768 20.4028 8.61255 16.8659 8.99893 13.3577Z" fill="url(#paint0_linear)"/>
<path d="M6.30223 20.55L4.75809 24.6674C4.57353 25.1591 5.05462 25.6455 5.55005 25.4593L8.80772 24.2379C7.71505 23.1774 6.86743 21.9136 6.30223 20.55Z" fill="url(#paint1_linear)"/>
<path d="M13.3177 12.8564L11.0214 10.5601C9.1596 14.7599 10.4324 19.5602 13.9452 22.3115L16.3962 21.3924C14.2437 19.1695 13.0794 16.0668 13.3177 12.8564Z" fill="url(#paint2_linear)"/>
<path d="M14.5195 14.0577C14.6139 16.6682 15.7507 19.1352 17.6743 20.9131H17.6747L19.471 20.2396C19.8906 20.0821 20.0054 19.5436 19.69 19.2283L14.5195 14.0577Z" fill="url(#paint3_linear)"/>
<path d="M19.0122 15.9905C19.2525 16.2308 19.642 16.2308 19.8822 15.9905C22.1967 13.676 24.4503 14.3916 24.4728 14.3991C24.7951 14.5065 25.1436 14.3323 25.251 14.01C25.3585 13.6877 25.1842 13.3392 24.8619 13.2318C24.7406 13.1914 21.8585 12.2743 19.0123 15.1205C18.772 15.3607 18.7719 15.7503 19.0122 15.9905Z" fill="url(#paint4_linear)"/>
<path d="M15.0971 11.2052C17.9434 8.35931 17.026 5.47691 16.9858 5.35551C16.8783 5.03315 16.5297 4.85926 16.2074 4.96671C15.8854 5.07416 15.7111 5.42236 15.8186 5.74473C15.8259 5.76728 16.5416 8.02095 14.2268 10.3353C13.9881 10.5741 13.9857 10.9633 14.2268 11.2052C14.4684 11.4467 14.8575 11.4448 15.0971 11.2052Z" fill="url(#paint5_linear)"/>
<path d="M16.4019 12.5104C16.1616 12.7506 16.1616 13.1402 16.4019 13.3804C16.6399 13.6185 17.0267 13.6216 17.2682 13.3841C17.586 13.2257 18.5725 13.8197 19.1207 13.2716C19.663 12.7293 19.0868 11.7629 19.2307 11.4242C19.5699 11.2799 20.5359 11.8564 21.0782 11.3141C21.6207 10.7718 21.0444 9.80538 21.1883 9.46666C21.528 9.32233 22.4934 9.89889 23.0358 9.35658C23.5782 8.81422 23.002 7.84783 23.1459 7.5091C23.4835 7.36552 24.4514 7.94077 24.9934 7.39898C25.5414 6.85093 24.9485 5.86272 25.1057 5.54655C25.3424 5.30605 25.3411 4.91926 25.1021 4.68019C24.8619 4.43994 24.4723 4.43994 24.2321 4.68019C23.7472 5.16509 23.842 5.84964 23.9334 6.33904C23.444 6.24771 22.7595 6.15285 22.2746 6.6377C21.7897 7.1226 21.8845 7.80715 21.9759 8.29655C21.4865 8.20526 20.8019 8.11031 20.317 8.59525C19.8321 9.08015 19.927 9.7647 20.0184 10.2541C19.5289 10.1628 18.8444 10.0679 18.3595 10.5528C17.8746 11.0377 17.9695 11.7222 18.0608 12.2116C17.5714 12.1204 16.8867 12.0255 16.4019 12.5104Z" fill="url(#paint6_linear)"/>
<path d="M19.8822 7.29031C20.1225 7.05006 20.1225 6.66056 19.8822 6.4203C19.642 6.18005 19.2525 6.18005 19.0122 6.4203C18.772 6.66056 18.772 7.05006 19.0122 7.29031C19.2525 7.53057 19.642 7.53057 19.8822 7.29031Z" fill="url(#paint7_linear)"/>
<path d="M23.7968 11.8206C24.1366 11.8206 24.412 11.5452 24.412 11.2054C24.412 10.8656 24.1366 10.5902 23.7968 10.5902C23.4571 10.5902 23.1816 10.8656 23.1816 11.2054C23.1816 11.5452 23.4571 11.8206 23.7968 11.8206Z" fill="url(#paint8_linear)"/>
<path d="M22.4927 16.8605C22.2524 17.1007 22.2524 17.4902 22.4927 17.7305C22.7329 17.9707 23.1224 17.9707 23.3627 17.7305C23.603 17.4902 23.603 17.1007 23.3627 16.8605C23.1225 16.6202 22.7329 16.6202 22.4927 16.8605Z" fill="url(#paint9_linear)"/>
<path d="M13.7914 8.16031C14.0317 7.92005 14.0317 7.53055 13.7914 7.2903C13.5512 7.05004 13.1617 7.05004 12.9214 7.2903C12.6811 7.53051 12.6811 7.92005 12.9214 8.16031C13.1617 8.40056 13.5512 8.40056 13.7914 8.16031Z" fill="url(#paint10_linear)"/>
<defs>
<linearGradient id="paint0_linear" x1="6.98438" y1="21.5891" x2="13.1762" y2="21.5941" gradientUnits="userSpaceOnUse">
<stop stop-color="#00B191"/>
<stop offset="1" stop-color="#00CABE"/>
</linearGradient>
<linearGradient id="paint1_linear" x1="4.71777" y1="24.4687" x2="9.20945" y2="24.4743" gradientUnits="userSpaceOnUse">
<stop stop-color="#00B191"/>
<stop offset="1" stop-color="#00CABE"/>
</linearGradient>
<linearGradient id="paint2_linear" x1="10.167" y1="19.8633" x2="17.0081" y2="19.8687" gradientUnits="userSpaceOnUse">
<stop stop-color="#00B191"/>
<stop offset="1" stop-color="#00CABE"/>
</linearGradient>
<linearGradient id="paint3_linear" x1="14.5195" y1="19.4849" x2="20.3958" y2="19.4917" gradientUnits="userSpaceOnUse">
<stop stop-color="#00B191"/>
<stop offset="1" stop-color="#00CABE"/>
</linearGradient>
<linearGradient id="paint4_linear" x1="18.832" y1="15.5225" x2="25.9163" y2="15.5445" gradientUnits="userSpaceOnUse">
<stop stop-color="#00B191"/>
<stop offset="1" stop-color="#00CABE"/>
</linearGradient>
<linearGradient id="paint5_linear" x1="14.0469" y1="10.0417" x2="17.4637" y2="10.0442" gradientUnits="userSpaceOnUse">
<stop stop-color="#00B191"/>
<stop offset="1" stop-color="#00CABE"/>
</linearGradient>
<linearGradient id="paint6_linear" x1="16.2217" y1="11.673" x2="26.1723" y2="11.6879" gradientUnits="userSpaceOnUse">
<stop stop-color="#00B191"/>
<stop offset="1" stop-color="#00CABE"/>
</linearGradient>
<linearGradient id="paint7_linear" x1="18.832" y1="7.21417" x2="20.1833" y2="7.2162" gradientUnits="userSpaceOnUse">
<stop stop-color="#00B191"/>
<stop offset="1" stop-color="#00CABE"/>
</linearGradient>
<linearGradient id="paint8_linear" x1="23.1816" y1="11.5643" x2="24.5329" y2="11.5663" gradientUnits="userSpaceOnUse">
<stop stop-color="#00B191"/>
<stop offset="1" stop-color="#00CABE"/>
</linearGradient>
<linearGradient id="paint9_linear" x1="22.3125" y1="17.6544" x2="23.6637" y2="17.6564" gradientUnits="userSpaceOnUse">
<stop stop-color="#00B191"/>
<stop offset="1" stop-color="#00CABE"/>
</linearGradient>
<linearGradient id="paint10_linear" x1="12.7412" y1="8.08417" x2="14.0925" y2="8.08619" gradientUnits="userSpaceOnUse">
<stop stop-color="#00B191"/>
<stop offset="1" stop-color="#00CABE"/>
</linearGradient>
</defs>
</svg>
