<svg width="70" height="70" viewBox="0 0 70 70" fill="none" xmlns="http://www.w3.org/2000/svg">
<path d="M59.7119 57.8238H48.5855C47.871 54.3178 44.7638 51.6714 41.0498 51.6714C41.0483 51.6714 41.0468 51.6714 41.0453 51.6714C39.6034 49.7529 37.3278 48.5953 34.8975 48.5953C34.8959 48.5953 34.8945 48.5953 34.8929 48.5953C33.451 46.6768 31.1756 45.5191 28.7451 45.5191C26.3146 45.5191 24.0392 46.6768 22.5973 48.5953C22.5957 48.5953 22.5942 48.5953 22.5928 48.5953C20.1624 48.5953 17.8868 49.7529 16.4449 51.6714C16.4434 51.6714 16.4419 51.6714 16.4404 51.6714C12.1999 51.6714 8.75 55.1214 8.75 59.3619C8.75 60.2113 9.43865 60.9 10.2881 60.9H59.7119C60.5613 60.9 61.25 60.2113 61.25 59.3619C61.25 58.5124 60.5613 57.8238 59.7119 57.8238Z" fill="#39424A"/>
<path d="M44.7808 25.0468C44.719 24.297 44.124 23.7021 43.3743 23.6403C43.3014 23.6342 41.5685 23.4949 39.5588 23.6119C36.5751 23.7859 34.5801 24.4152 33.4595 25.5357C31.2353 27.76 30.9167 31.1775 32.5001 33.7458L36.3599 29.886C36.9604 29.2854 37.9344 29.2854 38.535 29.886C39.1357 30.4866 39.1357 31.4605 38.535 32.0612L34.6753 35.921C35.7433 36.5795 36.9575 36.9105 38.1726 36.9105C39.8794 36.9105 41.5861 36.2609 42.8855 34.9615C44.006 33.841 44.6352 31.846 44.8093 28.8623C44.9264 26.8524 44.7868 25.1196 44.7808 25.0468Z" fill="#39424A"/>
<path d="M28.7451 16.6031C29.5945 16.6031 30.2832 17.2917 30.2832 18.1412V23.5997C33.219 22.9033 35.4102 20.2615 35.4102 17.1158C35.4102 15.5311 34.4444 13.6755 32.4576 11.4426C31.1194 9.93856 29.7954 8.81207 29.7397 8.7648C29.1658 8.27835 28.3244 8.27835 27.7506 8.7648C27.6949 8.81197 26.3709 9.93856 25.0327 11.4426C23.0458 13.6755 22.0801 15.5311 22.0801 17.1158C22.0801 20.2615 24.2712 22.9033 27.207 23.5997V18.1412C27.207 17.2917 27.8957 16.6031 28.7451 16.6031Z" fill="#39424A"/>
<path d="M18.9576 29.8862C19.5582 29.2855 20.5321 29.2855 21.1327 29.8862L24.9925 33.746C26.5759 31.1777 26.2573 27.7602 24.033 25.5358C22.9125 24.4152 20.9174 23.7861 17.9337 23.612C15.9238 23.4948 14.1911 23.6343 14.1184 23.6404C13.3686 23.7022 12.7736 24.2971 12.7118 25.0469C12.7058 25.1196 12.5662 26.8524 12.6834 28.8623C12.8574 31.846 13.4867 33.8411 14.6073 34.9615C15.9066 36.2608 17.6134 36.9105 19.3202 36.9105C20.5352 36.9105 21.7493 36.5794 22.8174 35.921L18.9576 32.0612C18.3569 31.4607 18.3569 30.4868 18.9576 29.8862Z" fill="#39424A"/>
<path d="M32.4982 33.746L30.283 35.9613V23.5999C29.7889 23.7171 29.2743 23.7809 28.7449 23.7809C28.2155 23.7809 27.701 23.7171 27.2068 23.5999V35.9614L24.9916 33.7461C24.7251 34.1784 24.4065 34.5873 24.0321 34.9617C23.6577 35.3361 23.2487 35.6547 22.8164 35.9212L27.2068 40.3116V42.556C27.7136 42.4817 28.2274 42.4431 28.7449 42.4431C29.2624 42.4431 29.7762 42.4817 30.283 42.556V40.3116L34.6734 35.9212C34.2411 35.6547 33.8322 35.3361 33.4578 34.9617C33.0834 34.5872 32.7647 34.1782 32.4982 33.746Z" fill="#39424A"/>
<path d="M52.5352 29.1129C50.8362 29.1129 49.459 27.7356 49.459 26.0367V17.8336C49.459 16.1346 50.8362 14.7574 52.5352 14.7574C54.2341 14.7574 55.6113 16.1346 55.6113 17.8336V26.0367C55.6113 27.7356 54.2341 29.1129 52.5352 29.1129Z" fill="#39424A"/>
<path d="M56.6996 36.2905H54.0723V40.9048C54.0723 41.7542 53.3836 42.4429 52.5342 42.4429C51.6847 42.4429 50.9961 41.7542 50.9961 40.9048V36.2905H48.3687C45.8596 36.2905 43.8184 38.3319 43.8184 40.8409C43.8184 46.4907 46.8657 51.7418 51.7711 54.5448C52.0075 54.68 52.2709 54.7476 52.5342 54.7476C52.7975 54.7476 53.0609 54.68 53.2973 54.5448C58.2026 51.7418 61.25 46.4908 61.25 40.8409C61.25 38.3319 59.2088 36.2905 56.6996 36.2905Z" fill="#39424A"/>
<path d="M54.0723 31.9941C53.5805 32.1211 53.0651 32.1888 52.5342 32.1888C52.0032 32.1888 51.4879 32.1211 50.9961 31.9941V36.2904H54.0723V31.9941Z" fill="#39424A"/>
</svg>
