<svg width="70" height="70" viewBox="0 0 70 70" fill="none" xmlns="http://www.w3.org/2000/svg">
<path d="M35.3758 9C35.3758 7.89543 34.4803 7 33.3758 7H9C7.89543 7 7 7.89543 7 9V22.2693H35.3758V9ZM15.3046 16.256C15.3046 16.8082 14.8569 17.256 14.3046 17.256H13.0234C12.4711 17.256 12.0234 16.8082 12.0234 16.256V13.0532C12.0234 12.5009 12.4711 12.0532 13.0234 12.0532H14.3046C14.8569 12.0532 15.3046 12.5009 15.3046 13.0532V16.256Z" fill="#39424A"/>
<path d="M47.7863 54.6H41.6771V59.718H38.5V62.9992V56H24.0625V31.5H35.3757V25.55H7V60.9992C7 62.1038 7.89543 62.9992 9 62.9992H53.5773V59.718H47.7863V54.6ZM15.3046 39.4078C15.3046 40.3139 14.5701 41.0484 13.664 41.0484C12.7579 41.0484 12.0234 40.3139 12.0234 39.4078V32.204C12.0234 31.2979 12.7579 30.5634 13.664 30.5634C14.5701 30.5634 15.3046 31.2979 15.3046 32.204V39.4078Z" fill="#39424A"/>
<path d="M26.4629 34.7947C26.4629 34.2424 26.9106 33.7947 27.4629 33.7947H61.9991C62.5514 33.7947 62.9991 34.2424 62.9991 34.7947V52.1407C62.9991 52.693 62.5514 53.1407 61.9991 53.1407H27.4629C26.9106 53.1407 26.4629 52.693 26.4629 52.1407V34.7947Z" fill="#39424A"/>
</svg>
