<svg width="1307" height="167" viewBox="0 0 1307 167" fill="none" xmlns="http://www.w3.org/2000/svg">
<path opacity="0.5" d="M596 8.87378V161.344" stroke="#6A6A6A" stroke-width="2.5" stroke-miterlimit="10" stroke-linecap="round" stroke-dasharray="8 8"/>
<path opacity="0.5" d="M602.078 164.455H708.333" stroke="#6A6A6A" stroke-width="2.5" stroke-miterlimit="10" stroke-linecap="round" stroke-dasharray="8 8"/>
<path opacity="0.5" d="M601.98 3H666.98" stroke="#6A6A6A" stroke-width="2.5" stroke-miterlimit="10" stroke-linecap="round" stroke-dasharray="8 8"/>
<path opacity="0.5" d="M711.372 158.339V40.3425C705.118 34.0997 684.46 13.5559 675.695 4.81812" stroke="#6A6A6A" stroke-width="2.5" stroke-miterlimit="10" stroke-linecap="round" stroke-dasharray="8 8"/>
<path opacity="0.5" d="M673.527 8.927V37.2" stroke="#6A6A6A" stroke-width="2.5" stroke-miterlimit="10" stroke-linecap="round" stroke-dasharray="8 8"/>
<path opacity="0.5" d="M679.812 40.3423H708.139" stroke="#6A6A6A" stroke-width="2.5" stroke-miterlimit="10" stroke-linecap="round" stroke-dasharray="8 8"/>
<g style="mix-blend-mode:multiply" opacity="0.15">
<path d="M527.014 2.48438H449.49V164.287H564.861V40.1746C558.01 33.3373 533.864 9.3217 527.014 2.48438Z" fill="black"/>
</g>
<g style="mix-blend-mode:multiply" opacity="0.15">
<path d="M527.014 2.48438V40.1746H564.776L527.014 2.48438Z" fill="black"/>
</g>
<g style="mix-blend-mode:multiply" opacity="0.15">
<path d="M462.949 142.994H465.444L466.068 139.845H467.96L467.346 142.994H470.821L471.445 139.845H473.337L472.723 142.994H474.951L474.564 144.964H472.336L471.534 149.074H473.901L473.535 151.005H471.158L470.415 154.857H468.504L469.257 151.005H465.781L465.038 154.857H463.088L463.85 151.005H461.464L461.87 149.074H464.236L465.048 144.964H462.543L462.949 142.994ZM466.157 149.074H469.633L470.435 144.964H466.959L466.157 149.074ZM476.278 148.955L481.615 139.845H483.724L478.644 148.816H482.486V146.341L484.427 146.202V148.816H486.665V150.519H484.427V153.153H485.913V154.857H481.041V153.153H482.486V150.519H476.258L476.278 148.955ZM494.25 155.035C493.181 155.035 492.286 154.837 491.567 154.441C490.847 154.045 490.27 153.5 489.834 152.807C489.405 152.114 489.098 151.302 488.913 150.371C488.728 149.44 488.636 148.44 488.636 147.371C488.636 146.228 488.761 145.162 489.012 144.172C489.263 143.175 489.6 142.376 490.022 141.776C490.445 141.175 490.976 140.663 491.616 140.241C492.263 139.818 493.148 139.607 494.27 139.607C495.333 139.607 496.218 139.775 496.924 140.112C497.63 140.449 498.211 140.967 498.667 141.667C499.129 142.36 499.452 143.198 499.637 144.182C499.822 145.166 499.914 146.209 499.914 147.311C499.914 148.387 499.822 149.394 499.637 150.331C499.452 151.269 499.139 152.087 498.696 152.787C498.261 153.48 497.68 154.028 496.954 154.431C496.228 154.834 495.326 155.035 494.25 155.035ZM494.25 153.272C495.023 153.272 495.643 153.117 496.112 152.807C496.587 152.49 496.944 152.061 497.181 151.52C497.426 150.978 497.607 150.348 497.726 149.628C497.845 148.902 497.904 148.13 497.904 147.311C497.904 146.526 497.858 145.773 497.766 145.053C497.673 144.327 497.495 143.687 497.231 143.132C496.967 142.578 496.597 142.135 496.122 141.805C495.647 141.475 495.029 141.31 494.27 141.31C493.485 141.31 492.864 141.475 492.408 141.805C491.953 142.135 491.613 142.535 491.389 143.004C491.164 143.466 490.986 144.103 490.854 144.915C490.728 145.727 490.666 146.526 490.666 147.311C490.666 148.13 490.705 148.902 490.785 149.628C490.87 150.348 491.039 150.978 491.29 151.52C491.547 152.061 491.91 152.49 492.379 152.807C492.854 153.117 493.478 153.272 494.25 153.272ZM508.658 143.766C508.658 143.509 508.602 143.235 508.49 142.944C508.384 142.647 508.216 142.376 507.985 142.132C507.76 141.881 507.473 141.677 507.123 141.518C506.78 141.353 506.374 141.271 505.905 141.271C505.516 141.271 505.159 141.34 504.836 141.479C504.519 141.611 504.202 141.862 503.885 142.231C503.568 142.601 503.397 143.01 503.37 143.459H501.489C501.522 142.885 501.664 142.367 501.915 141.904C502.172 141.442 502.496 141.036 502.885 140.686C503.275 140.337 503.73 140.059 504.252 139.855C504.773 139.65 505.318 139.548 505.886 139.548C506.592 139.548 507.232 139.666 507.807 139.904C508.381 140.135 508.869 140.445 509.272 140.835C509.681 141.218 509.995 141.657 510.213 142.152C510.437 142.647 510.55 143.152 510.55 143.667C510.55 143.984 510.51 144.301 510.431 144.618C510.352 144.935 510.226 145.238 510.054 145.529C509.889 145.813 509.675 146.077 509.411 146.321C509.147 146.565 508.827 146.78 508.45 146.965C508.761 147.083 509.051 147.252 509.322 147.47C509.599 147.681 509.84 147.935 510.045 148.232C510.249 148.529 510.411 148.866 510.53 149.242C510.649 149.618 510.708 150.031 510.708 150.48C510.708 151.127 510.583 151.728 510.332 152.282C510.081 152.83 509.741 153.305 509.312 153.708C508.883 154.111 508.378 154.428 507.797 154.659C507.222 154.883 506.605 154.995 505.945 154.995C505.338 154.995 504.734 154.89 504.133 154.678C503.539 154.461 503.034 154.154 502.618 153.758C502.202 153.361 501.895 152.949 501.697 152.52C501.499 152.091 501.38 151.665 501.34 151.242H503.242C503.433 151.856 503.773 152.338 504.262 152.688C504.757 153.038 505.384 153.213 506.143 153.213C506.486 153.213 506.82 153.144 507.143 153.005C507.473 152.866 507.764 152.675 508.015 152.431C508.265 152.18 508.467 151.889 508.619 151.559C508.77 151.223 508.846 150.856 508.846 150.46C508.846 150.044 508.77 149.668 508.619 149.331C508.467 148.995 508.262 148.711 508.005 148.48C507.747 148.242 507.447 148.06 507.104 147.935C506.767 147.803 506.407 147.737 506.024 147.737H505.173V146.242H505.866C506.301 146.242 506.691 146.179 507.034 146.054C507.384 145.921 507.678 145.743 507.916 145.519C508.153 145.294 508.335 145.034 508.46 144.736C508.592 144.433 508.658 144.109 508.658 143.766Z" fill="black"/>
</g>
<path d="M524.524 0H447V161.803H562.371V37.6902C555.52 30.8529 531.374 6.83733 524.524 0Z" fill="#E6E6E6"/>
<path d="M524.523 0V37.6902H562.285L524.523 0Z" fill="#F2F2F2"/>
<path d="M460.459 140.51H462.954L463.578 137.361H465.469L464.855 140.51H468.331L468.955 137.361H470.846L470.232 140.51H472.46L472.074 142.48H469.846L469.044 146.59H471.411L471.044 148.521H468.668L467.925 152.373H466.014L466.767 148.521H463.291L462.548 152.373H460.597L461.36 148.521H458.973L459.379 146.59H461.746L462.558 142.48H460.053L460.459 140.51ZM463.667 146.59H467.143L467.945 142.48H464.469L463.667 146.59ZM473.787 146.471L479.125 137.361H481.234L476.154 146.332H479.996V143.857L481.937 143.718V146.332H484.175V148.035H481.937V150.669H483.422V152.373H478.55V150.669H479.996V148.035H473.768L473.787 146.471ZM491.76 152.551C490.691 152.551 489.796 152.353 489.077 151.957C488.357 151.561 487.779 151.016 487.344 150.323C486.915 149.63 486.608 148.818 486.423 147.887C486.238 146.956 486.145 145.956 486.145 144.886C486.145 143.744 486.271 142.678 486.522 141.688C486.773 140.691 487.109 139.892 487.532 139.292C487.954 138.691 488.486 138.179 489.126 137.757C489.773 137.334 490.658 137.123 491.78 137.123C492.843 137.123 493.727 137.291 494.434 137.628C495.14 137.965 495.721 138.483 496.177 139.183C496.639 139.876 496.962 140.714 497.147 141.698C497.332 142.681 497.424 143.725 497.424 144.827C497.424 145.903 497.332 146.91 497.147 147.847C496.962 148.785 496.649 149.603 496.206 150.303C495.771 150.996 495.19 151.544 494.463 151.947C493.737 152.349 492.836 152.551 491.76 152.551ZM491.76 150.788C492.532 150.788 493.153 150.633 493.622 150.323C494.097 150.006 494.454 149.577 494.691 149.035C494.935 148.494 495.117 147.864 495.236 147.144C495.355 146.418 495.414 145.646 495.414 144.827C495.414 144.041 495.368 143.289 495.275 142.569C495.183 141.843 495.005 141.203 494.741 140.648C494.477 140.094 494.107 139.651 493.632 139.321C493.156 138.991 492.539 138.826 491.78 138.826C490.994 138.826 490.374 138.991 489.918 139.321C489.463 139.651 489.123 140.051 488.898 140.519C488.674 140.982 488.496 141.619 488.364 142.431C488.238 143.243 488.175 144.041 488.175 144.827C488.175 145.646 488.215 146.418 488.294 147.144C488.38 147.864 488.548 148.494 488.799 149.035C489.057 149.577 489.42 150.006 489.889 150.323C490.364 150.633 490.988 150.788 491.76 150.788ZM506.168 141.282C506.168 141.024 506.112 140.751 506 140.46C505.894 140.163 505.726 139.892 505.495 139.648C505.27 139.397 504.983 139.193 504.633 139.034C504.29 138.869 503.884 138.787 503.415 138.787C503.026 138.787 502.669 138.856 502.346 138.994C502.029 139.127 501.712 139.377 501.395 139.747C501.078 140.117 500.907 140.526 500.88 140.975H498.999C499.032 140.401 499.174 139.882 499.425 139.42C499.682 138.958 500.005 138.552 500.395 138.202C500.784 137.852 501.24 137.575 501.761 137.371C502.283 137.166 502.828 137.064 503.395 137.064C504.102 137.064 504.742 137.182 505.316 137.42C505.891 137.651 506.379 137.961 506.782 138.351C507.191 138.734 507.505 139.173 507.723 139.668C507.947 140.163 508.059 140.668 508.059 141.183C508.059 141.5 508.02 141.817 507.941 142.134C507.861 142.45 507.736 142.754 507.564 143.045C507.399 143.328 507.185 143.592 506.921 143.837C506.657 144.081 506.336 144.296 505.96 144.48C506.27 144.599 506.561 144.768 506.831 144.985C507.109 145.197 507.35 145.451 507.554 145.748C507.759 146.045 507.921 146.382 508.04 146.758C508.158 147.134 508.218 147.547 508.218 147.996C508.218 148.643 508.092 149.243 507.842 149.798C507.591 150.346 507.251 150.821 506.822 151.224C506.392 151.627 505.887 151.943 505.307 152.175C504.732 152.399 504.115 152.511 503.455 152.511C502.847 152.511 502.243 152.406 501.643 152.194C501.048 151.976 500.543 151.669 500.128 151.273C499.712 150.877 499.405 150.465 499.207 150.036C499.009 149.607 498.89 149.181 498.85 148.758H500.751C500.943 149.372 501.283 149.854 501.771 150.204C502.266 150.554 502.894 150.729 503.653 150.729C503.996 150.729 504.329 150.659 504.653 150.521C504.983 150.382 505.273 150.191 505.524 149.946C505.775 149.696 505.977 149.405 506.128 149.075C506.28 148.738 506.356 148.372 506.356 147.976C506.356 147.56 506.28 147.184 506.128 146.847C505.977 146.51 505.772 146.227 505.514 145.995C505.257 145.758 504.957 145.576 504.613 145.451C504.277 145.319 503.917 145.253 503.534 145.253H502.682V143.758H503.376C503.811 143.758 504.201 143.695 504.544 143.569C504.894 143.437 505.188 143.259 505.425 143.035C505.663 142.81 505.845 142.549 505.97 142.252C506.102 141.949 506.168 141.625 506.168 141.282Z" fill="#B3B3B3"/>
<path d="M505.196 37.4038H461.158V40.6845H505.196V37.4038Z" fill="#B3B3B3"/>
<path d="M548.149 49.0293H461.158V52.3099H548.149V49.0293Z" fill="#B3B3B3"/>
<path d="M548.149 60.6548H461.158V63.9354H548.149V60.6548Z" fill="#B3B3B3"/>
<path d="M548.149 72.2698H461.158V75.5504H548.149V72.2698Z" fill="#B3B3B3"/>
<path d="M548.149 83.8953H461.158V87.1759H548.149V83.8953Z" fill="#B3B3B3"/>
<path d="M548.149 95.521H461.158V98.8016H548.149V95.521Z" fill="#B3B3B3"/>
<path d="M548.149 107.136H461.158V110.417H548.149V107.136Z" fill="#B3B3B3"/>
<path d="M548.202 118.761H504.164V122.042H548.202V118.761Z" fill="#B3B3B3"/>
<g style="mix-blend-mode:multiply" opacity="0.15">
<path d="M822.016 2.48438H744.492V164.287H859.863V40.1746C853.012 33.3373 828.866 9.3217 822.016 2.48438Z" fill="black"/>
</g>
<g style="mix-blend-mode:multiply" opacity="0.15">
<path d="M822.016 2.48438V40.1746H859.778L822.016 2.48438Z" fill="black"/>
</g>
<g style="mix-blend-mode:multiply" opacity="0.15">
<path d="M757.949 142.994H760.444L761.068 139.845H762.96L762.346 142.994H765.821L766.445 139.845H768.337L767.723 142.994H769.951L769.564 144.964H767.336L766.534 149.074H768.901L768.535 151.005H766.158L765.415 154.857H763.504L764.257 151.005H760.781L760.038 154.857H758.088L758.85 151.005H756.464L756.87 149.074H759.236L760.048 144.964H757.543L757.949 142.994ZM761.157 149.074H764.633L765.435 144.964H761.959L761.157 149.074ZM771.278 148.955L776.615 139.845H778.724L773.644 148.816H777.486V146.341L779.427 146.202V148.816H781.665V150.519H779.427V153.153H780.913V154.857H776.041V153.153H777.486V150.519H771.258L771.278 148.955ZM789.25 155.035C788.181 155.035 787.286 154.837 786.567 154.441C785.847 154.045 785.27 153.5 784.834 152.807C784.405 152.114 784.098 151.302 783.913 150.371C783.728 149.44 783.636 148.44 783.636 147.371C783.636 146.228 783.761 145.162 784.012 144.172C784.263 143.175 784.6 142.376 785.022 141.776C785.445 141.175 785.976 140.663 786.616 140.241C787.263 139.818 788.148 139.607 789.27 139.607C790.333 139.607 791.218 139.775 791.924 140.112C792.63 140.449 793.211 140.967 793.667 141.667C794.129 142.36 794.452 143.198 794.637 144.182C794.822 145.166 794.914 146.209 794.914 147.311C794.914 148.387 794.822 149.394 794.637 150.331C794.452 151.269 794.139 152.087 793.696 152.787C793.261 153.48 792.68 154.028 791.954 154.431C791.228 154.834 790.326 155.035 789.25 155.035ZM789.25 153.272C790.023 153.272 790.643 153.117 791.112 152.807C791.587 152.49 791.944 152.061 792.181 151.52C792.426 150.978 792.607 150.348 792.726 149.628C792.845 148.902 792.904 148.13 792.904 147.311C792.904 146.526 792.858 145.773 792.766 145.053C792.673 144.327 792.495 143.687 792.231 143.132C791.967 142.578 791.597 142.135 791.122 141.805C790.647 141.475 790.029 141.31 789.27 141.31C788.485 141.31 787.864 141.475 787.408 141.805C786.953 142.135 786.613 142.535 786.389 143.004C786.164 143.466 785.986 144.103 785.854 144.915C785.728 145.727 785.666 146.526 785.666 147.311C785.666 148.13 785.705 148.902 785.785 149.628C785.87 150.348 786.039 150.978 786.29 151.52C786.547 152.061 786.91 152.49 787.379 152.807C787.854 153.117 788.478 153.272 789.25 153.272ZM803.658 143.766C803.658 143.509 803.602 143.235 803.49 142.944C803.384 142.647 803.216 142.376 802.985 142.132C802.76 141.881 802.473 141.677 802.123 141.518C801.78 141.353 801.374 141.271 800.905 141.271C800.516 141.271 800.159 141.34 799.836 141.479C799.519 141.611 799.202 141.862 798.885 142.231C798.568 142.601 798.397 143.01 798.37 143.459H796.489C796.522 142.885 796.664 142.367 796.915 141.904C797.172 141.442 797.496 141.036 797.885 140.686C798.275 140.337 798.73 140.059 799.252 139.855C799.773 139.65 800.318 139.548 800.886 139.548C801.592 139.548 802.232 139.666 802.807 139.904C803.381 140.135 803.869 140.445 804.272 140.835C804.681 141.218 804.995 141.657 805.213 142.152C805.437 142.647 805.55 143.152 805.55 143.667C805.55 143.984 805.51 144.301 805.431 144.618C805.352 144.935 805.226 145.238 805.054 145.529C804.889 145.813 804.675 146.077 804.411 146.321C804.147 146.565 803.827 146.78 803.45 146.965C803.761 147.083 804.051 147.252 804.322 147.47C804.599 147.681 804.84 147.935 805.045 148.232C805.249 148.529 805.411 148.866 805.53 149.242C805.649 149.618 805.708 150.031 805.708 150.48C805.708 151.127 805.583 151.728 805.332 152.282C805.081 152.83 804.741 153.305 804.312 153.708C803.883 154.111 803.378 154.428 802.797 154.659C802.222 154.883 801.605 154.995 800.945 154.995C800.338 154.995 799.734 154.89 799.133 154.678C798.539 154.461 798.034 154.154 797.618 153.758C797.202 153.361 796.895 152.949 796.697 152.52C796.499 152.091 796.38 151.665 796.34 151.242H798.242C798.433 151.856 798.773 152.338 799.262 152.688C799.757 153.038 800.384 153.213 801.143 153.213C801.486 153.213 801.82 153.144 802.143 153.005C802.473 152.866 802.764 152.675 803.015 152.431C803.265 152.18 803.467 151.889 803.619 151.559C803.77 151.223 803.846 150.856 803.846 150.46C803.846 150.044 803.77 149.668 803.619 149.331C803.467 148.995 803.262 148.711 803.005 148.48C802.747 148.242 802.447 148.06 802.104 147.935C801.767 147.803 801.407 147.737 801.024 147.737H800.173V146.242H800.866C801.301 146.242 801.691 146.179 802.034 146.054C802.384 145.921 802.678 145.743 802.916 145.519C803.153 145.294 803.335 145.034 803.46 144.736C803.592 144.433 803.658 144.109 803.658 143.766Z" fill="black"/>
</g>
<path d="M819.524 0H742V161.803H857.371V37.6902C850.52 30.8529 826.374 6.83733 819.524 0Z" fill="#E6E6E6"/>
<path d="M819.523 0V37.6902H857.285L819.523 0Z" fill="#F2F2F2"/>
<path d="M755.457 140.51H757.952L758.576 137.361H760.467L759.853 140.51H763.329L763.953 137.361H765.844L765.23 140.51H767.458L767.072 142.48H764.844L764.042 146.59H766.409L766.042 148.521H763.666L762.923 152.373H761.012L761.765 148.521H758.289L757.546 152.373H755.595L756.358 148.521H753.971L754.377 146.59H756.744L757.556 142.48H755.051L755.457 140.51ZM758.665 146.59H762.141L762.943 142.48H759.467L758.665 146.59ZM768.785 146.471L774.123 137.361H776.232L771.152 146.332H774.994V143.857L776.935 143.718V146.332H779.173V148.035H776.935V150.669H778.42V152.373H773.548V150.669H774.994V148.035H768.766L768.785 146.471ZM786.758 152.551C785.689 152.551 784.794 152.353 784.075 151.957C783.355 151.561 782.777 151.016 782.342 150.323C781.913 149.63 781.606 148.818 781.421 147.887C781.236 146.956 781.144 145.956 781.144 144.886C781.144 143.744 781.269 142.678 781.52 141.688C781.771 140.691 782.107 139.892 782.53 139.292C782.952 138.691 783.484 138.179 784.124 137.757C784.771 137.334 785.656 137.123 786.778 137.123C787.841 137.123 788.725 137.291 789.432 137.628C790.138 137.965 790.719 138.483 791.175 139.183C791.637 139.876 791.96 140.714 792.145 141.698C792.33 142.681 792.422 143.725 792.422 144.827C792.422 145.903 792.33 146.91 792.145 147.847C791.96 148.785 791.647 149.603 791.204 150.303C790.769 150.996 790.188 151.544 789.461 151.947C788.735 152.349 787.834 152.551 786.758 152.551ZM786.758 150.788C787.531 150.788 788.151 150.633 788.62 150.323C789.095 150.006 789.452 149.577 789.689 149.035C789.933 148.494 790.115 147.864 790.234 147.144C790.353 146.418 790.412 145.646 790.412 144.827C790.412 144.041 790.366 143.289 790.273 142.569C790.181 141.843 790.003 141.203 789.739 140.648C789.475 140.094 789.105 139.651 788.63 139.321C788.154 138.991 787.537 138.826 786.778 138.826C785.992 138.826 785.372 138.991 784.916 139.321C784.461 139.651 784.121 140.051 783.896 140.519C783.672 140.982 783.494 141.619 783.362 142.431C783.236 143.243 783.173 144.041 783.173 144.827C783.173 145.646 783.213 146.418 783.292 147.144C783.378 147.864 783.546 148.494 783.797 149.035C784.055 149.577 784.418 150.006 784.887 150.323C785.362 150.633 785.986 150.788 786.758 150.788ZM796.581 143.52C796.951 143.269 797.331 143.081 797.72 142.955C798.11 142.823 798.555 142.757 799.057 142.757C799.796 142.757 800.476 142.889 801.097 143.153C801.717 143.418 802.249 143.774 802.691 144.223C803.14 144.672 803.487 145.197 803.731 145.797C803.982 146.392 804.107 147.022 804.107 147.689C804.107 148.362 803.985 149.002 803.741 149.61C803.496 150.211 803.15 150.739 802.701 151.194C802.252 151.65 801.711 152.013 801.077 152.283C800.45 152.548 799.75 152.68 798.978 152.68C798.39 152.68 797.842 152.6 797.334 152.442C796.826 152.29 796.367 152.075 795.957 151.798C795.548 151.514 795.192 151.178 794.888 150.788C794.591 150.399 794.353 149.973 794.175 149.511L795.799 148.699C795.905 149.035 796.06 149.349 796.264 149.64C796.469 149.923 796.71 150.171 796.987 150.382C797.265 150.587 797.572 150.749 797.908 150.867C798.245 150.98 798.601 151.036 798.978 151.036C799.453 151.036 799.892 150.95 800.295 150.778C800.704 150.6 801.057 150.359 801.354 150.055C801.658 149.752 801.896 149.399 802.067 148.996C802.239 148.587 802.325 148.151 802.325 147.689C802.325 147.22 802.239 146.788 802.067 146.392C801.896 145.989 801.658 145.642 801.354 145.352C801.051 145.055 800.694 144.824 800.285 144.659C799.882 144.487 799.446 144.401 798.978 144.401C798.45 144.401 797.961 144.497 797.512 144.688C797.07 144.873 796.7 145.124 796.403 145.441L794.947 145.213V137.361H803.404V139.004H796.581V143.52Z" fill="#B3B3B3"/>
<path d="M800.194 37.4038H756.156V40.6845H800.194V37.4038Z" fill="#B3B3B3"/>
<path d="M843.147 49.0293H756.156V52.3099H843.147V49.0293Z" fill="#B3B3B3"/>
<path d="M843.147 60.6548H756.156V63.9354H843.147V60.6548Z" fill="#B3B3B3"/>
<path d="M843.147 72.2698H756.156V75.5504H843.147V72.2698Z" fill="#B3B3B3"/>
<path d="M843.147 83.8953H756.156V87.1759H843.147V83.8953Z" fill="#B3B3B3"/>
<path d="M843.147 95.521H756.156V98.8016H843.147V95.521Z" fill="#B3B3B3"/>
<path d="M843.147 107.136H756.156V110.417H843.147V107.136Z" fill="#B3B3B3"/>
<path d="M843.202 118.761H799.164V122.042H843.202V118.761Z" fill="#B3B3B3"/>
<g opacity="0.4">
<g style="mix-blend-mode:multiply" opacity="0.15">
<g style="mix-blend-mode:multiply" opacity="0.15">
<path d="M226.513 2.48438H149V164.287H264.36V40.1746C257.51 33.3373 233.363 9.3217 226.513 2.48438Z" fill="black"/>
</g>
<g style="mix-blend-mode:multiply" opacity="0.15">
<path d="M226.514 2.48438V40.1746H264.276L226.514 2.48438Z" fill="black"/>
</g>
<g style="mix-blend-mode:multiply" opacity="0.15">
<path d="M162.409 142.994H164.202L164.826 139.845H168.103L167.489 142.994H170.717L171.331 139.845H174.619L174.005 142.994H175.589L174.966 145.796H173.46L172.777 149.301H174.639L174.005 152.074H172.233L171.698 154.857H168.39L168.935 152.074H165.747L165.212 154.857H161.865L162.409 152.074H160.845L161.479 149.301H162.954L163.647 145.796H161.776L162.409 142.994ZM166.281 149.301H169.48L170.163 145.796H166.955L166.281 149.301ZM176.094 148.222L181.432 139.845H184.739L179.481 148.242H182.65V145.341L185.749 145.301V148.242H187.839V150.757H185.749V152.143H187.66V154.857H181.224V152.143H182.65V150.757H176.094V148.222ZM194.849 154.995C193.793 154.995 192.895 154.801 192.156 154.411C191.417 154.022 190.813 153.487 190.344 152.807C189.882 152.12 189.542 151.315 189.324 150.391C189.113 149.46 189.007 148.46 189.007 147.39C189.007 146.334 189.109 145.341 189.314 144.41C189.519 143.472 189.852 142.654 190.314 141.954C190.776 141.248 191.38 140.69 192.126 140.28C192.872 139.871 193.787 139.666 194.869 139.666C195.939 139.666 196.843 139.868 197.583 140.271C198.329 140.673 198.933 141.221 199.395 141.914C199.857 142.607 200.19 143.419 200.395 144.35C200.606 145.275 200.712 146.261 200.712 147.311C200.712 148.374 200.603 149.374 200.385 150.312C200.174 151.242 199.834 152.054 199.365 152.747C198.903 153.441 198.299 153.989 197.553 154.391C196.807 154.794 195.906 154.995 194.849 154.995ZM194.849 151.955C195.437 151.955 195.902 151.84 196.246 151.609C196.596 151.371 196.863 151.048 197.048 150.638C197.233 150.222 197.351 149.731 197.404 149.163C197.457 148.595 197.484 147.978 197.484 147.311C197.484 146.658 197.457 146.05 197.404 145.489C197.351 144.921 197.233 144.43 197.048 144.014C196.87 143.591 196.606 143.261 196.256 143.023C195.912 142.786 195.45 142.667 194.869 142.667C194.282 142.667 193.813 142.786 193.463 143.023C193.113 143.261 192.846 143.591 192.661 144.014C192.476 144.43 192.354 144.921 192.295 145.489C192.242 146.05 192.215 146.658 192.215 147.311C192.215 147.978 192.242 148.595 192.295 149.163C192.354 149.731 192.473 150.222 192.651 150.638C192.836 151.048 193.1 151.371 193.443 151.609C193.793 151.84 194.262 151.955 194.849 151.955ZM202.286 152.282L207.475 146.766C207.924 146.331 208.27 145.895 208.515 145.459C208.759 145.024 208.881 144.581 208.881 144.132C208.881 143.941 208.842 143.753 208.762 143.568C208.683 143.377 208.568 143.208 208.416 143.063C208.27 142.911 208.089 142.792 207.871 142.707C207.66 142.614 207.419 142.568 207.148 142.568C206.825 142.568 206.541 142.621 206.297 142.726C206.059 142.825 205.858 142.964 205.693 143.142C205.534 143.32 205.412 143.528 205.326 143.766C205.24 144.004 205.194 144.255 205.188 144.519H202.207C202.207 143.74 202.336 143.046 202.593 142.439C202.851 141.825 203.204 141.31 203.653 140.894C204.108 140.472 204.64 140.152 205.247 139.934C205.854 139.716 206.505 139.607 207.198 139.607C207.851 139.607 208.472 139.706 209.059 139.904C209.653 140.102 210.175 140.393 210.624 140.776C211.079 141.158 211.439 141.63 211.703 142.192C211.967 142.753 212.099 143.4 212.099 144.132C212.099 144.72 211.977 145.265 211.733 145.766C211.495 146.261 211.172 146.737 210.763 147.192L206.485 151.817H212.08V154.857H202.286V152.282Z" fill="black"/>
</g>
</g>
<path d="M229.024 4.3479H151.5V166.15H266.871V42.0381C260.02 35.2008 235.874 11.1852 229.024 4.3479Z" fill="#E6E6E6"/>
<path d="M224.023 0V37.6902H261.785L224.023 0Z" fill="#F2F2F2"/>
<path d="M159.959 140.509H162.454L163.078 137.36H164.969L164.355 140.509H167.831L168.455 137.36H170.346L169.732 140.509H171.96L171.574 142.48H169.346L168.544 146.589H170.911L170.544 148.52H168.168L167.425 152.372H165.514L166.267 148.52H162.791L162.048 152.372H160.097L160.86 148.52H158.473L158.879 146.589H161.246L162.058 142.48H159.553L159.959 140.509ZM163.167 146.589H166.643L167.445 142.48H163.969L163.167 146.589ZM173.287 146.471L178.625 137.36H180.734L175.654 146.332H179.496V143.856L181.437 143.718V146.332H183.675V148.035H181.437V150.669H182.922V152.372H178.05V150.669H179.496V148.035H173.268L173.287 146.471ZM191.26 152.551C190.191 152.551 189.296 152.353 188.577 151.956C187.857 151.56 187.279 151.016 186.844 150.323C186.415 149.629 186.108 148.817 185.923 147.887C185.738 146.956 185.645 145.956 185.645 144.886C185.645 143.744 185.771 142.678 186.022 141.688C186.273 140.691 186.609 139.892 187.032 139.291C187.454 138.691 187.986 138.179 188.626 137.756C189.273 137.334 190.158 137.123 191.28 137.123C192.343 137.123 193.227 137.291 193.934 137.628C194.64 137.964 195.221 138.483 195.677 139.182C196.139 139.876 196.462 140.714 196.647 141.698C196.832 142.681 196.924 143.724 196.924 144.827C196.924 145.903 196.832 146.91 196.647 147.847C196.462 148.784 196.149 149.603 195.706 150.303C195.271 150.996 194.69 151.544 193.963 151.947C193.237 152.349 192.336 152.551 191.26 152.551ZM191.26 150.788C192.032 150.788 192.653 150.633 193.122 150.323C193.597 150.006 193.954 149.577 194.191 149.035C194.435 148.494 194.617 147.863 194.736 147.144C194.855 146.418 194.914 145.645 194.914 144.827C194.914 144.041 194.868 143.289 194.775 142.569C194.683 141.843 194.505 141.202 194.241 140.648C193.977 140.093 193.607 139.651 193.132 139.321C192.656 138.991 192.039 138.826 191.28 138.826C190.494 138.826 189.874 138.991 189.418 139.321C188.963 139.651 188.623 140.05 188.398 140.519C188.174 140.981 187.996 141.618 187.864 142.43C187.738 143.242 187.675 144.041 187.675 144.827C187.675 145.645 187.715 146.418 187.794 147.144C187.88 147.863 188.048 148.494 188.299 149.035C188.557 149.577 188.92 150.006 189.389 150.323C189.864 150.633 190.488 150.788 191.26 150.788ZM200.341 150.669H201.796V139.687L198.756 141.341V139.272L202.935 136.935H203.727V150.669H205.203V152.372H200.341V150.669Z" fill="#B3B3B3"/>
<path d="M203.026 37.4036H158.988V40.6842H203.026V37.4036Z" fill="#B3B3B3"/>
<path d="M245.979 49.0291H158.988V52.3097H245.979V49.0291Z" fill="#B3B3B3"/>
<path d="M245.979 60.6548H158.988V63.9354H245.979V60.6548Z" fill="#B3B3B3"/>
<path d="M245.979 72.2698H158.988V75.5504H245.979V72.2698Z" fill="#B3B3B3"/>
<path d="M245.979 83.8953H158.988V87.1759H245.979V83.8953Z" fill="#B3B3B3"/>
<path d="M245.979 95.5208H158.988V98.8014H245.979V95.5208Z" fill="#B3B3B3"/>
<path d="M245.979 107.136H158.988V110.416H245.979V107.136Z" fill="#B3B3B3"/>
<path d="M246.044 118.761H202.006V122.042H246.044V118.761Z" fill="#B3B3B3"/>
</g>
<g opacity="0.2">
<g style="mix-blend-mode:multiply" opacity="0.15">
<g style="mix-blend-mode:multiply" opacity="0.15">
<path d="M77.5129 2.48438H0V164.287H115.36V40.1746C108.51 33.3373 84.3633 9.3217 77.5129 2.48438Z" fill="black"/>
</g>
<g style="mix-blend-mode:multiply" opacity="0.15">
<path d="M77.5137 2.48438V40.1746H115.276L77.5137 2.48438Z" fill="black"/>
</g>
<g style="mix-blend-mode:multiply" opacity="0.15">
<path d="M13.4094 142.994H15.2017L15.8256 139.845H19.1033L18.4893 142.994H21.7175L22.3314 139.845H25.619L25.0051 142.994H26.5894L25.9656 145.796H24.4604L23.7772 149.301H25.6388L25.0051 152.074H23.2325L22.6978 154.857H19.3904L19.9351 152.074H16.7465L16.2118 154.857H12.8648L13.4094 152.074H11.8448L12.4786 149.301H13.954L14.6472 145.796H12.7757L13.4094 142.994ZM17.2812 149.301H20.4797L21.1629 145.796H17.9546L17.2812 149.301ZM27.0945 148.222L32.4318 139.845H35.7392L30.4811 148.242H33.6498V145.341L36.7492 145.301V148.242H38.8386V150.757H36.7492V152.143H38.6604V154.857H32.2239V152.143H33.6498V150.757H27.0945V148.222ZM45.8495 154.995C44.7932 154.995 43.8954 154.801 43.1561 154.411C42.4167 154.022 41.8126 153.487 41.3439 152.807C40.8818 152.12 40.5418 151.315 40.324 150.391C40.1127 149.46 40.0071 148.46 40.0071 147.39C40.0071 146.334 40.1094 145.341 40.3141 144.41C40.5187 143.472 40.8521 142.654 41.3142 141.954C41.7763 141.248 42.3804 140.69 43.1263 140.28C43.8723 139.871 44.7866 139.666 45.8693 139.666C46.9388 139.666 47.8432 139.868 48.5825 140.271C49.3285 140.673 49.9326 141.221 50.3947 141.914C50.8568 142.607 51.1902 143.419 51.3948 144.35C51.6061 145.275 51.7117 146.261 51.7117 147.311C51.7117 148.374 51.6028 149.374 51.3849 150.312C51.1737 151.242 50.8337 152.054 50.365 152.747C49.9029 153.441 49.2988 153.989 48.5528 154.391C47.8069 154.794 46.9057 154.995 45.8495 154.995ZM45.8495 151.955C46.437 151.955 46.9024 151.84 47.2457 151.609C47.5956 151.371 47.863 151.048 48.0478 150.638C48.2327 150.222 48.3515 149.731 48.4043 149.163C48.4571 148.595 48.4835 147.978 48.4835 147.311C48.4835 146.658 48.4571 146.05 48.4043 145.489C48.3515 144.921 48.2327 144.43 48.0478 144.014C47.8696 143.591 47.6055 143.261 47.2556 143.023C46.9123 142.786 46.4502 142.667 45.8693 142.667C45.2818 142.667 44.813 142.786 44.4632 143.023C44.1133 143.261 43.8459 143.591 43.6611 144.014C43.4762 144.43 43.3541 144.921 43.2947 145.489C43.2419 146.05 43.2155 146.658 43.2155 147.311C43.2155 147.978 43.2419 148.595 43.2947 149.163C43.3541 149.731 43.4729 150.222 43.6512 150.638C43.836 151.048 44.1001 151.371 44.4434 151.609C44.7932 151.84 45.262 151.955 45.8495 151.955ZM53.2862 152.282L58.475 146.766C58.9239 146.331 59.2705 145.895 59.5147 145.459C59.759 145.024 59.8811 144.581 59.8811 144.132C59.8811 143.941 59.8415 143.753 59.7623 143.568C59.6831 143.377 59.5675 143.208 59.4157 143.063C59.2705 142.911 59.0889 142.792 58.8711 142.707C58.6598 142.614 58.4189 142.568 58.1482 142.568C57.8247 142.568 57.5409 142.621 57.2966 142.726C57.0589 142.825 56.8576 142.964 56.6926 143.142C56.5341 143.32 56.412 143.528 56.3262 143.766C56.2404 144.004 56.1941 144.255 56.1875 144.519H53.2069C53.2069 143.74 53.3357 143.046 53.5931 142.439C53.8506 141.825 54.2038 141.31 54.6527 140.894C55.1082 140.472 55.6396 140.152 56.247 139.934C56.8543 139.716 57.5046 139.607 58.1977 139.607C58.8513 139.607 59.4718 139.706 60.0594 139.904C60.6535 140.102 61.175 140.393 61.6239 140.776C62.0794 141.158 62.4392 141.63 62.7033 142.192C62.9673 142.753 63.0994 143.4 63.0994 144.132C63.0994 144.72 62.9772 145.265 62.733 145.766C62.4953 146.261 62.1719 146.737 61.7626 147.192L57.4847 151.817H63.0796V154.857H53.2862V152.282Z" fill="black"/>
</g>
</g>
<path d="M80.0236 4.3479H2.5V166.15H117.871V42.0381C111.02 35.2008 86.8739 11.1852 80.0236 4.3479Z" fill="#E6E6E6"/>
<path d="M75.0234 0V37.6902H112.785L75.0234 0Z" fill="#F2F2F2"/>
<path d="M10.9588 140.509H13.4542L14.078 137.36H15.9694L15.3554 140.509H18.8312L19.455 137.36H21.3463L20.7324 140.509H22.9604L22.5742 142.48H20.3462L19.5441 146.589H21.9108L21.5444 148.52H19.1678L18.4252 152.372H16.514L17.2666 148.52H13.7909L13.0482 152.372H11.0974L11.8599 148.52H9.47344L9.87943 146.589H12.2461L13.0581 142.48H10.5528L10.9588 140.509ZM14.1671 146.589H17.6429L18.445 142.48H14.9692L14.1671 146.589ZM24.2873 146.471L29.6247 137.36H31.7339L26.654 146.332H30.4961V143.856L32.437 143.718V146.332H34.6749V148.035H32.437V150.669H33.9223V152.372H29.0504V150.669H30.4961V148.035H24.2675L24.2873 146.471ZM42.2601 152.551C41.1906 152.551 40.2961 152.353 39.5766 151.956C38.857 151.56 38.2794 151.016 37.8437 150.323C37.4146 149.629 37.1076 148.817 36.9227 147.887C36.7379 146.956 36.6455 145.956 36.6455 144.886C36.6455 143.744 36.7709 142.678 37.0218 141.688C37.2726 140.691 37.6093 139.892 38.0318 139.291C38.4543 138.691 38.9857 138.179 39.6261 137.756C40.273 137.334 41.1576 137.123 42.2799 137.123C43.3428 137.123 44.2274 137.291 44.9337 137.628C45.6401 137.964 46.221 138.483 46.6765 139.182C47.1387 139.876 47.4621 140.714 47.647 141.698C47.8318 142.681 47.9242 143.724 47.9242 144.827C47.9242 145.903 47.8318 146.91 47.647 147.847C47.4621 148.784 47.1486 149.603 46.7063 150.303C46.2705 150.996 45.6896 151.544 44.9634 151.947C44.2373 152.349 43.3362 152.551 42.2601 152.551ZM42.2601 150.788C43.0325 150.788 43.653 150.633 44.1217 150.323C44.5971 150.006 44.9535 149.577 45.1912 149.035C45.4355 148.494 45.617 147.863 45.7358 147.144C45.8546 146.418 45.9141 145.645 45.9141 144.827C45.9141 144.041 45.8679 143.289 45.7754 142.569C45.683 141.843 45.5048 141.202 45.2407 140.648C44.9766 140.093 44.607 139.651 44.1316 139.321C43.6563 138.991 43.0391 138.826 42.2799 138.826C41.4943 138.826 40.8738 138.991 40.4183 139.321C39.9628 139.651 39.6228 140.05 39.3983 140.519C39.1739 140.981 38.9956 141.618 38.8636 142.43C38.7382 143.242 38.6754 144.041 38.6754 144.827C38.6754 145.645 38.7151 146.418 38.7943 147.144C38.8801 147.863 39.0484 148.494 39.2993 149.035C39.5568 149.577 39.9198 150.006 40.3886 150.323C40.8639 150.633 41.4877 150.788 42.2601 150.788ZM55.4302 152.551C54.3608 152.551 53.4663 152.353 52.7467 151.956C52.0271 151.56 51.4495 151.016 51.0138 150.323C50.5847 149.629 50.2777 148.817 50.0929 147.887C49.908 146.956 49.8156 145.956 49.8156 144.886C49.8156 143.744 49.941 142.678 50.1919 141.688C50.4427 140.691 50.7794 139.892 51.2019 139.291C51.6244 138.691 52.1558 138.179 52.7962 137.756C53.4431 137.334 54.3278 137.123 55.45 137.123C56.5129 137.123 57.3975 137.291 58.1038 137.628C58.8102 137.964 59.3912 138.483 59.8467 139.182C60.3088 139.876 60.6322 140.714 60.8171 141.698C61.0019 142.681 61.0944 143.724 61.0944 144.827C61.0944 145.903 61.0019 146.91 60.8171 147.847C60.6322 148.784 60.3187 149.603 59.8764 150.303C59.4407 150.996 58.8597 151.544 58.1336 151.947C57.4074 152.349 56.5063 152.551 55.4302 152.551ZM55.4302 150.788C56.2026 150.788 56.8231 150.633 57.2919 150.323C57.7672 150.006 58.1237 149.577 58.3613 149.035C58.6056 148.494 58.7871 147.863 58.9059 147.144C59.0248 146.418 59.0842 145.645 59.0842 144.827C59.0842 144.041 59.038 143.289 58.9455 142.569C58.8531 141.843 58.6749 141.202 58.4108 140.648C58.1468 140.093 57.7771 139.651 57.3018 139.321C56.8264 138.991 56.2092 138.826 55.45 138.826C54.6644 138.826 54.0439 138.991 53.5884 139.321C53.1329 139.651 52.7929 140.05 52.5684 140.519C52.344 140.981 52.1657 141.618 52.0337 142.43C51.9083 143.242 51.8456 144.041 51.8456 144.827C51.8456 145.645 51.8852 146.418 51.9644 147.144C52.0502 147.863 52.2186 148.494 52.4694 149.035C52.7269 149.577 53.09 150.006 53.5587 150.323C54.034 150.633 54.6578 150.788 55.4302 150.788Z" fill="#B3B3B3"/>
<path d="M54.0261 37.4036H9.98828V40.6842H54.0261V37.4036Z" fill="#B3B3B3"/>
<path d="M96.9789 49.0291H9.98828V52.3097H96.9789V49.0291Z" fill="#B3B3B3"/>
<path d="M96.9789 60.6548H9.98828V63.9354H96.9789V60.6548Z" fill="#B3B3B3"/>
<path d="M96.9789 72.2698H9.98828V75.5504H96.9789V72.2698Z" fill="#B3B3B3"/>
<path d="M96.9789 83.8953H9.98828V87.1759H96.9789V83.8953Z" fill="#B3B3B3"/>
<path d="M96.9789 95.5208H9.98828V98.8014H96.9789V95.5208Z" fill="#B3B3B3"/>
<path d="M96.9789 107.136H9.98828V110.416H96.9789V107.136Z" fill="#B3B3B3"/>
<path d="M97.0437 118.761H53.0059V122.042H97.0437V118.761Z" fill="#B3B3B3"/>
</g>
<g opacity="0.4">
<g style="mix-blend-mode:multiply" opacity="0.15">
<g style="mix-blend-mode:multiply" opacity="0.15">
<path d="M1117.51 2.48438H1040V164.287H1155.36V40.1746C1148.51 33.3373 1124.36 9.3217 1117.51 2.48438Z" fill="black"/>
</g>
<g style="mix-blend-mode:multiply" opacity="0.15">
<path d="M1117.51 2.48438V40.1746H1155.27L1117.51 2.48438Z" fill="black"/>
</g>
<g style="mix-blend-mode:multiply" opacity="0.15">
<path d="M1053.41 142.994H1055.2L1055.83 139.845H1059.1L1058.49 142.994H1061.72L1062.33 139.845H1065.62L1065.01 142.994H1066.59L1065.97 145.796H1064.46L1063.78 149.301H1065.64L1065.01 152.074H1063.23L1062.7 154.857H1059.39L1059.94 152.074H1056.75L1056.21 154.857H1052.86L1053.41 152.074H1051.84L1052.48 149.301H1053.95L1054.65 145.796H1052.78L1053.41 142.994ZM1057.28 149.301H1060.48L1061.16 145.796H1057.95L1057.28 149.301ZM1067.09 148.222L1072.43 139.845H1075.74L1070.48 148.242H1073.65V145.341L1076.75 145.301V148.242H1078.84V150.757H1076.75V152.143H1078.66V154.857H1072.22V152.143H1073.65V150.757H1067.09V148.222ZM1085.85 154.995C1084.79 154.995 1083.9 154.801 1083.16 154.411C1082.42 154.022 1081.81 153.487 1081.34 152.807C1080.88 152.12 1080.54 151.315 1080.32 150.391C1080.11 149.46 1080.01 148.46 1080.01 147.39C1080.01 146.334 1080.11 145.341 1080.31 144.41C1080.52 143.472 1080.85 142.654 1081.31 141.954C1081.78 141.248 1082.38 140.69 1083.13 140.28C1083.87 139.871 1084.79 139.666 1085.87 139.666C1086.94 139.666 1087.84 139.868 1088.58 140.271C1089.33 140.673 1089.93 141.221 1090.39 141.914C1090.86 142.607 1091.19 143.419 1091.39 144.35C1091.61 145.275 1091.71 146.261 1091.71 147.311C1091.71 148.374 1091.6 149.374 1091.38 150.312C1091.17 151.242 1090.83 152.054 1090.36 152.747C1089.9 153.441 1089.3 153.989 1088.55 154.391C1087.81 154.794 1086.91 154.995 1085.85 154.995ZM1085.85 151.955C1086.44 151.955 1086.9 151.84 1087.25 151.609C1087.6 151.371 1087.86 151.048 1088.05 150.638C1088.23 150.222 1088.35 149.731 1088.4 149.163C1088.46 148.595 1088.48 147.978 1088.48 147.311C1088.48 146.658 1088.46 146.05 1088.4 145.489C1088.35 144.921 1088.23 144.43 1088.05 144.014C1087.87 143.591 1087.61 143.261 1087.26 143.023C1086.91 142.786 1086.45 142.667 1085.87 142.667C1085.28 142.667 1084.81 142.786 1084.46 143.023C1084.11 143.261 1083.85 143.591 1083.66 144.014C1083.48 144.43 1083.35 144.921 1083.29 145.489C1083.24 146.05 1083.22 146.658 1083.22 147.311C1083.22 147.978 1083.24 148.595 1083.29 149.163C1083.35 149.731 1083.47 150.222 1083.65 150.638C1083.84 151.048 1084.1 151.371 1084.44 151.609C1084.79 151.84 1085.26 151.955 1085.85 151.955ZM1093.29 152.282L1098.47 146.766C1098.92 146.331 1099.27 145.895 1099.51 145.459C1099.76 145.024 1099.88 144.581 1099.88 144.132C1099.88 143.941 1099.84 143.753 1099.76 143.568C1099.68 143.377 1099.57 143.208 1099.42 143.063C1099.27 142.911 1099.09 142.792 1098.87 142.707C1098.66 142.614 1098.42 142.568 1098.15 142.568C1097.82 142.568 1097.54 142.621 1097.3 142.726C1097.06 142.825 1096.86 142.964 1096.69 143.142C1096.53 143.32 1096.41 143.528 1096.33 143.766C1096.24 144.004 1096.19 144.255 1096.19 144.519H1093.21C1093.21 143.74 1093.34 143.046 1093.59 142.439C1093.85 141.825 1094.2 141.31 1094.65 140.894C1095.11 140.472 1095.64 140.152 1096.25 139.934C1096.85 139.716 1097.5 139.607 1098.2 139.607C1098.85 139.607 1099.47 139.706 1100.06 139.904C1100.65 140.102 1101.18 140.393 1101.62 140.776C1102.08 141.158 1102.44 141.63 1102.7 142.192C1102.97 142.753 1103.1 143.4 1103.1 144.132C1103.1 144.72 1102.98 145.265 1102.73 145.766C1102.5 146.261 1102.17 146.737 1101.76 147.192L1097.48 151.817H1103.08V154.857H1093.29V152.282Z" fill="black"/>
</g>
</g>
<path d="M1120.02 4.3479H1042.5V166.15H1157.87V42.0381C1151.02 35.2008 1126.87 11.1852 1120.02 4.3479Z" fill="#E6E6E6"/>
<path d="M1115.02 0V37.6902H1152.79L1115.02 0Z" fill="#F2F2F2"/>
<path d="M1050.96 140.509H1053.46L1054.08 137.36H1055.97L1055.36 140.509H1058.83L1059.46 137.36H1061.35L1060.73 140.509H1062.96L1062.58 142.48H1060.35L1059.55 146.589H1061.91L1061.55 148.52H1059.17L1058.43 152.372H1056.52L1057.27 148.52H1053.79L1053.05 152.372H1051.1L1051.86 148.52H1049.48L1049.88 146.589H1052.25L1053.06 142.48H1050.55L1050.96 140.509ZM1054.17 146.589H1057.64L1058.45 142.48H1054.97L1054.17 146.589ZM1064.29 146.471L1069.63 137.36H1071.74L1066.66 146.332H1070.5V143.856L1072.44 143.718V146.332H1074.68V148.035H1072.44V150.669H1073.92V152.372H1069.05V150.669H1070.5V148.035H1064.27L1064.29 146.471ZM1082.26 152.551C1081.19 152.551 1080.3 152.353 1079.58 151.956C1078.86 151.56 1078.28 151.016 1077.85 150.323C1077.42 149.629 1077.11 148.817 1076.92 147.887C1076.74 146.956 1076.65 145.956 1076.65 144.886C1076.65 143.744 1076.77 142.678 1077.02 141.688C1077.27 140.691 1077.61 139.892 1078.03 139.291C1078.46 138.691 1078.99 138.179 1079.63 137.756C1080.27 137.334 1081.16 137.123 1082.28 137.123C1083.34 137.123 1084.23 137.291 1084.94 137.628C1085.64 137.964 1086.22 138.483 1086.68 139.182C1087.14 139.876 1087.46 140.714 1087.65 141.698C1087.83 142.681 1087.93 143.724 1087.93 144.827C1087.93 145.903 1087.83 146.91 1087.65 147.847C1087.46 148.784 1087.15 149.603 1086.71 150.303C1086.27 150.996 1085.69 151.544 1084.97 151.947C1084.24 152.349 1083.34 152.551 1082.26 152.551ZM1082.26 150.788C1083.03 150.788 1083.65 150.633 1084.12 150.323C1084.6 150.006 1084.96 149.577 1085.19 149.035C1085.44 148.494 1085.62 147.863 1085.74 147.144C1085.86 146.418 1085.92 145.645 1085.92 144.827C1085.92 144.041 1085.87 143.289 1085.78 142.569C1085.68 141.843 1085.51 141.202 1085.24 140.648C1084.98 140.093 1084.61 139.651 1084.13 139.321C1083.66 138.991 1083.04 138.826 1082.28 138.826C1081.5 138.826 1080.88 138.991 1080.42 139.321C1079.96 139.651 1079.62 140.05 1079.4 140.519C1079.18 140.981 1079 141.618 1078.87 142.43C1078.74 143.242 1078.68 144.041 1078.68 144.827C1078.68 145.645 1078.72 146.418 1078.8 147.144C1078.88 147.863 1079.05 148.494 1079.3 149.035C1079.56 149.577 1079.92 150.006 1080.39 150.323C1080.87 150.633 1081.49 150.788 1082.26 150.788ZM1090.75 150.669H1091.91C1092.26 149.652 1092.66 148.623 1093.09 147.58C1093.51 146.53 1093.95 145.51 1094.39 144.52C1094.83 143.53 1095.27 142.589 1095.7 141.698C1096.13 140.8 1096.52 139.991 1096.88 139.272H1091.25V140.43H1089.35V137.36H1099.2V138.846C1098.77 139.704 1098.31 140.615 1097.84 141.579C1097.36 142.536 1096.89 143.52 1096.42 144.53C1095.96 145.54 1095.51 146.563 1095.08 147.599C1094.64 148.636 1094.24 149.659 1093.89 150.669H1095.14V152.372H1090.75V150.669Z" fill="#B3B3B3"/>
<path d="M1094.03 37.4036H1049.99V40.6842H1094.03V37.4036Z" fill="#B3B3B3"/>
<path d="M1136.98 49.0291H1049.99V52.3097H1136.98V49.0291Z" fill="#B3B3B3"/>
<path d="M1136.98 60.6548H1049.99V63.9354H1136.98V60.6548Z" fill="#B3B3B3"/>
<path d="M1136.98 72.2698H1049.99V75.5504H1136.98V72.2698Z" fill="#B3B3B3"/>
<path d="M1136.98 83.8953H1049.99V87.1759H1136.98V83.8953Z" fill="#B3B3B3"/>
<path d="M1136.98 95.5208H1049.99V98.8014H1136.98V95.5208Z" fill="#B3B3B3"/>
<path d="M1136.98 107.136H1049.99V110.416H1136.98V107.136Z" fill="#B3B3B3"/>
<path d="M1137.04 118.761H1093V122.042H1137.04V118.761Z" fill="#B3B3B3"/>
</g>
<g opacity="0.2">
<g style="mix-blend-mode:multiply" opacity="0.15">
<g style="mix-blend-mode:multiply" opacity="0.15">
<path d="M1266.51 2.48438H1189V164.287H1304.36V40.1746C1297.51 33.3373 1273.36 9.3217 1266.51 2.48438Z" fill="black"/>
</g>
<g style="mix-blend-mode:multiply" opacity="0.15">
<path d="M1266.51 2.48438V40.1746H1304.27L1266.51 2.48438Z" fill="black"/>
</g>
<g style="mix-blend-mode:multiply" opacity="0.15">
<path d="M1202.41 142.994H1204.2L1204.83 139.845H1208.1L1207.49 142.994H1210.72L1211.33 139.845H1214.62L1214.01 142.994H1215.59L1214.97 145.796H1213.46L1212.78 149.301H1214.64L1214.01 152.074H1212.23L1211.7 154.857H1208.39L1208.94 152.074H1205.75L1205.21 154.857H1201.86L1202.41 152.074H1200.84L1201.48 149.301H1202.95L1203.65 145.796H1201.78L1202.41 142.994ZM1206.28 149.301H1209.48L1210.16 145.796H1206.95L1206.28 149.301ZM1216.09 148.222L1221.43 139.845H1224.74L1219.48 148.242H1222.65V145.341L1225.75 145.301V148.242H1227.84V150.757H1225.75V152.143H1227.66V154.857H1221.22V152.143H1222.65V150.757H1216.09V148.222ZM1234.85 154.995C1233.79 154.995 1232.9 154.801 1232.16 154.411C1231.42 154.022 1230.81 153.487 1230.34 152.807C1229.88 152.12 1229.54 151.315 1229.32 150.391C1229.11 149.46 1229.01 148.46 1229.01 147.39C1229.01 146.334 1229.11 145.341 1229.31 144.41C1229.52 143.472 1229.85 142.654 1230.31 141.954C1230.78 141.248 1231.38 140.69 1232.13 140.28C1232.87 139.871 1233.79 139.666 1234.87 139.666C1235.94 139.666 1236.84 139.868 1237.58 140.271C1238.33 140.673 1238.93 141.221 1239.39 141.914C1239.86 142.607 1240.19 143.419 1240.39 144.35C1240.61 145.275 1240.71 146.261 1240.71 147.311C1240.71 148.374 1240.6 149.374 1240.38 150.312C1240.17 151.242 1239.83 152.054 1239.36 152.747C1238.9 153.441 1238.3 153.989 1237.55 154.391C1236.81 154.794 1235.91 154.995 1234.85 154.995ZM1234.85 151.955C1235.44 151.955 1235.9 151.84 1236.25 151.609C1236.6 151.371 1236.86 151.048 1237.05 150.638C1237.23 150.222 1237.35 149.731 1237.4 149.163C1237.46 148.595 1237.48 147.978 1237.48 147.311C1237.48 146.658 1237.46 146.05 1237.4 145.489C1237.35 144.921 1237.23 144.43 1237.05 144.014C1236.87 143.591 1236.61 143.261 1236.26 143.023C1235.91 142.786 1235.45 142.667 1234.87 142.667C1234.28 142.667 1233.81 142.786 1233.46 143.023C1233.11 143.261 1232.85 143.591 1232.66 144.014C1232.48 144.43 1232.35 144.921 1232.29 145.489C1232.24 146.05 1232.22 146.658 1232.22 147.311C1232.22 147.978 1232.24 148.595 1232.29 149.163C1232.35 149.731 1232.47 150.222 1232.65 150.638C1232.84 151.048 1233.1 151.371 1233.44 151.609C1233.79 151.84 1234.26 151.955 1234.85 151.955ZM1242.29 152.282L1247.47 146.766C1247.92 146.331 1248.27 145.895 1248.51 145.459C1248.76 145.024 1248.88 144.581 1248.88 144.132C1248.88 143.941 1248.84 143.753 1248.76 143.568C1248.68 143.377 1248.57 143.208 1248.42 143.063C1248.27 142.911 1248.09 142.792 1247.87 142.707C1247.66 142.614 1247.42 142.568 1247.15 142.568C1246.82 142.568 1246.54 142.621 1246.3 142.726C1246.06 142.825 1245.86 142.964 1245.69 143.142C1245.53 143.32 1245.41 143.528 1245.33 143.766C1245.24 144.004 1245.19 144.255 1245.19 144.519H1242.21C1242.21 143.74 1242.34 143.046 1242.59 142.439C1242.85 141.825 1243.2 141.31 1243.65 140.894C1244.11 140.472 1244.64 140.152 1245.25 139.934C1245.85 139.716 1246.5 139.607 1247.2 139.607C1247.85 139.607 1248.47 139.706 1249.06 139.904C1249.65 140.102 1250.18 140.393 1250.62 140.776C1251.08 141.158 1251.44 141.63 1251.7 142.192C1251.97 142.753 1252.1 143.4 1252.1 144.132C1252.1 144.72 1251.98 145.265 1251.73 145.766C1251.5 146.261 1251.17 146.737 1250.76 147.192L1246.48 151.817H1252.08V154.857H1242.29V152.282Z" fill="black"/>
</g>
</g>
<path d="M1269.02 4.3479H1191.5V166.15H1306.87V42.0381C1300.02 35.2008 1275.87 11.1852 1269.02 4.3479Z" fill="#E6E6E6"/>
<path d="M1264.02 0V37.6902H1301.79L1264.02 0Z" fill="#F2F2F2"/>
<path d="M1199.96 140.509H1202.46L1203.08 137.36H1204.97L1204.36 140.509H1207.83L1208.46 137.36H1210.35L1209.73 140.509H1211.96L1211.58 142.48H1209.35L1208.55 146.589H1210.91L1210.55 148.52H1208.17L1207.43 152.372H1205.52L1206.27 148.52H1202.79L1202.05 152.372H1200.1L1200.86 148.52H1198.48L1198.88 146.589H1201.25L1202.06 142.48H1199.55L1199.96 140.509ZM1203.17 146.589H1206.64L1207.45 142.48H1203.97L1203.17 146.589ZM1213.29 146.471L1218.63 137.36H1220.74L1215.66 146.332H1219.5V143.856L1221.44 143.718V146.332H1223.68V148.035H1221.44V150.669H1222.92V152.372H1218.05V150.669H1219.5V148.035H1213.27L1213.29 146.471ZM1231.26 152.551C1230.19 152.551 1229.3 152.353 1228.58 151.956C1227.86 151.56 1227.28 151.016 1226.85 150.323C1226.42 149.629 1226.11 148.817 1225.92 147.887C1225.74 146.956 1225.65 145.956 1225.65 144.886C1225.65 143.744 1225.77 142.678 1226.02 141.688C1226.27 140.691 1226.61 139.892 1227.03 139.291C1227.46 138.691 1227.99 138.179 1228.63 137.756C1229.27 137.334 1230.16 137.123 1231.28 137.123C1232.34 137.123 1233.23 137.291 1233.94 137.628C1234.64 137.964 1235.22 138.483 1235.68 139.182C1236.14 139.876 1236.46 140.714 1236.65 141.698C1236.83 142.681 1236.93 143.724 1236.93 144.827C1236.93 145.903 1236.83 146.91 1236.65 147.847C1236.46 148.784 1236.15 149.603 1235.71 150.303C1235.27 150.996 1234.69 151.544 1233.97 151.947C1233.24 152.349 1232.34 152.551 1231.26 152.551ZM1231.26 150.788C1232.03 150.788 1232.65 150.633 1233.12 150.323C1233.6 150.006 1233.96 149.577 1234.19 149.035C1234.44 148.494 1234.62 147.863 1234.74 147.144C1234.86 146.418 1234.92 145.645 1234.92 144.827C1234.92 144.041 1234.87 143.289 1234.78 142.569C1234.68 141.843 1234.51 141.202 1234.24 140.648C1233.98 140.093 1233.61 139.651 1233.13 139.321C1232.66 138.991 1232.04 138.826 1231.28 138.826C1230.5 138.826 1229.88 138.991 1229.42 139.321C1228.96 139.651 1228.62 140.05 1228.4 140.519C1228.18 140.981 1228 141.618 1227.87 142.43C1227.74 143.242 1227.68 144.041 1227.68 144.827C1227.68 145.645 1227.72 146.418 1227.8 147.144C1227.88 147.863 1228.05 148.494 1228.3 149.035C1228.56 149.577 1228.92 150.006 1229.39 150.323C1229.87 150.633 1230.49 150.788 1231.26 150.788ZM1244.19 137.083C1244.76 137.083 1245.3 137.185 1245.8 137.39C1246.31 137.595 1246.75 137.875 1247.14 138.232C1247.52 138.588 1247.82 139.007 1248.04 139.489C1248.26 139.965 1248.37 140.473 1248.37 141.014C1248.37 141.661 1248.22 142.259 1247.92 142.807C1247.61 143.355 1247.21 143.807 1246.7 144.163C1247.04 144.361 1247.34 144.599 1247.62 144.876C1247.9 145.147 1248.14 145.447 1248.33 145.777C1248.53 146.101 1248.68 146.451 1248.79 146.827C1248.9 147.203 1248.96 147.593 1248.96 147.995C1248.96 148.623 1248.83 149.21 1248.57 149.758C1248.32 150.306 1247.98 150.788 1247.54 151.204C1247.11 151.613 1246.6 151.937 1246.02 152.174C1245.44 152.412 1244.82 152.531 1244.15 152.531C1243.49 152.531 1242.86 152.412 1242.27 152.174C1241.69 151.937 1241.17 151.613 1240.74 151.204C1240.3 150.788 1239.96 150.306 1239.7 149.758C1239.45 149.21 1239.32 148.623 1239.32 147.995C1239.32 147.593 1239.38 147.203 1239.48 146.827C1239.59 146.444 1239.75 146.091 1239.95 145.767C1240.15 145.437 1240.39 145.137 1240.67 144.866C1240.95 144.589 1241.27 144.351 1241.61 144.153C1241.11 143.79 1240.71 143.338 1240.41 142.797C1240.12 142.249 1239.98 141.655 1239.98 141.014C1239.98 140.473 1240.09 139.965 1240.3 139.489C1240.52 139.007 1240.82 138.588 1241.19 138.232C1241.58 137.875 1242.03 137.595 1242.54 137.39C1243.06 137.185 1243.61 137.083 1244.19 137.083ZM1241.13 147.956C1241.13 148.345 1241.21 148.715 1241.37 149.065C1241.53 149.408 1241.75 149.709 1242.02 149.966C1242.29 150.224 1242.61 150.428 1242.98 150.58C1243.35 150.732 1243.74 150.808 1244.15 150.808C1244.56 150.808 1244.95 150.732 1245.31 150.58C1245.68 150.428 1245.99 150.224 1246.26 149.966C1246.54 149.709 1246.76 149.408 1246.92 149.065C1247.08 148.715 1247.16 148.345 1247.16 147.956C1247.16 147.573 1247.08 147.21 1246.92 146.867C1246.76 146.523 1246.54 146.223 1246.26 145.965C1245.99 145.708 1245.68 145.507 1245.31 145.361C1244.95 145.21 1244.56 145.134 1244.15 145.134C1243.74 145.134 1243.35 145.21 1242.98 145.361C1242.61 145.507 1242.29 145.708 1242.02 145.965C1241.75 146.223 1241.53 146.523 1241.37 146.867C1241.21 147.21 1241.13 147.573 1241.13 147.956ZM1241.68 141.054C1241.68 141.384 1241.74 141.694 1241.87 141.985C1241.99 142.269 1242.17 142.519 1242.39 142.737C1242.62 142.949 1242.88 143.117 1243.18 143.242C1243.49 143.368 1243.83 143.43 1244.19 143.43C1244.53 143.43 1244.85 143.368 1245.15 143.242C1245.44 143.117 1245.7 142.949 1245.93 142.737C1246.16 142.519 1246.34 142.269 1246.47 141.985C1246.6 141.694 1246.67 141.384 1246.67 141.054C1246.67 140.73 1246.6 140.427 1246.47 140.143C1246.34 139.852 1246.16 139.602 1245.93 139.39C1245.7 139.172 1245.44 139.001 1245.15 138.875C1244.85 138.75 1244.53 138.687 1244.19 138.687C1243.83 138.687 1243.49 138.75 1243.18 138.875C1242.88 139.001 1242.62 139.172 1242.39 139.39C1242.17 139.602 1241.99 139.852 1241.87 140.143C1241.74 140.427 1241.68 140.73 1241.68 141.054Z" fill="#B3B3B3"/>
<path d="M1243.03 37.4036H1198.99V40.6842H1243.03V37.4036Z" fill="#B3B3B3"/>
<path d="M1285.98 49.0291H1198.99V52.3097H1285.98V49.0291Z" fill="#B3B3B3"/>
<path d="M1285.98 60.6548H1198.99V63.9354H1285.98V60.6548Z" fill="#B3B3B3"/>
<path d="M1285.98 72.2698H1198.99V75.5504H1285.98V72.2698Z" fill="#B3B3B3"/>
<path d="M1285.98 83.8953H1198.99V87.1759H1285.98V83.8953Z" fill="#B3B3B3"/>
<path d="M1285.98 95.5208H1198.99V98.8014H1285.98V95.5208Z" fill="#B3B3B3"/>
<path d="M1285.98 107.136H1198.99V110.416H1285.98V107.136Z" fill="#B3B3B3"/>
<path d="M1286.04 118.761H1242V122.042H1286.04V118.761Z" fill="#B3B3B3"/>
</g>
<g opacity="0.6">
<g style="mix-blend-mode:multiply" opacity="0.15">
<g style="mix-blend-mode:multiply" opacity="0.15">
<path d="M971.012 4.48438H893.488V166.287H1008.86V42.1746C1002.01 35.3373 977.862 11.3217 971.012 4.48438Z" fill="black"/>
</g>
<g style="mix-blend-mode:multiply" opacity="0.15">
<path d="M971.012 4.48438V42.1746H1008.77L971.012 4.48438Z" fill="black"/>
</g>
<g style="mix-blend-mode:multiply" opacity="0.15">
<path d="M906.949 144.994H909.444L910.068 141.845H911.96L911.346 144.994H914.821L915.445 141.845H917.337L916.723 144.994H918.951L918.564 146.964H916.336L915.534 151.074H917.901L917.535 153.005H915.158L914.415 156.857H912.504L913.257 153.005H909.781L909.038 156.857H907.088L907.85 153.005H905.464L905.87 151.074H908.236L909.048 146.964H906.543L906.949 144.994ZM910.157 151.074H913.633L914.435 146.964H910.959L910.157 151.074ZM920.278 150.955L925.615 141.845H927.724L922.644 150.816H926.486V148.341L928.427 148.202V150.816H930.665V152.519H928.427V155.153H929.913V156.857H925.041V155.153H926.486V152.519H920.258L920.278 150.955ZM938.25 157.035C937.181 157.035 936.286 156.837 935.567 156.441C934.847 156.045 934.27 155.5 933.834 154.807C933.405 154.114 933.098 153.302 932.913 152.371C932.728 151.44 932.636 150.44 932.636 149.371C932.636 148.228 932.761 147.162 933.012 146.172C933.263 145.175 933.6 144.376 934.022 143.776C934.445 143.175 934.976 142.663 935.616 142.241C936.263 141.818 937.148 141.607 938.27 141.607C939.333 141.607 940.218 141.775 940.924 142.112C941.63 142.449 942.211 142.967 942.667 143.667C943.129 144.36 943.452 145.198 943.637 146.182C943.822 147.166 943.914 148.209 943.914 149.311C943.914 150.387 943.822 151.394 943.637 152.331C943.452 153.269 943.139 154.087 942.696 154.787C942.261 155.48 941.68 156.028 940.954 156.431C940.228 156.834 939.326 157.035 938.25 157.035ZM938.25 155.272C939.023 155.272 939.643 155.117 940.112 154.807C940.587 154.49 940.944 154.061 941.181 153.52C941.426 152.978 941.607 152.348 941.726 151.628C941.845 150.902 941.904 150.13 941.904 149.311C941.904 148.526 941.858 147.773 941.766 147.053C941.673 146.327 941.495 145.687 941.231 145.132C940.967 144.578 940.597 144.135 940.122 143.805C939.647 143.475 939.029 143.31 938.27 143.31C937.485 143.31 936.864 143.475 936.408 143.805C935.953 144.135 935.613 144.535 935.389 145.004C935.164 145.466 934.986 146.103 934.854 146.915C934.728 147.727 934.666 148.526 934.666 149.311C934.666 150.13 934.705 150.902 934.785 151.628C934.87 152.348 935.039 152.978 935.29 153.52C935.547 154.061 935.91 154.49 936.379 154.807C936.854 155.117 937.478 155.272 938.25 155.272ZM953.005 141.845L949.638 147.459C950.041 147.288 950.404 147.189 950.727 147.162C951.057 147.136 951.351 147.123 951.609 147.123C952.216 147.123 952.803 147.238 953.371 147.469C953.939 147.694 954.441 148.014 954.876 148.43C955.319 148.839 955.672 149.331 955.936 149.905C956.2 150.473 956.332 151.1 956.332 151.787C956.332 152.625 956.19 153.371 955.906 154.025C955.622 154.678 955.239 155.229 954.758 155.678C954.276 156.127 953.714 156.47 953.074 156.708C952.44 156.939 951.767 157.055 951.054 157.055C950.381 157.055 949.73 156.933 949.103 156.688C948.483 156.444 947.932 156.104 947.45 155.668C946.968 155.226 946.582 154.698 946.291 154.084C946.007 153.463 945.865 152.777 945.865 152.024C945.865 151.443 945.974 150.869 946.192 150.301C946.416 149.734 946.694 149.139 947.024 148.519L950.698 141.845H953.005ZM950.836 148.747C950.361 148.747 949.955 148.823 949.618 148.974C949.288 149.12 948.975 149.328 948.677 149.598C948.38 149.862 948.146 150.202 947.974 150.618C947.803 151.028 947.717 151.503 947.717 152.044C947.717 152.559 947.803 153.021 947.974 153.43C948.146 153.84 948.384 154.186 948.687 154.47C948.991 154.747 949.348 154.962 949.757 155.114C950.173 155.259 950.622 155.332 951.104 155.332C951.552 155.332 951.982 155.253 952.391 155.094C952.8 154.936 953.16 154.711 953.47 154.421C953.781 154.13 954.028 153.784 954.213 153.381C954.398 152.978 954.49 152.533 954.49 152.044C954.49 151.503 954.391 151.028 954.193 150.618C953.995 150.202 953.728 149.856 953.391 149.578C953.061 149.301 952.675 149.093 952.232 148.955C951.79 148.816 951.325 148.747 950.836 148.747Z" fill="black"/>
</g>
</g>
<path d="M968.524 2H891V163.803H1006.37V39.6902C999.52 32.8529 975.374 8.83733 968.524 2Z" fill="#E6E6E6"/>
<path d="M968.523 2V39.6902H1006.29L968.523 2Z" fill="#F2F2F2"/>
<path d="M904.461 142.509H906.956L907.58 139.36H909.471L908.857 142.509H912.333L912.957 139.36H914.848L914.234 142.509H916.462L916.076 144.48H913.848L913.046 148.589H915.413L915.046 150.52H912.67L911.927 154.372H910.016L910.769 150.52H907.293L906.55 154.372H904.599L905.362 150.52H902.975L903.381 148.589H905.748L906.56 144.48H904.055L904.461 142.509ZM907.669 148.589H911.145L911.947 144.48H908.471L907.669 148.589ZM917.789 148.471L923.127 139.36H925.236L920.156 148.332H923.998V145.856L925.939 145.718V148.332H928.177V150.035H925.939V152.669H927.424V154.372H922.552V152.669H923.998V150.035H917.769L917.789 148.471ZM935.762 154.551C934.693 154.551 933.798 154.353 933.079 153.956C932.359 153.56 931.781 153.016 931.346 152.323C930.917 151.629 930.61 150.817 930.425 149.887C930.24 148.956 930.147 147.956 930.147 146.886C930.147 145.744 930.273 144.678 930.524 143.688C930.775 142.691 931.111 141.892 931.534 141.291C931.956 140.691 932.488 140.179 933.128 139.756C933.775 139.334 934.66 139.123 935.782 139.123C936.845 139.123 937.729 139.291 938.436 139.628C939.142 139.964 939.723 140.483 940.178 141.182C940.641 141.876 940.964 142.714 941.149 143.698C941.334 144.681 941.426 145.724 941.426 146.827C941.426 147.903 941.334 148.91 941.149 149.847C940.964 150.784 940.651 151.603 940.208 152.303C939.773 152.996 939.192 153.544 938.465 153.947C937.739 154.349 936.838 154.551 935.762 154.551ZM935.762 152.788C936.534 152.788 937.155 152.633 937.624 152.323C938.099 152.006 938.455 151.577 938.693 151.035C938.937 150.494 939.119 149.863 939.238 149.144C939.357 148.418 939.416 147.645 939.416 146.827C939.416 146.041 939.37 145.289 939.277 144.569C939.185 143.843 939.007 143.202 938.743 142.648C938.479 142.093 938.109 141.651 937.634 141.321C937.158 140.991 936.541 140.826 935.782 140.826C934.996 140.826 934.376 140.991 933.92 141.321C933.465 141.651 933.125 142.05 932.9 142.519C932.676 142.981 932.498 143.618 932.366 144.43C932.24 145.242 932.177 146.041 932.177 146.827C932.177 147.645 932.217 148.418 932.296 149.144C932.382 149.863 932.55 150.494 932.801 151.035C933.059 151.577 933.422 152.006 933.891 152.323C934.366 152.633 934.99 152.788 935.762 152.788ZM950.517 139.36L947.15 144.975C947.552 144.803 947.916 144.704 948.239 144.678C948.569 144.652 948.863 144.638 949.12 144.638C949.728 144.638 950.315 144.754 950.883 144.985C951.451 145.209 951.952 145.53 952.388 145.945C952.83 146.355 953.184 146.847 953.448 147.421C953.712 147.989 953.844 148.616 953.844 149.302C953.844 150.141 953.702 150.887 953.418 151.54C953.134 152.194 952.751 152.745 952.269 153.194C951.787 153.643 951.226 153.986 950.586 154.224C949.952 154.455 949.279 154.57 948.566 154.57C947.892 154.57 947.242 154.448 946.615 154.204C945.994 153.96 945.443 153.62 944.961 153.184C944.479 152.742 944.093 152.214 943.803 151.6C943.519 150.979 943.377 150.293 943.377 149.54C943.377 148.959 943.486 148.385 943.704 147.817C943.928 147.249 944.205 146.655 944.536 146.035L948.209 139.36H950.517ZM948.348 146.262C947.873 146.262 947.467 146.338 947.13 146.49C946.8 146.635 946.486 146.843 946.189 147.114C945.892 147.378 945.658 147.718 945.486 148.134C945.315 148.543 945.229 149.018 945.229 149.56C945.229 150.075 945.315 150.537 945.486 150.946C945.658 151.355 945.895 151.702 946.199 151.986C946.503 152.263 946.859 152.478 947.269 152.63C947.684 152.775 948.133 152.847 948.615 152.847C949.064 152.847 949.493 152.768 949.903 152.61C950.312 152.451 950.672 152.227 950.982 151.936C951.292 151.646 951.54 151.299 951.725 150.897C951.909 150.494 952.002 150.048 952.002 149.56C952.002 149.018 951.903 148.543 951.705 148.134C951.507 147.718 951.239 147.371 950.903 147.094C950.573 146.817 950.186 146.609 949.744 146.47C949.302 146.332 948.836 146.262 948.348 146.262Z" fill="#B3B3B3"/>
<path d="M949.194 39.4036H905.156V42.6842H949.194V39.4036Z" fill="#B3B3B3"/>
<path d="M992.147 51.0291H905.156V54.3097H992.147V51.0291Z" fill="#B3B3B3"/>
<path d="M992.147 62.6545H905.156V65.9352H992.147V62.6545Z" fill="#B3B3B3"/>
<path d="M992.147 74.2698H905.156V77.5504H992.147V74.2698Z" fill="#B3B3B3"/>
<path d="M992.147 85.8953H905.156V89.1759H992.147V85.8953Z" fill="#B3B3B3"/>
<path d="M992.147 97.5208H905.156V100.801H992.147V97.5208Z" fill="#B3B3B3"/>
<path d="M992.147 109.136H905.156V112.416H992.147V109.136Z" fill="#B3B3B3"/>
<path d="M992.202 120.761H948.164V124.042H992.202V120.761Z" fill="#B3B3B3"/>
</g>
<g opacity="0.6">
<g style="mix-blend-mode:multiply" opacity="0.15">
<g style="mix-blend-mode:multiply" opacity="0.15">
<path d="M378.013 4.48438H300.5V166.287H415.86V42.1746C409.01 35.3373 384.863 11.3217 378.013 4.48438Z" fill="black"/>
</g>
<g style="mix-blend-mode:multiply" opacity="0.15">
<path d="M378.014 4.48438V42.1746H415.776L378.014 4.48438Z" fill="black"/>
</g>
<g style="mix-blend-mode:multiply" opacity="0.15">
<path d="M313.909 144.994H315.702L316.326 141.845H319.603L318.989 144.994H322.217L322.831 141.845H326.119L325.505 144.994H327.089L326.466 147.796H324.96L324.277 151.301H326.139L325.505 154.074H323.733L323.198 156.857H319.89L320.435 154.074H317.247L316.712 156.857H313.365L313.909 154.074H312.345L312.979 151.301H314.454L315.147 147.796H313.276L313.909 144.994ZM317.781 151.301H320.98L321.663 147.796H318.455L317.781 151.301ZM327.594 150.222L332.932 141.845H336.239L330.981 150.242H334.15V147.341L337.249 147.301V150.242H339.339V152.757H337.249V154.143H339.16V156.857H332.724V154.143H334.15V152.757H327.594V150.222ZM346.349 156.995C345.293 156.995 344.395 156.801 343.656 156.411C342.917 156.022 342.313 155.487 341.844 154.807C341.382 154.12 341.042 153.315 340.824 152.391C340.613 151.46 340.507 150.46 340.507 149.39C340.507 148.334 340.609 147.341 340.814 146.41C341.019 145.472 341.352 144.654 341.814 143.954C342.276 143.248 342.88 142.69 343.626 142.28C344.372 141.871 345.287 141.666 346.369 141.666C347.439 141.666 348.343 141.868 349.083 142.271C349.829 142.673 350.433 143.221 350.895 143.914C351.357 144.607 351.69 145.419 351.895 146.35C352.106 147.275 352.212 148.261 352.212 149.311C352.212 150.374 352.103 151.374 351.885 152.312C351.674 153.242 351.334 154.054 350.865 154.747C350.403 155.441 349.799 155.989 349.053 156.391C348.307 156.794 347.406 156.995 346.349 156.995ZM346.349 153.955C346.937 153.955 347.402 153.84 347.746 153.609C348.096 153.371 348.363 153.048 348.548 152.638C348.733 152.222 348.851 151.731 348.904 151.163C348.957 150.595 348.984 149.978 348.984 149.311C348.984 148.658 348.957 148.05 348.904 147.489C348.851 146.921 348.733 146.43 348.548 146.014C348.37 145.591 348.106 145.261 347.756 145.023C347.412 144.786 346.95 144.667 346.369 144.667C345.782 144.667 345.313 144.786 344.963 145.023C344.613 145.261 344.346 145.591 344.161 146.014C343.976 146.43 343.854 146.921 343.795 147.489C343.742 148.05 343.715 148.658 343.715 149.311C343.715 149.978 343.742 150.595 343.795 151.163C343.854 151.731 343.973 152.222 344.151 152.638C344.336 153.048 344.6 153.371 344.943 153.609C345.293 153.84 345.762 153.955 346.349 153.955ZM353.786 154.282L358.975 148.766C359.424 148.331 359.77 147.895 360.015 147.459C360.259 147.024 360.381 146.581 360.381 146.132C360.381 145.941 360.342 145.753 360.262 145.568C360.183 145.377 360.068 145.208 359.916 145.063C359.77 144.911 359.589 144.792 359.371 144.707C359.16 144.614 358.919 144.568 358.648 144.568C358.325 144.568 358.041 144.621 357.797 144.726C357.559 144.825 357.358 144.964 357.193 145.142C357.034 145.32 356.912 145.528 356.826 145.766C356.74 146.004 356.694 146.255 356.688 146.519H353.707C353.707 145.74 353.836 145.046 354.093 144.439C354.351 143.825 354.704 143.31 355.153 142.894C355.608 142.472 356.14 142.152 356.747 141.934C357.354 141.716 358.005 141.607 358.698 141.607C359.351 141.607 359.972 141.706 360.559 141.904C361.153 142.102 361.675 142.393 362.124 142.776C362.579 143.158 362.939 143.63 363.203 144.192C363.467 144.753 363.599 145.4 363.599 146.132C363.599 146.72 363.477 147.265 363.233 147.766C362.995 148.261 362.672 148.737 362.263 149.192L357.985 153.817H363.58V156.857H353.786V154.282Z" fill="black"/>
</g>
</g>
<path d="M375.524 2H298V163.803H413.371V39.6902C406.52 32.8529 382.374 8.83733 375.524 2Z" fill="#E6E6E6"/>
<path d="M375.523 2V39.6902H413.285L375.523 2Z" fill="#F2F2F2"/>
<path d="M311.459 142.509H313.954L314.578 139.36H316.469L315.855 142.509H319.331L319.955 139.36H321.846L321.232 142.509H323.46L323.074 144.48H320.846L320.044 148.589H322.411L322.044 150.52H319.668L318.925 154.372H317.014L317.767 150.52H314.291L313.548 154.372H311.597L312.36 150.52H309.973L310.379 148.589H312.746L313.558 144.48H311.053L311.459 142.509ZM314.667 148.589H318.143L318.945 144.48H315.469L314.667 148.589ZM324.787 148.471L330.125 139.36H332.234L327.154 148.332H330.996V145.856L332.937 145.718V148.332H335.175V150.035H332.937V152.669H334.422V154.372H329.55V152.669H330.996V150.035H324.768L324.787 148.471ZM342.76 154.551C341.691 154.551 340.796 154.353 340.077 153.956C339.357 153.56 338.779 153.016 338.344 152.323C337.915 151.629 337.608 150.817 337.423 149.887C337.238 148.956 337.145 147.956 337.145 146.886C337.145 145.744 337.271 144.678 337.522 143.688C337.773 142.691 338.109 141.892 338.532 141.291C338.954 140.691 339.486 140.179 340.126 139.756C340.773 139.334 341.658 139.123 342.78 139.123C343.843 139.123 344.727 139.291 345.434 139.628C346.14 139.964 346.721 140.483 347.177 141.182C347.639 141.876 347.962 142.714 348.147 143.698C348.332 144.681 348.424 145.724 348.424 146.827C348.424 147.903 348.332 148.91 348.147 149.847C347.962 150.784 347.649 151.603 347.206 152.303C346.771 152.996 346.19 153.544 345.463 153.947C344.737 154.349 343.836 154.551 342.76 154.551ZM342.76 152.788C343.532 152.788 344.153 152.633 344.622 152.323C345.097 152.006 345.454 151.577 345.691 151.035C345.935 150.494 346.117 149.863 346.236 149.144C346.355 148.418 346.414 147.645 346.414 146.827C346.414 146.041 346.368 145.289 346.275 144.569C346.183 143.843 346.005 143.202 345.741 142.648C345.477 142.093 345.107 141.651 344.632 141.321C344.156 140.991 343.539 140.826 342.78 140.826C341.994 140.826 341.374 140.991 340.918 141.321C340.463 141.651 340.123 142.05 339.898 142.519C339.674 142.981 339.496 143.618 339.364 144.43C339.238 145.242 339.175 146.041 339.175 146.827C339.175 147.645 339.215 148.418 339.294 149.144C339.38 149.863 339.548 150.494 339.799 151.035C340.057 151.577 340.42 152.006 340.889 152.323C341.364 152.633 341.988 152.788 342.76 152.788ZM350.316 152.917L355.594 146.54C355.772 146.328 355.957 146.101 356.148 145.856C356.346 145.612 356.528 145.355 356.693 145.084C356.864 144.813 357.003 144.533 357.109 144.242C357.221 143.945 357.277 143.638 357.277 143.321C357.277 142.991 357.211 142.681 357.079 142.39C356.947 142.1 356.765 141.846 356.534 141.628C356.303 141.41 356.026 141.239 355.702 141.113C355.386 140.988 355.036 140.925 354.653 140.925C354.31 140.925 353.983 140.981 353.672 141.093C353.369 141.199 353.101 141.357 352.87 141.569C352.639 141.78 352.451 142.044 352.306 142.361C352.167 142.671 352.091 143.031 352.078 143.44H350.296C350.302 142.813 350.425 142.235 350.662 141.707C350.9 141.172 351.217 140.714 351.613 140.331C352.015 139.941 352.481 139.641 353.009 139.43C353.537 139.212 354.092 139.103 354.673 139.103C355.346 139.103 355.957 139.212 356.505 139.43C357.052 139.641 357.521 139.935 357.911 140.311C358.3 140.687 358.601 141.133 358.812 141.648C359.03 142.163 359.139 142.721 359.139 143.321C359.139 143.559 359.109 143.813 359.049 144.084C358.997 144.348 358.901 144.635 358.762 144.945C358.63 145.249 358.452 145.576 358.228 145.926C358.01 146.275 357.732 146.652 357.396 147.054L352.712 152.63H359.119V154.372H350.316V152.917Z" fill="#B3B3B3"/>
<path d="M354.526 39.4036H310.488V42.6842H354.526V39.4036Z" fill="#B3B3B3"/>
<path d="M397.479 51.0291H310.488V54.3097H397.479V51.0291Z" fill="#B3B3B3"/>
<path d="M397.479 62.6548H310.488V65.9354H397.479V62.6548Z" fill="#B3B3B3"/>
<path d="M397.479 74.2698H310.488V77.5504H397.479V74.2698Z" fill="#B3B3B3"/>
<path d="M397.479 85.8953H310.488V89.1759H397.479V85.8953Z" fill="#B3B3B3"/>
<path d="M397.479 97.5208H310.488V100.801H397.479V97.5208Z" fill="#B3B3B3"/>
<path d="M397.479 109.136H310.488V112.416H397.479V109.136Z" fill="#B3B3B3"/>
<path d="M397.542 120.761H353.504V124.042H397.542V120.761Z" fill="#B3B3B3"/>
</g>
</svg>
