<svg width="216" height="215" viewBox="0 0 216 215" fill="none" xmlns="http://www.w3.org/2000/svg">
<g style="mix-blend-mode:multiply" filter="url(#filter0_f)">
<path d="M203.072 198.516C203.388 198.092 203.676 197.648 203.935 197.187L204.136 196.857C204.441 196.285 204.713 195.696 204.951 195.093C204.951 194.999 204.951 194.905 205.046 194.81C205.241 194.279 205.407 193.737 205.542 193.187C205.542 193.081 205.542 192.963 205.625 192.846C205.912 191.553 206.035 190.229 205.991 188.905C205.991 188.834 205.991 188.775 205.991 188.705C205.933 187.339 205.695 185.986 205.282 184.682C204.534 182.311 203.22 180.155 201.453 178.4L158.823 135.955C155.147 132.308 151.094 132.425 147.194 134.578L139.346 126.767C139.346 124.262 138.543 121.822 137.053 119.802C136.695 119.31 136.3 118.846 135.871 118.414L133.082 115.626C133.271 115.344 133.448 115.062 133.649 114.779C133.85 114.497 134.146 114.05 134.382 113.673C134.619 113.297 135.056 112.626 135.375 112.097C135.694 111.568 135.836 111.344 136.049 110.921C136.261 110.497 136.675 109.815 136.982 109.262L137.585 108.168C137.904 107.544 138.211 106.909 138.519 106.274C138.661 105.98 138.826 105.674 138.968 105.368C139.393 104.45 139.795 103.533 140.15 102.603C140.303 102.227 140.433 101.85 140.575 101.486C140.811 100.898 141.036 100.309 141.249 99.7329C141.462 99.1565 141.556 98.8271 141.698 98.3683C141.84 97.9095 142.041 97.3448 142.206 96.8272C142.206 96.6507 142.324 96.486 142.372 96.3096C142.419 96.1331 142.537 95.6743 142.632 95.3685C142.762 94.8744 142.903 94.392 143.022 93.8979C143.081 93.6627 143.163 93.4156 143.222 93.1803L143.4 92.3568C143.506 91.898 143.613 91.4275 143.707 90.9569C143.802 90.4863 143.932 89.8864 144.026 89.3452C144.121 88.8041 144.18 88.4629 144.251 88.0159C144.322 87.5688 144.393 87.2277 144.452 86.8395C144.452 86.6748 144.452 86.5101 144.452 86.3454C144.511 85.9454 144.558 85.5454 144.605 85.169C144.676 84.5572 144.747 83.9925 144.806 83.3338V82.8632C144.877 82.0515 144.936 81.2398 144.983 80.4398C145.031 79.6398 144.983 78.7222 145.043 77.8634V77.6046C145.043 76.887 145.043 76.1577 145.043 75.44C145.043 75.1577 145.043 74.8871 145.043 74.6048C145.043 74.3224 145.043 74.193 145.043 73.9813C145.043 73.499 144.972 73.0166 144.936 72.5343L144.865 71.6402C144.806 70.9462 144.735 70.2521 144.664 69.5698L144.558 68.6992C144.558 68.3228 144.475 67.9346 144.416 67.5228C144.357 67.1111 144.31 66.8758 144.251 66.5581C144.192 66.2405 144.168 66.0405 144.121 65.7935C144.003 65.0523 143.861 64.3112 143.707 63.5818L143.601 63.0642C143.459 62.4407 143.341 61.8054 143.187 61.1702C142.927 60.1232 142.643 59.0762 142.336 58.0409C141.52 55.3142 140.529 52.6422 139.37 50.0413L139.228 49.712C138.885 48.959 138.531 48.2061 138.152 47.465C138.081 47.3003 137.999 47.1474 137.916 46.9827C137.55 46.2533 137.171 45.5357 136.734 44.8181L136.474 44.3357C136.06 43.6181 135.647 42.9005 135.209 42.1829L134.973 41.8182C134.512 41.0653 134.028 40.3242 133.531 39.5948C131.1 36.0246 128.33 32.6957 125.258 29.6541C124.431 28.8307 123.592 28.0307 122.729 27.3013L122.481 27.0896C121.701 26.3955 120.921 25.7132 120.117 25.0661L119.928 24.925C119.14 24.2505 118.301 23.6035 117.411 22.9839L117.127 22.7839C116.311 22.1957 115.472 21.6075 114.633 21.0546L114.527 20.984C102.158 12.9221 87.4731 9.1232 72.7259 10.1705C57.9788 11.2178 43.9843 17.0533 32.8907 26.7815C21.797 36.5096 14.2171 49.5927 11.3144 64.0227C8.41171 78.4527 10.3466 93.4322 16.8222 106.662C16.8222 106.791 16.9522 106.921 17.0113 107.062C17.5786 108.238 18.1931 109.309 18.8077 110.415L19.0086 110.779C20.3843 113.154 21.908 115.441 23.5706 117.626L24.2325 118.485C24.8707 119.269 25.5207 120.053 26.1825 120.838C26.4426 121.132 26.6907 121.438 26.9507 121.72C27.2108 122.002 27.4708 122.32 27.7426 122.614C28.4044 123.332 29.0663 124.038 29.7636 124.732C33.0092 127.951 36.5728 130.836 40.4004 133.343C49.6057 139.378 60.1558 143.078 71.1288 144.119C75.4529 144.522 79.8053 144.522 84.1293 144.119C88.4499 143.705 92.7204 142.878 96.8816 141.648C97.9217 141.343 98.9617 141.013 99.9899 140.648C102.063 139.933 104.099 139.112 106.088 138.19C107.081 137.731 108.074 137.249 109.055 136.731C111.029 135.699 112.951 134.568 114.81 133.343C115.283 133.037 115.744 132.696 116.217 132.367L119.03 135.166C119.352 135.483 119.691 135.781 120.046 136.06C122.15 137.715 124.752 138.618 127.433 138.625L133.2 144.366L135.269 146.425C134.652 147.503 134.206 148.67 133.945 149.883V150.083C133.886 150.389 133.85 150.695 133.815 151.001C133.821 151.099 133.821 151.197 133.815 151.295C133.797 151.569 133.797 151.844 133.815 152.118C133.809 152.24 133.809 152.362 133.815 152.483C133.815 152.73 133.886 152.989 133.933 153.236C133.98 153.483 133.992 153.495 134.028 153.624C134.063 153.754 134.169 154.107 134.252 154.354C134.335 154.601 134.359 154.624 134.406 154.754C134.453 154.883 134.63 155.224 134.76 155.46C134.89 155.695 134.89 155.73 134.973 155.859C135.056 155.989 135.304 156.354 135.481 156.601C135.659 156.848 135.635 156.824 135.729 156.942C136.025 157.312 136.34 157.665 136.675 158.001L179.317 200.445C180.676 201.801 182.28 202.891 184.044 203.657L184.848 203.986C187.087 204.836 189.494 205.158 191.88 204.928C195.499 204.592 198.885 203.006 201.453 200.445C201.922 199.972 202.36 199.469 202.765 198.94C202.871 198.81 202.966 198.669 203.072 198.516ZM37.493 37.2655C45.4299 29.3763 55.5382 24.0062 66.5405 21.8338C77.5428 19.6614 88.9451 20.7843 99.3064 25.0605C109.668 29.3368 118.523 36.5744 124.753 45.8588C130.983 55.1431 134.308 66.0574 134.308 77.2223C134.308 88.3872 130.983 99.3015 124.753 108.586C118.523 117.87 109.668 125.108 99.3064 129.384C88.9451 133.66 77.5428 134.783 66.5405 132.611C55.5382 130.438 45.4299 125.068 37.493 117.179C32.2167 111.935 28.0309 105.706 25.175 98.8499C22.3191 91.9938 20.8491 84.6444 20.8491 77.2223C20.8491 69.8002 22.3191 62.4509 25.175 55.5947C28.0309 48.7385 32.2167 42.5101 37.493 37.2655Z" fill="#E4E4E4" fill-opacity="0.8"/>
</g>
<path d="M136.888 119.487L124.988 131.364L141.896 148.239L153.796 136.362L136.888 119.487Z" fill="#B3B3B3"/>
<g style="mix-blend-mode:multiply" opacity="0.3">
<path d="M145.224 127.813L133.324 139.691L141.895 148.245L153.795 136.367L145.224 127.813Z" fill="#B3B3B3"/>
</g>
<path d="M135.735 113.533L129.468 107C128.1 110.91 125.908 114.445 123.056 117.34C120.205 120.235 116.767 122.417 113 123.721L119.483 130.529C121.638 132.763 124.547 134.011 127.575 134C130.604 133.989 133.505 132.72 135.645 130.471C137.786 128.221 138.992 125.174 139 121.994C139.008 118.814 137.818 115.759 135.689 113.497L135.735 113.533Z" fill="#F15A24"/>
<g style="mix-blend-mode:multiply" opacity="0.3">
<path d="M136.854 113.42L130.279 107C128.844 110.842 126.544 114.315 123.552 117.16C120.56 120.005 116.953 122.149 113 123.43L119.802 130.12C120.124 130.435 120.467 130.729 120.828 131C125.54 124.641 131.352 119.147 138 114.769C137.653 114.292 137.27 113.841 136.854 113.42Z" fill="#F15A24"/>
</g>
<path d="M201.444 195.454C198.511 198.366 194.546 200 190.413 200C186.28 200 182.315 198.366 179.382 195.454L136.907 152.975C131.609 147.676 134.199 141.613 139.497 136.315L142.322 133.489C147.608 128.203 153.683 125.613 158.98 130.899L201.444 173.378C204.362 176.311 206 180.279 206 184.416C206 188.553 204.362 192.522 201.444 195.454Z" fill="#39424A"/>
<g style="mix-blend-mode:multiply" opacity="0.3">
<path d="M177.943 187.214L134.483 144C133.919 145.598 133.847 147.327 134.277 148.966C134.707 150.605 135.618 152.079 136.896 153.2L179.355 195.431C181.826 197.901 185.062 199.471 188.54 199.888C192.018 200.306 195.536 199.546 198.527 197.731C201.518 195.916 203.808 193.153 205.026 189.886C206.245 186.619 206.322 183.039 205.245 179.723C201.844 190.047 188.028 197.245 177.943 187.214Z" fill="#C1272D"/>
</g>
<g style="mix-blend-mode:multiply" opacity="0.3">
<path d="M125.357 24.851C118.982 18.4414 111.383 13.3901 103.017 10C124.522 20.79 139.584 43.2081 139.584 68.6247C139.584 104.3 109.942 134.061 74.4105 134.061C46.3919 134.061 22.0417 115.539 13 90.2165C15.6958 100.193 20.6395 109.413 27.4493 117.166C34.2591 124.919 42.7526 130.996 52.2739 134.929C61.7952 138.861 72.0894 140.544 82.3613 139.846C92.6332 139.149 102.608 136.09 111.515 130.906C120.422 125.722 128.023 118.551 133.731 109.948C139.439 101.345 143.101 91.5404 144.434 81.2904C145.768 71.0404 144.736 60.6199 141.42 50.8338C138.104 41.0477 132.592 32.1579 125.31 24.851H125.357Z" fill="#F7931E"/>
</g>
<path d="M125.228 24.7727C115.788 15.332 103.762 8.90256 90.6681 6.29752C77.5747 3.69247 64.0029 5.0288 51.6689 10.1375C39.335 15.2462 28.7929 23.8979 21.3759 34.9983C13.9588 46.0988 10 59.1495 10 72.5C10 85.8505 13.9588 98.9012 21.3759 110.002C28.7929 121.102 39.335 129.754 51.6689 134.862C64.0029 139.971 77.5747 141.308 90.6681 138.702C103.762 136.097 115.788 129.668 125.228 120.227C131.496 113.96 136.469 106.52 139.861 98.3305C143.254 90.1414 145 81.3641 145 72.5C145 63.6359 143.254 54.8586 139.861 46.6695C136.469 38.4803 131.496 31.0398 125.228 24.7727ZM117.631 112.63C109.697 120.554 99.5917 125.947 88.5931 128.129C77.5945 130.311 66.1959 129.183 55.8381 124.888C45.4802 120.593 36.6279 113.324 30.4 104C24.172 94.675 20.848 83.7133 20.848 72.5C20.848 61.2867 24.172 50.325 30.4 41.0004C36.6279 31.6758 45.4802 24.4067 55.8381 20.1119C66.1959 15.8171 77.5945 14.6893 88.5931 16.8712C99.5917 19.053 109.697 24.4464 117.631 32.3698C122.906 37.6371 127.09 43.8926 129.945 50.7785C132.8 57.6644 134.269 65.0457 134.269 72.5C134.269 79.9543 132.8 87.3355 129.945 94.2215C127.09 101.107 122.906 107.363 117.631 112.63Z" fill="#F7931E"/>
<g style="mix-blend-mode:multiply" opacity="0.3">
<path d="M133.47 35C138.592 44.6776 141.275 55.4583 141.286 66.407C141.286 103.801 110.071 135.019 72.6543 135.019C56.2215 134.958 40.3637 128.965 28 118.143C28.6601 118.862 29.3203 119.569 30.0158 120.264C41.8548 132.108 57.6832 139.116 74.4121 139.922C91.141 140.728 107.57 135.273 120.493 124.622C133.416 113.971 141.906 98.8889 144.305 82.3181C146.705 65.7473 142.842 48.8772 133.47 35Z" fill="#F7931E"/>
</g>
<path opacity="0.08" d="M78 129C109.48 129 135 103.704 135 72.5C135 41.2959 109.48 16 78 16C46.5198 16 21 41.2959 21 72.5C21 103.704 46.5198 129 78 129Z" fill="#29ABE2"/>
<g style="mix-blend-mode:screen" opacity="0.3">
<path d="M26.9398 84.1943C26.9398 51.5082 51.6101 23.818 83 19.2365C74.4195 18.4202 65.7708 19.7243 57.8032 23.0358C49.8355 26.3473 42.7891 31.5664 37.2743 38.2409C31.7595 44.9154 27.9426 52.8441 26.1541 61.3403C24.3656 69.8365 24.6595 78.6441 27.0103 87C26.9633 86.0292 26.9398 85.1177 26.9398 84.1943Z" fill="white"/>
</g>
<g style="mix-blend-mode:multiply" opacity="0.1">
<path d="M128.451 53C127.258 84.4616 100.448 110.343 68.3761 110.343C53.4025 110.287 38.9949 104.68 28 94.6303C33.903 107.324 44.5627 117.254 57.7299 122.326C70.897 127.397 85.5419 127.212 98.5742 121.811C111.607 116.41 122.007 106.215 127.581 93.3768C133.156 80.5385 133.467 66.0613 128.451 53Z" fill="#29ABE2"/>
</g>
<g style="mix-blend-mode:multiply" opacity="0.1">
<path d="M69.8674 120.283C62.0488 120.28 54.2973 118.836 47 116.023C54.8537 121.614 64.0595 124.993 73.6586 125.808C83.2578 126.622 92.8993 124.842 101.579 120.653C110.259 116.464 117.659 110.019 123.009 101.99C128.36 93.9606 131.464 84.6404 132 75C123.299 101.067 98.4958 120.283 69.8674 120.283Z" fill="#29ABE2"/>
</g>
<path opacity="0.5" d="M58.7422 19.2022L47 32.1215L54.1309 29.1736L50.2564 38.3345L58.3143 26.5192C58.3544 28.4791 58.283 30.4397 58.1004 32.3917C57.8746 32.9084 61.7609 28.7743 61.7609 28.7743L66.087 54.0256L74.751 54.6129L66.5386 84.3038L81.775 97L73.1109 88.438L79.5406 79.7234L84.2945 90.0588L79.9566 77.21L71.7442 87.0991L68.1787 83.2703L77.8886 52.1112L67.8816 51.3713L68.666 26.9773L79.8377 43.9486L81.1807 37.301L101.052 50.7488L98.2116 67.4265L118.416 67.8728L100.482 65.5238L102.859 51.0542L112.271 50.9015L108.54 59.3226H125L111.927 57.6431L114.66 47.9536L119.414 52.6515L113.579 43.6432L112.093 48.9636L102.668 48.2237L77.2706 32.2742L78.1739 36.9721L72.2315 24.5696L86.719 33.5779L82.9872 23.6887L102.229 29.9957L94.9671 24.6283L105.271 24.1938L99.0317 20.0713C99.0317 20.0713 79.6595 11.5211 58.7422 19.2022Z" fill="#5A9FBC"/>
<g style="mix-blend-mode:screen" opacity="0.3">
<g style="mix-blend-mode:screen" opacity="0.3">
<path d="M196.587 179.716C195.792 179.715 195.029 179.402 194.463 178.845L152.955 138.264C152.418 137.694 152.122 136.938 152.129 136.155C152.136 135.371 152.446 134.621 152.994 134.06C153.542 133.5 154.286 133.172 155.071 133.145C155.855 133.119 156.619 133.396 157.204 133.918L198.723 174.51C199.154 174.933 199.449 175.474 199.571 176.065C199.693 176.657 199.636 177.27 199.406 177.829C199.177 178.387 198.787 178.865 198.285 179.201C197.783 179.537 197.192 179.717 196.587 179.716Z" fill="white"/>
</g>
</g>
<defs>
<filter id="filter0_f" x="0" y="0" width="216" height="215" filterUnits="userSpaceOnUse" color-interpolation-filters="sRGB">
<feFlood flood-opacity="0" result="BackgroundImageFix"/>
<feBlend mode="normal" in="SourceGraphic" in2="BackgroundImageFix" result="shape"/>
<feGaussianBlur stdDeviation="5" result="effect1_foregroundBlur"/>
</filter>
</defs>
</svg>
