<svg width="20" height="20" viewBox="0 0 20 20" fill="none" xmlns="http://www.w3.org/2000/svg">
<path d="M17.8346 14.0419L15.4479 11.6495C14.9725 11.175 14.1853 11.1894 13.6933 11.6826L12.4909 12.8875C12.4149 12.8456 12.3363 12.8017 12.2536 12.7552C11.4943 12.3335 10.455 11.7556 9.36142 10.6587C8.26457 9.55948 7.68737 8.51625 7.26535 7.75472C7.22082 7.67404 7.17815 7.59625 7.13601 7.52238L7.94303 6.71474L8.33978 6.31659C8.83249 5.82264 8.84608 5.03382 8.3718 4.55789L5.98508 2.16524C5.5108 1.68997 4.72319 1.70439 4.23049 2.19835L3.55783 2.8764L3.57621 2.89469C3.35066 3.18314 3.16218 3.51583 3.02193 3.87459C2.89263 4.21608 2.81214 4.54196 2.77533 4.86851C2.46018 7.48709 3.65409 9.88028 6.89421 13.1278C11.373 17.6165 14.9824 17.2774 15.1381 17.2608C15.4772 17.2202 15.8022 17.139 16.1325 17.0104C16.4874 16.8715 16.8191 16.6828 17.1067 16.4573L17.1214 16.4704L17.8029 15.8016C18.2945 15.3077 18.3087 14.5186 17.8346 14.0419Z" fill="url(#paint0_linear)"/>
<defs>
<linearGradient id="paint0_linear" x1="2.72656" y1="14.053" x2="19.6991" y2="14.0784" gradientUnits="userSpaceOnUse">
<stop stop-color="#00B191"/>
<stop offset="1" stop-color="#00CABE"/>
</linearGradient>
</defs>
</svg>
