<svg width="20" height="20" viewBox="0 0 20 20" fill="none" xmlns="http://www.w3.org/2000/svg">
<path d="M14.2062 0H5.79137C4.98604 0 4.33594 0.653014 4.33594 1.45689V18.5446C4.33594 19.3477 4.98604 20 5.79137 20H14.2062C15.0101 20 15.6616 19.3477 15.6616 18.5446V1.45689C15.6616 0.653014 15.0101 0 14.2062 0ZM7.92241 0.884775H12.0766C12.1816 0.884775 12.2668 1.04147 12.2668 1.23533C12.2668 1.4292 12.1816 1.58662 12.0766 1.58662H7.92241C7.81673 1.58662 7.73292 1.4292 7.73292 1.23533C7.73292 1.04147 7.81673 0.884775 7.92241 0.884775ZM9.99952 18.5621C9.48717 18.5621 9.07029 18.1452 9.07029 17.6321C9.07029 17.119 9.48717 16.7036 9.99952 16.7036C10.5104 16.7036 10.9273 17.119 10.9273 17.6321C10.9273 18.1452 10.5104 18.5621 9.99952 18.5621ZM14.5713 15.3779H5.42697V2.45828H14.5713V15.3779Z" fill="url(#paint0_linear)"/>
<defs>
<linearGradient id="paint0_linear" x1="4.33594" y1="15.8333" x2="16.7741" y2="15.8439" gradientUnits="userSpaceOnUse">
<stop stop-color="#00B191"/>
<stop offset="1" stop-color="#00CABE"/>
</linearGradient>
</defs>
</svg>
