<svg width="20" height="20" viewBox="0 0 20 20" fill="none" xmlns="http://www.w3.org/2000/svg">
<path d="M10.4694 0H10.4425C7.19159 0 4.54688 2.62872 4.54688 5.8598C4.54688 7.97776 5.51698 10.773 7.43023 14.1679C8.8487 16.6848 10.2871 18.6124 10.3015 18.6316C10.3415 18.6851 10.4046 18.7166 10.4715 18.7166C10.4734 18.7166 10.4753 18.7166 10.4772 18.7165C10.5462 18.7146 10.6099 18.6795 10.6482 18.6223C10.6623 18.601 12.0905 16.4567 13.4993 13.834C15.4009 10.2941 16.3651 7.61113 16.3651 5.8598C16.3649 2.62867 13.7202 0 10.4694 0ZM13.1907 6.003C13.1907 7.50238 11.9639 8.72214 10.4559 8.72214C8.94791 8.72214 7.7211 7.50234 7.7211 6.003C7.7211 4.50365 8.94791 3.28385 10.4559 3.28385C11.9639 3.28385 13.1907 4.50365 13.1907 6.003Z" fill="#00B79C"/>
</svg>
