<svg width="30" height="30" viewBox="0 0 30 30" fill="none" xmlns="http://www.w3.org/2000/svg">
<path d="M27.6309 12.0445C27.9491 11.8352 28.0693 11.4266 27.9152 11.0784L26.3311 7.49935C26.177 7.15108 25.7936 6.9654 25.4248 7.06011L24.7356 7.23723L27.0364 12.4355L27.6309 12.0445Z" fill="#39424A"/>
<path d="M15.9649 20.5743C14.5278 20.8608 13.0672 21.2758 11.7157 21.8735L11.0005 22.19L13.3501 27.4987C13.4669 27.7626 13.7123 27.9294 13.98 27.9581C14.1114 27.9722 14.2482 27.9531 14.3777 27.8957L17.7021 26.4244C17.8911 26.3407 18.039 26.1855 18.1135 25.9928C18.188 25.8 18.1828 25.5856 18.0992 25.3967L15.9649 20.5743Z" fill="#39424A"/>
<path d="M4.55167 15.2168C4.10764 15.4133 3.76677 15.771 3.59176 16.2238C3.5159 16.4201 3.4753 16.6241 3.46946 16.8285L1.33185 17.7531C1.14123 17.8356 0.991376 17.9908 0.915659 18.1843C0.839947 18.3778 0.844738 18.5935 0.928765 18.7834L2.41375 22.1386C2.53044 22.4023 2.77582 22.5693 3.04367 22.5981C3.17297 22.612 3.30757 22.5936 3.43541 22.5383L5.53538 21.63C5.83114 21.9263 6.22003 22.1111 6.63179 22.1553C6.93822 22.1881 7.25687 22.1436 7.55832 22.0101L9.65775 21.081L6.65088 14.2878L4.55167 15.2168Z" fill="#39424A"/>
<path d="M27.5946 17.5461L21.3279 3.38739C21.2156 3.13354 20.9766 2.95872 20.7006 2.92842C20.6999 2.92834 20.6993 2.92828 20.6986 2.92821C20.4234 2.89866 20.153 3.01751 19.9886 3.2404C19.9322 3.31677 14.2822 10.9099 8.07524 13.657L11.0821 20.4501C14.5451 18.9175 18.6163 18.5037 21.4219 18.4265C24.4824 18.3421 26.7461 18.6294 26.7814 18.6339C27.0598 18.6705 27.3376 18.5534 27.5062 18.3279C27.6748 18.1024 27.7086 17.8036 27.5946 17.5461Z" fill="#39424A"/>
</svg>
