<svg width="30" height="30" viewBox="0 0 30 30" fill="none" xmlns="http://www.w3.org/2000/svg">
<path d="M18.2651 7.51932C19.5168 8.30412 20.3945 9.63218 20.5543 11.1738C21.0648 11.4123 21.6313 11.5494 22.232 11.5494C24.4249 11.5494 26.2023 9.77205 26.2023 7.57945C26.2023 5.38652 24.4249 3.60913 22.232 3.60913C20.06 3.60981 18.2982 5.35544 18.2651 7.51932ZM15.664 15.6485C17.857 15.6485 19.6343 13.8707 19.6343 11.6782C19.6343 9.48556 17.8566 7.70817 15.664 7.70817C13.4714 7.70817 11.693 9.4859 11.693 11.6785C11.693 13.8711 13.4714 15.6485 15.664 15.6485ZM17.3482 15.9191H13.9792C11.1761 15.9191 8.89569 18.1999 8.89569 21.0029V25.1229L8.90616 25.1874L9.18995 25.2763C11.865 26.1121 14.189 26.3908 16.1019 26.3908C19.8381 26.3908 22.0036 25.3256 22.1371 25.2577L22.4023 25.1236H22.4307V21.0029C22.4317 18.1999 20.1512 15.9191 17.3482 15.9191ZM23.9168 11.8204H20.5739C20.5377 13.1579 19.9668 14.3623 19.0637 15.2285C21.5553 15.9694 23.3783 18.2799 23.3783 21.009V22.2786C26.679 22.1577 28.5811 21.2222 28.7064 21.1594L28.9716 21.0249H29V16.9036C29 14.1008 26.7196 11.8204 23.9168 11.8204ZM8.69738 11.5501C9.47408 11.5501 10.1967 11.3234 10.8089 10.9373C11.0035 9.66799 11.6839 8.55886 12.6559 7.80344C12.6599 7.72912 12.667 7.65547 12.667 7.58047C12.667 5.38753 10.8893 3.61014 8.69738 3.61014C6.50411 3.61014 4.72706 5.38753 4.72706 7.58047C4.72706 9.77239 6.50411 11.5501 8.69738 11.5501ZM12.263 15.2285C11.3643 14.3667 10.7954 13.1687 10.7538 11.8393C10.6298 11.8302 10.5072 11.8204 10.3808 11.8204H7.01222C4.20915 11.8204 1.92871 14.1008 1.92871 16.9036V21.0242L1.93918 21.0877L2.22297 21.1773C4.36894 21.8472 6.28417 22.156 7.94771 22.2533V21.009C7.94838 18.2799 9.7707 15.9701 12.263 15.2285Z" fill="#39424A"/>
</svg>
