<svg width="30" height="30" viewBox="0 0 30 30" fill="none" xmlns="http://www.w3.org/2000/svg">
<path d="M26.4992 24.0001H25.9992V22.5002C25.9992 22.2242 25.7752 22.0002 25.4992 22.0002H23.9992V13.0005H24.4992C24.7752 13.0005 24.9992 12.7765 24.9992 12.5005V11.0006H26.4992C26.7252 11.0006 26.9232 10.8496 26.9812 10.6306C27.0412 10.4126 26.9462 10.1826 26.7512 10.0676L14.7516 3.06784C14.5886 2.97386 14.3886 2.97784 14.2306 3.07782L3.23099 10.0776C3.04401 10.1986 2.958 10.4266 3.02001 10.6406C3.08203 10.8536 3.27702 11.0006 3.5 11.0006H4.99995V12.5005C4.99995 12.7765 5.22396 13.0005 5.49995 13.0005H5.99994V22.0002H4.5C4.22401 22.0002 4 22.2242 4 22.5002V24.0002H3.5C3.22401 24.0002 3 24.2242 3 24.5002V26.5001C3 26.7761 3.22401 27.0001 3.5 27.0001H26.4992C26.7752 27.0001 26.9992 26.7761 26.9992 26.5001V24.5002C26.9992 24.2241 26.7752 24.0001 26.4992 24.0001ZM10.9997 22.0002H8.9998V13.0005H10.9997V22.0002ZM15.9995 22.0002H13.9996V13.0005H15.9995V22.0002ZM20.9994 22.0002H18.9994V13.0005H20.9994V22.0002ZM21.2214 10.0006L14.5116 6.08574L8.35979 10.0006H6.4969L14.2316 5.0788C14.3886 4.97882 14.5886 4.9738 14.7516 5.06882L23.2063 10.0006H21.2214V10.0006Z" fill="#39424A"/>
</svg>
