<svg width="30" height="30" viewBox="0 0 30 30" fill="none" xmlns="http://www.w3.org/2000/svg">
<path d="M8.00332 8.31087C7.08662 7.3575 3.19076 7.11921 1.93031 7C1.81574 7 1.70112 7 1.58656 7.11915C1.47199 7.23836 1.35742 7.47671 1.35742 7.59586V18.321C1.35742 18.6785 1.58661 18.9169 1.93036 18.9169H5.3679C5.59709 18.9169 5.82623 18.7977 5.94085 18.5593C5.94085 18.2018 8.00337 11.8859 8.23256 8.78758C8.2325 8.66837 8.2325 8.43007 8.00332 8.31087Z" fill="#39424A"/>
<path d="M20.7122 11.3228C19.4622 10.9328 18.3372 10.4128 17.3371 10.0228C15.0871 8.98274 13.8992 9.50815 11.8992 11.5882C11.0242 12.4982 10.4795 13.6601 10.6959 14.2993C10.6959 14.2993 10.8087 14.5964 11.0971 14.7164C11.7221 14.9764 12.462 14.9629 13.337 13.5328C13.462 13.4029 13.5871 13.2728 13.837 13.2728C14.212 13.2728 14.337 13.1428 14.712 13.0128C14.962 12.8828 15.212 12.7528 15.587 12.6228C15.712 12.6228 15.712 12.6228 15.837 12.6228C15.962 12.6228 16.212 12.7528 16.337 12.7528C16.9621 13.4029 18.0871 14.3129 19.2122 15.3529C20.9622 16.7829 22.7122 18.343 23.5873 19.513H23.7122C22.8372 16.9129 21.3372 12.4928 20.7122 11.3228Z" fill="#39424A"/>
<path d="M28.284 8.19214C23.8152 8.19214 21.2943 9.3838 21.1797 9.3838C21.0651 9.50295 20.9505 9.62216 20.8359 9.74131C20.8359 9.86045 20.8359 10.0988 20.9505 10.218C21.638 11.4096 23.9297 17.9639 24.2735 19.6322C24.388 19.8706 24.6172 20.1089 24.8464 20.1089H28.284C28.6277 20.1089 28.8569 19.8705 28.8569 19.513V8.78789C28.8569 8.43049 28.6277 8.19214 28.284 8.19214Z" fill="#39424A"/>
<path d="M22.0968 19.8703C21.6385 18.7978 19.6905 17.2486 17.9718 15.8186C17.0551 14.9844 15.9951 14.2695 15.3076 13.6736C14.9066 13.8822 14.8206 14.0312 14.1045 14.0907C13.1878 15.2824 12.1279 15.8186 10.8675 15.3419C10.2945 15.1335 9.95066 14.5377 9.89347 14.2993C9.49242 13.2566 10.6384 11.4094 11.4405 10.5752H9.14877C8.69045 12.9586 7.88832 16.0569 7.31543 17.7253C7.77375 18.2019 8.23213 18.7978 8.57588 19.0362C10.753 20.9428 13.2739 22.8496 13.7322 23.2071C14.0759 23.4454 14.7061 23.8924 15.1072 23.6837C15.2791 23.6837 15.3098 23.269 15.1907 23.1451L13.904 21.8069C13.6748 21.5686 13.5029 21.1813 13.6176 20.9428C13.8468 20.7045 14.1905 20.7045 14.4196 20.9428L16.7114 23.3262C16.9405 23.5646 17.3989 23.4454 17.3989 23.4454C17.9567 23.252 17.7167 22.465 17.3075 22.0395L15.3363 19.9895C15.1072 19.7511 15.1072 19.3936 15.3363 19.1553C15.5082 18.9767 15.8806 19.066 16.1097 19.3044L18.9171 22.0155C19.0316 22.1346 19.5187 22.4326 19.9197 22.1345C20.1977 21.8454 20.1937 21.4661 19.9158 21.1771L17.1697 18.3211C16.9405 18.0827 16.9405 17.7252 17.1697 17.4869C17.3421 17.3077 17.6853 17.3977 17.9145 17.636L21.2947 20.9428C21.5239 21.062 21.7531 20.9428 21.9822 20.8237C22.0968 20.7045 22.326 20.347 22.0968 19.8703Z" fill="#39424A"/>
</svg>
