<svg width="30" height="30" viewBox="0 0 30 30" fill="none" xmlns="http://www.w3.org/2000/svg">
<path d="M10.417 14.2969H14.297V10.0547H10.9564C10.6453 11.3605 10.461 12.7981 10.417 14.2969Z" fill="#39424A"/>
<path d="M15.7031 14.2969H19.5832C19.5391 12.7981 19.3549 11.3605 19.0438 10.0547H15.7031V14.2969Z" fill="#39424A"/>
<path d="M20.9902 14.2969H26.9795C26.8942 12.8131 26.54 11.3802 25.9401 10.0547H20.4854C20.7766 11.3787 20.9487 12.8128 20.9902 14.2969Z" fill="#39424A"/>
<path d="M9.51466 10.0547H4.05991C3.46005 11.3802 3.10582 12.8131 3.02051 14.2969H9.00982C9.0513 12.8128 9.22338 11.3787 9.51466 10.0547Z" fill="#39424A"/>
<path d="M14.2963 4.54565C13.4229 4.88854 12.5734 5.85422 11.8906 7.31044C11.6945 7.72884 11.5167 8.17659 11.3574 8.64848H14.2963V4.54565Z" fill="#39424A"/>
<path d="M10.6181 6.71339C11.7409 4.31878 13.2971 3 15.0002 3C11.7948 3 8.78139 4.24823 6.51485 6.51469C5.86141 7.16817 5.29314 7.88405 4.81445 8.64844H9.88221C10.0925 7.95891 10.3383 7.31016 10.6181 6.71339Z" fill="#39424A"/>
<path d="M19.3821 6.71339C19.6619 7.31011 19.9076 7.95891 20.1179 8.64844H25.1857C24.707 7.88405 24.1387 7.16817 23.4852 6.51469C21.2188 4.24823 18.2053 3 15 3C16.703 3 18.2593 4.31878 19.3821 6.71339Z" fill="#39424A"/>
<path d="M15.7031 4.54565V8.64848H18.642C18.4828 8.17659 18.305 7.72884 18.1088 7.31044C17.4261 5.85426 16.5766 4.88859 15.7031 4.54565Z" fill="#39424A"/>
<path d="M3 15.7031V26.2969C3 26.6852 3.31481 27 3.70312 27H26.2969C26.6852 27 27 26.6852 27 26.2969V15.7031H3ZM9.43936 23.9713C9.16927 24.0556 8.88506 23.9516 8.71519 23.7062L6.93591 21.1298V23.461C6.93591 23.7846 6.67359 24.0469 6.34997 24.0469C6.02639 24.0469 5.76403 23.7846 5.76403 23.461V19.2502C5.76403 18.9937 5.93077 18.7671 6.17559 18.6907C6.42038 18.6143 6.68634 18.7062 6.83212 18.9172L8.70389 21.6277L8.68087 19.2479C8.67773 18.9243 8.93756 18.6595 9.26114 18.6563H9.26691C9.58791 18.6563 9.84961 18.915 9.8527 19.2366L9.89213 23.3132V23.3189C9.89217 23.6293 9.71442 23.8854 9.43936 23.9713ZM12.9452 20.7657C13.2688 20.7657 13.5312 21.028 13.5312 21.3517C13.5312 21.6753 13.2688 21.9376 12.9452 21.9376H11.8846V22.8751H13.0763C13.3999 22.8751 13.6622 23.1375 13.6622 23.461C13.6622 23.7846 13.3999 24.047 13.0763 24.047H11.2987C10.9751 24.047 10.7128 23.7846 10.7128 23.461V19.2423C10.7128 18.9187 10.9751 18.6563 11.2987 18.6563H13.0763C13.3999 18.6563 13.6622 18.9187 13.6622 19.2423C13.6622 19.5659 13.3999 19.8282 13.0763 19.8282H11.8846V20.7657H12.9452ZM20.0631 19.3644L19.2378 23.5108C19.2328 23.536 19.2262 23.5608 19.2179 23.5851C19.1246 23.8594 18.8673 24.045 18.5775 24.0469C18.576 24.0469 18.5745 24.0469 18.573 24.0469C18.2851 24.0469 18.0276 23.8653 17.9311 23.5937C17.9283 23.5859 17.9258 23.5781 17.9233 23.5702L17.203 21.2321L16.4795 23.5697C16.4779 23.5748 16.4762 23.58 16.4745 23.5851C16.3812 23.8593 16.1239 24.0449 15.8343 24.0469C15.8327 24.0469 15.8312 24.0469 15.8295 24.0469C15.5418 24.0469 15.2843 23.8654 15.1878 23.594C15.1782 23.567 15.1706 23.5394 15.165 23.5113L14.3431 19.3559C14.2803 19.0385 14.4868 18.7302 14.8043 18.6674C15.1216 18.6046 15.4299 18.811 15.4928 19.1285L15.9352 21.3651L16.6317 19.1146C16.6762 18.9162 16.8225 18.7463 17.0308 18.6822C17.34 18.5869 17.6679 18.7604 17.7632 19.0697L18.4702 21.3646L18.9138 19.1356C18.977 18.8182 19.2855 18.6123 19.6029 18.6753C19.9201 18.7385 20.1262 19.047 20.0631 19.3644ZM24.2926 22.6497C24.148 23.4593 23.3772 24.047 22.4597 24.047C21.7204 24.047 21.0263 23.7489 20.5553 23.2291C20.338 22.9893 20.3563 22.6188 20.5961 22.4015C20.8359 22.1842 21.2064 22.2025 21.4237 22.4423C21.6693 22.7133 22.0566 22.8751 22.4597 22.8751C22.8367 22.8751 23.1011 22.6558 23.139 22.4437C23.1885 22.1662 22.7567 21.9839 22.6232 21.9346C21.9671 21.6926 21.3844 21.4333 21.36 21.4223C21.3317 21.4097 21.3045 21.395 21.2787 21.3781C20.8146 21.0755 20.5754 20.5449 20.6546 19.9933C20.7388 19.407 21.1665 18.9297 21.771 18.7476C22.8866 18.4114 23.815 19.1059 23.9506 19.2143C24.088 19.3216 24.1766 19.4883 24.1766 19.676C24.1766 19.9996 23.9143 20.262 23.5906 20.262C23.4468 20.262 23.3153 20.2099 23.2132 20.124L23.2127 20.1246L23.2164 20.1277C23.2112 20.1233 22.6778 19.6982 22.109 19.8697C21.8705 19.9415 21.8236 20.0965 21.8145 20.1599C21.8085 20.2021 21.8053 20.3021 21.891 20.3758C22.047 20.4439 22.5207 20.6478 23.0287 20.8352C24.1271 21.2403 24.4018 22.0381 24.2926 22.6497Z" fill="#39424A"/>
</svg>
