<svg width="70" height="70" viewBox="0 0 70 70" fill="none" xmlns="http://www.w3.org/2000/svg">
<path fill-rule="evenodd" clip-rule="evenodd" d="M36.9079 9.4934L61.6899 32.0747C62.5613 32.8688 62.8491 34.092 62.4239 35.1913C62.1202 35.9754 61.5055 36.5615 60.7502 36.8332L36.6709 15.2026C35.7266 14.3544 34.2965 14.3484 33.3452 15.1888L8.97396 36.7167C8.3463 36.4118 7.84263 35.8773 7.57689 35.1913C7.1512 34.0921 7.43902 32.8688 8.31037 32.0748L33.0925 9.49329C34.1798 8.50219 35.8201 8.50208 36.9079 9.4934ZM14.1764 38.7926V59.6254C14.1764 60.5224 14.9037 61.2498 15.8007 61.2498H29.3843C30.2814 61.2498 31.0087 60.5226 31.0087 59.6254V45.8884H38.992V59.6255C38.992 60.5226 39.7194 61.2499 40.6164 61.2499H54.1994C55.0964 61.2499 55.8237 60.5227 55.8237 59.6255V39.1288L34.9863 20.4105L14.1764 38.7926Z" fill="#39424A"/>
<path d="M53.8638 13.1249H50.25C48.5931 13.1249 47.25 14.4681 47.25 16.1249V16.2852L56.875 24.4999V15.4951C56.875 14.5309 55.0436 13.1249 53.8638 13.1249Z" fill="#39424A"/>
</svg>
