<svg width="70" height="70" viewBox="0 0 70 70" fill="none" xmlns="http://www.w3.org/2000/svg">
<g clip-path="url(#clip0)">
<path d="M54.9964 25.4751C53.874 23.3981 51.7986 22.0529 49.4445 21.877C47.0904 21.7011 44.838 22.7229 43.4196 24.6101L40.0012 29.1574C39.434 29.9117 39.1313 30.8097 39.1255 31.7536C39.1197 32.6976 39.4118 33.5989 39.9698 34.3607C40.5284 35.1218 41.3005 35.6712 42.2027 35.9496C43.105 36.228 44.0526 36.2087 44.943 35.8942L45.0027 35.8729C47.2418 35.1005 49.72 35.2944 51.8125 36.4075C52.3523 36.6946 52.9344 36.8629 53.5311 36.9075C53.8555 36.9317 54.1846 36.9192 54.5135 36.8697C55.447 36.7287 56.2923 36.3001 56.958 35.6303C57.6232 34.9606 58.0462 34.1125 58.181 33.1779C58.3158 32.2433 58.1498 31.3104 57.7011 30.4797L54.9964 25.4751Z" fill="#39424A"/>
<path d="M41.1828 24.4366C42.1197 24.1549 42.8665 23.4726 43.2855 22.5155C43.6843 21.6047 43.7363 20.5467 43.4316 19.5362C43.1267 18.5262 42.4985 17.6735 41.6628 17.1347C40.7848 16.5689 39.7855 16.4128 38.8501 16.6953C36.9682 17.262 35.9598 19.4598 36.6023 21.5959C37.116 23.2962 38.5242 24.4505 40.0268 24.5628C40.4105 24.5914 40.8003 24.5521 41.1828 24.4366Z" fill="#39424A"/>
<path d="M47.4017 21.1388C49.6886 21.3096 51.7076 19.3289 51.9023 16.7235C52.097 14.1173 50.3948 11.8581 48.108 11.6873C45.8213 11.5164 43.8025 13.4975 43.6078 16.1037C43.4131 18.7092 45.1151 20.9679 47.4017 21.1388Z" fill="#39424A"/>
<path d="M54.4786 22.8348L54.4788 22.8348C54.8218 22.9778 55.1766 23.0604 55.5339 23.0871C57.2017 23.2118 58.9177 22.1193 59.6773 20.3001C60.1147 19.253 60.1761 18.1157 59.8501 17.0982C59.509 16.0329 58.7898 15.2244 57.8247 14.8215C56.8595 14.4186 55.7788 14.4759 54.7815 14.9823C53.8289 15.4661 53.0636 16.3095 52.6266 17.3567C51.7044 19.5657 52.5352 22.0232 54.4786 22.8348Z" fill="#39424A"/>
<path d="M63.254 22.9359L63.2534 22.9352C61.7634 21.6524 59.367 21.9811 57.9111 23.6685C56.4564 25.3569 56.4835 27.7749 57.9711 29.0584C58.5136 29.5268 59.177 29.7809 59.8715 29.8328C61.0819 29.9232 62.3874 29.3995 63.3142 28.3263C64.7686 26.6379 64.7418 24.2199 63.254 22.9359Z" fill="#39424A"/>
</g>
<g clip-path="url(#clip1)">
<path d="M16.5602 46.8885C17.523 44.7118 19.5018 43.1947 21.8537 42.8306C24.2055 42.4665 26.5504 43.3142 28.1261 45.098L31.9234 49.396C32.5534 50.109 32.9292 50.9874 33.01 51.9355C33.091 52.8837 32.8692 53.8128 32.3689 54.6228C31.8682 55.4321 31.1359 56.0457 30.2513 56.3973C29.3667 56.7489 28.4128 56.8049 27.4929 56.5597L27.4313 56.543C25.1195 55.9449 22.6444 56.3369 20.6299 57.6222C20.1103 57.9536 19.5387 58.169 18.9426 58.2613C18.6184 58.3115 18.2867 58.3252 17.9523 58.3016C17.0028 58.2341 16.1193 57.8707 15.3969 57.2504C14.6751 56.6303 14.1825 55.8116 13.9727 54.8831C13.7628 53.9545 13.8554 53.0038 14.2403 52.1333L16.5602 46.8885Z" fill="#39424A"/>
<path d="M30.3607 44.7457C29.3966 44.5371 28.5918 43.9109 28.0946 42.9823C27.6213 42.0987 27.4849 41.0396 27.7107 39.9997C27.9368 38.9605 28.5002 38.0535 29.2973 37.4455C30.1346 36.807 31.1264 36.5706 32.0891 36.7801C34.0255 37.1999 35.2138 39.3285 34.738 41.5263C34.357 43.276 33.0336 44.5481 31.5325 44.7805C31.1492 44.8399 30.7543 44.8314 30.3607 44.7457Z" fill="#39424A"/>
<path d="M23.8461 41.9262C21.5613 42.2799 19.3747 40.45 18.9717 37.8469C18.5686 35.2433 20.0995 32.8374 22.3843 32.4837C24.6688 32.13 26.8553 33.9604 27.2583 36.5641C27.6613 39.1671 26.1306 41.5725 23.8461 41.9262Z" fill="#39424A"/>
<path d="M16.8705 44.1937L16.8703 44.1938C16.5369 44.3648 16.187 44.4761 15.8299 44.5314C14.1638 44.7893 12.3522 43.828 11.4441 42.0601C10.9212 41.0425 10.769 39.9045 11.0157 38.8559C11.2737 37.7582 11.9322 36.8884 12.87 36.4067C13.808 35.925 14.8987 35.8966 15.9412 36.3262C16.9371 36.7366 17.7734 37.5232 18.2959 38.5409C19.3984 40.6877 18.759 43.2235 16.8705 44.1937Z" fill="#39424A"/>
<path d="M8.05981 44.9936L8.06035 44.9928C9.45575 43.585 11.8902 43.7247 13.4877 45.3047C15.084 46.8858 15.2492 49.318 13.8563 50.7263C13.3483 51.2402 12.7019 51.5483 12.008 51.6557C10.7987 51.843 9.44504 51.4205 8.42827 50.4157C6.83217 48.8345 6.66676 46.4023 8.05981 44.9936Z" fill="#39424A"/>
</g>
<defs>
<clipPath id="clip0">
<rect width="28.3141" height="28.3141" fill="white" transform="translate(37.2324 9.09998) rotate(4.27332)"/>
</clipPath>
<clipPath id="clip1">
<rect width="28.5446" height="28.5446" fill="white" transform="matrix(-0.988228 0.152989 0.152989 0.988228 33.1094 29.0181)"/>
</clipPath>
</defs>
</svg>
