<svg width="70" height="70" viewBox="0 0 70 70" fill="none" xmlns="http://www.w3.org/2000/svg">
<path d="M29.6934 35.5771H33.1562V39.04H29.6934V35.5771Z" fill="#39424A"/>
<path d="M8.96098 32.1024H38.3884C39.0047 22.6937 48.2036 16.1696 57.395 18.8719V16.5319C57.395 15.5757 56.6199 14.8006 55.6637 14.8006H40.084V9.60636C40.084 8.65014 39.3088 7.875 38.3526 7.875H24.4957C23.5395 7.875 22.7643 8.65014 22.7643 9.60636V14.8006H7.18449C6.22826 14.8006 5.45312 15.5757 5.45312 16.5319V29.1176C5.72643 30.8076 7.19511 32.1024 8.96098 32.1024ZM26.2271 11.3377H36.6212V14.8006H26.2271V11.3377Z" fill="#39424A"/>
<path d="M45.6794 45.8948C42.0151 43.7414 39.3 40.0244 38.5588 35.565H36.6185V40.7713C36.6185 41.7275 35.8433 42.5027 34.8871 42.5027H27.9615C27.0053 42.5027 26.2302 41.7275 26.2302 40.7713V35.565H8.96098C7.68355 35.565 6.48587 35.2202 5.45312 34.6213V57.3351C5.45312 58.2913 6.22826 59.0664 7.18449 59.0664H45.7455C45.6259 58.1551 45.7034 58.7222 45.6794 45.8948Z" fill="#39424A"/>
<path d="M61.2226 25.0563C56.7895 20.6232 49.5767 20.6232 45.1437 25.0563C39.3082 30.8916 41.472 40.8151 49.1432 43.7193V47.7029H57.223V43.7193C64.8917 40.8162 67.0585 30.8923 61.2226 25.0563ZM53.1831 40.9973C53.183 40.9973 53.1832 40.9973 53.1831 40.9973C48.8069 40.9973 45.2816 37.4735 45.2816 33.0958C45.2816 28.7194 48.8055 25.1944 53.183 25.1944C57.5594 25.1944 61.0844 28.7183 61.0844 33.0958C61.0844 37.472 57.5606 40.9973 53.1831 40.9973Z" fill="#39424A"/>
<path d="M49.1426 58.0857C49.1426 60.3134 50.955 62.1256 53.1825 62.1256C55.4102 62.1256 57.2224 60.3132 57.2224 58.0857V51.1659H49.1426V58.0857Z" fill="#39424A"/>
</svg>
