<svg width="70" height="70" viewBox="0 0 70 70" fill="none" xmlns="http://www.w3.org/2000/svg">
<path d="M59.9905 17.1329C58.6791 15.4788 55.9579 13.7908 54.2442 12.6636C57.4309 17.213 59.9963 24.0067 59.352 29.5832C58.6548 35.6177 56.0527 39.9549 51.3038 43.72C48.4836 45.956 45.207 47.4764 41.7187 48.1836L41.8708 48.3754C43.5518 48.66 45.2717 48.7257 46.9895 48.5619C50.7271 48.206 54.2641 46.7797 57.2182 44.4374C65.6284 37.769 66.6587 25.5432 59.9905 17.1329Z" fill="#39424A"/>
<path d="M25.3271 48.9093L18.6836 55.5528L21.6792 58.5484L31.522 48.7056C30.9075 48.5772 30.2975 48.4242 29.6937 48.2448L25.3271 48.9093Z" fill="#39424A"/>
<path d="M37.3136 64.1427C40.4792 64.5085 43.342 62.2387 43.7077 59.0731C44.0735 55.9075 41.8037 53.0448 38.6381 52.679C35.4725 52.3133 32.6098 54.583 32.244 57.7486C31.8783 60.9142 34.148 63.777 37.3136 64.1427Z" fill="#39424A"/>
<path d="M35.1394 45.9024C36.8419 45.9922 38.558 45.86 40.2456 45.5002C43.9177 44.7176 47.2676 42.8948 49.9334 40.229C57.5229 32.6396 57.5229 20.2906 49.9334 12.7012C46.257 9.02478 41.3688 7 36.1695 7C30.9703 7 26.0821 9.02478 22.4056 12.7012C19.7399 15.367 17.9171 18.7169 17.1345 22.389C16.7748 24.0766 16.6425 25.7928 16.7323 27.4952L35.1394 45.9024Z" fill="#39424A"/>
<path d="M17.6477 33.1705L16.7828 38.8541L6.42188 49.2149L13.4197 56.2127L23.7805 45.8519L29.4642 44.987L17.6477 33.1705Z" fill="#39424A"/>
</svg>
