<svg width="837" height="148" viewBox="0 0 837 148" fill="none" xmlns="http://www.w3.org/2000/svg">
<rect width="837" height="147.517" rx="5" fill="#FFF8B8"/>
<path d="M338.907 81H337.413V69.4775H333.238L332.966 71.5869C332.608 74.3936 332.292 76.4473 332.017 77.748C331.747 79.043 331.39 79.9453 330.944 80.4551C330.499 80.9648 329.907 81.2139 329.169 81.2021C328.735 81.2021 328.346 81.1289 328 80.9824V79.7256C328.316 79.8779 328.647 79.9541 328.993 79.9541C329.304 79.9541 329.573 79.8281 329.802 79.5762C330.036 79.3184 330.241 78.876 330.417 78.249C330.599 77.6162 330.824 76.4209 331.094 74.6631C331.369 72.8994 331.671 70.7285 331.999 68.1504H338.907V81ZM343.592 71.3672V77.4756L343.53 79.0752L343.504 79.5762L348.716 71.3672H350.535V81H349.173V75.1113L349.199 73.9512L349.243 72.8086L344.04 81H342.221V71.3672H343.592ZM354.912 71.3672V74.8828C354.912 76.0078 355.554 76.5703 356.837 76.5703C357.37 76.5703 357.88 76.4883 358.366 76.3242C358.853 76.1602 359.403 75.8818 360.019 75.4893V71.3672H361.478V81H360.019V76.6406C359.403 77.0625 358.832 77.3613 358.305 77.5371C357.783 77.707 357.191 77.792 356.529 77.792C355.568 77.792 354.815 77.54 354.271 77.0361C353.726 76.5322 353.453 75.8496 353.453 74.9883V71.3672H354.912ZM366.039 71.3672V75.4014H371.436V71.3672H372.895V81H371.436V76.6582H366.039V81H364.58V71.3672H366.039ZM377.447 75.3486H380.075C381.3 75.3486 382.205 75.5771 382.791 76.0342C383.383 76.4854 383.679 77.1621 383.679 78.0645C383.679 79.0312 383.365 79.7637 382.738 80.2617C382.117 80.7539 381.2 81 379.987 81H375.988V71.3672H377.447V75.3486ZM386.755 81H385.296V71.3672H386.755V81ZM377.447 76.6055V79.7783H379.917C381.464 79.7783 382.237 79.2363 382.237 78.1523C382.237 77.6133 382.059 77.2207 381.701 76.9746C381.344 76.7285 380.734 76.6055 379.873 76.6055H377.447ZM391.229 71.3672V77.4756L391.167 79.0752L391.141 79.5762L396.353 71.3672H398.172V81H396.81V75.1113L396.836 73.9512L396.88 72.8086L391.677 81H389.857V71.3672H391.229ZM393.979 70.0928C392.896 70.0928 392.104 69.8848 391.606 69.4688C391.108 69.0469 390.83 68.3555 390.771 67.3945H392.143C392.195 68.0039 392.354 68.4287 392.617 68.6689C392.887 68.9092 393.353 69.0293 394.015 69.0293C394.618 69.0293 395.063 68.9004 395.351 68.6426C395.644 68.3848 395.822 67.9688 395.887 67.3945H397.267C397.196 68.3203 396.9 69.0029 396.379 69.4424C395.857 69.876 395.058 70.0928 393.979 70.0928ZM411.558 71.3672H413.157L409 76.0166L413.5 81H411.795L407.4 76.1221V81H405.941V71.3672H407.4V76.0518L411.558 71.3672ZM421.217 81L420.927 79.6289H420.856C420.376 80.2324 419.896 80.6426 419.415 80.8594C418.94 81.0703 418.346 81.1758 417.631 81.1758C416.676 81.1758 415.926 80.9297 415.381 80.4375C414.842 79.9453 414.572 79.2451 414.572 78.3369C414.572 76.3916 416.128 75.3721 419.239 75.2783L420.874 75.2256V74.6279C420.874 73.8721 420.71 73.3154 420.382 72.958C420.06 72.5947 419.541 72.4131 418.826 72.4131C418.023 72.4131 417.115 72.6592 416.102 73.1514L415.653 72.0352C416.128 71.7773 416.646 71.5752 417.209 71.4287C417.777 71.2822 418.346 71.209 418.914 71.209C420.062 71.209 420.912 71.4639 421.463 71.9736C422.02 72.4834 422.298 73.3008 422.298 74.4258V81H421.217ZM417.921 79.9717C418.829 79.9717 419.541 79.7227 420.057 79.2246C420.578 78.7266 420.839 78.0293 420.839 77.1328V76.2627L419.38 76.3242C418.22 76.3652 417.382 76.5469 416.866 76.8691C416.356 77.1855 416.102 77.6807 416.102 78.3545C416.102 78.8818 416.26 79.2832 416.576 79.5586C416.898 79.834 417.347 79.9717 417.921 79.9717ZM424.812 75.2256C424.812 73.1162 425.122 71.4727 425.743 70.2949C426.364 69.1113 427.349 68.373 428.696 68.0801C430.372 67.7227 431.849 67.4326 433.126 67.21L433.398 68.4932C431.365 68.833 429.912 69.1025 429.039 69.3018C428.189 69.4951 427.551 69.9521 427.123 70.6729C426.701 71.3936 426.47 72.375 426.429 73.6172H426.534C426.897 73.125 427.366 72.7383 427.94 72.457C428.515 72.1758 429.115 72.0352 429.742 72.0352C430.926 72.0352 431.849 72.4189 432.511 73.1865C433.173 73.9541 433.504 75.0176 433.504 76.377C433.504 77.8828 433.12 79.0605 432.353 79.9102C431.585 80.7539 430.516 81.1758 429.145 81.1758C427.791 81.1758 426.73 80.6572 425.963 79.6201C425.195 78.583 424.812 77.1182 424.812 75.2256ZM429.276 79.9541C431.063 79.9541 431.957 78.8145 431.957 76.5352C431.957 74.3613 431.146 73.2744 429.522 73.2744C429.077 73.2744 428.646 73.3682 428.23 73.5557C427.82 73.7373 427.442 73.9805 427.097 74.2852C426.757 74.5898 426.493 74.9033 426.306 75.2256C426.306 76.7666 426.549 77.9414 427.035 78.75C427.521 79.5527 428.269 79.9541 429.276 79.9541ZM437.424 71.3672V77.4756L437.362 79.0752L437.336 79.5762L442.548 71.3672H444.367V81H443.005V75.1113L443.031 73.9512L443.075 72.8086L437.872 81H436.053V71.3672H437.424ZM448.92 71.3672V75.4014H454.316V71.3672H455.775V81H454.316V76.6582H448.92V81H447.461V71.3672H448.92ZM462.938 81.1758C461.515 81.1758 460.39 80.7422 459.563 79.875C458.743 79.0078 458.333 77.8037 458.333 76.2627C458.333 74.71 458.714 73.4766 459.476 72.5625C460.243 71.6484 461.271 71.1914 462.561 71.1914C463.768 71.1914 464.723 71.5898 465.426 72.3867C466.129 73.1777 466.48 74.2236 466.48 75.5244V76.4473H459.845C459.874 77.5781 460.158 78.4365 460.697 79.0225C461.242 79.6084 462.007 79.9014 462.991 79.9014C464.028 79.9014 465.054 79.6846 466.067 79.251V80.5518C465.552 80.7744 465.062 80.9326 464.6 81.0264C464.143 81.126 463.589 81.1758 462.938 81.1758ZM462.543 72.4131C461.77 72.4131 461.151 72.665 460.688 73.1689C460.231 73.6729 459.962 74.3701 459.88 75.2607H464.916C464.916 74.3408 464.711 73.6377 464.301 73.1514C463.891 72.6592 463.305 72.4131 462.543 72.4131ZM475.472 72.6152H472.343V81H470.884V72.6152H467.79V71.3672H475.472V72.6152ZM486.792 81H485.368V71.8418C485.368 71.0801 485.392 70.3594 485.438 69.6797C485.315 69.8027 485.178 69.9316 485.025 70.0664C484.873 70.2012 484.176 70.7725 482.934 71.7803L482.16 70.7783L485.562 68.1504H486.792V81Z" fill="black"/>
</svg>
