<svg width="30" height="30" viewBox="0 0 30 30" fill="none" xmlns="http://www.w3.org/2000/svg">
<g opacity="0.6">
<path d="M4.44141 17.4133V24.6034C4.44141 25.9254 5.51704 27.0001 6.83809 27.0001H24.0943C25.4163 27.0001 26.491 25.9254 26.491 24.6034V17.4133H4.44141Z" fill="#39424A"/>
<path d="M14.8589 6.19214L11.2715 7.04345L14.2769 11.4658L18.1625 10.582L14.8589 6.19214Z" fill="#39424A"/>
<path d="M10.2746 7.28003L6.4082 8.1965L9.38202 12.5777L13.2733 11.6928L10.2746 7.28003Z" fill="#39424A"/>
<path d="M26.4766 8.18308L25.6608 5.08846C25.4729 4.33589 24.7021 3.86233 23.9419 4.03584L20.7207 4.80086L23.777 9.30666L26.119 8.77365C26.2465 8.74489 26.3558 8.66531 26.4229 8.55413C26.4901 8.44295 26.5092 8.30962 26.4766 8.18308Z" fill="#39424A"/>
<path d="M19.7222 5.0376L15.877 5.95024L19.1863 10.3496L22.7727 9.53378L19.7222 5.0376Z" fill="#39424A"/>
<path d="M9.27215 12.6208L7.73828 16.4546H11.4992L13.0331 12.6208H9.27215Z" fill="#39424A"/>
<path d="M14.0671 12.6208L12.5332 16.4546H16.2941L17.828 12.6208H14.0671Z" fill="#39424A"/>
<path d="M26.0123 12.6208H23.653L22.1191 16.4556H26.4917V13.1002C26.4916 12.8346 26.2778 12.6208 26.0123 12.6208Z" fill="#39424A"/>
<path d="M18.8601 12.6208L17.3262 16.4546H21.0861L22.621 12.6208H18.8601Z" fill="#39424A"/>
<path d="M5.41152 8.43408L4.63018 8.61909C4.2496 8.70537 3.92748 8.9364 3.72329 9.26813C3.51909 9.60081 3.45869 9.99195 3.5536 10.3706L4.44229 13.8832V16.4544H6.70668L8.14564 12.8584L8.37954 12.8057L5.41152 8.43408Z" fill="#39424A"/>
</g>
</svg>
