<svg width="40" height="40" viewBox="0 0 40 40" fill="none" xmlns="http://www.w3.org/2000/svg">
<g clip-path="url(#clip0)">
<path d="M37.3403 20.5181C37.1793 20.1888 37.1793 19.8111 37.3403 19.4819L38.8321 16.43C39.6628 14.7307 39.0047 12.7053 37.3339 11.8188L34.3331 10.2267C34.0094 10.0549 33.7874 9.74932 33.7241 9.38846L33.1372 6.04246C32.8104 4.1795 31.0871 2.92763 29.2147 3.19255L25.8512 3.66833C25.4882 3.71958 25.1292 3.60286 24.8658 3.3481L22.4244 0.986238C21.0649 -0.328911 18.9352 -0.328989 17.5759 0.986238L15.1343 3.34834C14.8709 3.60318 14.5119 3.71966 14.1489 3.66857L10.7854 3.19279C8.91241 2.92771 7.18976 4.17974 6.86296 6.0427L6.27609 9.38854C6.21273 9.74947 5.99078 10.055 5.66711 10.2268L2.66635 11.819C0.995576 12.7054 0.337454 14.7309 1.16807 16.4302L2.65986 19.4821C2.8208 19.8114 2.8208 20.189 2.65986 20.5182L1.168 23.5701C0.337376 25.2694 0.995497 27.2948 2.66627 28.1812L5.66703 29.7734C5.99078 29.9451 6.21273 30.2508 6.27609 30.6116L6.86296 33.9576C7.16046 35.6535 8.61467 36.8429 10.286 36.8428C10.4506 36.8428 10.6176 36.8312 10.7855 36.8074L14.149 36.3317C14.5117 36.2802 14.871 36.3971 15.1344 36.6519L17.5759 39.0138C18.2557 39.6714 19.1277 40.0002 20.0001 40.0001C20.8722 40 21.7448 39.6713 22.4243 39.0138L24.8658 36.6519C25.1293 36.3971 25.4883 36.2807 25.8512 36.3317L29.2147 36.8074C31.088 37.0724 32.8104 35.8205 33.1372 33.9575L33.7241 30.6117C33.7875 30.2508 34.0094 29.9452 34.3331 29.7734L37.3339 28.1812C39.0047 27.2948 39.6628 25.2693 38.8321 23.57L37.3403 20.5181ZM15.386 9.61838C17.7181 9.61838 19.6155 11.5158 19.6155 13.848C19.6155 16.1801 17.7181 18.0776 15.386 18.0776C13.0538 18.0776 11.1564 16.1801 11.1564 13.848C11.1564 11.5158 13.0538 9.61838 15.386 9.61838ZM13.2028 28.4284C12.9776 28.6537 12.6824 28.7663 12.3872 28.7663C12.0921 28.7663 11.7968 28.6537 11.5716 28.4284C11.1211 27.978 11.1211 27.2476 11.5716 26.7971L26.7972 11.5715C27.2476 11.121 27.9781 11.121 28.4285 11.5715C28.879 12.022 28.879 12.7523 28.4285 13.2028L13.2028 28.4284ZM24.614 30.3817C22.2819 30.3817 20.3844 28.4843 20.3844 26.1521C20.3844 23.8199 22.2819 21.9225 24.614 21.9225C26.9462 21.9225 28.8436 23.8199 28.8436 26.1521C28.8436 28.4843 26.9462 30.3817 24.614 30.3817Z" fill="#C12525"/>
<path d="M24.614 24.2296C23.5539 24.2296 22.6914 25.0921 22.6914 26.1521C22.6914 27.2122 23.5538 28.0746 24.614 28.0746C25.674 28.0746 26.5365 27.2122 26.5365 26.1521C26.5365 25.0921 25.674 24.2296 24.614 24.2296Z" fill="#C12525"/>
<path d="M15.3859 11.9253C14.3258 11.9253 13.4634 12.7877 13.4634 13.8478C13.4634 14.9079 14.3258 15.7704 15.3859 15.7704C16.4459 15.7704 17.3084 14.908 17.3084 13.8478C17.3084 12.7878 16.4459 11.9253 15.3859 11.9253Z" fill="#C12525"/>
</g>
<defs>
<clipPath id="clip0">
<rect width="40" height="40" fill="white"/>
</clipPath>
</defs>
</svg>
