<svg width="30" height="30" viewBox="0 0 30 30" fill="none" xmlns="http://www.w3.org/2000/svg">
<path d="M12.2454 18.4512L11.8772 20.6382C11.827 20.9372 11.9497 21.2386 12.1944 21.417C12.4396 21.5951 12.7652 21.6189 13.033 21.4785L14.9994 20.4521L16.9657 21.4787C17.082 21.5391 17.2095 21.5695 17.3357 21.5695C17.5008 21.5695 17.6656 21.5178 17.8046 21.4172C18.0496 21.2388 18.1727 20.9374 18.1221 20.6384L17.7543 18.4513L19.3376 16.8982C19.5541 16.6861 19.6312 16.3696 19.5383 16.0816C19.4451 15.7937 19.1955 15.583 18.8959 15.5388L16.7019 15.2134L15.7137 13.2273C15.5797 12.9561 15.302 12.7844 14.9992 12.7844C14.6969 12.7844 14.4194 12.9561 14.2842 13.2273L13.297 15.2134L11.103 15.5386C10.8029 15.5828 10.5544 15.7935 10.461 16.0814C10.3675 16.3694 10.4444 16.6863 10.6613 16.898L12.2454 18.4512Z" fill="#39424A"/>
<path d="M24.4288 5.55147H21.9165V4.15796C21.9165 3.51841 21.3981 3 20.7584 3H20.5748C19.9352 3 19.417 3.51841 19.417 4.15796V5.55147H10.5531V4.15796C10.5531 3.51841 10.0347 3 9.39533 3H9.2115C8.57195 3 8.05373 3.51841 8.05373 4.15796V5.55147H5.57072C4.25681 5.55147 3.1875 6.6204 3.1875 7.93469V24.617C3.1875 25.9305 4.25681 27.0002 5.57072 27.0002H24.429C25.7427 27.0002 26.8122 25.9307 26.8122 24.617V7.93469C26.812 6.6204 25.7425 5.55147 24.4288 5.55147ZM24.1179 24.3061H5.88165V11.3199H24.1179V24.3061Z" fill="#39424A"/>
</svg>
