<svg width="30" height="30" viewBox="0 0 30 30" fill="none" xmlns="http://www.w3.org/2000/svg">
<path d="M16.0769 13.4614L14.5385 16.5383L13 13.4614H16.0769Z" fill="url(#paint0_linear_620:28517)"/>
<path d="M19.1531 11.9231L18.7184 15.7692L16.0762 13.4076L19.1531 11.9231Z" fill="url(#paint1_linear_620:28517)"/>
<path d="M21.9699 9.61548L23.0005 12.6924L19.1543 11.868L21.9699 9.61548Z" fill="url(#paint2_linear_620:28517)"/>
<path d="M9.92383 11.9231L10.3585 15.7692L13.0008 13.4077L9.92383 11.9231Z" fill="url(#paint3_linear_620:28517)"/>
<path d="M7.10673 9.61548L6.07617 12.6924L9.92233 11.868L7.10673 9.61548Z" fill="url(#paint4_linear_620:28517)"/>
<path d="M5.37371 9.61279H3.88672V19.961H5.37371V9.61279Z" fill="url(#paint5_linear_620:28517)"/>
<path d="M25.1901 9.61279H23.7031V19.961H25.1901V9.61279Z" fill="url(#paint6_linear_620:28517)"/>
<path fill-rule="evenodd" clip-rule="evenodd" d="M16.0769 10.3846H19V5H16.0769V10.3846ZM26.0769 10.3846H22.0769V5H24.5407C25.0467 5 25.4729 5.37791 25.5335 5.88023L26.0769 10.3846ZM13 10.3846V5H10V10.3846H13ZM7 10.3846H3L3.54338 5.88023C3.60398 5.37791 4.03022 5 4.53619 5H7V10.3846Z" fill="url(#paint7_linear_620:28517)"/>
<path d="M25.0769 18.8462H4C3.44772 18.8462 3 19.2939 3 19.8462V24C3 24.5523 3.44772 25 4 25H25.0769C25.6292 25 26.0769 24.5523 26.0769 24V19.8462C26.0769 19.2939 25.6292 18.8462 25.0769 18.8462Z" fill="url(#paint8_linear_620:28517)"/>
<defs>
<linearGradient id="paint0_linear_620:28517" x1="13" y1="15.8973" x2="16.3791" y2="15.9024" gradientUnits="userSpaceOnUse">
<stop stop-color="#00B191"/>
<stop offset="1" stop-color="#00CABE"/>
</linearGradient>
<linearGradient id="paint1_linear_620:28517" x1="16.0762" y1="14.968" x2="19.4553" y2="14.972" gradientUnits="userSpaceOnUse">
<stop stop-color="#00B191"/>
<stop offset="1" stop-color="#00CABE"/>
</linearGradient>
<linearGradient id="paint2_linear_620:28517" x1="19.1543" y1="12.0514" x2="23.3782" y2="12.0593" gradientUnits="userSpaceOnUse">
<stop stop-color="#00B191"/>
<stop offset="1" stop-color="#00CABE"/>
</linearGradient>
<linearGradient id="paint3_linear_620:28517" x1="9.92383" y1="14.968" x2="13.303" y2="14.972" gradientUnits="userSpaceOnUse">
<stop stop-color="#00B191"/>
<stop offset="1" stop-color="#00CABE"/>
</linearGradient>
<linearGradient id="paint4_linear_620:28517" x1="6.07617" y1="12.0514" x2="10.3001" y2="12.0593" gradientUnits="userSpaceOnUse">
<stop stop-color="#00B191"/>
<stop offset="1" stop-color="#00CABE"/>
</linearGradient>
<linearGradient id="paint5_linear_620:28517" x1="3.88672" y1="17.8051" x2="5.51977" y2="17.8055" gradientUnits="userSpaceOnUse">
<stop stop-color="#00B191"/>
<stop offset="1" stop-color="#00CABE"/>
</linearGradient>
<linearGradient id="paint6_linear_620:28517" x1="23.7031" y1="17.8051" x2="25.3362" y2="17.8055" gradientUnits="userSpaceOnUse">
<stop stop-color="#00B191"/>
<stop offset="1" stop-color="#00CABE"/>
</linearGradient>
<linearGradient id="paint7_linear_620:28517" x1="3" y1="9.26282" x2="28.3426" y2="9.42563" gradientUnits="userSpaceOnUse">
<stop stop-color="#00B191"/>
<stop offset="1" stop-color="#00CABE"/>
</linearGradient>
<linearGradient id="paint8_linear_620:28517" x1="3" y1="23.718" x2="28.3429" y2="23.8604" gradientUnits="userSpaceOnUse">
<stop stop-color="#00B191"/>
<stop offset="1" stop-color="#00CABE"/>
</linearGradient>
</defs>
</svg>
