<svg width="19" height="19" viewBox="0 0 19 19" fill="none" xmlns="http://www.w3.org/2000/svg">
<path d="M15.4608 5.67718H8.60588L7.24235 4.05659C7.19648 4.00146 7.12775 3.97053 7.05608 3.97277H1.52559C0.681206 3.97892 0 4.66515 0 5.50953V15.4771C0.00102451 16.3244 0.687632 17.011 1.5349 17.012H15.4608C16.3081 17.011 16.9947 16.3244 16.9957 15.4771V7.21208C16.9947 6.36481 16.3081 5.67821 15.4608 5.67718Z" fill="url(#paint0_linear_553:25586)"/>
<path d="M17.4743 3.69281H10.6176L9.25404 2.07222C9.20817 2.01708 9.13943 1.98616 9.06776 1.98839H3.53913C2.77299 1.98965 2.12512 2.55565 2.021 3.31467H7.06345C7.32786 3.31402 7.57892 3.43072 7.74894 3.6332L8.91315 5.01722H15.4607C16.6717 5.01927 17.653 6.00051 17.655 7.21153V15.0127C18.4228 14.9169 18.9993 14.2646 18.9999 13.4908V5.22585C18.9979 4.38291 18.3172 3.69895 17.4743 3.69281Z" fill="url(#paint1_linear_553:25586)"/>
<defs>
<linearGradient id="paint0_linear_553:25586" x1="3.80034e-09" y1="14.2955" x2="18.665" y2="14.3319" gradientUnits="userSpaceOnUse">
<stop stop-color="#00B191"/>
<stop offset="1" stop-color="#00CABE"/>
</linearGradient>
<linearGradient id="paint1_linear_553:25586" x1="2.021" y1="12.2993" x2="20.6676" y2="12.3357" gradientUnits="userSpaceOnUse">
<stop stop-color="#00B191"/>
<stop offset="1" stop-color="#00CABE"/>
</linearGradient>
</defs>
</svg>
