<svg width="24" height="21" viewBox="0 0 24 21" fill="none" xmlns="http://www.w3.org/2000/svg">
<path d="M23.5 8.50001C23.5 12.0899 12.4993 20.0003 11.9993 20.0003C11.7219 20.0003 2.70066 14.5633 1.00109 10.0001C-0.362258 6.33968 2.00057 1.00011 5.5 1.00004C8.50063 0.499914 9 1.99997 11.9993 4.00001C15 0 19.8487 0.176717 21 2.00001C23.5 3.50001 23.5 7.22592 23.5 8.50001Z" fill="#E74A5A"/>
<path d="M12 21C11.6583 21 11.3289 20.8783 11.0722 20.6571C10.1027 19.8233 9.16791 19.0398 8.3432 18.3486L8.33899 18.345C5.92108 16.3185 3.83313 14.5685 2.38037 12.8445C0.756409 10.9173 0 9.08994 0 7.0937C0 5.15419 0.676209 3.36488 1.90393 2.05512C3.1463 0.729882 4.85101 0 6.70459 0C8.08997 0 9.3587 0.430762 10.4755 1.28022C11.0391 1.709 11.5499 2.23377 12 2.84587C12.4503 2.23377 12.9609 1.709 13.5247 1.28022C14.6415 0.430762 15.9102 0 17.2956 0C19.149 0 20.8539 0.729882 22.0963 2.05512C23.324 3.36488 24 5.15419 24 7.0937C24 9.08994 23.2438 10.9173 21.6198 12.8443C20.1671 14.5685 18.0793 16.3183 15.6617 18.3447C14.8356 19.0369 13.8994 19.8217 12.9276 20.6575C12.6711 20.8783 12.3415 21 12 21ZM6.70459 1.38269C5.24835 1.38269 3.91058 1.95428 2.93738 2.99228C1.94971 4.04596 1.4057 5.50248 1.4057 7.0937C1.4057 8.77263 2.04016 10.2742 3.46271 11.9623C4.83765 13.594 6.88275 15.3081 9.25067 17.2928L9.25507 17.2964C10.0829 17.9902 11.0213 18.7769 11.998 19.6168C12.9805 18.7752 13.9204 17.9874 14.7499 17.2924C17.1176 15.3077 19.1625 13.594 20.5375 11.9623C21.9598 10.2742 22.5943 8.77263 22.5943 7.0937C22.5943 5.50248 22.0503 4.04596 21.0626 2.99228C20.0896 1.95428 18.7516 1.38269 17.2956 1.38269C16.2288 1.38269 15.2494 1.7162 14.3846 2.37387C13.6139 2.96023 13.077 3.70145 12.7623 4.2201C12.6004 4.4868 12.3155 4.646 12 4.646C11.6845 4.646 11.3996 4.4868 11.2377 4.2201C10.9232 3.70145 10.3863 2.96023 9.61542 2.37387C8.75061 1.7162 7.77118 1.38269 6.70459 1.38269Z" fill="#E74A5A"/>
</svg>
