<svg width="20" height="20" viewBox="0 0 20 20" fill="none" xmlns="http://www.w3.org/2000/svg">
<g clip-path="url(#clip0_510_26522)">
<path d="M19.609 5.01386L10.195 1.69233C10.0688 1.6478 9.93121 1.6478 9.80508 1.69233L0.391016 5.01386C0.156954 5.09644 0.000312968 5.31753 4.68243e-07 5.56573C-0.000312032 5.81394 0.155821 6.03538 0.389688 6.11851L9.80375 9.46526C9.86723 9.48784 9.93363 9.49913 10 9.49913C10.0664 9.49913 10.1328 9.48784 10.1962 9.46526L19.6103 6.11851C19.8442 6.03538 20.0003 5.81394 20 5.56573C19.9997 5.31753 19.843 5.09644 19.609 5.01386Z" fill="#6A6A6A"/>
<path d="M18.5938 12.8348V7.72388L17.4219 8.14048V12.8348C17.0689 13.038 16.8311 13.4186 16.8311 13.8552C16.8311 14.2917 17.0689 14.6724 17.4219 14.8755V17.7551C17.4219 18.0786 17.6842 18.341 18.0078 18.341C18.3314 18.341 18.5938 18.0786 18.5938 17.7551V14.8756C18.9467 14.6724 19.1846 14.2917 19.1846 13.8552C19.1846 13.4187 18.9468 13.038 18.5938 12.8348Z" fill="#6A6A6A"/>
<path d="M10.0022 10.671C9.80105 10.671 9.60297 10.6368 9.4134 10.5694L4.12109 8.68799V11.2664C4.12109 11.8972 4.77918 12.4307 6.07707 12.852C7.20836 13.2192 8.60234 13.4214 10.0022 13.4214C11.402 13.4214 12.796 13.2192 13.9273 12.852C15.2252 12.4307 15.8833 11.8972 15.8833 11.2664V8.68799L10.591 10.5694C10.4014 10.6368 10.2033 10.671 10.0022 10.671Z" fill="#6A6A6A"/>
</g>
<defs>
<clipPath id="clip0_510_26522">
<rect width="20" height="20" fill="white"/>
</clipPath>
</defs>
</svg>
