<svg width="22" height="22" viewBox="0 0 22 22" fill="none" xmlns="http://www.w3.org/2000/svg">
<path d="M13.2965 4.93088C12.8461 3.76207 12.2799 2.77769 11.6292 2.02293C11.4155 2.00783 11.2005 2 10.9843 2C10.768 2 10.553 2.00783 10.3394 2.02293C9.68863 2.77769 9.12242 3.76193 8.67212 4.93088C8.52669 5.30826 8.39595 5.69951 8.27991 6.10216H13.6888C13.5726 5.69951 13.4418 5.30826 13.2965 4.93088Z" fill="#6A6A6A"/>
<path d="M15.398 11.5273C15.3682 12.6753 15.2414 13.7901 15.0286 14.8432H19.112C19.1171 14.8432 19.1221 14.8438 19.1272 14.844C19.6149 13.8125 19.9017 12.6907 19.9684 11.5273H15.398Z" fill="#6A6A6A"/>
<path d="M8.01512 14.8432H13.9531C14.1801 13.7882 14.3119 12.6717 14.343 11.5273H7.62524C7.65628 12.6718 7.78812 13.7882 8.01512 14.8432Z" fill="#6A6A6A"/>
<path d="M13.9531 7.15723H8.01512C7.78812 8.21219 7.65628 9.32867 7.62524 10.473H14.343C14.3119 9.32854 14.1801 8.21219 13.9531 7.15723Z" fill="#6A6A6A"/>
<path d="M8.67198 17.0687C9.12242 18.2375 9.68863 19.2219 10.3393 19.9767C10.553 19.9918 10.768 19.9996 10.9843 19.9996C11.2005 19.9996 11.4155 19.9918 11.6292 19.9767C12.2799 19.2219 12.8461 18.2377 13.2964 17.0687C13.4418 16.6914 13.5726 16.3001 13.6886 15.8975H8.27991C8.39595 16.3001 8.52669 16.6914 8.67198 17.0687Z" fill="#6A6A6A"/>
<path d="M15.0286 7.15707C15.2413 8.21011 15.3682 9.32495 15.398 10.4729H19.9684C19.9017 9.30957 19.6149 8.18773 19.1272 7.15625C19.1221 7.15639 19.1171 7.15707 19.112 7.15707H15.0286Z" fill="#6A6A6A"/>
<path d="M6.94 14.8432C6.72714 13.7901 6.60025 12.6753 6.57045 11.5273H2C2.06674 12.6907 2.35349 13.8125 2.84128 14.844C2.84636 14.8438 2.8513 14.8432 2.85638 14.8432H6.94Z" fill="#6A6A6A"/>
<path d="M14.7814 15.8975C14.3888 17.3615 13.8225 18.674 13.1163 19.7465C14.7054 19.3623 16.1631 18.5489 17.3484 17.3636C17.8001 16.9119 18.1972 16.4204 18.5378 15.8975H14.7814Z" fill="#6A6A6A"/>
<path d="M7.18739 6.10199C7.58016 4.63792 8.14636 3.32547 8.85251 2.25293C7.26361 2.63718 5.80573 3.45058 4.6203 4.63586C4.16876 5.08754 3.77161 5.57904 3.43103 6.10199H7.18739Z" fill="#6A6A6A"/>
<path d="M7.18739 15.8975H3.43103C3.77161 16.4204 4.16876 16.9119 4.6203 17.3636C5.80573 18.5489 7.26347 19.3623 8.85237 19.7465C8.14636 18.674 7.58016 17.3615 7.18739 15.8975Z" fill="#6A6A6A"/>
<path d="M14.7814 6.10199H18.5378C18.1972 5.57904 17.8002 5.08754 17.3485 4.63586C16.1631 3.45058 14.7054 2.63718 13.1163 2.25293C13.8225 3.32547 14.3888 4.63792 14.7814 6.10199Z" fill="#6A6A6A"/>
<path d="M6.57045 10.4729C6.60025 9.32495 6.72714 8.21011 6.94 7.15707H2.85638C2.8513 7.15707 2.84636 7.15639 2.84128 7.15625C2.35349 8.18773 2.06674 9.30957 2 10.4729H6.57045Z" fill="#6A6A6A"/>
</svg>
