<svg width="24" height="24" viewBox="0 0 24 24" fill="none" xmlns="http://www.w3.org/2000/svg">
<g clip-path="url(#clip0)">
<mask id="mask0" style="mask-type:alpha" maskUnits="userSpaceOnUse" x="0" y="0" width="25" height="24">
<rect x="0.113281" width="24" height="24" rx="4" fill="#C4C4C4"/>
</mask>
<g mask="url(#mask0)">
<path d="M-0.959591 -0.167436C-3.27896 2.27351 -2.80427 4.86647 -2.80427 12.7438C-2.80427 19.2854 -3.93075 25.8432 1.96484 27.387C3.80582 27.8667 20.1177 27.8667 21.9562 27.3845C24.4109 26.7428 26.408 24.7255 26.681 21.208C26.7192 20.7171 26.7192 4.77925 26.6798 4.27835C26.3896 0.531579 24.1132 -1.62777 21.1138 -2.06512C20.4263 -2.16605 20.2886 -2.19595 16.7616 -2.20218C4.251 -2.19595 1.50858 -2.7604 -0.959591 -0.167436Z" fill="url(#paint0_linear)"/>
<path d="M11.9524 3.59202C8.58347 3.59202 5.38437 3.28862 4.16244 6.46351C3.65771 7.7748 3.73101 9.47778 3.73101 11.9163C3.73101 14.056 3.66328 16.0671 4.16244 17.3681C5.38159 20.5448 8.60667 20.2405 11.9505 20.2405C15.1765 20.2405 18.5027 20.5805 19.7395 17.3681C20.2452 16.0436 20.1709 14.366 20.1709 11.9163C20.1709 8.66434 20.3482 6.56496 18.7904 4.98878C17.2131 3.39194 15.08 3.59202 11.9487 3.59202H11.9524ZM11.2157 5.09211C18.2429 5.08084 19.1374 4.28993 18.6438 15.2771C18.4684 19.1631 15.5458 18.7366 11.9533 18.7366C5.40293 18.7366 5.21458 18.5469 5.21458 11.9125C5.21458 5.20107 5.73416 5.09587 11.2157 5.09023V5.09211ZM16.3409 6.47385C15.7963 6.47385 15.3547 6.92096 15.3547 7.47234C15.3547 8.02372 15.7963 8.47084 16.3409 8.47084C16.8856 8.47084 17.3272 8.02372 17.3272 7.47234C17.3272 6.92096 16.8856 6.47385 16.3409 6.47385ZM11.9524 7.64142C9.62077 7.64142 7.73081 9.55575 7.73081 11.9163C7.73081 14.2768 9.62077 16.1902 11.9524 16.1902C14.284 16.1902 16.173 14.2768 16.173 11.9163C16.173 9.55575 14.284 7.64142 11.9524 7.64142ZM11.9524 9.14151C15.5755 9.14151 15.5801 14.691 11.9524 14.691C8.33018 14.691 8.32461 9.14151 11.9524 9.14151Z" fill="white"/>
</g>
</g>
<defs>
<linearGradient id="paint0_linear" x1="-0.902997" y1="25.7922" x2="26.8354" y2="2.0977" gradientUnits="userSpaceOnUse">
<stop stop-color="#FFDD55"/>
<stop offset="0.5" stop-color="#FF543E"/>
<stop offset="1" stop-color="#C837AB"/>
</linearGradient>
<clipPath id="clip0">
<rect width="24" height="24" fill="white"/>
</clipPath>
</defs>
</svg>
