<svg width="22" height="22" viewBox="0 0 22 22" fill="none" xmlns="http://www.w3.org/2000/svg">
<path d="M18.6189 15.4462L15.9935 12.8146C15.4706 12.2925 14.6046 12.3084 14.0635 12.851L12.7408 14.1764C12.6572 14.1302 12.5707 14.082 12.4798 14.0308C11.6445 13.567 10.5013 12.9312 9.29835 11.7246C8.09181 10.5155 7.45689 9.36795 6.99267 8.53026C6.94368 8.44151 6.89675 8.35595 6.8504 8.27469L7.73811 7.38629L8.17454 6.94833C8.71652 6.40498 8.73146 5.53728 8.20976 5.01376L5.58437 2.38183C5.06266 1.85904 4.1963 1.8749 3.65432 2.41825L2.9144 3.16411L2.93462 3.18423C2.68651 3.50153 2.47918 3.86748 2.3249 4.26212C2.18268 4.63777 2.09413 4.99623 2.05364 5.35543C1.70698 8.23587 3.02028 10.8684 6.58442 14.4406C11.5111 19.3782 15.4814 19.0052 15.6527 18.987C16.0257 18.9423 16.3832 18.8529 16.7466 18.7115C17.1369 18.5587 17.5018 18.3512 17.8182 18.1031L17.8343 18.1175L18.5839 17.3818C19.1248 16.8385 19.1404 15.9705 18.6189 15.4462Z" fill="#6A6A6A"/>
</svg>
