<svg width="24" height="24" viewBox="0 0 24 24" fill="none" xmlns="http://www.w3.org/2000/svg">
<ellipse cx="12.1693" cy="11.9959" rx="11.8307" ry="11.9959" fill="#F77C00"/>
<rect x="0.338623" width="23.6613" height="23.9918" rx="4" fill="#F77C00"/>
<path d="M12.1378 12.3378C14.2226 12.3378 15.9184 10.614 15.9184 8.49399C15.9184 6.37418 14.2226 4.65039 12.1378 4.65039C10.0528 4.65039 8.35718 6.37418 8.35718 8.49399C8.35718 10.614 10.0528 12.3378 12.1378 12.3378ZM12.1378 6.57211C13.1802 6.57211 14.028 7.43411 14.028 8.49399C14.028 9.55389 13.1802 10.416 12.1378 10.416C11.0953 10.416 10.2474 9.55389 10.2474 8.49399C10.2474 7.43411 11.0953 6.57211 12.1378 6.57211Z" fill="white"/>
<path d="M17.1513 12.2321C16.7817 11.8562 16.1842 11.8562 15.8148 12.2321C13.7884 14.2922 10.4898 14.2922 8.46251 12.2321C8.09308 11.8562 7.49561 11.8562 7.12605 12.2321C6.75649 12.6077 6.75649 13.2152 7.12605 13.5919C8.30179 14.7871 9.7922 15.4686 11.3291 15.6461L8.63449 18.3858C8.26506 18.7616 8.26506 19.3688 8.63449 19.7446C9.00412 20.1204 9.60133 20.1204 9.97093 19.7446L12.1382 17.5412L14.3055 19.7445C14.4899 19.9319 14.7316 20.0263 14.9736 20.0263C15.2156 20.0263 15.4575 19.9319 15.6418 19.7445C16.0113 19.3688 16.0113 18.7616 15.6418 18.3858L12.9472 15.6461C14.484 15.4686 15.9745 14.7871 17.1502 13.5918C17.5198 13.2159 17.5198 12.6077 17.1513 12.2321Z" fill="white"/>
</svg>
