<svg width="20" height="42" viewBox="0 0 20 42" fill="none" xmlns="http://www.w3.org/2000/svg">
<path d="M5.00106 2.4994C7.00106 1.6994 9.16773 3.83273 10.0011 4.9994C11.1677 3.66627 14.101 1.5 16.501 3.5C18.901 5.5 18.1676 9 17.501 10.5L10.0011 17.5C7.83439 15.6667 3.20106 11.5 2.00106 9.5C0.501061 7 2.50106 3.4994 5.00106 2.4994Z" fill="#E74A5A"/>
<path d="M10.0001 17.8949C9.74535 17.8949 9.49973 17.8034 9.30833 17.6371C8.58542 17.0102 7.88846 16.4211 7.27354 15.9014L7.2704 15.8987C5.46758 14.375 3.91077 13.0592 2.82757 11.763C1.61672 10.3139 1.05273 8.94001 1.05273 7.43908C1.05273 5.9808 1.55692 4.63545 2.47233 3.65067C3.39866 2.65425 4.66972 2.10547 6.05177 2.10547C7.08473 2.10547 8.03072 2.42935 8.86339 3.06804C9.28361 3.39043 9.66452 3.78499 10.0001 4.24522C10.3358 3.78499 10.7166 3.39043 11.137 3.06804C11.9696 2.42935 12.9156 2.10547 13.9486 2.10547C15.3305 2.10547 16.6017 2.65425 17.528 3.65067C18.4434 4.63545 18.9475 5.9808 18.9475 7.43908C18.9475 8.94001 18.3836 10.3139 17.1728 11.7629C16.0896 13.0592 14.5329 14.3749 12.7304 15.8984C12.1143 16.4189 11.4163 17.009 10.6917 17.6374C10.5005 17.8034 10.2547 17.8949 10.0001 17.8949ZM6.05177 3.14508C4.96598 3.14508 3.96852 3.57485 3.24288 4.35531C2.50646 5.14754 2.10084 6.24267 2.10084 7.43908C2.10084 8.70143 2.57391 9.83041 3.63458 11.0997C4.65975 12.3265 6.18461 13.6153 7.95016 15.1076L7.95344 15.1103C8.57068 15.632 9.27037 16.2234 9.9986 16.8549C10.7312 16.2222 11.432 15.6298 12.0505 15.1073C13.8159 13.615 15.3406 12.3265 16.3658 11.0997C17.4263 9.83041 17.8994 8.70143 17.8994 7.43908C17.8994 6.24267 17.4937 5.14754 16.7573 4.35531C16.0318 3.57485 15.0342 3.14508 13.9486 3.14508C13.1532 3.14508 12.4229 3.39585 11.7781 3.89034C11.2034 4.3312 10.8031 4.88852 10.5685 5.27847C10.4478 5.479 10.2353 5.5987 10.0001 5.5987C9.76487 5.5987 9.55243 5.479 9.43175 5.27847C9.19719 4.88852 8.7969 4.3312 8.22212 3.89034C7.57731 3.39585 6.84703 3.14508 6.05177 3.14508Z" fill="#E74A5A"/>
<path d="M10.0001 39.8949C9.74535 39.8949 9.49974 39.8034 9.30833 39.6371C8.58542 39.0102 7.88846 38.4211 7.27354 37.9014L7.2704 37.8987C5.46758 36.375 3.91077 35.0592 2.82757 33.763C1.61672 32.3139 1.05273 30.94 1.05273 29.4391C1.05273 27.9808 1.55692 26.6355 2.47233 25.6507C3.39866 24.6543 4.66972 24.1055 6.05177 24.1055C7.08473 24.1055 8.03072 24.4293 8.86339 25.068C9.28361 25.3904 9.66452 25.785 10.0001 26.2452C10.3358 25.785 10.7166 25.3904 11.137 25.068C11.9696 24.4293 12.9156 24.1055 13.9486 24.1055C15.3305 24.1055 16.6017 24.6543 17.528 25.6507C18.4434 26.6355 18.9475 27.9808 18.9475 29.4391C18.9475 30.94 18.3836 32.3139 17.1728 33.7629C16.0896 35.0592 14.5329 36.3749 12.7304 37.8984C12.1143 38.4189 11.4163 39.009 10.6917 39.6374C10.5005 39.8034 10.2547 39.8949 10.0001 39.8949V39.8949ZM6.05177 25.1451C4.96598 25.1451 3.96852 25.5748 3.24288 26.3553C2.50646 27.1475 2.10084 28.2427 2.10084 29.4391C2.10084 30.7014 2.57391 31.8304 3.63458 33.0997C4.65975 34.3265 6.18461 35.6153 7.95016 37.1076L7.95344 37.1103C8.57068 37.632 9.27037 38.2234 9.9986 38.8549C10.7312 38.2222 11.432 37.6298 12.0505 37.1073C13.8159 35.615 15.3406 34.3265 16.3658 33.0997C17.4263 31.8304 17.8994 30.7014 17.8994 29.4391C17.8994 28.2427 17.4937 27.1475 16.7573 26.3553C16.0318 25.5748 15.0342 25.1451 13.9486 25.1451C13.1532 25.1451 12.4229 25.3958 11.7781 25.8903C11.2034 26.3312 10.8031 26.8885 10.5685 27.2785C10.4478 27.479 10.2353 27.5987 10.0001 27.5987C9.76487 27.5987 9.55243 27.479 9.43175 27.2785C9.19719 26.8885 8.7969 26.3312 8.22212 25.8903C7.57731 25.3958 6.84703 25.1451 6.05177 25.1451V25.1451Z" fill="#6A6A6A"/>
</svg>
