<svg width="24" height="24" viewBox="0 0 24 24" fill="none" xmlns="http://www.w3.org/2000/svg">
<mask id="mask0" style="mask-type:alpha" maskUnits="userSpaceOnUse" x="0" y="0" width="24" height="24">
<rect width="24" height="24" rx="4" fill="white"/>
</mask>
<g mask="url(#mask0)">
<circle cx="12" cy="12" r="11.25" fill="white"/>
<path d="M22.7234 0H1.2766C0.571404 0 0 0.57166 0 1.2766V22.7234C0 23.4283 0.571404 24 1.2766 24H22.7234C23.4286 24 24 23.4283 24 22.7234V1.2766C24 0.57166 23.4286 0 22.7234 0ZM19.1155 13.5174C19.7696 14.1557 20.4613 14.7567 21.0488 15.4621C21.3087 15.7736 21.5538 16.0953 21.7404 16.4576C22.0062 16.9744 21.7662 17.542 21.3031 17.5723L18.4292 17.5716C17.6872 17.6326 17.0964 17.3339 16.598 16.8266C16.201 16.4219 15.8318 15.9899 15.4491 15.5719C15.2931 15.4001 15.1277 15.2385 14.9321 15.1108C14.5404 14.8565 14.2001 14.9341 13.9752 15.3429C13.7464 15.7591 13.6935 16.2207 13.6726 16.6846C13.6407 17.3625 13.4364 17.5394 12.7565 17.5708C11.3037 17.6392 9.92477 17.4186 8.64383 16.6866C7.51302 16.0407 6.63855 15.1282 5.87668 14.0962C4.39175 12.0835 3.25455 9.87421 2.23328 7.60162C2.00323 7.0897 2.17149 6.81574 2.73549 6.80528C3.67404 6.78664 4.61234 6.78919 5.54962 6.80426C5.93157 6.81013 6.18408 7.02868 6.33038 7.38868C6.83719 8.63592 7.45915 9.82264 8.23787 10.9231C8.44545 11.2159 8.65736 11.5083 8.95864 11.7153C9.29158 11.9441 9.54536 11.8688 9.70238 11.4973C9.80272 11.2603 9.84613 11.0086 9.86757 10.7553C9.94213 9.88826 9.95107 9.02119 9.82238 8.15745C9.74196 7.61719 9.43762 7.26817 8.89889 7.16604C8.62468 7.11396 8.66477 7.01234 8.79804 6.85583C9.02936 6.58468 9.24741 6.41719 9.68043 6.41719L11.9596 6.41683C12.6039 6.41673 13.4449 6.39939 13.5842 7.02846C13.5998 7.09894 13.6125 7.17656 13.6241 7.26204L13.6272 10.8705C13.6218 11.0701 13.727 11.6614 14.0854 11.7922C14.3722 11.8869 14.5624 11.6569 14.734 11.4746C15.5122 10.6486 16.0667 9.67302 16.5638 8.66374C16.7826 8.21872 16.9723 7.75762 17.1562 7.29625C17.2923 6.95489 17.5052 6.78689 17.8902 6.79302L21.0169 6.79634C21.1088 6.79634 21.203 6.79736 21.2941 6.81243C21.8206 6.90306 21.9649 7.12979 21.8022 7.644C21.5459 8.45158 21.0467 9.1246 20.5586 9.79915C20.0369 10.5204 19.4801 11.218 18.9623 11.9428C18.4879 12.6077 18.5262 12.9416 19.1155 13.5174Z" fill="#4A76A8"/>
</g>
</svg>
