<svg width="22" height="23" viewBox="0 0 22 23" fill="none" xmlns="http://www.w3.org/2000/svg">
<path d="M11 3C6.0372 3 2 7.0372 2 12C2 16.9628 6.0372 21 11 21C15.9628 21 20 16.9628 20 12C20 7.0372 15.9628 3 11 3ZM15.2803 16.6552C15.134 16.8014 14.942 16.875 14.75 16.875C14.5581 16.875 14.3659 16.8014 14.2198 16.6552L10.4698 12.9053C10.3287 12.7651 10.25 12.5744 10.25 12.375V7.5C10.25 7.08527 10.586 6.75005 11 6.75005C11.414 6.75005 11.75 7.08527 11.75 7.5V12.0645L15.2803 15.5947C15.5735 15.8881 15.5735 16.362 15.2803 16.6552V16.6552Z" fill="#6A6A6A"/>
</svg>
