<svg width="15" height="16" viewBox="0 0 15 16" fill="none" xmlns="http://www.w3.org/2000/svg">
<path d="M14.6645 3.72336L14.6601 3.70606C14.2982 2.29068 12.6668 0.771955 11.1686 0.455998L11.1517 0.45262C8.72837 0.00537659 6.27126 0.00537659 3.84848 0.45262L3.83107 0.455998C2.33337 0.771955 0.701873 2.29078 0.339536 3.70606L0.335515 3.72336C-0.111838 5.69993 -0.111838 7.70449 0.335515 9.68105L0.339536 9.69835C0.686478 11.0533 2.1964 12.5023 3.63872 12.9008V14.4807C3.63872 15.0526 4.359 15.3334 4.76858 14.9207L6.42314 13.2568C6.78204 13.2762 7.1411 13.287 7.50005 13.287C8.71985 13.287 9.94023 13.1754 11.1516 12.9518L11.1685 12.9485C12.6667 12.6325 14.2982 11.1137 14.66 9.6984L14.6645 9.6811C15.1118 7.70449 15.1118 5.70003 14.6645 3.72336ZM13.3551 9.39447C13.1135 10.3179 11.8748 11.4658 10.8906 11.6779C9.60213 11.915 8.30339 12.0163 7.00598 11.9816C6.98017 11.9808 6.95535 11.9906 6.93742 12.0085C6.75326 12.1913 5.72936 13.2083 5.72936 13.2083L4.44444 14.4842C4.35048 14.579 4.18542 14.5145 4.18542 14.3837V11.7664C4.18542 11.7231 4.15352 11.6864 4.10961 11.678C4.10935 11.6779 4.10914 11.6779 4.10887 11.6779C3.12465 11.4658 1.88639 10.3178 1.64435 9.39442C1.2417 7.6078 1.2417 5.79661 1.64435 4.00999C1.88639 3.08659 3.12465 1.93864 4.10887 1.72653C6.35918 1.31246 8.64081 1.31246 10.8906 1.72653C11.8753 1.93864 13.1136 3.08659 13.3552 4.00999C13.7582 5.79667 13.7582 7.60785 13.3551 9.39447Z" fill="#6F3FAA"/>
<path d="M9.64154 10.6024C9.49023 10.5579 9.34607 10.528 9.21207 10.4743C7.82435 9.91731 6.54725 9.19869 5.53568 8.09716C4.96041 7.47077 4.51014 6.76357 4.12955 6.01516C3.94905 5.66025 3.79695 5.29147 3.64189 4.92499C3.50053 4.59086 3.70876 4.24568 3.92799 3.99385C4.13373 3.75754 4.39852 3.57676 4.68525 3.44342C4.90904 3.33942 5.12975 3.3994 5.29322 3.5829C5.64651 3.97968 5.97113 4.39672 6.23385 4.85666C6.39547 5.13955 6.35114 5.48535 6.05821 5.67785C5.987 5.72464 5.92214 5.77961 5.85585 5.83243C5.79766 5.87875 5.74296 5.92553 5.70307 5.98823C5.63022 6.10294 5.62673 6.23832 5.6736 6.36305C6.03477 7.32331 6.64354 8.07008 7.64262 8.47234C7.8025 8.53668 7.96301 8.61156 8.14722 8.59083C8.45565 8.55597 8.55553 8.2286 8.7717 8.0576C8.98294 7.89048 9.25296 7.88828 9.4805 8.0276C9.70814 8.16703 9.92875 8.31659 10.1481 8.46783C10.3634 8.61627 10.5777 8.76137 10.7763 8.93064C10.9673 9.09335 11.033 9.30679 10.9255 9.52754C10.7287 9.93195 10.4422 10.2683 10.0291 10.483C9.91241 10.5435 9.77306 10.5631 9.64154 10.6024C9.77306 10.5631 9.49023 10.5579 9.64154 10.6024Z" fill="#6F3FAA"/>
<path d="M7.50313 2.98116C9.3182 3.0304 10.8091 4.1958 11.1286 5.93196C11.183 6.2278 11.2024 6.53019 11.2266 6.83049C11.2368 6.95676 11.1628 7.07673 11.022 7.07842C10.8765 7.08011 10.8111 6.96229 10.8016 6.83612C10.7829 6.58624 10.7699 6.33518 10.7343 6.08745C10.5465 4.77925 9.46829 3.69697 8.12242 3.46475C7.91986 3.42979 7.71269 3.42063 7.50747 3.39979C7.37781 3.38664 7.20798 3.37907 7.17926 3.22306C7.15519 3.09228 7.26925 2.98818 7.39796 2.98147C7.43282 2.97947 7.46801 2.98106 7.50313 2.98116C7.46801 2.98106 9.31831 3.0304 7.50313 2.98116Z" fill="#6F3FAA"/>
<path d="M10.2619 6.44058C10.2589 6.46254 10.2573 6.51408 10.244 6.5626C10.1959 6.73888 9.9195 6.76094 9.85596 6.58307C9.83708 6.5303 9.83427 6.47021 9.83417 6.4134C9.83353 6.0415 9.75 5.6699 9.55611 5.34627C9.35682 5.01363 9.05231 4.73411 8.69526 4.56485C8.47931 4.46258 8.24585 4.39896 8.00916 4.36113C7.90573 4.34455 7.8012 4.33457 7.69724 4.32055C7.57128 4.3036 7.50399 4.22596 7.51002 4.10588C7.51557 3.99338 7.60059 3.91236 7.72734 3.91937C8.14385 3.9422 8.54623 4.02941 8.91661 4.2191C9.66964 4.60497 10.0998 5.21396 10.2254 6.02722C10.2311 6.06412 10.2402 6.10056 10.2431 6.13752C10.2502 6.22873 10.2547 6.32009 10.2619 6.44058C10.2547 6.32009 10.2589 6.46243 10.2619 6.44058Z" fill="#6F3FAA"/>
<path d="M9.13368 6.39799C8.98184 6.40065 8.90058 6.31927 8.88487 6.18466C8.87402 6.09078 8.86535 5.99558 8.84218 5.90417C8.79657 5.72416 8.69769 5.5574 8.5412 5.4471C8.46735 5.39504 8.3836 5.35712 8.29594 5.33255C8.18458 5.30138 8.06882 5.30998 7.95778 5.28367C7.8371 5.25506 7.77034 5.16047 7.78933 5.05099C7.80658 4.95128 7.90678 4.87348 8.01941 4.88142C8.72314 4.93055 9.2261 5.28254 9.29789 6.08408C9.30302 6.14064 9.30895 6.20037 9.29599 6.25457C9.27366 6.34706 9.20277 6.39349 9.13368 6.39799C9.20277 6.39349 8.98179 6.4006 9.13368 6.39799Z" fill="#6F3FAA"/>
</svg>
