<svg width="20" height="20" viewBox="0 0 20 20" fill="none" xmlns="http://www.w3.org/2000/svg">
<path d="M14.1758 12.375C13.2495 12.375 12.4333 12.8307 11.9206 13.5236L7.48797 11.2539C7.56156 11.003 7.61328 10.7431 7.61328 10.4688C7.61328 10.0967 7.537 9.74297 7.40522 9.41762L12.0441 6.62612C12.5604 7.232 13.3192 7.625 14.1758 7.625C15.7267 7.625 16.9883 6.36341 16.9883 4.8125C16.9883 3.26159 15.7267 2 14.1758 2C12.6249 2 11.3633 3.26159 11.3633 4.8125C11.3633 5.16991 11.4369 5.50894 11.559 5.82369L6.90625 8.62337C6.39044 8.0355 5.64256 7.65625 4.80078 7.65625C3.24988 7.65625 1.98828 8.91784 1.98828 10.4688C1.98828 12.0197 3.24988 13.2812 4.80078 13.2812C5.74234 13.2812 6.57238 12.8122 7.08313 12.0998L11.5011 14.3622C11.4198 14.6248 11.3633 14.8984 11.3633 15.1875C11.3633 16.7384 12.6249 18 14.1758 18C15.7267 18 16.9883 16.7384 16.9883 15.1875C16.9883 13.6366 15.7267 12.375 14.1758 12.375Z" fill="#6A6A6A"/>
</svg>
