<svg width="46" height="46" viewBox="0 0 46 46" fill="none" xmlns="http://www.w3.org/2000/svg">
<g filter="url(#filter0_d_467_27836)">
<mask id="mask0_467_27836" style="mask-type:alpha" maskUnits="userSpaceOnUse" x="9" y="3" width="32" height="32">
<rect x="9" y="3" width="32" height="32" rx="4" fill="#C4C4C4"/>
</mask>
<g mask="url(#mask0_467_27836)">
<path d="M7.56406 2.78753C4.43074 6.0868 5.07202 9.59155 5.07202 20.2388C5.07202 29.0807 3.55022 37.9444 11.5148 40.0311C14.0018 40.6795 36.038 40.6795 38.5218 40.0278C41.8378 39.1604 44.5359 36.4337 44.9047 31.6794C44.9562 31.0158 44.9562 9.47366 44.903 8.79662C44.511 3.73234 41.4358 0.813688 37.3837 0.222547C36.455 0.0861293 36.269 0.0457093 31.5042 0.0372885C14.6032 0.0457093 10.8984 -0.717217 7.56406 2.78753Z" fill="url(#paint0_linear_467_27836)"/>
<path d="M25.0068 7.86828C20.4556 7.86828 16.1339 7.45819 14.4831 11.7495C13.8013 13.5219 13.9003 15.8237 13.9003 19.1196C13.9003 22.0118 13.8088 24.7301 14.4831 26.4885C16.1301 30.7823 20.487 30.371 25.0043 30.371C29.3624 30.371 33.8559 30.8306 35.5267 26.4885C36.2098 24.6983 36.1095 22.4308 36.1095 19.1196C36.1095 14.7242 36.3489 11.8866 34.2445 9.7562C32.1137 7.59785 29.2321 7.86828 25.0018 7.86828H25.0068ZM24.0116 9.89586C33.5049 9.88062 34.7132 8.81161 34.0464 23.6623C33.8095 28.9147 29.8613 28.3383 25.008 28.3383C16.1589 28.3383 15.9045 28.0819 15.9045 19.1146C15.9045 10.0431 16.6064 9.90094 24.0116 9.89332V9.89586ZM30.9354 11.7635C30.1997 11.7635 29.6031 12.3678 29.6031 13.1131C29.6031 13.8583 30.1997 14.4627 30.9354 14.4627C31.6712 14.4627 32.2678 13.8583 32.2678 13.1131C32.2678 12.3678 31.6712 11.7635 30.9354 11.7635ZM25.0068 13.3416C21.857 13.3416 19.3038 15.9291 19.3038 19.1196C19.3038 22.3102 21.857 24.8964 25.0068 24.8964C28.1566 24.8964 30.7086 22.3102 30.7086 19.1196C30.7086 15.9291 28.1566 13.3416 25.0068 13.3416ZM25.0068 15.3692C29.9014 15.3692 29.9076 22.8701 25.0068 22.8701C20.1135 22.8701 20.1059 15.3692 25.0068 15.3692Z" fill="white"/>
</g>
</g>
<defs>
<filter id="filter0_d_467_27836" x="-1" y="-1" width="48" height="48.4668" filterUnits="userSpaceOnUse" color-interpolation-filters="sRGB">
<feFlood flood-opacity="0" result="BackgroundImageFix"/>
<feColorMatrix in="SourceAlpha" type="matrix" values="0 0 0 0 0 0 0 0 0 0 0 0 0 0 0 0 0 0 127 0" result="hardAlpha"/>
<feOffset dx="-2" dy="4"/>
<feGaussianBlur stdDeviation="3.5"/>
<feColorMatrix type="matrix" values="0 0 0 0 0.933333 0 0 0 0 0.294118 0 0 0 0 0.372549 0 0 0 0.3 0"/>
<feBlend mode="normal" in2="BackgroundImageFix" result="effect1_dropShadow_467_27836"/>
<feBlend mode="normal" in="SourceGraphic" in2="effect1_dropShadow_467_27836" result="shape"/>
</filter>
<linearGradient id="paint0_linear_467_27836" x1="7.64051" y1="37.8755" x2="45.1297" y2="5.86845" gradientUnits="userSpaceOnUse">
<stop stop-color="#FFDD55"/>
<stop offset="0.5" stop-color="#FF543E"/>
<stop offset="1" stop-color="#C837AB"/>
</linearGradient>
</defs>
</svg>
