<svg width="30" height="30" viewBox="0 0 30 30" fill="none" xmlns="http://www.w3.org/2000/svg">
<path d="M26.3295 25.7899L25.4984 24.9587C24.9725 24.4279 24.1386 24.3587 23.5324 24.7955L22.4698 25.5356C22.1417 25.7778 21.6808 25.7175 21.4261 25.399L21.2439 25.1599C21.1134 25.0019 21.0522 24.7979 21.0744 24.5942C21.0965 24.3905 21.2001 24.2044 21.3616 24.0782C21.8438 23.6892 22.1466 23.1204 22.2003 22.5032C22.2497 21.6417 21.7259 21.1901 21.3046 20.7688C21.6123 20.2377 21.5562 19.5711 21.1642 19.0989L14.0558 10.4192L10.4199 14.055L19.0996 21.1635C19.5701 21.5598 20.2395 21.6161 20.7695 21.3039C21.1225 21.6569 21.4716 21.9339 21.4413 22.4615C21.4011 22.8625 21.2032 23.2312 20.891 23.4862C20.5731 23.7364 20.3683 24.1032 20.322 24.5051C20.2757 24.9069 20.3917 25.3107 20.6443 25.6267L20.8302 25.8658C21.1199 26.2299 21.5605 26.4411 22.0257 26.4389C22.6026 26.4389 22.7848 26.2529 23.9727 25.4141C24.277 25.194 24.6965 25.2295 24.9594 25.4976L25.7906 26.3288C25.9394 26.4776 26.1807 26.4776 26.3295 26.3288C26.4783 26.18 26.4783 25.9387 26.3295 25.7899ZM14.2948 14.7647C13.8287 14.6048 13.3916 14.3702 13.0007 14.0702C12.7428 13.769 12.7601 13.3201 13.0405 13.0397C13.3208 12.7594 13.7698 12.742 14.0709 12.9999C14.3709 13.3909 14.6055 13.828 14.7655 14.2941C14.8043 14.4272 14.7675 14.5708 14.6695 14.6687C14.5715 14.7667 14.4279 14.8035 14.2948 14.7647Z" fill="#39424A"/>
<path d="M8.42743 8.22175C10.9285 5.7207 10.2453 5.25388 10.5414 4.9199C8.94431 3.593 6.59602 3.71478 5.14477 5.19975C3.69352 6.68473 3.62572 9.0352 4.98895 10.6014C5.33812 10.2788 5.5924 11.0758 8.42743 8.22175Z" fill="#39424A"/>
<path d="M8.9826 8.77595C7.51005 10.2447 6.45877 11.0151 5.65039 11.2087C6.28366 11.6927 7.04816 11.9744 7.84403 12.0171L9.36213 13.5352C9.43339 13.607 9.53039 13.6474 9.63159 13.6474C9.73278 13.6474 9.82979 13.607 9.90105 13.5352L13.5369 9.89934C13.6087 9.82808 13.6491 9.73107 13.6491 9.62988C13.6491 9.52868 13.6087 9.43168 13.5369 9.36042L12.0188 7.84232C11.9813 7.01354 11.6854 6.21727 11.1725 5.56519C11.0017 6.42291 10.3071 7.43624 8.9826 8.77595Z" fill="#39424A"/>
<path d="M18.5048 10.8402C18.9563 10.9457 19.4313 10.8391 19.7944 10.5507C20.1575 10.2623 20.3688 9.82378 20.3683 9.36011V6.21765L21.5979 5.91024C21.7714 5.86742 21.8916 5.70936 21.8864 5.53072V4.4263C21.8898 4.30768 21.8376 4.19425 21.7452 4.11975C21.6529 4.04524 21.5309 4.01825 21.4157 4.04678L19.1386 4.61607C18.9651 4.65888 18.845 4.81695 18.8502 4.99559V7.46249C18.8529 7.64928 18.7193 7.81027 18.5352 7.84201C18.1278 7.93633 17.7755 8.19065 17.5577 8.54764C17.34 8.90462 17.275 9.33424 17.3776 9.73963C17.5187 10.288 17.9532 10.7123 18.5048 10.8402Z" fill="#39424A"/>
<path d="M21.5514 14.2941C21.7382 15.0396 22.4527 15.5279 23.2152 15.4312C23.9776 15.3344 24.5475 14.6831 24.5421 13.9145V10.7721L25.7717 10.4647C25.9453 10.4219 26.0654 10.2638 26.0602 10.0852V8.98075C26.0637 8.86212 26.0114 8.74869 25.9191 8.67419C25.8267 8.59969 25.7048 8.57269 25.5896 8.60122L23.3124 9.17051C23.1389 9.21333 23.0188 9.37139 23.024 9.55003V12.0169C23.0267 12.2037 22.8931 12.3647 22.709 12.3965C22.3016 12.4908 21.9493 12.7451 21.7316 13.1021C21.5138 13.4591 21.4489 13.8887 21.5514 14.2941Z" fill="#39424A"/>
<path d="M11.1873 16.9508L5.87395 18.0248C5.69137 18.0582 5.55971 18.2188 5.56274 18.4044V22.6436C5.56546 22.8304 5.43184 22.9914 5.24774 23.0231C4.84385 23.1217 4.49619 23.3778 4.2823 23.7343C4.0684 24.0908 4.00606 24.518 4.10917 24.9208C4.31746 25.6388 5.01758 26.0983 5.75924 26.0037C6.5009 25.9091 7.06325 25.2886 7.08463 24.5412V20.1046C7.0816 19.919 7.21325 19.7585 7.39584 19.7251L9.67298 19.2279C9.78483 19.2074 9.89997 19.2382 9.98671 19.3117C10.0735 19.3852 10.1227 19.4937 10.1208 19.6074V21.1255C10.1235 21.3123 9.98991 21.4733 9.80581 21.5051C9.39842 21.5994 9.04614 21.8537 8.82838 22.2107C8.61061 22.5677 8.5457 22.9973 8.64827 23.4027C8.83503 24.1482 9.54951 24.6365 10.312 24.5398C11.0744 24.443 11.6443 23.7917 11.6389 23.0231V17.3303C11.641 17.2158 11.5913 17.1065 11.5036 17.0328C11.4159 16.9591 11.2997 16.929 11.1873 16.9508Z" fill="#39424A"/>
</svg>
