<svg width="166" height="42" viewBox="0 0 166 42" fill="none" xmlns="http://www.w3.org/2000/svg">
<path d="M52.0273 21.6355V2.27121H65.0236V5.66131H56.3786V9.70231H58.1076C60.0479 9.70231 61.6329 9.95544 62.8624 10.4617C64.1111 10.9679 65.0332 11.664 65.6287 12.55C66.2243 13.4359 66.5221 14.4484 66.5221 15.5875C66.5221 17.5041 65.8401 18.9957 64.4761 20.0625C63.1313 21.1111 60.9797 21.6355 58.0212 21.6355H52.0273ZM57.8483 18.2725C59.1738 18.2725 60.2112 18.0736 60.9605 17.6758C61.7289 17.278 62.1131 16.582 62.1131 15.5875C62.1131 14.5569 61.7001 13.8789 60.874 13.5535C60.0479 13.228 58.9241 13.0653 57.5025 13.0653H56.3786V18.2725H57.8483Z" fill="white"/>
<path d="M70.4035 2.27121H74.3226V11.6279C74.3226 12.0799 74.3129 12.5862 74.2937 13.1467C74.2745 13.7071 74.2553 14.2586 74.2361 14.801C74.2169 15.3254 74.1977 15.7864 74.1785 16.1842C74.1593 16.5639 74.1401 16.826 74.1208 16.9707H74.2073L83.7167 2.27121H88.9325V21.6355H85.0423V12.333C85.0423 11.8449 85.0519 11.3115 85.0711 10.7329C85.0903 10.1362 85.1095 9.5667 85.1288 9.02429C85.1672 8.48187 85.196 8.01178 85.2152 7.61401C85.2536 7.19815 85.2824 6.92695 85.3017 6.80038H85.1864L75.6481 21.6355H70.4035V2.27121Z" fill="white"/>
<path d="M108.333 6.80038C108.333 8.10218 107.843 9.15085 106.863 9.94639C105.884 10.7419 104.635 11.2392 103.117 11.438V11.5194C105 11.7002 106.441 12.1974 107.44 13.011C108.458 13.8066 108.967 14.8462 108.967 16.1299C108.967 17.8295 108.227 19.2217 106.748 20.3065C105.288 21.3733 103.136 21.9067 100.293 21.9067C98.7371 21.9067 97.3539 21.8163 96.1436 21.6355C94.9526 21.4547 93.9152 21.1925 93.0315 20.849V17.4046C93.627 17.6758 94.2994 17.9109 95.0486 18.1098C95.7978 18.2906 96.5567 18.4352 97.3251 18.5437C98.0936 18.6341 98.8044 18.6793 99.4575 18.6793C101.283 18.6793 102.599 18.4352 103.405 17.947C104.231 17.4408 104.645 16.7356 104.645 15.8316C104.645 14.9095 104.049 14.2405 102.858 13.8247C101.667 13.3907 100.063 13.1738 98.0455 13.1738H96.1148V9.97352H97.8438C99.4768 9.97352 100.745 9.87407 101.648 9.67519C102.551 9.4763 103.184 9.18701 103.549 8.80732C103.915 8.42763 104.097 7.97562 104.097 7.45128C104.097 6.7823 103.78 6.25797 103.146 5.87827C102.531 5.4805 101.6 5.28162 100.351 5.28162C99.2942 5.28162 98.2953 5.42626 97.3539 5.71555C96.4318 6.00484 95.5673 6.38453 94.7604 6.85463L92.8586 4.11542C93.9152 3.46452 95.087 2.94923 96.3742 2.56954C97.6613 2.18985 99.1886 2 100.956 2C103.281 2 105.086 2.45202 106.374 3.35604C107.68 4.26007 108.333 5.40818 108.333 6.80038Z" fill="white"/>
<path d="M129.67 21.6355H125.319V13.2823H117.163V21.6355H112.812V2.27121H117.163V9.86503H125.319V2.27121H129.67V21.6355Z" fill="white"/>
<path d="M146.69 21.6355H134.847V2.27121H146.69V5.63419H139.198V9.89215H146.172V13.2551H139.198V18.2454H146.69V21.6355Z" fill="white"/>
<path d="M159.703 5.41722C158.032 5.41722 156.754 6.00484 155.87 7.18007C154.987 8.35531 154.545 9.96448 154.545 12.0076C154.545 14.0688 154.948 15.6689 155.755 16.808C156.581 17.9289 157.897 18.4895 159.703 18.4895C160.548 18.4895 161.384 18.399 162.21 18.2182C163.055 18.0374 163.968 17.7843 164.948 17.4589V20.9032C164.045 21.2467 163.151 21.4999 162.268 21.6626C161.384 21.8253 160.395 21.9067 159.3 21.9067C157.186 21.9067 155.438 21.4999 154.055 20.6862C152.691 19.8545 151.682 18.6974 151.029 17.2148C150.376 15.7141 150.049 13.9693 150.049 11.9805C150.049 10.0278 150.424 8.30107 151.173 6.80038C151.923 5.2997 153.008 4.12446 154.43 3.27468C155.87 2.42489 157.628 2 159.703 2C160.721 2 161.739 2.12656 162.758 2.37969C163.795 2.61474 164.784 2.94019 165.726 3.35604L164.314 6.6919C163.545 6.34837 162.767 6.05004 161.98 5.79691C161.211 5.54379 160.452 5.41722 159.703 5.41722Z" fill="white"/>
<path d="M56.1217 30.7222C55.286 30.7222 54.6472 31.016 54.2054 31.6036C53.7635 32.1912 53.5426 32.9958 53.5426 34.0173C53.5426 35.0479 53.7443 35.848 54.1478 36.4175C54.5608 36.978 55.2188 37.2583 56.1217 37.2583C56.5443 37.2583 56.9622 37.2131 57.3752 37.1227C57.7979 37.0323 58.2541 36.9057 58.744 36.743V38.4652C58.2925 38.6369 57.8459 38.7635 57.404 38.8448C56.9622 38.9262 56.4675 38.9669 55.92 38.9669C54.8634 38.9669 53.9893 38.7635 53.2977 38.3567C52.6157 37.9408 52.1114 37.3622 51.7848 36.6209C51.4582 35.8706 51.2949 34.9982 51.2949 34.0038C51.2949 33.0274 51.4822 32.1641 51.8568 31.4137C52.2315 30.6634 52.7742 30.0758 53.485 29.6509C54.2054 29.226 55.0843 29.0136 56.1217 29.0136C56.6308 29.0136 57.1399 29.0768 57.649 29.2034C58.1677 29.3209 58.6623 29.4837 59.133 29.6916L58.427 31.3595C58.0428 31.1877 57.6538 31.0386 57.2599 30.912C56.8757 30.7855 56.4963 30.7222 56.1217 30.7222Z" fill="url(#paint0_linear)"/>
<path d="M64.1286 29.1492C65.5022 29.1492 66.5396 29.33 67.2408 29.6916C67.942 30.0532 68.2926 30.6905 68.2926 31.6036C68.2926 32.1551 68.1533 32.6206 67.8748 33.0003C67.6058 33.38 67.2168 33.6105 66.7077 33.6919V33.7597C67.0535 33.823 67.3657 33.936 67.6442 34.0987C67.9228 34.2614 68.1437 34.4965 68.307 34.8039C68.4703 35.1112 68.552 35.518 68.552 36.0243C68.552 36.9012 68.2158 37.5883 67.5434 38.0855C66.871 38.5827 65.9489 38.8313 64.777 38.8313H60.93V29.1492H64.1286ZM64.3736 32.9868C65.0075 32.9868 65.4446 32.8918 65.6847 32.702C65.9345 32.5121 66.0593 32.2364 66.0593 31.8748C66.0593 31.5042 65.9153 31.2375 65.6271 31.0747C65.3389 30.912 64.8827 30.8307 64.2583 30.8307H63.1056V32.9868H64.3736ZM63.1056 34.614V37.1362H64.5321C65.1852 37.1362 65.6415 37.0187 65.9008 36.7837C66.1602 36.5396 66.2899 36.2187 66.2899 35.8209C66.2899 35.4593 66.1554 35.17 65.8864 34.953C65.6271 34.727 65.1516 34.614 64.46 34.614H63.1056Z" fill="url(#paint1_linear)"/>
<path d="M76.5323 38.8313H70.6105V29.1492H76.5323V30.8307H72.7862V32.9596H76.273V34.6411H72.7862V37.1362H76.5323V38.8313Z" fill="url(#paint2_linear)"/>
<path d="M82.6353 38.8313H80.4596V30.8578H77.6644V29.1492H85.4305V30.8578H82.6353V38.8313Z" fill="url(#paint3_linear)"/>
<path d="M94.4399 38.8313H92.2642V30.8578H89.7428C89.6852 31.2736 89.6227 31.7256 89.5555 32.2138C89.4979 32.702 89.4306 33.1992 89.3538 33.7055C89.2865 34.2027 89.2145 34.6773 89.1377 35.1293C89.0608 35.5723 88.984 35.9655 88.9071 36.3091C88.7823 36.8696 88.6142 37.3487 88.4028 37.7465C88.2011 38.1442 87.9178 38.4471 87.5527 38.655C87.1973 38.8629 86.7315 38.9669 86.1551 38.9669C85.7805 38.9669 85.4347 38.9172 85.1177 38.8177V37.1362C85.2426 37.1724 85.3627 37.204 85.478 37.2312C85.6028 37.2583 85.7373 37.2718 85.8814 37.2718C86.16 37.2718 86.3713 37.1362 86.5154 36.865C86.669 36.5848 86.8227 36.065 86.9764 35.3056C87.034 35.0163 87.1157 34.5643 87.2214 33.9495C87.327 33.3348 87.4423 32.6161 87.5672 31.7934C87.7016 30.9617 87.8265 30.0803 87.9418 29.1492H94.4399V38.8313Z" fill="url(#paint4_linear)"/>
<path d="M106.372 33.9767C106.372 34.9801 106.194 35.857 105.839 36.6074C105.493 37.3487 104.96 37.9273 104.239 38.3431C103.519 38.759 102.597 38.9669 101.473 38.9669C100.359 38.9669 99.4365 38.759 98.7064 38.3431C97.986 37.9273 97.4481 37.3442 97.0927 36.5938C96.7469 35.8435 96.574 34.9666 96.574 33.9631C96.574 32.9596 96.7469 32.0872 97.0927 31.3459C97.4481 30.6046 97.986 30.0306 98.7064 29.6238C99.4365 29.2079 100.363 29 101.487 29C102.601 29 103.519 29.2079 104.239 29.6238C104.96 30.0306 105.493 30.6092 105.839 31.3595C106.194 32.1008 106.372 32.9732 106.372 33.9767ZM98.8649 33.9767C98.8649 34.9892 99.0714 35.7892 99.4845 36.3769C99.8975 36.9554 100.56 37.2447 101.473 37.2447C102.405 37.2447 103.072 36.9554 103.476 36.3769C103.879 35.7892 104.081 34.9892 104.081 33.9767C104.081 32.9551 103.879 32.1551 103.476 31.5765C103.072 30.9979 102.409 30.7086 101.487 30.7086C100.565 30.7086 99.8975 30.9979 99.4845 31.5765C99.0714 32.1551 98.8649 32.9551 98.8649 33.9767Z" fill="url(#paint5_linear)"/>
<path d="M115.001 29.1492V30.8442H110.678V38.8313H108.503V29.1492H115.001Z" fill="url(#paint6_linear)"/>
<path d="M125.634 33.9767C125.634 34.9801 125.457 35.857 125.101 36.6074C124.755 37.3487 124.222 37.9273 123.502 38.3431C122.781 38.759 121.859 38.9669 120.735 38.9669C119.621 38.9669 118.699 38.759 117.969 38.3431C117.249 37.9273 116.711 37.3442 116.355 36.5938C116.01 35.8435 115.837 34.9666 115.837 33.9631C115.837 32.9596 116.01 32.0872 116.355 31.3459C116.711 30.6046 117.249 30.0306 117.969 29.6238C118.699 29.2079 119.626 29 120.75 29C121.864 29 122.781 29.2079 123.502 29.6238C124.222 30.0306 124.755 30.6092 125.101 31.3595C125.457 32.1008 125.634 32.9732 125.634 33.9767ZM118.128 33.9767C118.128 34.9892 118.334 35.7892 118.747 36.3769C119.16 36.9554 119.823 37.2447 120.735 37.2447C121.667 37.2447 122.335 36.9554 122.738 36.3769C123.142 35.7892 123.343 34.9892 123.343 33.9767C123.343 32.9551 123.142 32.1551 122.738 31.5765C122.335 30.9979 121.672 30.7086 120.75 30.7086C119.828 30.7086 119.16 30.9979 118.747 31.5765C118.334 32.1551 118.128 32.9551 118.128 33.9767Z" fill="url(#paint7_linear)"/>
<path d="M131.05 29.1492C132.376 29.1492 133.341 29.4204 133.946 29.9628C134.561 30.4962 134.868 31.2329 134.868 32.1731C134.868 32.7336 134.744 33.2625 134.494 33.7597C134.244 34.2479 133.826 34.6411 133.24 34.9395C132.664 35.2378 131.876 35.387 130.877 35.387H129.941V38.8313H127.765V29.1492H131.05ZM130.935 30.8307H129.941V33.7055H130.661C131.276 33.7055 131.761 33.5925 132.116 33.3665C132.481 33.1314 132.664 32.7562 132.664 32.2409C132.664 31.3007 132.088 30.8307 130.935 30.8307Z" fill="url(#paint8_linear)"/>
<path d="M141.178 30.7222C140.343 30.7222 139.704 31.016 139.262 31.6036C138.82 32.1912 138.599 32.9958 138.599 34.0173C138.599 35.0479 138.801 35.848 139.204 36.4175C139.617 36.978 140.275 37.2583 141.178 37.2583C141.601 37.2583 142.019 37.2131 142.432 37.1227C142.854 37.0323 143.311 36.9057 143.801 36.743V38.4652C143.349 38.6369 142.902 38.7635 142.461 38.8448C142.019 38.9262 141.524 38.9669 140.977 38.9669C139.92 38.9669 139.046 38.7635 138.354 38.3567C137.672 37.9408 137.168 37.3622 136.841 36.6209C136.515 35.8706 136.352 34.9982 136.352 34.0038C136.352 33.0274 136.539 32.1641 136.913 31.4137C137.288 30.6634 137.831 30.0758 138.542 29.6509C139.262 29.226 140.141 29.0136 141.178 29.0136C141.687 29.0136 142.196 29.0768 142.706 29.2034C143.224 29.3209 143.719 29.4837 144.19 29.6916L143.484 31.3595C143.099 31.1877 142.71 31.0386 142.317 30.912C141.932 30.7855 141.553 30.7222 141.178 30.7222Z" fill="url(#paint9_linear)"/>
<path d="M154.372 38.8313H151.894L148.162 33.9224V38.8313H145.987V29.1492H148.162V33.8411L151.851 29.1492H154.17L150.424 33.8004L154.372 38.8313Z" fill="url(#paint10_linear)"/>
<path d="M161.964 38.8313L161.214 36.526H157.468L156.719 38.8313H154.37L158.001 29.1085H160.667L164.312 38.8313H161.964ZM159.946 32.5528C159.898 32.3991 159.836 32.2048 159.759 31.9697C159.682 31.7347 159.605 31.4951 159.529 31.251C159.452 31.0069 159.389 30.7945 159.341 30.6137C159.293 30.7945 159.226 31.0205 159.139 31.2917C159.063 31.5539 158.986 31.807 158.909 32.0511C158.842 32.2861 158.789 32.4534 158.75 32.5528L158.016 34.8039H160.696L159.946 32.5528Z" fill="url(#paint11_linear)"/>
<g clip-path="url(#clip0)">
<path d="M40.534 22.9089C39.9691 22.9089 39.5925 23.2907 39.5925 23.8634V36.2725C39.5925 36.8452 39.2158 37.227 38.6509 37.227H4.7525C4.18752 37.227 3.81091 36.8452 3.81091 36.2725V23.8634C3.81091 23.2906 3.43423 22.9089 2.86932 22.9089C2.30442 22.9089 1.92773 23.2907 1.92773 23.8634V36.2725C1.92773 37.8952 3.15182 39.1361 4.75258 39.1361H38.6509C40.2516 39.1361 41.4757 37.8952 41.4757 36.2725V23.8634C41.4757 23.2906 41.099 22.9089 40.534 22.9089Z" fill="white"/>
<rect x="19.7285" y="22" width="3.94583" height="5" fill="url(#paint12_linear)"/>
<path d="M39.5927 8H3.81118C2.21041 8 0.986328 9.3413 0.986328 11.0954V17.6989C0.986328 19.1433 1.92792 20.3815 3.15208 20.691L17.9355 24.3023V27.604C17.9355 28.2231 18.3122 28.6357 18.8771 28.6357H24.5268C25.0918 28.6357 25.4684 28.223 25.4684 27.604V24.3023L40.2518 20.691C41.476 20.3815 42.4176 19.1433 42.4176 17.6988V11.0953C42.4176 9.34131 41.1935 8 39.5927 8ZM23.5852 26.5722H19.8188V22.4451H23.5852V26.5722ZM40.5343 17.6988C40.5343 18.2146 40.2518 18.6274 39.781 18.7305L25.4684 22.2387V21.4132C25.4684 20.7941 25.0917 20.3815 24.5268 20.3815H18.8771C18.3121 20.3815 17.9355 20.7942 17.9355 21.4132V22.2387L3.62288 18.7306C3.15208 18.6274 2.86959 18.2147 2.86959 17.6989V11.0954C2.86959 10.4763 3.24627 10.0636 3.81118 10.0636H39.5927C40.1577 10.0636 40.5343 10.4764 40.5343 11.0954V17.6988Z" fill="white"/>
<path d="M26.4103 1.49982H16.9941C15.3933 1.49982 13.8106 2.37708 13.8106 3.99982V4.99982L13.8105 5.81817C13.8105 6.49982 14.4604 6.77268 14.797 6.77268C15.6238 6.77268 16.0525 6.39083 16.0525 5.81817V4.86365C16.0525 4.29091 16.4292 3.90914 16.9941 3.90914H26.4103C26.9753 3.90914 27.3519 4.29099 27.3519 4.86365V5.81817C27.3519 6.5641 27.8398 6.77268 28.6074 6.77268C29.1919 6.77268 29.5939 6.39083 29.5939 5.81817V3.99982C29.5941 2.37708 28.011 1.49982 26.4103 1.49982Z" fill="url(#paint13_linear)"/>
</g>
<defs>
<linearGradient id="paint0_linear" x1="51.2949" y1="36.8905" x2="175.377" y2="38.9995" gradientUnits="userSpaceOnUse">
<stop stop-color="#00B191"/>
<stop offset="1" stop-color="#00CABE"/>
</linearGradient>
<linearGradient id="paint1_linear" x1="51.2949" y1="36.8905" x2="175.377" y2="38.9995" gradientUnits="userSpaceOnUse">
<stop stop-color="#00B191"/>
<stop offset="1" stop-color="#00CABE"/>
</linearGradient>
<linearGradient id="paint2_linear" x1="51.2949" y1="36.8905" x2="175.377" y2="38.9995" gradientUnits="userSpaceOnUse">
<stop stop-color="#00B191"/>
<stop offset="1" stop-color="#00CABE"/>
</linearGradient>
<linearGradient id="paint3_linear" x1="51.2949" y1="36.8905" x2="175.377" y2="38.9995" gradientUnits="userSpaceOnUse">
<stop stop-color="#00B191"/>
<stop offset="1" stop-color="#00CABE"/>
</linearGradient>
<linearGradient id="paint4_linear" x1="51.2949" y1="36.8905" x2="175.377" y2="38.9995" gradientUnits="userSpaceOnUse">
<stop stop-color="#00B191"/>
<stop offset="1" stop-color="#00CABE"/>
</linearGradient>
<linearGradient id="paint5_linear" x1="51.2949" y1="36.8905" x2="175.377" y2="38.9995" gradientUnits="userSpaceOnUse">
<stop stop-color="#00B191"/>
<stop offset="1" stop-color="#00CABE"/>
</linearGradient>
<linearGradient id="paint6_linear" x1="51.2949" y1="36.8905" x2="175.377" y2="38.9995" gradientUnits="userSpaceOnUse">
<stop stop-color="#00B191"/>
<stop offset="1" stop-color="#00CABE"/>
</linearGradient>
<linearGradient id="paint7_linear" x1="51.2949" y1="36.8905" x2="175.377" y2="38.9995" gradientUnits="userSpaceOnUse">
<stop stop-color="#00B191"/>
<stop offset="1" stop-color="#00CABE"/>
</linearGradient>
<linearGradient id="paint8_linear" x1="51.2949" y1="36.8905" x2="175.377" y2="38.9995" gradientUnits="userSpaceOnUse">
<stop stop-color="#00B191"/>
<stop offset="1" stop-color="#00CABE"/>
</linearGradient>
<linearGradient id="paint9_linear" x1="51.2949" y1="36.8905" x2="175.377" y2="38.9995" gradientUnits="userSpaceOnUse">
<stop stop-color="#00B191"/>
<stop offset="1" stop-color="#00CABE"/>
</linearGradient>
<linearGradient id="paint10_linear" x1="51.2949" y1="36.8905" x2="175.377" y2="38.9995" gradientUnits="userSpaceOnUse">
<stop stop-color="#00B191"/>
<stop offset="1" stop-color="#00CABE"/>
</linearGradient>
<linearGradient id="paint11_linear" x1="51.2949" y1="36.8905" x2="175.377" y2="38.9995" gradientUnits="userSpaceOnUse">
<stop stop-color="#00B191"/>
<stop offset="1" stop-color="#00CABE"/>
</linearGradient>
<linearGradient id="paint12_linear" x1="19.7285" y1="25.9583" x2="24.0619" y2="25.9635" gradientUnits="userSpaceOnUse">
<stop stop-color="#00B191"/>
<stop offset="1" stop-color="#00CABE"/>
</linearGradient>
<linearGradient id="paint13_linear" x1="13.8105" y1="5.67417" x2="31.1439" y2="5.75194" gradientUnits="userSpaceOnUse">
<stop stop-color="#00B191"/>
<stop offset="1" stop-color="#00CABE"/>
</linearGradient>
<clipPath id="clip0">
<rect width="41.4312" height="42" fill="white" transform="translate(0.986328)"/>
</clipPath>
</defs>
</svg>
