<svg width="184" height="46" viewBox="0 0 184 46" fill="none" xmlns="http://www.w3.org/2000/svg">
<path d="M57.9961 42.0067V20.8375H72.3988V24.5436H62.8183V28.9613H64.7344C66.8847 28.9613 68.6411 29.238 70.0036 29.7914C71.3875 30.3449 72.4094 31.1058 73.0694 32.0744C73.7294 33.0429 74.0594 34.1498 74.0594 35.395C74.0594 37.4902 73.3036 39.1209 71.792 40.2871C70.3017 41.4335 67.9172 42.0067 64.6386 42.0067H57.9961ZM64.447 38.3302C65.916 38.3302 67.0656 38.1128 67.8959 37.678C68.7475 37.2431 69.1733 36.4821 69.1733 35.395C69.1733 34.2684 68.7156 33.5272 67.8001 33.1714C66.8847 32.8156 65.6392 32.6377 64.0637 32.6377H62.8183V38.3302H64.447Z" fill="#39424A"/>
<path d="M78.3609 20.8375H82.704V31.0663C82.704 31.5605 82.6934 32.1139 82.6721 32.7266C82.6508 33.3394 82.6295 33.9422 82.6082 34.5352C82.5869 35.1084 82.5656 35.6124 82.5443 36.0473C82.5231 36.4624 82.5018 36.749 82.4805 36.9071H82.5763L93.1148 20.8375H98.895V42.0067H94.5838V31.8372C94.5838 31.3035 94.5945 30.7204 94.6158 30.0879C94.6371 29.4356 94.6583 28.813 94.6796 28.22C94.7222 27.6271 94.7541 27.1131 94.7754 26.6783C94.818 26.2237 94.85 25.9272 94.8712 25.7888H94.7435L84.173 42.0067H78.3609V20.8375Z" fill="#39424A"/>
<path d="M120.395 25.7888C120.395 27.212 119.852 28.3584 118.766 29.2281C117.681 30.0978 116.297 30.6413 114.615 30.8588V30.9477C116.701 31.1454 118.298 31.6889 119.405 32.5784C120.533 33.4481 121.098 34.5846 121.098 35.988C121.098 37.846 120.278 39.3679 118.639 40.5539C117.021 41.7201 114.636 42.3032 111.485 42.3032C109.761 42.3032 108.228 42.2043 106.887 42.0067C105.567 41.809 104.417 41.5224 103.438 41.1469V37.3815C104.098 37.678 104.843 37.9349 105.673 38.1524C106.503 38.35 107.344 38.5081 108.196 38.6267C109.047 38.7256 109.835 38.775 110.559 38.775C112.582 38.775 114.04 38.5081 114.934 37.9745C115.85 37.421 116.307 36.6502 116.307 35.6619C116.307 34.6538 115.647 33.9225 114.327 33.4679C113.007 32.9935 111.23 32.7563 108.994 32.7563H106.855V29.2577H108.771C110.58 29.2577 111.985 29.149 112.986 28.9316C113.987 28.7142 114.689 28.3979 115.094 27.9828C115.498 27.5678 115.701 27.0736 115.701 26.5004C115.701 25.7691 115.349 25.1959 114.647 24.7808C113.965 24.3459 112.933 24.1285 111.549 24.1285C110.378 24.1285 109.271 24.2866 108.228 24.6029C107.206 24.9191 106.248 25.3342 105.354 25.8481L103.246 22.8536C104.417 22.142 105.716 21.5787 107.142 21.1636C108.568 20.7486 110.261 20.541 112.22 20.541C114.796 20.541 116.797 21.0352 118.223 22.0235C119.671 23.0117 120.395 24.2669 120.395 25.7888Z" fill="#39424A"/>
<path d="M144.041 42.0067H139.219V32.8749H130.181V42.0067H125.359V20.8375H130.181V29.1391H139.219V20.8375H144.041V42.0067Z" fill="#39424A"/>
<path d="M162.903 42.0067H149.778V20.8375H162.903V24.5139H154.6V29.1688H162.328V32.8452H154.6V38.3006H162.903V42.0067Z" fill="#39424A"/>
<path d="M177.324 24.2768C175.472 24.2768 174.056 24.9191 173.077 26.2039C172.097 27.4887 171.608 29.2479 171.608 31.4814C171.608 33.7347 172.055 35.484 172.949 36.7292C173.864 37.9547 175.323 38.5674 177.324 38.5674C178.261 38.5674 179.187 38.4686 180.102 38.2709C181.039 38.0733 182.05 37.7966 183.136 37.4408V41.2062C182.136 41.5817 181.146 41.8584 180.166 42.0363C179.187 42.2142 178.09 42.3032 176.877 42.3032C174.535 42.3032 172.598 41.8584 171.065 40.969C169.553 40.0597 168.435 38.7947 167.712 37.1739C166.988 35.5334 166.626 33.626 166.626 31.4517C166.626 29.317 167.041 27.4294 167.871 25.7888C168.702 24.1483 169.904 22.8635 171.48 21.9345C173.077 21.0055 175.025 20.541 177.324 20.541C178.452 20.541 179.581 20.6794 180.709 20.9561C181.859 21.2131 182.955 21.5688 183.998 22.0235L182.434 25.6702C181.582 25.2947 180.72 24.9686 179.847 24.6918C178.995 24.4151 178.154 24.2768 177.324 24.2768Z" fill="#39424A"/>
<g clip-path="url(#clip0)">
<path d="M43.8271 25.0449C43.201 25.0449 42.7837 25.4624 42.7837 26.0884V39.6542C42.7837 40.2803 42.3662 40.6977 41.7402 40.6977H4.17343C3.5473 40.6977 3.12994 40.2802 3.12994 39.6542V26.0884C3.12994 25.4623 2.71249 25.0449 2.08645 25.0449C1.46042 25.0449 1.04297 25.4624 1.04297 26.0884V39.6542C1.04297 41.4282 2.39952 42.7847 4.17352 42.7847H41.7402C43.5142 42.7847 44.8707 41.4282 44.8707 39.6542V26.0884C44.8707 25.4623 44.4533 25.0449 43.8271 25.0449Z" fill="#39424A"/>
<rect x="19.6777" y="24.0508" width="6.55926" height="5.46605" fill="url(#paint0_linear)"/>
<path d="M42.7843 8.74609H3.13055C1.35655 8.74609 0 10.2124 0 12.13V19.349C0 20.928 1.04349 22.2816 2.40013 22.62L18.7834 26.5679V30.1773C18.7834 30.8541 19.2008 31.3053 19.8269 31.3053H26.088C26.7141 31.3053 27.1314 30.854 27.1314 30.1773V26.5679L43.5147 22.62C44.8713 22.2816 45.9148 20.928 45.9148 19.3489V12.1299C45.9148 10.2124 44.5583 8.74609 42.7843 8.74609ZM25.0445 29.0494H20.8704V24.5376H25.0445V29.0494ZM43.8277 19.3489C43.8277 19.9128 43.5147 20.3641 42.9929 20.4768L27.1314 24.3119V23.4096C27.1314 22.7328 26.714 22.2816 26.088 22.2816H19.8269C19.2007 22.2816 18.7834 22.7329 18.7834 23.4096V24.3119L2.92187 20.4769C2.40013 20.3641 2.08706 19.9129 2.08706 19.349V12.13C2.08706 11.4532 2.50451 11.002 3.13055 11.002H42.7843C43.4104 11.002 43.8277 11.4533 43.8277 12.13V19.3489Z" fill="#39424A"/>
<path d="M28.1742 1.64062H17.739C15.965 1.64062 14.211 2.59965 14.211 4.37365V5.46686L14.2109 6.36149C14.2109 7.10667 14.9311 7.40497 15.3041 7.40497C16.2205 7.40497 16.6955 6.98753 16.6955 6.36149V5.318C16.6955 4.69188 17.1129 4.27452 17.739 4.27452H28.1742C28.8003 4.27452 29.2177 4.69197 29.2177 5.318V6.36149C29.2177 7.17695 29.7584 7.40497 30.6091 7.40497C31.2568 7.40497 31.7023 6.98753 31.7023 6.36149V4.37365C31.7025 2.59965 29.9482 1.64062 28.1742 1.64062Z" fill="url(#paint1_linear)"/>
</g>
<path d="M63.5549 12.2414C62.6068 12.2414 61.7473 12.0376 60.9764 11.63C60.2144 11.2136 59.6119 10.642 59.1688 9.91546C58.7347 9.18002 58.5176 8.35154 58.5176 7.43002C58.5176 6.5085 58.7347 5.68446 59.1688 4.95787C59.6119 4.22243 60.2144 3.65091 60.9764 3.24332C61.7473 2.82686 62.6112 2.61863 63.5682 2.61863C64.3745 2.61863 65.1011 2.76041 65.748 3.04395C66.4036 3.3275 66.953 3.73509 67.3961 4.26674L66.0138 5.54268C65.3847 4.8161 64.6049 4.45281 63.6745 4.45281C63.0986 4.45281 62.5847 4.58129 62.1328 4.83825C61.6809 5.08635 61.3264 5.43635 61.0695 5.88825C60.8214 6.34015 60.6973 6.85407 60.6973 7.43002C60.6973 8.00597 60.8214 8.5199 61.0695 8.97179C61.3264 9.42369 61.6809 9.77812 62.1328 10.0351C62.5847 10.2832 63.0986 10.4072 63.6745 10.4072C64.6049 10.4072 65.3847 10.0395 66.0138 9.30407L67.3961 10.58C66.953 11.1205 66.4036 11.5326 65.748 11.8161C65.0923 12.0996 64.3612 12.2414 63.5549 12.2414Z" fill="url(#paint2_linear)"/>
<path d="M75.2456 7.23066C75.8127 7.39901 76.2469 7.67369 76.5481 8.05471C76.8494 8.43572 77 8.90534 77 9.46357C77 10.2876 76.6855 10.93 76.0564 11.3908C75.4361 11.8515 74.5456 12.0819 73.3848 12.0819H68.7994V2.77813H73.1323C74.2133 2.77813 75.0551 2.98636 75.6576 3.40281C76.2602 3.81927 76.5614 4.41294 76.5614 5.18382C76.5614 5.64458 76.4462 6.05218 76.2159 6.40661C75.9855 6.75218 75.6621 7.02686 75.2456 7.23066ZM70.9393 6.63256H72.9462C73.4159 6.63256 73.7703 6.53952 74.0095 6.35344C74.2488 6.15851 74.3684 5.87496 74.3684 5.50281C74.3684 5.13952 74.2443 4.86041 73.9962 4.66547C73.757 4.47053 73.407 4.37306 72.9462 4.37306H70.9393V6.63256ZM73.3051 10.487C74.3152 10.487 74.8203 10.0882 74.8203 9.29078C74.8203 8.5199 74.3152 8.13445 73.3051 8.13445H70.9393V10.487H73.3051Z" fill="url(#paint3_linear)"/>
<path d="M85.9066 10.3541V12.0819H78.7029V2.77813H85.7339V4.50597H80.8427V6.52623H85.1623V8.20091H80.8427V10.3541H85.9066Z" fill="url(#paint4_linear)"/>
<path d="M94.7566 4.53256H91.7794V12.0819H89.6528V4.53256H86.6889V2.77813H94.7566V4.53256Z" fill="url(#paint5_linear)"/>
<path d="M103.896 2.77813V12.0819H101.769V4.53256H98.5795L98.5131 6.47306C98.4688 7.79331 98.3624 8.86547 98.1941 9.68952C98.0257 10.5047 97.7422 11.1338 97.3435 11.5769C96.9536 12.011 96.4042 12.2281 95.6954 12.2281C95.403 12.2281 95.0485 12.1794 94.6321 12.0819L94.765 10.261C94.8802 10.2965 95.0086 10.3142 95.1504 10.3142C95.6643 10.3142 96.0232 10.0129 96.227 9.4104C96.4308 8.79901 96.5593 7.84648 96.6124 6.55281L96.7454 2.77813H103.896Z" fill="url(#paint6_linear)"/>
<path d="M110.659 12.2414C109.693 12.2414 108.82 12.0332 108.041 11.6167C107.27 11.2003 106.663 10.6288 106.22 9.90217C105.785 9.16673 105.568 8.34268 105.568 7.43002C105.568 6.51737 105.785 5.69775 106.22 4.97116C106.663 4.23572 107.27 3.65977 108.041 3.24332C108.82 2.82686 109.693 2.61863 110.659 2.61863C111.625 2.61863 112.493 2.82686 113.264 3.24332C114.035 3.65977 114.642 4.23572 115.085 4.97116C115.528 5.69775 115.749 6.51737 115.749 7.43002C115.749 8.34268 115.528 9.16673 115.085 9.90217C114.642 10.6288 114.035 11.2003 113.264 11.6167C112.493 12.0332 111.625 12.2414 110.659 12.2414ZM110.659 10.4072C111.208 10.4072 111.704 10.2832 112.147 10.0351C112.591 9.77812 112.936 9.42369 113.184 8.97179C113.441 8.5199 113.57 8.00597 113.57 7.43002C113.57 6.85407 113.441 6.34015 113.184 5.88825C112.936 5.43635 112.591 5.08635 112.147 4.83825C111.704 4.58129 111.208 4.45281 110.659 4.45281C110.11 4.45281 109.613 4.58129 109.17 4.83825C108.727 5.08635 108.377 5.43635 108.12 5.88825C107.872 6.34015 107.748 6.85407 107.748 7.43002C107.748 8.00597 107.872 8.5199 108.12 8.97179C108.377 9.42369 108.727 9.77812 109.17 10.0351C109.613 10.2832 110.11 10.4072 110.659 10.4072Z" fill="url(#paint7_linear)"/>
<path d="M123.961 4.53256H119.535L119.548 12.0819H117.408V2.77813H123.974L123.961 4.53256Z" fill="url(#paint8_linear)"/>
<path d="M128.778 12.2414C127.813 12.2414 126.94 12.0332 126.16 11.6167C125.389 11.2003 124.782 10.6288 124.339 9.90217C123.905 9.16673 123.688 8.34268 123.688 7.43002C123.688 6.51737 123.905 5.69775 124.339 4.97116C124.782 4.23572 125.389 3.65977 126.16 3.24332C126.94 2.82686 127.813 2.61863 128.778 2.61863C129.744 2.61863 130.613 2.82686 131.383 3.24332C132.154 3.65977 132.761 4.23572 133.204 4.97116C133.647 5.69775 133.869 6.51737 133.869 7.43002C133.869 8.34268 133.647 9.16673 133.204 9.90217C132.761 10.6288 132.154 11.2003 131.383 11.6167C130.613 12.0332 129.744 12.2414 128.778 12.2414ZM128.778 10.4072C129.328 10.4072 129.824 10.2832 130.267 10.0351C130.71 9.77812 131.056 9.42369 131.304 8.97179C131.561 8.5199 131.689 8.00597 131.689 7.43002C131.689 6.85407 131.561 6.34015 131.304 5.88825C131.056 5.43635 130.71 5.08635 130.267 4.83825C129.824 4.58129 129.328 4.45281 128.778 4.45281C128.229 4.45281 127.733 4.58129 127.29 4.83825C126.847 5.08635 126.497 5.43635 126.24 5.88825C125.992 6.34015 125.868 6.85407 125.868 7.43002C125.868 8.00597 125.992 8.5199 126.24 8.97179C126.497 9.42369 126.847 9.77812 127.29 10.0351C127.733 10.2832 128.229 10.4072 128.778 10.4072Z" fill="url(#paint9_linear)"/>
<path d="M139.555 2.77813C140.379 2.77813 141.092 2.91547 141.695 3.19015C142.306 3.46484 142.776 3.85471 143.104 4.35977C143.431 4.86484 143.595 5.46294 143.595 6.15408C143.595 6.83635 143.431 7.43445 143.104 7.94838C142.776 8.45344 142.306 8.84331 141.695 9.118C141.092 9.38382 140.379 9.51673 139.555 9.51673H137.681V12.0819H135.528V2.77813H139.555ZM139.435 7.7623C140.082 7.7623 140.574 7.62496 140.911 7.35028C141.247 7.06673 141.416 6.668 141.416 6.15408C141.416 5.63129 141.247 5.23256 140.911 4.95787C140.574 4.67433 140.082 4.53256 139.435 4.53256H137.681V7.7623H139.435Z" fill="url(#paint10_linear)"/>
<path d="M149.545 12.2414C148.597 12.2414 147.737 12.0376 146.966 11.63C146.204 11.2136 145.602 10.642 145.159 9.91546C144.725 9.18002 144.508 8.35154 144.508 7.43002C144.508 6.5085 144.725 5.68446 145.159 4.95787C145.602 4.22243 146.204 3.65091 146.966 3.24332C147.737 2.82686 148.601 2.61863 149.558 2.61863C150.365 2.61863 151.091 2.76041 151.738 3.04395C152.394 3.3275 152.943 3.73509 153.386 4.26674L152.004 5.54268C151.375 4.8161 150.595 4.45281 149.664 4.45281C149.089 4.45281 148.575 4.58129 148.123 4.83825C147.671 5.08635 147.316 5.43635 147.059 5.88825C146.811 6.34015 146.687 6.85407 146.687 7.43002C146.687 8.00597 146.811 8.5199 147.059 8.97179C147.316 9.42369 147.671 9.77812 148.123 10.0351C148.575 10.2832 149.089 10.4072 149.664 10.4072C150.595 10.4072 151.375 10.0395 152.004 9.30407L153.386 10.58C152.943 11.1205 152.394 11.5326 151.738 11.8161C151.082 12.0996 150.351 12.2414 149.545 12.2414Z" fill="url(#paint11_linear)"/>
<path d="M158.391 8.33382H156.903V12.0819H154.763V2.77813H156.903V6.53952H158.444L160.89 2.77813H163.163L160.119 7.27053L163.256 12.0819H160.81L158.391 8.33382Z" fill="url(#paint12_linear)"/>
<path d="M164.264 2.77813H166.404V8.83888L170.844 2.77813H172.864V12.0819H170.737V6.03445L166.298 12.0819H164.264V2.77813Z" fill="url(#paint13_linear)"/>
<path d="M175.18 2.77813H177.32V8.83888L181.759 2.77813H183.78V12.0819H181.653V6.03445L177.214 12.0819H175.18V2.77813ZM179.473 2.18003C177.772 2.18003 176.913 1.50218 176.895 0.146484H178.37C178.388 0.793319 178.756 1.11674 179.473 1.11674C179.828 1.11674 180.098 1.03699 180.284 0.877497C180.47 0.709142 180.568 0.465472 180.577 0.146484H182.052C182.043 0.811041 181.826 1.3161 181.401 1.66167C180.975 2.00724 180.333 2.18003 179.473 2.18003Z" fill="url(#paint14_linear)"/>
<defs>
<linearGradient id="paint0_linear" x1="19.6777" y1="28.3781" x2="26.8813" y2="28.391" gradientUnits="userSpaceOnUse">
<stop stop-color="#00B191"/>
<stop offset="1" stop-color="#00CABE"/>
</linearGradient>
<linearGradient id="paint1_linear" x1="14.2109" y1="6.20407" x2="33.42" y2="6.29144" gradientUnits="userSpaceOnUse">
<stop stop-color="#00B191"/>
<stop offset="1" stop-color="#00CABE"/>
</linearGradient>
<linearGradient id="paint2_linear" x1="58.5176" y1="9.72163" x2="196.051" y2="11.8567" gradientUnits="userSpaceOnUse">
<stop stop-color="#00B191"/>
<stop offset="1" stop-color="#00CABE"/>
</linearGradient>
<linearGradient id="paint3_linear" x1="58.5176" y1="9.72163" x2="196.051" y2="11.8567" gradientUnits="userSpaceOnUse">
<stop stop-color="#00B191"/>
<stop offset="1" stop-color="#00CABE"/>
</linearGradient>
<linearGradient id="paint4_linear" x1="58.5176" y1="9.72163" x2="196.051" y2="11.8567" gradientUnits="userSpaceOnUse">
<stop stop-color="#00B191"/>
<stop offset="1" stop-color="#00CABE"/>
</linearGradient>
<linearGradient id="paint5_linear" x1="58.5176" y1="9.72163" x2="196.051" y2="11.8567" gradientUnits="userSpaceOnUse">
<stop stop-color="#00B191"/>
<stop offset="1" stop-color="#00CABE"/>
</linearGradient>
<linearGradient id="paint6_linear" x1="58.5176" y1="9.72163" x2="196.051" y2="11.8567" gradientUnits="userSpaceOnUse">
<stop stop-color="#00B191"/>
<stop offset="1" stop-color="#00CABE"/>
</linearGradient>
<linearGradient id="paint7_linear" x1="58.5176" y1="9.72163" x2="196.051" y2="11.8567" gradientUnits="userSpaceOnUse">
<stop stop-color="#00B191"/>
<stop offset="1" stop-color="#00CABE"/>
</linearGradient>
<linearGradient id="paint8_linear" x1="58.5176" y1="9.72163" x2="196.051" y2="11.8567" gradientUnits="userSpaceOnUse">
<stop stop-color="#00B191"/>
<stop offset="1" stop-color="#00CABE"/>
</linearGradient>
<linearGradient id="paint9_linear" x1="58.5176" y1="9.72163" x2="196.051" y2="11.8567" gradientUnits="userSpaceOnUse">
<stop stop-color="#00B191"/>
<stop offset="1" stop-color="#00CABE"/>
</linearGradient>
<linearGradient id="paint10_linear" x1="58.5176" y1="9.72163" x2="196.051" y2="11.8567" gradientUnits="userSpaceOnUse">
<stop stop-color="#00B191"/>
<stop offset="1" stop-color="#00CABE"/>
</linearGradient>
<linearGradient id="paint11_linear" x1="58.5176" y1="9.72163" x2="196.051" y2="11.8567" gradientUnits="userSpaceOnUse">
<stop stop-color="#00B191"/>
<stop offset="1" stop-color="#00CABE"/>
</linearGradient>
<linearGradient id="paint12_linear" x1="58.5176" y1="9.72163" x2="196.051" y2="11.8567" gradientUnits="userSpaceOnUse">
<stop stop-color="#00B191"/>
<stop offset="1" stop-color="#00CABE"/>
</linearGradient>
<linearGradient id="paint13_linear" x1="58.5176" y1="9.72163" x2="196.051" y2="11.8567" gradientUnits="userSpaceOnUse">
<stop stop-color="#00B191"/>
<stop offset="1" stop-color="#00CABE"/>
</linearGradient>
<linearGradient id="paint14_linear" x1="58.5176" y1="9.72163" x2="196.051" y2="11.8567" gradientUnits="userSpaceOnUse">
<stop stop-color="#00B191"/>
<stop offset="1" stop-color="#00CABE"/>
</linearGradient>
<clipPath id="clip0">
<rect width="45.9148" height="45.9148" fill="white"/>
</clipPath>
</defs>
</svg>
