<svg width="165" height="38" viewBox="0 0 165 38" fill="none" xmlns="http://www.w3.org/2000/svg">
<path d="M48 34.7654V17.2454H59.9199V20.3126H51.9909V23.9688H53.5767C55.3564 23.9688 56.81 24.1978 57.9377 24.6558C59.083 25.1139 59.9287 25.7437 60.475 26.5452C61.0212 27.3468 61.2943 28.2629 61.2943 29.2935C61.2943 31.0275 60.6688 32.3771 59.4178 33.3422C58.1844 34.291 56.2109 34.7654 53.4974 34.7654H48ZM53.3389 31.7227C54.5546 31.7227 55.5061 31.5428 56.1933 31.1829C56.8981 30.823 57.2505 30.1932 57.2505 29.2935C57.2505 28.361 56.8717 27.7476 56.114 27.4531C55.3563 27.1587 54.3256 27.0114 53.0217 27.0114H51.9909V31.7227H53.3389Z" fill="#39424A"/>
<path d="M64.8543 17.2454H68.4488V25.7109C68.4488 26.1199 68.44 26.5779 68.4223 27.0851C68.4047 27.5922 68.3871 28.0911 68.3695 28.5819C68.3519 29.0563 68.3342 29.4734 68.3166 29.8333C68.299 30.1768 68.2814 30.414 68.2638 30.5449H68.343L77.0649 17.2454H81.8488V34.7654H78.2807V26.3489C78.2807 25.9072 78.2895 25.4247 78.3072 24.9012C78.3248 24.3614 78.3424 23.8461 78.36 23.3553C78.3953 22.8645 78.4217 22.4392 78.4393 22.0793C78.4745 21.7031 78.501 21.4577 78.5186 21.3432H78.4129L69.6645 34.7654H64.8543V17.2454Z" fill="#39424A"/>
<path d="M99.6426 21.3432C99.6426 22.521 99.1932 23.4698 98.2946 24.1896C97.396 24.9094 96.2507 25.3592 94.8587 25.5392V25.6128C96.5855 25.7764 97.907 26.2262 98.8232 26.9624C99.7571 27.6821 100.224 28.6228 100.224 29.7842C100.224 31.3219 99.5457 32.5815 98.1889 33.5631C96.8498 34.5282 94.8764 35.0108 92.2686 35.0108C90.8414 35.0108 89.5727 34.929 88.4627 34.7654C87.3702 34.6018 86.4188 34.3646 85.6082 34.0538V30.9375C86.1545 31.1829 86.7712 31.3955 87.4583 31.5755C88.1455 31.7391 88.8415 31.8699 89.5463 31.9681C90.2511 32.0499 90.903 32.0908 91.5021 32.0908C93.176 32.0908 94.383 31.8699 95.123 31.4283C95.8807 30.9702 96.2595 30.3322 96.2595 29.5143C96.2595 28.68 95.7133 28.0748 94.6209 27.6985C93.5284 27.3059 92.0572 27.1096 90.2071 27.1096H88.4362V24.2141H90.022C91.5197 24.2141 92.6827 24.1242 93.5108 23.9442C94.3389 23.7643 94.9204 23.5025 95.2552 23.159C95.59 22.8155 95.7574 22.4065 95.7574 21.9321C95.7574 21.3268 95.4666 20.8524 94.8852 20.5089C94.3213 20.149 93.4668 19.9691 92.3214 19.9691C91.3524 19.9691 90.4361 20.1 89.5727 20.3617C88.727 20.6234 87.9341 20.967 87.194 21.3923L85.4497 18.914C86.4188 18.325 87.4936 17.8588 88.6741 17.5153C89.8547 17.1718 91.2554 17 92.8765 17C95.0085 17 96.6648 17.409 97.8453 18.2269C99.0435 19.0448 99.6426 20.0836 99.6426 21.3432Z" fill="#39424A"/>
<path d="M119.212 34.7654H115.221V27.2078H107.742V34.7654H103.751V17.2454H107.742V24.116H115.221V17.2454H119.212V34.7654Z" fill="#39424A"/>
<path d="M134.823 34.7654H123.96V17.2454H134.823V20.2881H127.951V24.1405H134.347V27.1832H127.951V31.6982H134.823V34.7654Z" fill="#39424A"/>
<path d="M146.758 20.0918C145.225 20.0918 144.053 20.6234 143.243 21.6867C142.432 22.75 142.027 24.206 142.027 26.0545C142.027 27.9194 142.397 29.3671 143.137 30.3977C143.895 31.4119 145.102 31.919 146.758 31.919C147.533 31.919 148.3 31.8372 149.058 31.6736C149.833 31.5101 150.67 31.281 151.568 30.9866V34.1029C150.74 34.4137 149.921 34.6427 149.11 34.79C148.3 34.9372 147.392 35.0108 146.388 35.0108C144.45 35.0108 142.847 34.6427 141.578 33.9066C140.327 33.1541 139.402 32.1071 138.803 30.7657C138.204 29.408 137.904 27.8294 137.904 26.0299C137.904 24.2632 138.248 22.701 138.935 21.3432C139.622 19.9854 140.618 18.9221 141.921 18.1533C143.243 17.3844 144.855 17 146.758 17C147.692 17 148.626 17.1145 149.56 17.3435C150.511 17.5562 151.419 17.8506 152.282 18.2269L150.987 21.2451C150.282 20.9342 149.569 20.6643 148.846 20.4353C148.141 20.2063 147.445 20.0918 146.758 20.0918Z" fill="#39424A"/>
<path d="M36.2723 20.7271C35.7541 20.7271 35.4087 21.0725 35.4087 21.5907V32.818C35.4087 33.3362 35.0632 33.6816 34.5451 33.6816H3.45411C2.93591 33.6816 2.5905 33.3361 2.5905 32.818V21.5907C2.5905 21.0725 2.24501 20.7271 1.72689 20.7271C1.20877 20.7271 0.863281 21.0725 0.863281 21.5907V32.818C0.863281 34.2862 1.98599 35.4089 3.45418 35.4089H34.5451C36.0133 35.4089 37.136 34.2862 37.136 32.818V21.5907C37.136 21.0725 36.7905 20.7271 36.2723 20.7271Z" fill="#39424A"/>
<rect x="16.2852" y="19.9048" width="5.42857" height="4.52381" fill="url(#paint0_linear)"/>
<path d="M35.4091 7.23804H2.5909C1.12271 7.23804 0 8.4516 0 10.0386V16.0132C0 17.3201 0.863609 18.4403 1.98639 18.7204L15.5455 21.9877V24.975C15.5455 25.5351 15.891 25.9085 16.4091 25.9085H21.5909C22.1091 25.9085 22.4545 25.535 22.4545 24.975V21.9877L36.0136 18.7204C37.1364 18.4403 38 17.3201 38 16.0131V10.0385C38 8.4516 36.8773 7.23804 35.4091 7.23804ZM20.7273 24.0415H17.2728V20.3074H20.7273V24.0415ZM36.2727 16.0131C36.2727 16.4799 36.0136 16.8533 35.5818 16.9466L22.4545 20.1206V19.3738C22.4545 18.8137 22.109 18.4403 21.5909 18.4403H16.4091C15.8909 18.4403 15.5455 18.8138 15.5455 19.3738V20.1206L2.4182 16.9467C1.98639 16.8533 1.72729 16.4799 1.72729 16.0132V10.0386C1.72729 9.47848 2.07278 9.10511 2.5909 9.10511H35.4091C35.9273 9.10511 36.2727 9.47856 36.2727 10.0386V16.0131Z" fill="#39424A"/>
<path d="M23.318 1.35693H14.6816C13.2134 1.35693 11.7617 2.15064 11.7617 3.61884V4.5236L11.7617 5.26401C11.7617 5.88074 12.3578 6.12762 12.6665 6.12762C13.4248 6.12762 13.818 5.78214 13.818 5.26401V4.40041C13.818 3.88221 14.1635 3.5368 14.6816 3.5368H23.318C23.8362 3.5368 24.1816 3.88228 24.1816 4.40041V5.26401C24.1816 5.9389 24.6291 6.12762 25.3332 6.12762C25.8692 6.12762 26.2379 5.78214 26.2379 5.26401V3.61884C26.2381 2.15064 24.7862 1.35693 23.318 1.35693Z" fill="url(#paint1_linear)"/>
<path d="M52.968 12.192C52.08 12.192 51.28 12.008 50.568 11.64C49.856 11.264 49.296 10.744 48.888 10.08C48.488 9.408 48.288 8.648 48.288 7.8C48.288 6.952 48.488 6.196 48.888 5.532C49.296 4.86 49.856 4.34 50.568 3.972C51.28 3.596 52.08 3.408 52.968 3.408C53.784 3.408 54.512 3.552 55.152 3.84C55.792 4.128 56.32 4.544 56.736 5.088L54.948 6.684C54.428 6.028 53.816 5.7 53.112 5.7C52.52 5.7 52.044 5.892 51.684 6.276C51.324 6.652 51.144 7.16 51.144 7.8C51.144 8.44 51.324 8.952 51.684 9.336C52.044 9.712 52.52 9.9 53.112 9.9C53.816 9.9 54.428 9.572 54.948 8.916L56.736 10.512C56.32 11.056 55.792 11.472 55.152 11.76C54.512 12.048 53.784 12.192 52.968 12.192ZM64.0477 7.596C64.5197 7.764 64.8797 8.016 65.1277 8.352C65.3757 8.68 65.4997 9.084 65.4997 9.564C65.4997 10.316 65.1997 10.912 64.5997 11.352C64.0077 11.784 63.1677 12 62.0797 12H57.5917V3.6H61.8517C62.8917 3.6 63.6957 3.792 64.2637 4.176C64.8397 4.56 65.1277 5.1 65.1277 5.796C65.1277 6.196 65.0317 6.548 64.8397 6.852C64.6557 7.156 64.3917 7.404 64.0477 7.596ZM60.3757 6.828H61.5757C62.0397 6.828 62.2717 6.624 62.2717 6.216C62.2717 5.792 62.0397 5.58 61.5757 5.58H60.3757V6.828ZM61.9477 10.02C62.4117 10.02 62.6437 9.796 62.6437 9.348C62.6437 8.916 62.4117 8.7 61.9477 8.7H60.3757V10.02H61.9477ZM73.4936 9.864V12H66.5096V3.6H73.3376V5.736H69.2936V6.72H72.8456V8.76H69.2936V9.864H73.4936ZM81.7944 5.796H79.3344V12H76.5504V5.796H74.0904V3.6H81.7944V5.796ZM90.4439 3.6V12H87.6599V5.796H85.7399L85.7159 6.768C85.6839 7.968 85.5879 8.952 85.4279 9.72C85.2679 10.488 84.9879 11.088 84.5879 11.52C84.1879 11.944 83.6159 12.156 82.8719 12.156C82.4959 12.156 82.0959 12.104 81.6719 12L81.8159 9.732C81.9199 9.756 82.0239 9.768 82.1279 9.768C82.4239 9.768 82.6479 9.648 82.7999 9.408C82.9599 9.168 83.0679 8.848 83.1239 8.448C83.1799 8.048 83.2199 7.524 83.2439 6.876L83.3519 3.6H90.4439ZM96.1996 12.192C95.2956 12.192 94.4836 12.004 93.7636 11.628C93.0436 11.252 92.4796 10.732 92.0716 10.068C91.6636 9.396 91.4596 8.64 91.4596 7.8C91.4596 6.96 91.6636 6.208 92.0716 5.544C92.4796 4.872 93.0436 4.348 93.7636 3.972C94.4836 3.596 95.2956 3.408 96.1996 3.408C97.1036 3.408 97.9156 3.596 98.6356 3.972C99.3556 4.348 99.9196 4.872 100.328 5.544C100.736 6.208 100.94 6.96 100.94 7.8C100.94 8.64 100.736 9.396 100.328 10.068C99.9196 10.732 99.3556 11.252 98.6356 11.628C97.9156 12.004 97.1036 12.192 96.1996 12.192ZM96.1996 9.9C96.5516 9.9 96.8676 9.816 97.1476 9.648C97.4356 9.472 97.6636 9.228 97.8316 8.916C97.9996 8.596 98.0836 8.224 98.0836 7.8C98.0836 7.376 97.9996 7.008 97.8316 6.696C97.6636 6.376 97.4356 6.132 97.1476 5.964C96.8676 5.788 96.5516 5.7 96.1996 5.7C95.8476 5.7 95.5276 5.788 95.2396 5.964C94.9596 6.132 94.7356 6.376 94.5676 6.696C94.3996 7.008 94.3156 7.376 94.3156 7.8C94.3156 8.224 94.3996 8.596 94.5676 8.916C94.7356 9.228 94.9596 9.472 95.2396 9.648C95.5276 9.816 95.8476 9.9 96.1996 9.9ZM108.355 5.796H104.743V12H101.959V3.6H108.355V5.796ZM112.969 12.192C112.065 12.192 111.253 12.004 110.533 11.628C109.813 11.252 109.249 10.732 108.841 10.068C108.433 9.396 108.229 8.64 108.229 7.8C108.229 6.96 108.433 6.208 108.841 5.544C109.249 4.872 109.813 4.348 110.533 3.972C111.253 3.596 112.065 3.408 112.969 3.408C113.873 3.408 114.685 3.596 115.405 3.972C116.125 4.348 116.689 4.872 117.097 5.544C117.505 6.208 117.709 6.96 117.709 7.8C117.709 8.64 117.505 9.396 117.097 10.068C116.689 10.732 116.125 11.252 115.405 11.628C114.685 12.004 113.873 12.192 112.969 12.192ZM112.969 9.9C113.321 9.9 113.637 9.816 113.917 9.648C114.205 9.472 114.433 9.228 114.601 8.916C114.769 8.596 114.853 8.224 114.853 7.8C114.853 7.376 114.769 7.008 114.601 6.696C114.433 6.376 114.205 6.132 113.917 5.964C113.637 5.788 113.321 5.7 112.969 5.7C112.617 5.7 112.297 5.788 112.009 5.964C111.729 6.132 111.505 6.376 111.337 6.696C111.169 7.008 111.085 7.376 111.085 7.8C111.085 8.224 111.169 8.596 111.337 8.916C111.505 9.228 111.729 9.472 112.009 9.648C112.297 9.816 112.617 9.9 112.969 9.9ZM122.772 3.6C123.548 3.6 124.224 3.728 124.8 3.984C125.376 4.24 125.82 4.608 126.132 5.088C126.444 5.568 126.6 6.128 126.6 6.768C126.6 7.408 126.444 7.968 126.132 8.448C125.82 8.928 125.376 9.296 124.8 9.552C124.224 9.808 123.548 9.936 122.772 9.936H121.56V12H118.728V3.6H122.772ZM122.592 7.752C122.976 7.752 123.264 7.668 123.456 7.5C123.648 7.324 123.744 7.08 123.744 6.768C123.744 6.456 123.648 6.216 123.456 6.048C123.264 5.872 122.976 5.784 122.592 5.784H121.56V7.752H122.592ZM131.8 12.192C130.912 12.192 130.112 12.008 129.4 11.64C128.688 11.264 128.128 10.744 127.72 10.08C127.32 9.408 127.12 8.648 127.12 7.8C127.12 6.952 127.32 6.196 127.72 5.532C128.128 4.86 128.688 4.34 129.4 3.972C130.112 3.596 130.912 3.408 131.8 3.408C132.616 3.408 133.344 3.552 133.984 3.84C134.624 4.128 135.152 4.544 135.568 5.088L133.78 6.684C133.26 6.028 132.648 5.7 131.944 5.7C131.352 5.7 130.876 5.892 130.516 6.276C130.156 6.652 129.976 7.16 129.976 7.8C129.976 8.44 130.156 8.952 130.516 9.336C130.876 9.712 131.352 9.9 131.944 9.9C132.648 9.9 133.26 9.572 133.78 8.916L135.568 10.512C135.152 11.056 134.624 11.472 133.984 11.76C133.344 12.048 132.616 12.192 131.8 12.192ZM142.292 7.68L144.776 12H141.584L139.976 8.964H139.184V12H136.352V3.6H139.184V6.732H140.048L141.836 3.6H144.788L142.292 7.68ZM145.365 3.6H148.149V7.968L151.041 3.6H153.705V12H150.921V7.644L148.041 12H145.365V3.6ZM155.197 3.6H157.981V7.968L160.873 3.6H163.537V12H160.753V7.644L157.873 12H155.197V3.6ZM159.361 3.12C158.433 3.12 157.765 2.948 157.357 2.604C156.949 2.26 156.745 1.744 156.745 1.056H158.629C158.629 1.328 158.681 1.524 158.785 1.644C158.897 1.764 159.089 1.824 159.361 1.824C159.633 1.824 159.825 1.764 159.937 1.644C160.057 1.524 160.117 1.328 160.117 1.056H162.001C162.001 1.744 161.793 2.26 161.377 2.604C160.961 2.948 160.289 3.12 159.361 3.12Z" fill="url(#paint2_linear)"/>
<defs>
<linearGradient id="paint0_linear" x1="16.2852" y1="23.4861" x2="22.2469" y2="23.4969" gradientUnits="userSpaceOnUse">
<stop stop-color="#00B191"/>
<stop offset="1" stop-color="#00CABE"/>
</linearGradient>
<linearGradient id="paint1_linear" x1="11.7617" y1="5.13373" x2="27.6595" y2="5.20604" gradientUnits="userSpaceOnUse">
<stop stop-color="#00B191"/>
<stop offset="1" stop-color="#00CABE"/>
</linearGradient>
<linearGradient id="paint2_linear" x1="48" y1="11.875" x2="176.475" y2="13.3771" gradientUnits="userSpaceOnUse">
<stop stop-color="#00B191"/>
<stop offset="1" stop-color="#00CABE"/>
</linearGradient>
</defs>
</svg>
