<svg width="52" height="56" viewBox="0 0 52 56" fill="none" xmlns="http://www.w3.org/2000/svg">
<path d="M0.112323 29.5L27.9997 -2.47329e-05L51.3626 -5.30308e-05L0.112207 54.7589L0.112323 29.5Z" fill="url(#paint0_linear)"/>
<path d="M10.9687 37.0295L6.35958 30.4568L7.47777 29.2585L9.28687 31.8343L11.0129 29.9845L9.20384 27.4087L10.322 26.2104L14.9311 32.7831L13.8129 33.9815L11.8237 31.1473L10.0976 32.997L12.0868 35.8312L10.9687 37.0295ZM18.5477 29.0686C17.8973 29.7657 17.2036 30.1113 16.4666 30.1057C15.7293 30.0897 15.0309 29.774 14.3714 29.1586C13.921 28.7384 13.5311 28.2641 13.2015 27.7359C12.8769 27.2023 12.6501 26.6446 12.521 26.0628C12.3969 25.4756 12.4052 24.8916 12.546 24.3108C12.6864 23.7196 12.9992 23.164 13.4845 22.6439C14.1349 21.9469 14.8184 21.6068 15.535 21.6235C16.2566 21.6349 16.9418 21.9432 17.5906 22.5486C18.057 22.9839 18.4604 23.4706 18.8007 24.0088C19.1357 24.5421 19.3704 25.1021 19.5048 25.6889C19.6389 26.2654 19.6356 26.844 19.4948 27.4248C19.3537 27.9953 19.038 28.5432 18.5477 29.0686ZM17.6089 28.0271C17.899 27.7161 18.0543 27.3294 18.0746 26.8669C18.0896 26.3994 17.9633 25.9005 17.696 25.3701C17.4336 24.8344 17.0289 24.3114 16.482 23.8011C16.1282 23.4709 15.7691 23.2913 15.4049 23.2624C15.0404 23.2231 14.708 23.3643 14.4078 23.686C14.1777 23.9327 14.0349 24.2308 13.9796 24.5803C13.9239 24.9195 13.9494 25.2844 14.0564 25.675C14.1683 26.0603 14.3477 26.4484 14.5947 26.8394C14.8364 27.2254 15.1422 27.591 15.5121 27.9362C15.8928 28.2914 16.2649 28.4731 16.6284 28.4813C16.9918 28.4895 17.3187 28.3381 17.6089 28.0271ZM21.7053 25.5236L17.0962 18.9508L18.6572 17.278C19.1675 16.7311 19.6769 16.384 20.1855 16.2367C20.6887 16.0844 21.1709 16.2234 21.632 16.6537C22.0234 17.0189 22.2425 17.429 22.2894 17.884C22.3362 18.3389 22.2174 18.8048 21.933 19.2816L21.9652 19.3116C22.28 19.114 22.6038 19.0249 22.9366 19.0446C23.2639 19.0592 23.5697 19.1991 23.8539 19.4642C24.2882 19.8695 24.5522 20.3014 24.6459 20.7599C24.7342 21.2135 24.6853 21.6743 24.4991 22.1426C24.3126 22.6004 24.0192 23.0438 23.619 23.4727L21.7053 25.5236ZM20.588 19.7718C20.8531 19.4876 21.0095 19.2072 21.057 18.9306C21.1041 18.6436 20.9963 18.3775 20.7336 18.1323C20.3744 17.7971 19.9871 17.852 19.5719 18.2971L19.0165 18.8922L20.0401 20.3589L20.588 19.7718ZM22.6737 22.4703C22.9489 22.1754 23.0966 21.872 23.117 21.56C23.1369 21.2376 23.0075 20.9463 22.7287 20.6861C22.525 20.496 22.3145 20.4099 22.0972 20.4278C21.8745 20.4407 21.6506 20.5678 21.4255 20.8091L20.8176 21.4605L22.0133 23.178L22.6737 22.4703ZM28.6833 18.2067C28.0329 18.9037 27.3393 19.2494 26.6023 19.2437C25.865 19.2277 25.1666 18.912 24.5071 18.2967C24.0567 17.8764 23.6667 17.4022 23.3371 16.874C23.0126 16.3404 22.7857 15.7827 22.6566 15.2008C22.5326 14.6136 22.5409 14.0296 22.6817 13.4488C22.8221 12.8577 23.1349 12.3021 23.6202 11.782C24.2706 11.085 24.9541 10.7448 25.6707 10.7615C26.3923 10.7729 27.0775 11.0813 27.7262 11.6866C28.1927 12.1219 28.5961 12.6087 28.9364 13.1469C29.2713 13.6801 29.506 14.2401 29.6405 14.827C29.7746 15.4034 29.7712 15.9821 29.6305 16.5629C29.4894 17.1333 29.1737 17.6812 28.6833 18.2067ZM27.7445 17.1651C28.0347 16.8542 28.1899 16.4674 28.2103 16.0049C28.2252 15.5375 28.099 15.0385 27.8316 14.5082C27.5692 13.9724 27.1646 13.4494 26.6177 12.9391C26.2638 12.6089 25.9048 12.4294 25.5406 12.4004C25.176 12.3612 24.8437 12.5024 24.5435 12.8241C24.3133 13.0707 24.1706 13.3688 24.1152 13.7183C24.0595 14.0575 24.0851 14.4224 24.192 14.8131C24.3039 15.1983 24.4834 15.5865 24.7304 15.9774C24.972 16.3634 25.2778 16.729 25.6478 17.0742C26.0285 17.4294 26.4005 17.6111 26.764 17.6193C27.1275 17.6275 27.4543 17.4761 27.7445 17.1651ZM31.8409 14.6616L27.2319 8.08887L30.2262 4.87995L31.0284 6.01963L29.1522 8.03023L30.1672 9.47386L31.9158 7.59998L32.7104 8.7477L30.9618 10.6216L32.149 12.3161L34.0251 10.3055L34.8353 11.4527L31.8409 14.6616Z" fill="white"/>
<defs>
<linearGradient id="paint0_linear" x1="2.51487" y1="49.5034" x2="40.9053" y2="-6.78223" gradientUnits="userSpaceOnUse">
<stop offset="0.0763311" stop-color="#FA3030"/>
<stop offset="1" stop-color="#FF416E"/>
</linearGradient>
</defs>
</svg>
