<svg width="30" height="30" viewBox="0 0 30 30" fill="none" xmlns="http://www.w3.org/2000/svg">
<path d="M28.9285 7.50002H23.5714V1.07145C23.5714 0.479694 23.0917 0 22.5 0H1.07145C0.479694 0 0 0.479694 0 1.07145V25.7143C0 28.0812 1.91878 30 4.28573 30H25.7143C28.0812 30 30 28.0812 30 25.7143V8.5714C30 7.97971 29.5203 7.50002 28.9285 7.50002ZM8.5714 5.35712H15C15.5917 5.35712 16.0714 5.83681 16.0714 6.42857C16.0714 7.02032 15.5917 7.50002 15 7.50002H8.5714C7.97965 7.50002 7.49995 7.02032 7.49995 6.42857C7.49995 5.83681 7.97971 5.35712 8.5714 5.35712ZM18.2143 25.7143H5.35712C4.76536 25.7143 4.28567 25.2346 4.28567 24.6428C4.28567 24.0511 4.76536 23.5714 5.35712 23.5714H18.2143C18.806 23.5714 19.2857 24.0511 19.2857 24.6428C19.2857 25.2346 18.806 25.7143 18.2143 25.7143ZM18.2143 21.4285H5.35712C4.76536 21.4285 4.28567 20.9488 4.28567 20.3571C4.28567 19.7653 4.76536 19.2856 5.35712 19.2856H18.2143C18.806 19.2856 19.2857 19.7653 19.2857 20.3571C19.2857 20.9488 18.806 21.4285 18.2143 21.4285ZM18.2143 17.1429H5.35712C4.76536 17.1429 4.28567 16.6632 4.28567 16.0714C4.28567 15.4797 4.76536 15 5.35712 15H18.2143C18.806 15 19.2857 15.4797 19.2857 16.0714C19.2857 16.6632 18.806 17.1429 18.2143 17.1429ZM18.2143 12.8571H5.35712C4.76536 12.8571 4.28567 12.3774 4.28567 11.7857C4.28567 11.1939 4.76536 10.7142 5.35712 10.7142H18.2143C18.806 10.7142 19.2857 11.1939 19.2857 11.7857C19.2857 12.3774 18.806 12.8571 18.2143 12.8571ZM27.8571 25.7143C27.8571 26.8977 26.8977 27.8571 25.7143 27.8571C24.5308 27.8571 23.5714 26.8977 23.5714 25.7143V9.64285H27.8572V25.7143H27.8571Z" fill="url(#paint0_linear)"/>
<defs>
<linearGradient id="paint0_linear" x1="6.70818e-09" y1="23.75" x2="32.9467" y2="23.7994" gradientUnits="userSpaceOnUse">
<stop stop-color="#00B191"/>
<stop offset="1" stop-color="#00CABE"/>
</linearGradient>
</defs>
</svg>
