<svg width="46" height="47" viewBox="0 0 46 47" fill="none" xmlns="http://www.w3.org/2000/svg">
<g filter="url(#filter0_d_510_24534)">
<ellipse cx="25.0001" cy="19.5136" rx="16.0001" ry="15.5429" fill="#F77C00"/>
<rect x="9" y="3.9707" width="32" height="31.0857" rx="4" fill="#F77C00"/>
<path d="M24.9583 19.9566C27.7778 19.9566 30.0712 17.7231 30.0712 14.9762C30.0712 12.2296 27.7778 9.99609 24.9583 9.99609C22.1386 9.99609 19.8453 12.2296 19.8453 14.9762C19.8453 17.7231 22.1386 19.9566 24.9583 19.9566ZM24.9583 12.486C26.3681 12.486 27.5147 13.6029 27.5147 14.9762C27.5147 16.3495 26.3681 17.4665 24.9583 17.4665C23.5484 17.4665 22.4017 16.3495 22.4017 14.9762C22.4017 13.6029 23.5484 12.486 24.9583 12.486Z" fill="white"/>
<path d="M31.7381 19.8183C31.2383 19.3314 30.4302 19.3314 29.9306 19.8183C27.1901 22.4877 22.729 22.4877 19.9872 19.8183C19.4876 19.3314 18.6796 19.3314 18.1798 19.8183C17.68 20.305 17.68 21.0921 18.1798 21.5802C19.7699 23.1289 21.7855 24.0118 23.864 24.2419L20.2198 27.7917C19.7202 28.2785 19.7202 29.0653 20.2198 29.5522C20.7197 30.0391 21.5274 30.0391 22.0273 29.5522L24.9583 26.6973L27.8894 29.5521C28.1387 29.7949 28.4657 29.9172 28.793 29.9172C29.1203 29.9172 29.4473 29.7949 29.6966 29.5521C30.1964 29.0653 30.1964 28.2785 29.6966 27.7916L26.0524 24.2418C28.1308 24.0118 30.1466 23.1289 31.7367 21.5801C32.2365 21.0931 32.2365 20.305 31.7381 19.8183Z" fill="white"/>
</g>
<defs>
<filter id="filter0_d_510_24534" x="-1" y="0" width="48" height="47.0293" filterUnits="userSpaceOnUse" color-interpolation-filters="sRGB">
<feFlood flood-opacity="0" result="BackgroundImageFix"/>
<feColorMatrix in="SourceAlpha" type="matrix" values="0 0 0 0 0 0 0 0 0 0 0 0 0 0 0 0 0 0 127 0" result="hardAlpha"/>
<feOffset dx="-2" dy="4"/>
<feGaussianBlur stdDeviation="3.5"/>
<feColorMatrix type="matrix" values="0 0 0 0 0.968627 0 0 0 0 0.486275 0 0 0 0 0 0 0 0 0.3 0"/>
<feBlend mode="normal" in2="BackgroundImageFix" result="effect1_dropShadow_510_24534"/>
<feBlend mode="normal" in="SourceGraphic" in2="effect1_dropShadow_510_24534" result="shape"/>
</filter>
</defs>
</svg>
