<svg width="26" height="26" viewBox="0 0 26 26" fill="none" xmlns="http://www.w3.org/2000/svg">
<path d="M18.416 13.5C18.6922 13.5 18.916 13.2761 18.916 13C18.916 12.7239 18.6922 12.5 18.416 12.5V13.5ZM7.22913 12.6464C7.03387 12.8417 7.03387 13.1583 7.22913 13.3536L10.4111 16.5355C10.6064 16.7308 10.923 16.7308 11.1182 16.5355C11.3135 16.3403 11.3135 16.0237 11.1182 15.8284L8.28979 13L11.1182 10.1716C11.3135 9.97631 11.3135 9.65973 11.1182 9.46447C10.923 9.2692 10.6064 9.2692 10.4111 9.46447L7.22913 12.6464ZM18.416 12.5L7.58268 12.5V13.5L18.416 13.5V12.5Z" fill="#D2D2D2"/>
<rect x="-0.5" y="0.5" width="25" height="25" rx="1.5" transform="matrix(-1 0 0 1 25 0)" stroke="#D2D2D2"/>
</svg>
