<svg width="26" height="26" viewBox="0 0 26 26" fill="none" xmlns="http://www.w3.org/2000/svg">
<path d="M7.58398 12.5C7.30784 12.5 7.08398 12.7239 7.08398 13C7.08398 13.2761 7.30784 13.5 7.58398 13.5L7.58398 12.5ZM18.7709 13.3536C18.9661 13.1583 18.9661 12.8417 18.7709 12.6464L15.5889 9.46447C15.3936 9.2692 15.077 9.2692 14.8818 9.46447C14.6865 9.65973 14.6865 9.97631 14.8818 10.1716L17.7102 13L14.8818 15.8284C14.6865 16.0237 14.6865 16.3403 14.8818 16.5355C15.077 16.7308 15.3936 16.7308 15.5889 16.5355L18.7709 13.3536ZM7.58398 13.5L18.4173 13.5L18.4173 12.5L7.58398 12.5L7.58398 13.5Z" fill="#D2D2D2"/>
<rect x="0.5" y="0.5" width="25" height="25" rx="1.5" stroke="#D2D2D2"/>
</svg>
