<svg width="18" height="18" viewBox="0 0 18 18" fill="none" xmlns="http://www.w3.org/2000/svg">
<g clip-path="url(#clip0)">
<path d="M8.14126 16.5567C8.4102 16.5567 8.62822 16.3387 8.62822 16.0697C8.62822 15.8008 8.4102 15.5828 8.14126 15.5828C7.87232 15.5828 7.6543 15.8008 7.6543 16.0697C7.6543 16.3387 7.87232 16.5567 8.14126 16.5567Z" fill="white"/>
<path d="M5.47389 3.95736L3.15725 2.30591L3.04492 3.02337L4.83272 4.29758L5.47389 3.95736Z" fill="white"/>
<path d="M6.55078 3.92616L10.2462 6.56031L13.9412 9.19478C15.617 6.61712 15.4213 3.47232 13.4501 2.06662C11.4788 0.660917 8.43955 1.50141 6.55078 3.92616Z" fill="white"/>
<path d="M5.36132 12.8512L5.35839 12.8551L3.76148 15.0952C3.6574 15.2412 3.69141 15.444 3.83745 15.548C3.98348 15.6521 4.18624 15.6181 4.29032 15.4721L9.37843 8.33516L8.84959 7.95825L5.36132 12.8512Z" fill="white"/>
<path d="M11.0638 0.750247C9.94766 0.278069 8.75156 0.0234248 7.53985 0H7.49278C5.73289 0 4.28921 0.5889 3.38281 1.66833L6.02637 3.55288C7.3772 1.80988 9.27571 0.813227 11.0638 0.750247Z" fill="white"/>
<path d="M14.0826 1.73549L14.6542 0.933301C14.7042 0.865126 14.724 0.779487 14.7091 0.696312C14.6975 0.609508 14.6505 0.531374 14.5793 0.480426C14.509 0.430766 14.4219 0.411032 14.3371 0.425561C14.2524 0.438859 14.1766 0.485653 14.1267 0.555418L13.5547 1.35858C13.6446 1.41929 13.7365 1.47448 13.8254 1.53778C13.9144 1.60109 13.9965 1.67024 14.0826 1.73549Z" fill="white"/>
<path d="M14.1484 10.9383L15.9362 12.2129L16.5774 11.8726L14.2611 10.2212L14.1484 10.9383Z" fill="white"/>
<path d="M17.3292 6.97992C16.9119 5.84228 16.2813 4.79475 15.4712 3.89355C15.9942 5.60442 15.6712 7.72433 14.4648 9.56894L17.1084 11.4535C17.8388 10.2332 17.9197 8.65864 17.3292 6.97992Z" fill="white"/>
<path d="M12.7629 9.95124L13.4044 9.61102L9.86707 7.0892L6.32945 4.56738L6.2168 5.28452L8.96034 7.24048L8.96132 7.24081L9.69858 7.76673L12.7629 9.95124Z" fill="white"/>
<path d="M8.64449 12.6611C8.11403 12.6611 7.5761 12.6865 7.04174 12.7309L4.81891 15.8494C4.50667 16.2875 3.8984 16.3896 3.46029 16.0773C3.02218 15.7651 2.92015 15.1568 3.23239 14.7187L4.32254 13.1893C2.38702 13.7146 1.17773 14.5561 1.17773 15.4206C1.17773 16.7516 4.17807 18.18 8.64449 18.18C13.1109 18.18 16.1112 16.7516 16.1112 15.4206C16.1112 14.0896 13.1109 12.6611 8.64449 12.6611ZM8.1413 17.2061C7.51377 17.2061 7.00505 16.6974 7.00505 16.0699C7.00505 15.4423 7.51377 14.9336 8.1413 14.9336C8.76883 14.9336 9.27754 15.4423 9.27754 16.0699C9.27754 16.6974 8.76883 17.2061 8.1413 17.2061ZM11.2254 15.5829C11.0461 15.5829 10.9008 15.4376 10.9008 15.2583C10.9008 15.079 11.0461 14.9336 11.2254 14.9336C11.4047 14.9336 11.55 15.079 11.55 15.2583C11.55 15.4376 11.4047 15.5829 11.2254 15.5829ZM11.8747 14.609C11.6954 14.609 11.55 14.4636 11.55 14.2843C11.55 14.105 11.6954 13.9597 11.8747 13.9597C12.054 13.9597 12.1993 14.105 12.1993 14.2843C12.1993 14.4636 12.054 14.609 11.8747 14.609ZM12.8486 15.2583C12.6693 15.2583 12.524 15.1129 12.524 14.9336C12.524 14.7543 12.6693 14.609 12.8486 14.609C13.0279 14.609 13.1732 14.7543 13.1732 14.9336C13.1732 15.1129 13.0279 15.2583 12.8486 15.2583Z" fill="white"/>
</g>
<defs>
<clipPath id="clip0">
<rect width="18" height="18" fill="white"/>
</clipPath>
</defs>
</svg>
