<svg width="30" height="30" viewBox="0 0 30 30" fill="none" xmlns="http://www.w3.org/2000/svg">
<g clip-path="url(#clip0_2023_52634)">
<path fill-rule="evenodd" clip-rule="evenodd" d="M16.1784 3.05225C15.4086 1.71891 13.4841 1.71891 12.7143 3.05225L0.214293 24.7028C-0.555508 26.0362 0.406741 27.7028 1.94634 27.7028H26.9463C28.4859 27.7028 29.4481 26.0362 28.6783 24.7028L16.1784 3.05225ZM14.4461 6.03797L25.2265 24.7101L3.6658 24.7101L14.4461 6.03797ZM13.5801 5.53797C13.965 4.8713 14.9273 4.8713 15.3122 5.53797L26.0925 24.2101C26.4774 24.8767 25.9963 25.7101 25.2265 25.7101H3.6658C2.896 25.7101 2.41488 24.8767 2.79978 24.2101L13.5801 5.53797Z" fill="url(#paint0_linear_2023_52634)"/>
<path d="M15.6164 17.9855C15.5864 18.5708 15.1031 19.0299 14.5171 19.0299C13.9312 19.0299 13.4479 18.5708 13.4179 17.9855L13.1102 11.9809C13.0689 11.1756 13.7108 10.5 14.5171 10.5C15.3235 10.5 15.9654 11.1756 15.9241 11.9809L15.6164 17.9855ZM13 21.5158C13 21.0268 13.1286 20.6572 13.3857 20.407C13.6429 20.1567 14.0171 20.0315 14.5086 20.0315C14.9829 20.0315 15.3486 20.1596 15.6057 20.4157C15.8686 20.6718 16 21.0385 16 21.5158C16 21.9756 15.8686 22.3394 15.6057 22.6071C15.3429 22.869 14.9771 23 14.5086 23C14.0286 23 13.6571 22.8719 13.3943 22.6158C13.1314 22.3539 13 21.9872 13 21.5158Z" fill="white"/>
</g>
<defs>
<linearGradient id="paint0_linear_2023_52634" x1="-0.0566406" y1="22.359" x2="31.7983" y2="22.413" gradientUnits="userSpaceOnUse">
<stop stop-color="#00B191"/>
<stop offset="1" stop-color="#00CABE"/>
</linearGradient>
<clipPath id="clip0_2023_52634">
<rect width="30" height="30" fill="white"/>
</clipPath>
</defs>
</svg>
