<svg width="18" height="18" viewBox="0 0 18 18" fill="none" xmlns="http://www.w3.org/2000/svg">
<circle cx="9" cy="9" r="6" fill="white"/>
<mask id="path-2-outside-1" maskUnits="userSpaceOnUse" x="-1" y="0" width="19" height="18" fill="black">
<rect fill="white" x="-1" width="19" height="18"/>
<path d="M15.6123 9.20724C15.5479 9.07553 15.5479 8.92447 15.6123 8.79278L16.209 7.57201C16.5413 6.8923 16.278 6.08216 15.6097 5.72757L14.4094 5.0907C14.2799 5.02201 14.1912 4.89976 14.1658 4.75542L13.9311 3.41703C13.8004 2.67185 13.111 2.17111 12.3621 2.27708L11.0167 2.46739C10.8715 2.48789 10.7279 2.4412 10.6225 2.33929L9.64596 1.39455C9.10219 0.868498 8.25032 0.868466 7.70658 1.39455L6.72997 2.33939C6.62459 2.44132 6.481 2.48792 6.33581 2.46748L4.99042 2.27717C4.24121 2.17114 3.55216 2.67195 3.42144 3.41712L3.18669 4.75545C3.16135 4.89983 3.07257 5.02204 2.9431 5.09076L1.7428 5.72763C1.0745 6.08219 0.811252 6.8924 1.1435 7.57211L1.74021 8.79284C1.80458 8.92456 1.80458 9.07562 1.74021 9.20731L1.14347 10.428C0.811221 11.1078 1.07447 11.9179 1.74277 12.2725L2.94307 12.9094C3.07257 12.978 3.16135 13.1003 3.18669 13.2446L3.42144 14.583C3.54044 15.2614 4.12212 15.7371 4.79064 15.7371C4.85649 15.7371 4.9233 15.7324 4.99045 15.7229L6.33584 15.5326C6.48094 15.512 6.62462 15.5588 6.73 15.6607L7.70658 16.6055C7.97851 16.8685 8.32732 17 8.67626 17C9.0251 17 9.37412 16.8685 9.64593 16.6055L10.6225 15.6607C10.7279 15.5588 10.8715 15.5123 11.0167 15.5326L12.3621 15.7229C13.1114 15.8289 13.8004 15.3282 13.9311 14.583L14.1658 13.2447C14.1912 13.1003 14.28 12.9781 14.4094 12.9094L15.6097 12.2725C16.278 11.9179 16.5413 11.1077 16.209 10.428L15.6123 9.20724ZM6.83062 4.84739C7.76348 4.84739 8.52245 5.60635 8.52245 6.53921C8.52245 7.47208 7.76348 8.23104 6.83062 8.23104C5.89776 8.23104 5.1388 7.47208 5.1388 6.53921C5.1388 5.60635 5.89776 4.84739 6.83062 4.84739ZM5.95738 12.3714C5.86729 12.4615 5.7492 12.5065 5.63113 12.5065C5.51307 12.5065 5.39495 12.4615 5.30489 12.3714C5.1247 12.1912 5.1247 11.899 5.30489 11.7188L11.3951 5.62863C11.5753 5.44844 11.8674 5.44844 12.0476 5.62863C12.2278 5.80882 12.2278 6.10097 12.0476 6.28115L5.95738 12.3714ZM10.5218 13.1527C9.58896 13.1527 8.83 12.3937 8.83 11.4608C8.83 10.528 9.58896 9.76902 10.5218 9.76902C11.4547 9.76902 12.2137 10.528 12.2137 11.4608C12.2137 12.3937 11.4547 13.1527 10.5218 13.1527Z"/>
</mask>
<path d="M15.6123 9.20724C15.5479 9.07553 15.5479 8.92447 15.6123 8.79278L16.209 7.57201C16.5413 6.8923 16.278 6.08216 15.6097 5.72757L14.4094 5.0907C14.2799 5.02201 14.1912 4.89976 14.1658 4.75542L13.9311 3.41703C13.8004 2.67185 13.111 2.17111 12.3621 2.27708L11.0167 2.46739C10.8715 2.48789 10.7279 2.4412 10.6225 2.33929L9.64596 1.39455C9.10219 0.868498 8.25032 0.868466 7.70658 1.39455L6.72997 2.33939C6.62459 2.44132 6.481 2.48792 6.33581 2.46748L4.99042 2.27717C4.24121 2.17114 3.55216 2.67195 3.42144 3.41712L3.18669 4.75545C3.16135 4.89983 3.07257 5.02204 2.9431 5.09076L1.7428 5.72763C1.0745 6.08219 0.811252 6.8924 1.1435 7.57211L1.74021 8.79284C1.80458 8.92456 1.80458 9.07562 1.74021 9.20731L1.14347 10.428C0.811221 11.1078 1.07447 11.9179 1.74277 12.2725L2.94307 12.9094C3.07257 12.978 3.16135 13.1003 3.18669 13.2446L3.42144 14.583C3.54044 15.2614 4.12212 15.7371 4.79064 15.7371C4.85649 15.7371 4.9233 15.7324 4.99045 15.7229L6.33584 15.5326C6.48094 15.512 6.62462 15.5588 6.73 15.6607L7.70658 16.6055C7.97851 16.8685 8.32732 17 8.67626 17C9.0251 17 9.37412 16.8685 9.64593 16.6055L10.6225 15.6607C10.7279 15.5588 10.8715 15.5123 11.0167 15.5326L12.3621 15.7229C13.1114 15.8289 13.8004 15.3282 13.9311 14.583L14.1658 13.2447C14.1912 13.1003 14.28 12.9781 14.4094 12.9094L15.6097 12.2725C16.278 11.9179 16.5413 11.1077 16.209 10.428L15.6123 9.20724ZM6.83062 4.84739C7.76348 4.84739 8.52245 5.60635 8.52245 6.53921C8.52245 7.47208 7.76348 8.23104 6.83062 8.23104C5.89776 8.23104 5.1388 7.47208 5.1388 6.53921C5.1388 5.60635 5.89776 4.84739 6.83062 4.84739ZM5.95738 12.3714C5.86729 12.4615 5.7492 12.5065 5.63113 12.5065C5.51307 12.5065 5.39495 12.4615 5.30489 12.3714C5.1247 12.1912 5.1247 11.899 5.30489 11.7188L11.3951 5.62863C11.5753 5.44844 11.8674 5.44844 12.0476 5.62863C12.2278 5.80882 12.2278 6.10097 12.0476 6.28115L5.95738 12.3714ZM10.5218 13.1527C9.58896 13.1527 8.83 12.3937 8.83 11.4608C8.83 10.528 9.58896 9.76902 10.5218 9.76902C11.4547 9.76902 12.2137 10.528 12.2137 11.4608C12.2137 12.3937 11.4547 13.1527 10.5218 13.1527Z" fill="#E74A5A"/>
<path d="M15.6123 9.20724L14.7139 9.64634L14.7139 9.64641L15.6123 9.20724ZM15.6123 8.79278L16.5107 9.23196L16.5107 9.23195L15.6123 8.79278ZM16.209 7.57201L17.1075 8.01118L17.1075 8.01116L16.209 7.57201ZM15.6097 5.72757L15.141 6.61092L15.141 6.61093L15.6097 5.72757ZM14.4094 5.0907L14.8781 4.20734L14.878 4.20727L14.4094 5.0907ZM14.1658 4.75542L13.1809 4.92818L13.1809 4.92836L14.1658 4.75542ZM13.9311 3.41703L14.916 3.24427L14.916 3.24425L13.9311 3.41703ZM12.3621 2.27708L12.5021 3.26722L12.5022 3.26721L12.3621 2.27708ZM11.0167 2.46739L11.1565 3.45757L11.1568 3.45753L11.0167 2.46739ZM10.6225 2.33929L9.92725 3.05802L9.92726 3.05803L10.6225 2.33929ZM9.64596 1.39455L8.95066 2.11327L8.95067 2.11328L9.64596 1.39455ZM7.70658 1.39455L8.4019 2.11326L8.40192 2.11323L7.70658 1.39455ZM6.72997 2.33939L7.42525 3.05812L7.42528 3.05809L6.72997 2.33939ZM6.33581 2.46748L6.19575 3.45762L6.19642 3.45772L6.33581 2.46748ZM4.99042 2.27717L4.8503 3.2673L4.85036 3.26731L4.99042 2.27717ZM3.42144 3.41712L2.43648 3.24435L2.43648 3.24436L3.42144 3.41712ZM3.18669 4.75545L4.17163 4.92835L4.17166 4.92822L3.18669 4.75545ZM2.9431 5.09076L3.4118 5.97412L3.41193 5.97405L2.9431 5.09076ZM1.7428 5.72763L2.21147 6.61101L2.21151 6.61099L1.7428 5.72763ZM1.1435 7.57211L0.245084 8.01126L0.245087 8.01126L1.1435 7.57211ZM1.74021 8.79284L2.63865 8.35375L2.63862 8.35369L1.74021 8.79284ZM1.74021 9.20731L0.841811 8.76813L0.841808 8.76813L1.74021 9.20731ZM1.14347 10.428L0.245065 9.98887L0.245053 9.98889L1.14347 10.428ZM1.74277 12.2725L2.21147 11.3891L2.21147 11.3891L1.74277 12.2725ZM2.94307 12.9094L2.47437 13.7927L2.4745 13.7928L2.94307 12.9094ZM3.18669 13.2446L4.17166 13.0719L4.17163 13.0717L3.18669 13.2446ZM3.42144 14.583L2.43648 14.7558L2.43648 14.7558L3.42144 14.583ZM4.79064 15.7371V14.7371H4.79055L4.79064 15.7371ZM4.99045 15.7229L4.8504 14.7328L4.85039 14.7328L4.99045 15.7229ZM6.33584 15.5326L6.4759 16.5228L6.47637 16.5227L6.33584 15.5326ZM6.73 15.6607L7.42529 14.942L7.42517 14.9419L6.73 15.6607ZM7.70658 16.6055L7.01129 17.3242L7.0113 17.3242L7.70658 16.6055ZM8.67626 17L8.67635 18L8.67626 17ZM9.64593 16.6055L8.95065 15.8867L8.95057 15.8868L9.64593 16.6055ZM10.6225 15.6607L9.92737 14.9419L9.92726 14.942L10.6225 15.6607ZM11.0167 15.5326L11.1568 14.5425L11.1557 14.5423L11.0167 15.5326ZM12.3621 15.7229L12.5022 14.7328L12.5021 14.7328L12.3621 15.7229ZM13.9311 14.583L12.9461 14.4102L12.9461 14.4102L13.9311 14.583ZM14.1658 13.2447L13.1809 13.0718L13.1809 13.0719L14.1658 13.2447ZM14.4094 12.9094L13.9407 12.026L13.9406 12.0261L14.4094 12.9094ZM15.6097 12.2725L15.1411 11.3891L15.141 11.3891L15.6097 12.2725ZM16.209 10.428L17.1075 9.98886L17.1075 9.98885L16.209 10.428ZM5.95738 12.3714L5.25028 11.6643L5.25027 11.6643L5.95738 12.3714ZM5.30489 12.3714L6.01224 11.6645L6.01199 11.6643L5.30489 12.3714ZM5.30489 11.7188L4.59778 11.0117L5.30489 11.7188ZM11.3951 5.62863L12.1022 6.33574L12.1023 6.33568L11.3951 5.62863ZM12.0476 6.28115L12.7547 6.98826L12.7547 6.98826L12.0476 6.28115ZM16.5107 8.76815C16.5818 8.91347 16.5818 9.0865 16.5107 9.23196L14.7139 8.3536C14.514 8.76244 14.5141 9.23759 14.7139 9.64634L16.5107 8.76815ZM16.5107 9.23195L17.1075 8.01118L15.3106 7.13285L14.7139 8.35362L16.5107 9.23195ZM17.1075 8.01116C17.6766 6.84687 17.2232 5.4516 16.0784 4.84421L15.141 6.61093C15.3329 6.71271 15.406 6.93774 15.3106 7.13286L17.1075 8.01116ZM16.0784 4.84421L14.8781 4.20734L13.9407 5.97406L15.141 6.61092L16.0784 4.84421ZM14.878 4.20727C15.0212 4.28322 15.1228 4.42328 15.1508 4.58249L13.1809 4.92836C13.2595 5.37625 13.5387 5.7608 13.9409 5.97412L14.878 4.20727ZM15.1508 4.58266L14.916 3.24427L12.9461 3.58979L13.1809 4.92818L15.1508 4.58266ZM14.916 3.24425C14.6921 1.9678 13.5051 1.1054 12.222 1.28694L12.5022 3.26721C12.717 3.23681 12.9086 3.3759 12.9461 3.58981L14.916 3.24425ZM12.222 1.28693L10.8766 1.47724L11.1568 3.45753L12.5021 3.26722L12.222 1.28693ZM10.8769 1.4772C11.037 1.45461 11.2015 1.50804 11.3178 1.62056L9.92726 3.05803C10.2543 3.37436 10.706 3.52116 11.1565 3.45757L10.8769 1.4772ZM11.3178 1.62057L10.3413 0.675827L8.95067 2.11328L9.92725 3.05802L11.3178 1.62057ZM10.3413 0.675835C9.40985 -0.225226 7.9427 -0.225344 7.01124 0.675875L8.40192 2.11323C8.55794 1.96228 8.79452 1.96222 8.95066 2.11327L10.3413 0.675835ZM7.01126 0.67585L6.03465 1.62068L7.42528 3.05809L8.4019 2.11326L7.01126 0.67585ZM6.03468 1.62065C6.15124 1.50789 6.31577 1.4548 6.47521 1.47724L6.19642 3.45772C6.64623 3.52103 7.09794 3.37475 7.42525 3.05812L6.03468 1.62065ZM6.47587 1.47734L5.13048 1.28703L4.85036 3.26731L6.19575 3.45762L6.47587 1.47734ZM5.13055 1.28704C3.84706 1.10539 2.66037 1.96804 2.43648 3.24435L4.4064 3.5899C4.44395 3.37585 4.63536 3.23688 4.8503 3.2673L5.13055 1.28704ZM2.43648 3.24436L2.20173 4.58269L4.17166 4.92822L4.4064 3.58989L2.43648 3.24436ZM2.20175 4.58256C2.22971 4.42329 2.33133 4.28335 2.47428 4.20747L3.41193 5.97405C3.81381 5.76074 4.09299 5.37637 4.17163 4.92835L2.20175 4.58256ZM2.4744 4.2074L1.2741 4.84427L2.21151 6.61099L3.4118 5.97412L2.4744 4.2074ZM1.27414 4.84425C0.129304 5.45163 -0.324013 6.84699 0.245084 8.01126L2.04191 7.13296C1.94652 6.9378 2.0197 6.71275 2.21147 6.61101L1.27414 4.84425ZM0.245087 8.01126L0.841799 9.232L2.63862 8.35369L2.04191 7.13295L0.245087 8.01126ZM0.84177 9.23194C0.770748 9.08662 0.770702 8.91359 0.841811 8.76813L2.63861 9.64649C2.83847 9.23765 2.83842 8.7625 2.63865 8.35375L0.84177 9.23194ZM0.841808 8.76813L0.245065 9.98887L2.04187 10.8672L2.63861 9.64648L0.841808 8.76813ZM0.245053 9.98889C-0.324062 11.1532 0.129309 12.5485 1.27408 13.1559L2.21147 11.3891C2.01963 11.2873 1.9465 11.0623 2.04188 10.8672L0.245053 9.98889ZM1.27407 13.1558L2.47437 13.7927L3.41177 12.026L2.21147 11.3891L1.27407 13.1558ZM2.4745 13.7928C2.33131 13.7168 2.22971 13.5768 2.20176 13.4176L4.17163 13.0717C4.09299 12.6238 3.81383 12.2393 3.41164 12.0259L2.4745 13.7928ZM2.20173 13.4174L2.43648 14.7558L4.40641 14.4103L4.17166 13.0719L2.20173 13.4174ZM2.43648 14.7558C2.64016 15.9169 3.64102 16.7372 4.79074 16.7371L4.79055 14.7371C4.60322 14.7371 4.44072 14.6059 4.4064 14.4102L2.43648 14.7558ZM4.79064 16.7371C4.90327 16.7371 5.01689 16.7292 5.13052 16.7131L4.85039 14.7328C4.82971 14.7357 4.8097 14.7371 4.79064 14.7371V16.7371ZM5.13051 16.7131L6.4759 16.5228L6.19579 14.5425L4.8504 14.7328L5.13051 16.7131ZM6.47637 16.5227C6.3152 16.5456 6.15069 16.4916 6.03482 16.3796L7.42517 14.9419C7.09855 14.626 6.64667 14.4785 6.19532 14.5426L6.47637 16.5227ZM6.0347 16.3795L7.01129 17.3242L8.40187 15.8867L7.42529 14.942L6.0347 16.3795ZM7.0113 17.3242C7.47463 17.7724 8.07478 18.0001 8.67635 18L8.67617 16C8.57987 16 8.4824 15.9646 8.40186 15.8867L7.0113 17.3242ZM8.67635 18C9.2775 17.9999 9.87792 17.7725 10.3413 17.3241L8.95057 15.8868C8.87033 15.9645 8.77269 16 8.67617 16L8.67635 18ZM10.3412 17.3242L11.3178 16.3795L9.92726 14.942L8.95065 15.8867L10.3412 17.3242ZM11.3177 16.3796C11.2011 16.4924 11.0367 16.5453 10.8777 16.5229L11.1557 14.5423C10.7064 14.4793 10.2548 14.6253 9.92737 14.9419L11.3177 16.3796ZM10.8766 16.5228L12.222 16.7131L12.5021 14.7328L11.1568 14.5425L10.8766 16.5228ZM12.222 16.7131C13.5055 16.8947 14.6921 16.0321 14.916 14.7558L12.9461 14.4102C12.9086 14.6243 12.7172 14.7632 12.5022 14.7328L12.222 16.7131ZM14.916 14.7558L15.1508 13.4175L13.1809 13.0719L12.9461 14.4102L14.916 14.7558ZM15.1508 13.4176C15.1228 13.5768 15.0212 13.7168 14.8783 13.7926L13.9406 12.0261C13.5387 12.2394 13.2596 12.6238 13.1809 13.0718L15.1508 13.4176ZM14.8781 13.7927L16.0784 13.1558L15.141 11.3891L13.9407 12.026L14.8781 13.7927ZM16.0784 13.1559C17.2232 12.5485 17.6766 11.1531 17.1075 9.98886L15.3106 10.8672C15.406 11.0623 15.3328 11.2874 15.1411 11.3891L16.0784 13.1559ZM17.1075 9.98885L16.5107 8.76808L14.7139 9.64641L15.3106 10.8672L17.1075 9.98885ZM6.83062 5.84739C7.2112 5.84739 7.52245 6.15863 7.52245 6.53921H9.52245C9.52245 5.05406 8.31577 3.84739 6.83062 3.84739V5.84739ZM7.52245 6.53921C7.52245 6.91979 7.2112 7.23104 6.83062 7.23104V9.23104C8.31577 9.23104 9.52245 8.02436 9.52245 6.53921H7.52245ZM6.83062 7.23104C6.45004 7.23104 6.1388 6.91979 6.1388 6.53921H4.1388C4.1388 8.02436 5.34547 9.23104 6.83062 9.23104V7.23104ZM6.1388 6.53921C6.1388 6.15863 6.45004 5.84739 6.83062 5.84739V3.84739C5.34547 3.84739 4.1388 5.05407 4.1388 6.53921H6.1388ZM5.25027 11.6643C5.35519 11.5593 5.49474 11.5065 5.63113 11.5065V13.5065C6.00366 13.5065 6.37939 13.3636 6.66449 13.0785L5.25027 11.6643ZM5.63113 11.5065C5.76727 11.5065 5.90702 11.5592 6.01224 11.6645L4.59754 13.0782C4.88288 13.3638 5.25887 13.5065 5.63113 13.5065V11.5065ZM6.01199 11.6643C6.22233 11.8746 6.22233 12.2156 6.01199 12.4259L4.59778 11.0117C4.02707 11.5824 4.02707 12.5078 4.59778 13.0785L6.01199 11.6643ZM6.01199 12.4259L12.1022 6.33574L10.688 4.92152L4.59778 11.0117L6.01199 12.4259ZM12.1023 6.33568C11.8918 6.54613 11.5508 6.54604 11.3405 6.33574L12.7547 4.92152C12.1841 4.35085 11.2587 4.35076 10.6879 4.92158L12.1023 6.33568ZM11.3405 6.33574C11.1302 6.1254 11.1302 5.78439 11.3405 5.57405L12.7547 6.98826C13.3254 6.41755 13.3254 5.49223 12.7547 4.92152L11.3405 6.33574ZM11.3405 5.57405L5.25028 11.6643L6.66448 13.0785L12.7547 6.98826L11.3405 5.57405ZM10.5218 12.1527C10.1412 12.1527 9.83 11.8414 9.83 11.4608H7.83C7.83 12.946 9.03668 14.1527 10.5218 14.1527V12.1527ZM9.83 11.4608C9.83 11.0803 10.1412 10.769 10.5218 10.769V8.76902C9.03668 8.76902 7.83 9.97569 7.83 11.4608H9.83ZM10.5218 10.769C10.9024 10.769 11.2137 11.0803 11.2137 11.4608H13.2137C13.2137 9.97569 12.007 8.76902 10.5218 8.76902V10.769ZM11.2137 11.4608C11.2137 11.8414 10.9024 12.1527 10.5218 12.1527V14.1527C12.007 14.1527 13.2137 12.946 13.2137 11.4608H11.2137Z" fill="white" mask="url(#path-2-outside-1)"/>
<path d="M10.5 11C10.2243 11 10 11.2243 10 11.5C10 11.7757 10.2243 12 10.5 12C10.7757 12 11 11.7757 11 11.5C11 11.2243 10.7757 11 10.5 11Z" fill="#E74A5A"/>
<path d="M6.83593 6C6.56023 6 6.33594 6.22429 6.33594 6.49999C6.33594 6.77569 6.56023 7 6.83593 7C7.11162 7 7.33594 6.77571 7.33594 6.49999C7.33592 6.22431 7.11162 6 6.83593 6Z" fill="#E74A5A"/>
</svg>
