<svg width="30" height="30" viewBox="0 0 30 30" fill="none" xmlns="http://www.w3.org/2000/svg">
<path d="M25.7119 7.34282C25.1498 6.6339 23.9836 5.91048 23.2492 5.42738C24.6149 7.37713 25.7144 10.2887 25.4382 12.6787C25.1394 15.2649 24.0243 17.1237 21.989 18.7373C20.7804 19.6956 19.3761 20.3472 17.8811 20.6503L17.9463 20.7325C18.6667 20.8544 19.4038 20.8826 20.14 20.8124C21.7419 20.6598 23.2577 20.0486 24.5238 19.0448C28.1281 16.1869 28.5697 10.9472 25.7119 7.34282Z" fill="#39424A"/>
<path d="M10.855 20.9611L8.00781 23.8083L9.29164 25.0921L13.51 20.8738C13.2466 20.8187 12.9852 20.7531 12.7264 20.6763L10.855 20.9611Z" fill="#39424A"/>
<path d="M15.9943 27.4898C17.351 27.6465 18.5779 26.6738 18.7347 25.3171C18.8914 23.9604 17.9187 22.7335 16.562 22.5768C15.2053 22.42 13.9784 23.3928 13.8216 24.7495C13.6649 26.1062 14.6376 27.333 15.9943 27.4898Z" fill="#39424A"/>
<path d="M15.0606 19.6725C15.7902 19.711 16.5257 19.6543 17.249 19.5001C18.8227 19.1647 20.2584 18.3835 21.4009 17.241C24.6535 13.9884 24.6535 8.69595 21.4009 5.44336C19.8253 3.86776 17.7303 3 15.5021 3C13.2738 3 11.1789 3.86776 9.60324 5.44336C8.46078 6.58587 7.67959 8.02155 7.34419 9.59527C7.19003 10.3185 7.13332 11.054 7.1718 11.7837L15.0606 19.6725Z" fill="#39424A"/>
<path d="M7.56497 14.2161L7.19432 16.6519L2.75391 21.0922L5.75296 24.0913L10.1933 19.6509L12.6292 19.2803L7.56497 14.2161Z" fill="#39424A"/>
</svg>
