<svg width="18" height="18" viewBox="0 0 18 18" fill="none" xmlns="http://www.w3.org/2000/svg">
<path d="M17.275 6.23978C17.1983 6.23978 17.1195 6.25071 17.041 6.27243L16.2154 6.49983L15.3426 4.37409C15.0811 3.73699 14.308 3.21861 13.6192 3.21861H13.0385V1.45628C13.0385 1.1465 12.7866 0.894531 12.4768 0.894531H6.52328C6.2135 0.894531 5.96153 1.1465 5.96153 1.45628V3.21861H5.36885C4.68014 3.21861 3.90695 3.73691 3.64547 4.37401L2.77393 6.49683L1.9591 6.27236C1.88053 6.25071 1.80173 6.2397 1.72511 6.2397C1.30499 6.23978 1 6.5608 1 7.00301V7.45481C1 7.97109 1.42004 8.39106 1.93625 8.39106H1.99632L1.87169 8.69455C1.62871 9.28649 1.43098 10.2887 1.43098 10.9284V15.1694C1.43098 15.6857 1.85094 16.1056 2.36723 16.1056H3.49275C4.00904 16.1056 4.429 15.6857 4.429 15.1694V14.1271H14.5592V15.1694C14.5592 15.6857 14.9792 16.1056 15.4954 16.1056H16.6207C17.137 16.1056 17.557 15.6857 17.557 15.1694V10.9284C17.557 10.2887 17.3592 9.28649 17.1163 8.69455L16.9916 8.39106H17.0637C17.58 8.39106 18 7.97109 18 7.45481V7.00301C18 6.5608 17.6951 6.23978 17.275 6.23978ZM11.7566 1.64368C11.7566 1.63132 11.7667 1.62121 11.779 1.62121H12.2118C12.2242 1.62121 12.2343 1.63132 12.2343 1.64368V3.20138C12.2343 3.20887 12.23 3.21449 12.2244 3.21861H11.7664C11.7608 3.21449 11.7566 3.20887 11.7566 3.20138V1.64368ZM8.65269 1.62121H9.17272C9.18508 1.62121 9.19894 1.63057 9.20351 1.64211L9.82076 3.19374L10.3866 2.4938C10.3943 2.48421 10.3951 2.46788 10.3883 2.45762L9.84525 1.63994C9.83836 1.6296 9.84293 1.62121 9.85529 1.62121H10.3362C10.3486 1.62121 10.364 1.62983 10.3705 1.64031L10.6504 2.09436C10.6568 2.10492 10.6674 2.10492 10.6739 2.09436L10.954 1.64031C10.9604 1.62975 10.9759 1.62121 10.9882 1.62121H11.4694C11.4817 1.62121 11.4862 1.6296 11.4794 1.63994L10.9359 2.45762C10.9291 2.46796 10.9299 2.48421 10.9376 2.4938L11.5137 3.2064C11.5176 3.21112 11.5185 3.21554 11.5171 3.21868H11.0064C10.9997 3.21516 10.9936 3.21044 10.9901 3.20482L10.6739 2.69887C10.6674 2.68839 10.6567 2.68839 10.6501 2.69887L10.3346 3.20482C10.3311 3.21044 10.3251 3.21516 10.3183 3.21868H9.35608C9.34949 3.21479 9.3438 3.20939 9.34162 3.20258L9.23557 2.87781C9.23175 2.86605 9.21849 2.85646 9.20613 2.85646H8.61667C8.60431 2.85646 8.59083 2.86598 8.58678 2.87766L8.47248 3.20273C8.47009 3.20947 8.46439 3.21486 8.45773 3.21868H7.99492C7.99125 3.21486 7.98968 3.20962 7.9923 3.2031L8.62176 1.64218C8.62648 1.63057 8.64033 1.62121 8.65269 1.62121ZM7.13072 3.20138V1.96403C7.13072 1.95167 7.12061 1.94156 7.10825 1.94156H6.58807C6.57571 1.94156 6.5656 1.93145 6.5656 1.91909V1.64361C6.5656 1.63125 6.57571 1.62114 6.58807 1.62114H8.15423C8.16659 1.62114 8.1767 1.63125 8.1767 1.64361V1.91909C8.1767 1.93145 8.16659 1.94156 8.15423 1.94156H7.63106C7.6187 1.94156 7.60859 1.95167 7.60859 1.96403V3.20138C7.60859 3.20887 7.60432 3.21449 7.5987 3.21861H7.14061C7.13499 3.21456 7.13072 3.20887 7.13072 3.20138ZM3.43545 7.86923L4.76156 4.63886C4.91802 4.25777 5.38308 3.94596 5.79503 3.94596H13.1931C13.605 3.94596 14.0701 4.25777 14.2265 4.63886L15.5526 7.86923C15.7091 8.25032 15.5001 8.56213 15.0881 8.56213H3.89998C3.48803 8.56213 3.27899 8.25032 3.43545 7.86923ZM6.43116 12.0293C6.43116 12.2353 6.26263 12.4038 6.05666 12.4038H3.52548C3.31951 12.4038 3.15098 12.2353 3.15098 12.0293V10.8285C3.15098 10.6226 3.31951 10.454 3.52548 10.454H6.05666C6.26263 10.454 6.43116 10.6226 6.43116 10.8285V12.0293ZM15.8128 12.0293C15.8128 12.2353 15.6443 12.4038 15.4383 12.4038H12.9072C12.7012 12.4038 12.5327 12.2353 12.5327 12.0293V10.8285C12.5327 10.6226 12.7012 10.454 12.9072 10.454H15.4383C15.6443 10.454 15.8128 10.6226 15.8128 10.8285V12.0293Z" fill="white"/>
<path d="M9.10181 2.53609C9.11417 2.53609 9.12023 2.5268 9.11537 2.51549L8.92871 2.08474C8.92377 2.07343 8.91553 2.07328 8.91044 2.08451L8.71278 2.51571C8.70768 2.52695 8.71353 2.53609 8.72588 2.53609H9.10181Z" fill="white"/>
</svg>
