<svg width="20" height="20" viewBox="0 0 20 20" fill="none" xmlns="http://www.w3.org/2000/svg">
<g clip-path="url(#clip0_2150_56295)">
<path d="M18.6159 8.45967L10.2821 0.121639C10.2037 0.0433058 10.0979 0 9.98716 0C9.87638 0 9.77055 0.0441649 9.69226 0.122459L1.38335 8.45967C1.26421 8.57881 1.22923 8.7579 1.29338 8.9137C1.35836 9.06947 1.50999 9.1703 1.67826 9.1703H6.26005V19.5835C6.26005 19.8134 6.44666 20 6.67659 20H13.341C13.571 20 13.7576 19.8134 13.7576 19.5835V9.17026H18.3219C18.4901 9.17026 18.6418 9.06861 18.7067 8.91284C18.7717 8.75708 18.7351 8.57881 18.6159 8.45967Z" fill="white"/>
</g>
<defs>
<clipPath id="clip0_2150_56295">
<rect width="20" height="20" fill="white"/>
</clipPath>
</defs>
</svg>
