<svg width="35" height="35" viewBox="0 0 35 35" fill="none" xmlns="http://www.w3.org/2000/svg">
<path d="M14.8457 17.7885H16.5771V19.5199H14.8457V17.7885Z" fill="url(#paint0_linear)"/>
<path d="M4.48049 16.0512H19.1942C19.5023 11.3468 24.1018 8.08482 28.6975 9.43594V8.26596C28.6975 7.78785 28.31 7.40028 27.8318 7.40028H20.042V4.80318C20.042 4.32507 19.6544 3.9375 19.1763 3.9375H12.2478C11.7697 3.9375 11.3822 4.32507 11.3822 4.80318V7.40028H3.59224C3.11413 7.40028 2.72656 7.78785 2.72656 8.26596V14.5588C2.86322 15.4038 3.59755 16.0512 4.48049 16.0512ZM13.1135 5.66886H18.3106V7.40028H13.1135V5.66886Z" fill="url(#paint1_linear)"/>
<path d="M22.8397 22.9473C21.0076 21.8707 19.65 20.0122 19.2794 17.7824H18.3092V20.3856C18.3092 20.8637 17.9217 21.2513 17.4436 21.2513H13.9808C13.5027 21.2513 13.1151 20.8637 13.1151 20.3856V17.7824H4.48049C3.84177 17.7824 3.24294 17.6101 2.72656 17.3106V28.6675C2.72656 29.1456 3.11413 29.5332 3.59224 29.5332H22.8727C22.813 29.0775 22.8517 29.361 22.8397 22.9473Z" fill="url(#paint2_linear)"/>
<path d="M30.6103 12.5282C28.3938 10.3117 24.7874 10.3117 22.5709 12.5282C19.6531 15.4458 20.735 20.4076 24.5706 21.8597V23.8515H28.6105V21.8597C32.4448 20.4081 33.5283 15.4462 30.6103 12.5282ZM26.5906 20.4987C26.5905 20.4987 26.5906 20.4987 26.5906 20.4987C24.4025 20.4987 22.6398 18.7368 22.6398 16.548C22.6398 14.3597 24.4018 12.5972 26.5905 12.5972C28.7787 12.5972 30.5412 14.3592 30.5412 16.548C30.5412 18.736 28.7793 20.4987 26.5906 20.4987Z" fill="url(#paint3_linear)"/>
<path d="M24.5703 29.0429C24.5703 30.1567 25.4765 31.0629 26.5903 31.0629C27.7041 31.0629 28.6102 30.1567 28.6102 29.0429V25.583H24.5703V29.0429Z" fill="url(#paint4_linear)"/>
<defs>
<linearGradient id="paint0_linear" x1="14.8457" y1="19.1592" x2="16.7472" y2="19.1621" gradientUnits="userSpaceOnUse">
<stop stop-color="#00B191"/>
<stop offset="1" stop-color="#00CABE"/>
</linearGradient>
<linearGradient id="paint1_linear" x1="2.72656" y1="13.5275" x2="31.2483" y2="13.6192" gradientUnits="userSpaceOnUse">
<stop stop-color="#00B191"/>
<stop offset="1" stop-color="#00CABE"/>
</linearGradient>
<linearGradient id="paint2_linear" x1="2.72656" y1="26.9868" x2="24.8515" y2="27.0415" gradientUnits="userSpaceOnUse">
<stop stop-color="#00B191"/>
<stop offset="1" stop-color="#00CABE"/>
</linearGradient>
<linearGradient id="paint3_linear" x1="20.9082" y1="21.1461" x2="33.389" y2="21.1625" gradientUnits="userSpaceOnUse">
<stop stop-color="#00B191"/>
<stop offset="1" stop-color="#00CABE"/>
</linearGradient>
<linearGradient id="paint4_linear" x1="24.5703" y1="29.9212" x2="29.0071" y2="29.9261" gradientUnits="userSpaceOnUse">
<stop stop-color="#00B191"/>
<stop offset="1" stop-color="#00CABE"/>
</linearGradient>
</defs>
</svg>
