<svg width="20" height="19" viewBox="0 0 20 19" fill="none" xmlns="http://www.w3.org/2000/svg">
<g opacity="0.3" clip-path="url(#clip0)">
<path d="M9.64918 6.6593C8.1974 6.6593 7.01758 7.77888 7.01758 9.15653C7.01758 10.5342 8.1974 11.6538 9.64918 11.6538C11.101 11.6538 12.2808 10.5342 12.2808 9.15653C12.2808 7.77888 11.1009 6.6593 9.64918 6.6593Z" fill="#6A6A6A"/>
<path d="M9.64925 2.91333C5.26322 2.91333 1.51758 5.5021 0 9.15642C1.51758 12.8107 5.26322 15.3995 9.64925 15.3995C14.0396 15.3995 17.7809 12.8107 19.2985 9.15642C17.7809 5.5021 14.0396 2.91333 9.64925 2.91333ZM9.64925 13.3184C7.22817 13.3184 5.26322 11.4538 5.26322 9.15638C5.26322 6.85892 7.22817 4.99435 9.64925 4.99435C12.0703 4.99435 14.0353 6.85896 14.0353 9.15642C14.0353 11.4539 12.0703 13.3184 9.64925 13.3184Z" fill="#6A6A6A"/>
</g>
<defs>
<clipPath id="clip0">
<rect width="19.2985" height="18.313" fill="white"/>
</clipPath>
</defs>
</svg>
