<svg width="74" height="19" viewBox="0 0 74 19" fill="none" xmlns="http://www.w3.org/2000/svg">
<path d="M41.575 10.2H38.785V12.93H37.84V10.2H35.05V9.315H37.84V6.57H38.785V9.315H41.575V10.2ZM46.0689 4.5V15H44.9889V5.46H42.5139V4.5H46.0689ZM51.3388 8.805C52.8588 8.805 53.9638 9.08 54.6538 9.63C55.3538 10.17 55.7038 10.93 55.7038 11.91C55.7038 12.52 55.5588 13.065 55.2688 13.545C54.9888 14.025 54.5638 14.405 53.9938 14.685C53.4238 14.955 52.7238 15.09 51.8938 15.09C51.1438 15.09 50.4288 14.97 49.7488 14.73C49.0788 14.48 48.5388 14.15 48.1288 13.74L48.6538 12.885C49.0038 13.245 49.4638 13.54 50.0338 13.77C50.6038 13.99 51.2188 14.1 51.8788 14.1C52.7488 14.1 53.4188 13.905 53.8888 13.515C54.3688 13.125 54.6088 12.605 54.6088 11.955C54.6088 11.235 54.3388 10.69 53.7988 10.32C53.2688 9.95 52.3688 9.765 51.0988 9.765H48.8638L49.4038 4.5H55.1488V5.46H50.3488L49.9888 8.805H51.3388ZM59.5199 10.155C58.6999 10.155 58.0349 9.87 57.5249 9.3C57.0249 8.72 56.7749 7.945 56.7749 6.975C56.7749 6.005 57.0249 5.235 57.5249 4.665C58.0349 4.095 58.6999 3.81 59.5199 3.81C60.3399 3.81 60.9999 4.095 61.4999 4.665C62.0099 5.235 62.2649 6.005 62.2649 6.975C62.2649 7.945 62.0099 8.72 61.4999 9.3C60.9999 9.87 60.3399 10.155 59.5199 10.155ZM59.5199 9.465C60.0999 9.465 60.5699 9.245 60.9299 8.805C61.2899 8.365 61.4699 7.755 61.4699 6.975C61.4699 6.195 61.2899 5.59 60.9299 5.16C60.5699 4.72 60.0999 4.5 59.5199 4.5C58.9399 4.5 58.4699 4.72 58.1099 5.16C57.7499 5.59 57.5699 6.195 57.5699 6.975C57.5699 7.755 57.7499 8.365 58.1099 8.805C58.4699 9.245 58.9399 9.465 59.5199 9.465ZM69.0102 15.09C67.9702 15.09 67.0302 14.86 66.1902 14.4C65.3602 13.94 64.7052 13.305 64.2252 12.495C63.7552 11.675 63.5202 10.76 63.5202 9.75C63.5202 8.74 63.7552 7.83 64.2252 7.02C64.7052 6.2 65.3652 5.56 66.2052 5.1C67.0452 4.64 67.9852 4.41 69.0252 4.41C69.8052 4.41 70.5252 4.54 71.1852 4.8C71.8452 5.06 72.4052 5.44 72.8652 5.94L72.1602 6.645C71.3402 5.815 70.3052 5.4 69.0552 5.4C68.2252 5.4 67.4702 5.59 66.7902 5.97C66.1102 6.35 65.5752 6.87 65.1852 7.53C64.8052 8.19 64.6152 8.93 64.6152 9.75C64.6152 10.57 64.8052 11.31 65.1852 11.97C65.5752 12.63 66.1102 13.15 66.7902 13.53C67.4702 13.91 68.2252 14.1 69.0552 14.1C70.3152 14.1 71.3502 13.68 72.1602 12.84L72.8652 13.545C72.4052 14.045 71.8402 14.43 71.1702 14.7C70.5102 14.96 69.7902 15.09 69.0102 15.09Z" fill="#39424A"/>
<path d="M24.6844 16.1827H5.33559C3.92547 16.1827 2.59192 15.6795 1.58062 14.7659C0.561351 13.8452 0 12.6241 0 11.3279C0 10.0316 0.561351 8.81054 1.58062 7.8898C2.37885 7.1687 3.37784 6.70334 4.4568 6.5392C4.45633 6.51729 4.45609 6.49523 4.45609 6.47306C4.45609 2.90382 7.61242 0 11.492 0C12.9308 0 14.3134 0.398471 15.4904 1.15237C16.319 1.68305 17.007 2.36299 17.5184 3.15055C18.3439 2.67947 19.296 2.4274 20.287 2.4274C22.9187 2.4274 25.1067 4.20889 25.5006 6.53003C26.6036 6.68538 27.6257 7.15473 28.4394 7.8898C29.4587 8.81054 30.02 10.0315 30.02 11.3279C30.02 12.6242 29.4587 13.8452 28.4394 14.7659C27.4281 15.6795 26.0945 16.1827 24.6844 16.1827ZM5.33559 8.09133C3.36341 8.09133 1.75898 9.54324 1.75898 11.3279C1.75898 13.1125 3.36341 14.5644 5.33559 14.5644H24.6844C26.6566 14.5644 28.261 13.1125 28.261 11.3279C28.261 9.54324 26.6566 8.09133 24.6844 8.09133H23.8049V7.2822C23.8049 5.49757 22.2268 4.04566 20.287 4.04566C19.3625 4.04566 18.4881 4.37579 17.8247 4.97525L16.878 5.83067L16.3905 4.69524C15.5878 2.82609 13.6651 1.61827 11.492 1.61827C8.58232 1.61827 6.21508 3.79613 6.21508 6.47306C6.21508 6.66423 6.24768 6.86948 6.28215 7.08682L6.4397 8.09133H5.33559Z" fill="#39424A"/>
</svg>
