<svg width="30" height="30" viewBox="0 0 30 30" fill="none" xmlns="http://www.w3.org/2000/svg">
<path fill-rule="evenodd" clip-rule="evenodd" d="M14.7474 3.61959C14.3818 3.67199 14.1067 3.8355 13.1795 4.55147C12.6979 4.92338 11.4317 5.90152 10.3657 6.72513C7.25315 9.12991 5.31649 10.6245 3.69942 11.8696C1.47659 13.5811 1.604 13.4658 1.52054 13.8429C1.35462 14.5927 2.22982 15.1751 2.8537 14.7301C3.03501 14.6008 5.59129 12.6368 6.21229 12.1497C6.40467 11.9988 7.93522 10.8169 9.61346 9.52336C11.2917 8.22979 13.1155 6.82329 13.6663 6.39784C14.2171 5.97239 14.7268 5.59911 14.7989 5.56836C15.0683 5.45352 15.189 5.51016 15.9959 6.13015C16.7692 6.72431 18.5291 8.08222 19.1852 8.59094C19.3958 8.75418 20.438 9.55851 21.5014 10.3783C23.2874 11.7553 24.678 12.8291 26.4208 14.1769C26.7999 14.4701 27.1861 14.75 27.2791 14.799C27.6152 14.976 28.027 14.8867 28.2848 14.5808C28.5339 14.2852 28.5709 13.8626 28.374 13.5605C28.2558 13.379 28.25 13.3744 25.368 11.1508C22.9998 9.32354 19.3886 6.53441 18.0941 5.53275C15.7178 3.69388 15.835 3.77801 15.51 3.67856C15.2496 3.59887 15.0172 3.58091 14.7474 3.61959ZM21.667 4.97513C21.1613 5.08161 20.8288 5.55561 20.8581 6.12812L20.8697 6.35337L21.4475 6.80125C21.7654 7.0476 22.3659 7.51157 22.782 7.83229C23.1982 8.15301 23.8037 8.62095 24.1277 8.8722C24.4517 9.12341 24.7255 9.32899 24.7361 9.32899C24.7468 9.32899 24.7555 8.53613 24.7555 7.56709C24.7555 5.63278 24.7517 5.596 24.524 5.31544C24.4609 5.23781 24.3107 5.12507 24.19 5.06493L23.9707 4.95553L22.8987 4.9485C22.3092 4.94465 21.7549 4.95662 21.667 4.97513ZM14.9286 7.90864C14.8615 7.93827 14.2096 8.42304 13.4799 8.98591C12.7502 9.54879 11.8145 10.2698 11.4006 10.5882C10.9866 10.9066 10.4326 11.3342 10.1694 11.5384C9.90618 11.7426 8.73236 12.6498 7.56084 13.5544C5.85438 14.8722 5.41668 15.2282 5.35952 15.345C5.2913 15.4844 5.28778 15.6958 5.27817 20.2271C5.27208 23.0995 5.28204 24.9584 5.3034 24.9505C5.36944 24.9259 6.89432 23.5016 7.54694 22.8549C8.52088 21.8897 8.87332 21.5527 9.43939 21.0447C9.72223 20.791 10.3237 20.2463 10.776 19.8344C11.8864 18.8233 12.0031 18.7484 12.274 18.8724C12.3551 18.9095 12.4394 18.9336 12.4614 18.9258C12.4833 18.918 12.95 18.4685 13.4984 17.9269L14.4954 16.9421V16.7454C14.4954 16.5695 14.5131 16.5277 14.6624 16.3501C14.8898 16.0796 15.1825 15.6135 15.2875 15.3546C15.4883 14.8592 15.3421 14.3992 14.8075 13.8445C14.5613 13.589 14.4498 13.5069 14.1491 13.3591C13.9501 13.2613 13.6408 13.1387 13.4618 13.0866C13.1219 12.9878 12.4886 12.8666 12.3118 12.8666C12.2186 12.8666 12.1957 12.8345 12.0691 12.5265C11.9922 12.3394 11.9296 12.1739 11.9299 12.1589C11.9309 12.111 12.536 11.9349 12.9198 11.8709C13.3743 11.7951 14.3653 11.8185 14.8017 11.9153C15.6567 12.1051 16.5876 12.5286 17.5025 13.1442C18.3295 13.7005 19.0253 14.3372 19.4511 14.927C19.7691 15.3675 19.7794 15.4011 19.769 15.965C19.7605 16.4276 19.7666 16.4763 19.8554 16.6569C20.0248 17.0016 20.3692 17.1561 20.7349 17.0513L20.9463 16.9907L21.5181 17.5699C22.185 18.2453 22.1636 18.107 21.7083 18.8031C21.189 19.5972 20.7125 19.9954 20.1671 20.0911L19.9622 20.1271L19.4589 19.6616L18.9555 19.1962L18.9518 18.8193C18.9468 18.3273 18.9174 18.1838 18.7961 18.0607C18.6505 17.9128 18.2584 17.8026 17.785 17.7764C17.0343 17.7348 16.5457 17.8646 16.0036 18.2494C15.7265 18.4461 15.6994 18.4531 15.5699 18.361C15.4788 18.2962 15.4787 18.2963 14.5105 19.3037C13.9778 19.8579 13.5412 20.3309 13.5402 20.3551C13.5392 20.3792 13.5642 20.4206 13.5958 20.4473C13.6284 20.4748 13.6532 20.5595 13.6532 20.6439C13.6532 20.7662 13.6142 20.8417 13.4294 21.0764C12.8053 21.8694 11.7119 23.0713 10.6423 24.1404C9.75362 25.0287 8.51927 26.1804 8.11431 26.4992C7.99176 26.5956 7.88407 26.6819 7.875 26.6909C7.86588 26.7 11.2511 26.7027 15.3978 26.697C22.6361 26.6872 22.9454 26.6839 23.1476 26.6143C23.6579 26.4388 24.0536 26.1829 24.3719 25.8225C24.5902 25.5754 24.8704 25.0265 24.9528 24.6847C24.9945 24.5117 25.0043 23.6126 25.0043 19.9808C25.0043 15.6601 25.0016 15.4851 24.9322 15.3432C24.8758 15.228 24.616 15.0072 23.7454 14.3349C23.1323 13.8614 22.4929 13.3668 22.3245 13.2357C22.156 13.1045 21.4755 12.5796 20.8123 12.0692C20.149 11.5588 19.503 11.0603 19.3766 10.9614C17.7429 9.68256 15.5499 8.00898 15.4174 7.9399C15.2244 7.83937 15.103 7.83163 14.9286 7.90864Z" fill="url(#paint0_linear)"/>
<defs>
<linearGradient id="paint0_linear" x1="1.5" y1="21.8875" x2="31.152" y2="21.9394" gradientUnits="userSpaceOnUse">
<stop stop-color="#00B191"/>
<stop offset="1" stop-color="#00CABE"/>
</linearGradient>
</defs>
</svg>
