<svg width="30" height="30" viewBox="0 0 30 30" fill="none" xmlns="http://www.w3.org/2000/svg">
<path d="M24.0623 5.40002H14.3373C13.2119 5.40002 12.2998 6.30491 12.2998 7.42102V12.1724C12.8139 12.4258 13.3693 12.6999 13.8878 12.9555L14.681 11.3813C15.1613 10.4293 16.3321 10.0425 17.2915 10.5181C18.253 10.9953 18.6426 12.1535 18.1613 13.1073L16.7473 15.913C16.7847 16.2844 16.7515 16.6588 16.6459 17.0211H17.5795L15.1172 23.7369C14.9711 24.1352 15.2535 24.6 15.7269 24.6C15.9915 24.6 16.2404 24.438 16.336 24.1764L18.9594 17.0211H19.4139L22.0639 24.1786C22.1603 24.4389 22.4086 24.6 22.6731 24.6C23.1154 24.6 23.4396 24.1618 23.2814 23.7352L20.7955 17.0211H24.0623C25.1875 17.0211 26.0998 16.1162 26.0998 15.0001V7.42102C26.0998 6.30491 25.1875 5.40002 24.0623 5.40002V5.40002ZM22.6727 14.2654H19.7631C19.4051 14.2654 19.1146 13.9773 19.1146 13.6222C19.1146 13.2667 19.4051 12.979 19.7631 12.979H22.6727C23.0311 12.979 23.3212 13.2667 23.3212 13.6222C23.3212 13.9773 23.0311 14.2654 22.6727 14.2654ZM22.6727 11.8538H19.7631C19.4051 11.8538 19.1146 11.566 19.1146 11.2106C19.1146 10.8554 19.4051 10.5673 19.7631 10.5673H22.6727C23.0311 10.5673 23.3212 10.8554 23.3212 11.2106C23.3212 11.566 23.0311 11.8538 22.6727 11.8538ZM22.6727 9.44251H15.7269C15.3685 9.44251 15.0784 9.15439 15.0784 8.79928C15.0784 8.44416 15.3685 8.15604 15.7269 8.15604H22.6727C23.0311 8.15604 23.3212 8.44416 23.3212 8.79928C23.3212 9.15439 23.0311 9.44251 22.6727 9.44251Z" fill="url(#paint0_linear)"/>
<path d="M15.3928 16.7073C15.5108 16.3652 15.51 16.0076 15.4103 15.6814L17.0313 12.4736C17.1926 12.1543 17.0619 11.766 16.7393 11.6064C16.4168 11.4467 16.0243 11.5761 15.8629 11.8954L14.4804 14.6313C13.654 14.2241 12.3986 13.6064 11.3872 13.1087C10.4462 12.6456 9.77466 12.2304 8.6289 12.2304H8.05176C8.94391 12.2304 9.74013 11.8241 10.2613 11.1882C10.659 10.7043 10.8968 10.0875 10.8968 9.41544C10.8968 7.86035 9.62311 6.59998 8.05142 6.59998C6.48041 6.59998 5.20673 7.86035 5.20673 9.41544C5.20673 10.1623 5.50066 10.8409 5.98016 11.3445C6.49861 11.8901 7.23496 12.2304 8.05125 12.2306C6.95685 12.2306 5.88694 12.6694 5.11726 13.433C4.33261 14.2075 3.90039 15.2393 3.90039 16.3384V18.4153C3.90039 19.3094 4.48705 20.0702 5.2996 20.3408V23.9536C5.2996 24.3106 5.592 24.6 5.95277 24.6H10.1504C10.5112 24.6 10.8036 24.3106 10.8036 23.9536V16.6915C11.4229 16.9979 12.2365 17.4003 12.8947 17.7262C13.3562 17.9544 13.8954 17.975 14.3763 17.7814C14.8558 17.5861 15.2254 17.1975 15.3902 16.7149C15.3911 16.7124 15.3919 16.7099 15.3928 16.7073Z" fill="url(#paint1_linear)"/>
<defs>
<linearGradient id="paint0_linear" x1="12.2998" y1="20.6" x2="27.4553" y2="20.6164" gradientUnits="userSpaceOnUse">
<stop stop-color="#00B191"/>
<stop offset="1" stop-color="#00CABE"/>
</linearGradient>
<linearGradient id="paint1_linear" x1="3.90039" y1="20.85" x2="18.397" y2="20.8659" gradientUnits="userSpaceOnUse">
<stop stop-color="#00B191"/>
<stop offset="1" stop-color="#00CABE"/>
</linearGradient>
</defs>
</svg>
