<svg width="30" height="30" viewBox="0 0 30 30" fill="none" xmlns="http://www.w3.org/2000/svg">
<g clip-path="url(#clip0)">
<path d="M23.5688 10.9182C23.0877 10.028 22.1983 9.45151 21.1894 9.37613C20.1805 9.30074 19.2152 9.73866 18.6073 10.5474L17.1423 12.4963C16.8992 12.8196 16.7694 13.2044 16.767 13.6089C16.7645 14.0135 16.8896 14.3998 17.1288 14.7263C17.3682 15.0525 17.6991 15.2879 18.0858 15.4072C18.4724 15.5266 18.8786 15.5183 19.2602 15.3835L19.2857 15.3744C20.2454 15.0433 21.3074 15.1264 22.2042 15.6035C22.4356 15.7265 22.685 15.7986 22.9408 15.8177C23.0798 15.8281 23.2209 15.8228 23.3618 15.8016C23.7619 15.7411 24.1241 15.5575 24.4094 15.2704C24.6945 14.9834 24.8758 14.6199 24.9336 14.2193C24.9914 13.8188 24.9202 13.419 24.7279 13.063L23.5688 10.9182Z" fill="url(#paint0_linear)"/>
<path d="M17.6487 10.4726C18.0502 10.3519 18.3702 10.0595 18.5498 9.6493C18.7207 9.25897 18.743 8.80554 18.6124 8.37244C18.4818 7.93962 18.2125 7.57414 17.8544 7.34323C17.4781 7.10075 17.0498 7.03384 16.6489 7.15493C15.8424 7.39778 15.4102 8.33973 15.6856 9.25517C15.9058 9.98387 16.5093 10.4786 17.1532 10.5267C17.3176 10.539 17.4847 10.5221 17.6487 10.4726Z" fill="url(#paint1_linear)"/>
<path d="M20.3145 9.05918C21.2946 9.13241 22.1598 8.28354 22.2433 7.16691C22.3267 6.04999 21.5972 5.08177 20.6171 5.00854C19.6371 4.93531 18.7719 5.78437 18.6885 6.90128C18.6051 8.01792 19.3345 8.98595 20.3145 9.05918Z" fill="url(#paint2_linear)"/>
<path d="M23.3468 9.7862L23.3469 9.78621C23.494 9.84752 23.646 9.88292 23.7991 9.89436C24.5139 9.94777 25.2493 9.47959 25.5749 8.69993C25.7623 8.25115 25.7886 7.76376 25.6489 7.32766C25.5027 6.87112 25.1945 6.52464 24.7809 6.35197C24.3672 6.1793 23.9041 6.20383 23.4767 6.42088C23.0684 6.62822 22.7404 6.98964 22.5531 7.43845C22.1579 8.3852 22.514 9.4384 23.3468 9.7862Z" fill="url(#paint3_linear)"/>
<path d="M27.1076 9.82946L27.1073 9.82916C26.4688 9.27938 25.4418 9.42025 24.8178 10.1434C24.1943 10.867 24.2059 11.9033 24.8435 12.4534C25.076 12.6541 25.3603 12.763 25.6579 12.7852C26.1767 12.824 26.7362 12.5996 27.1334 12.1396C27.7567 11.416 27.7452 10.3797 27.1076 9.82946Z" fill="url(#paint4_linear)"/>
</g>
<g clip-path="url(#clip1)">
<path d="M7.09669 20.0952C7.50931 19.1623 8.35736 18.5122 9.3653 18.3561C10.3732 18.2001 11.3782 18.5634 12.0535 19.3278L13.6809 21.1698C13.9509 21.4754 14.1119 21.8519 14.1466 22.2582C14.1813 22.6646 14.0862 23.0628 13.8718 23.4099C13.6572 23.7568 13.3434 24.0197 12.9643 24.1704C12.5852 24.3211 12.1764 24.3451 11.7821 24.24L11.7557 24.2328C10.765 23.9765 9.70418 24.1445 8.84085 24.6953C8.61813 24.8374 8.37317 24.9297 8.11768 24.9693C7.97877 24.9908 7.8366 24.9966 7.69327 24.9865C7.28636 24.9576 6.9077 24.8019 6.59813 24.536C6.28877 24.2703 6.07767 23.9194 5.98773 23.5215C5.89779 23.1235 5.93747 22.7161 6.10241 22.343L7.09669 20.0952Z" fill="url(#paint5_linear)"/>
<path d="M13.0112 19.1768C12.598 19.0874 12.2531 18.819 12.04 18.4211C11.8371 18.0424 11.7787 17.5885 11.8754 17.1428C11.9723 16.6974 12.2138 16.3087 12.5554 16.0481C12.9143 15.7745 13.3393 15.6732 13.7519 15.763C14.5818 15.9429 15.0911 16.8551 14.8872 17.7971C14.7239 18.5469 14.1567 19.0921 13.5134 19.1917C13.3491 19.2172 13.1798 19.2135 13.0112 19.1768Z" fill="url(#paint6_linear)"/>
<path d="M10.22 17.969C9.24086 18.1206 8.30372 17.3363 8.13102 16.2208C7.95827 15.1049 8.61437 14.0738 9.59353 13.9222C10.5726 13.7707 11.5097 14.5551 11.6824 15.671C11.8551 16.7865 11.1991 17.8174 10.22 17.969Z" fill="url(#paint7_linear)"/>
<path d="M7.2298 18.9405L7.22971 18.9405C7.08683 19.0138 6.93686 19.0615 6.78385 19.0852C6.06976 19.1958 5.29339 18.7838 4.90419 18.0261C4.68009 17.59 4.61488 17.1023 4.7206 16.6529C4.83118 16.1824 5.11338 15.8097 5.5153 15.6032C5.91732 15.3968 6.38473 15.3846 6.83153 15.5687C7.25836 15.7446 7.61674 16.0817 7.84066 16.5179C8.31318 17.4379 8.03914 18.5247 7.2298 18.9405Z" fill="url(#paint8_linear)"/>
<path d="M3.4535 19.2832L3.45374 19.2829C4.05177 18.6795 5.09511 18.7394 5.77974 19.4166C6.46388 20.0942 6.53468 21.1365 5.93772 21.7401C5.72002 21.9603 5.44296 22.0924 5.1456 22.1384C4.62733 22.2187 4.04718 22.0376 3.61142 21.607C2.92737 20.9293 2.85648 19.887 3.4535 19.2832Z" fill="url(#paint9_linear)"/>
</g>
<defs>
<linearGradient id="paint0_linear" x1="16.7303" y1="14.0389" x2="25.7077" y2="14.7274" gradientUnits="userSpaceOnUse">
<stop stop-color="#00B191"/>
<stop offset="1" stop-color="#00CABE"/>
</linearGradient>
<linearGradient id="paint1_linear" x1="15.523" y1="9.69103" x2="18.9324" y2="9.95047" gradientUnits="userSpaceOnUse">
<stop stop-color="#00B191"/>
<stop offset="1" stop-color="#00CABE"/>
</linearGradient>
<linearGradient id="paint2_linear" x1="18.6002" y1="8.08249" x2="22.5038" y2="8.37934" gradientUnits="userSpaceOnUse">
<stop stop-color="#00B191"/>
<stop offset="1" stop-color="#00CABE"/>
</linearGradient>
<linearGradient id="paint3_linear" x1="22.3278" y1="9.01541" x2="25.9664" y2="9.29224" gradientUnits="userSpaceOnUse">
<stop stop-color="#00B191"/>
<stop offset="1" stop-color="#00CABE"/>
</linearGradient>
<linearGradient id="paint4_linear" x1="24.3048" y1="11.9894" x2="27.8154" y2="12.2568" gradientUnits="userSpaceOnUse">
<stop stop-color="#00B191"/>
<stop offset="1" stop-color="#00CABE"/>
</linearGradient>
<linearGradient id="paint5_linear" x1="14.2176" y1="22.6874" x2="5.25021" y2="24.0936" gradientUnits="userSpaceOnUse">
<stop stop-color="#00B191"/>
<stop offset="1" stop-color="#00CABE"/>
</linearGradient>
<linearGradient id="paint6_linear" x1="15.0852" y1="18.2222" x2="11.6794" y2="18.7542" gradientUnits="userSpaceOnUse">
<stop stop-color="#00B191"/>
<stop offset="1" stop-color="#00CABE"/>
</linearGradient>
<linearGradient id="paint7_linear" x1="11.8651" y1="16.8511" x2="7.96567" y2="17.46" gradientUnits="userSpaceOnUse">
<stop stop-color="#00B191"/>
<stop offset="1" stop-color="#00CABE"/>
</linearGradient>
<linearGradient id="paint8_linear" x1="8.19262" y1="18.0848" x2="4.55782" y2="18.6525" gradientUnits="userSpaceOnUse">
<stop stop-color="#00B191"/>
<stop offset="1" stop-color="#00CABE"/>
</linearGradient>
<linearGradient id="paint9_linear" x1="6.44217" y1="21.2309" x2="2.93533" y2="21.779" gradientUnits="userSpaceOnUse">
<stop stop-color="#00B191"/>
<stop offset="1" stop-color="#00CABE"/>
</linearGradient>
<clipPath id="clip0">
<rect width="12.1346" height="12.1346" fill="white" transform="translate(15.9561 3.90002) rotate(4.27332)"/>
</clipPath>
<clipPath id="clip1">
<rect width="12.2334" height="12.2334" fill="white" transform="matrix(-0.988228 0.152989 0.152989 0.988228 14.1895 12.4366)"/>
</clipPath>
</defs>
</svg>
