<svg width="30" height="30" viewBox="0 0 30 30" fill="none" xmlns="http://www.w3.org/2000/svg">
<path d="M20.1048 4.19995C20.1048 4.19995 18.476 5.78018 16.7145 6.41727C3.66983 11.1356 9.17132 20.3302 9.3508 20.3605C9.3508 20.3605 10.0823 19.0867 11.0704 18.3602C17.3406 13.7506 18.615 8.44485 18.615 8.44485C18.615 8.44485 17.208 14.8294 11.6297 18.802C10.3977 19.679 9.56341 21.8383 9.21027 23.9964C9.21027 23.9964 10.0836 23.6436 10.4592 23.548C10.6056 22.5923 10.9118 21.6772 11.4294 20.8598C19.2258 21.788 21.7792 15.5058 22.1128 13.3153C22.9001 8.14172 20.1048 4.19995 20.1048 4.19995Z" fill="url(#paint0_linear)"/>
<defs>
<linearGradient id="paint0_linear" x1="8.04785" y1="19.8722" x2="23.6478" y2="19.8889" gradientUnits="userSpaceOnUse">
<stop stop-color="#00B191"/>
<stop offset="1" stop-color="#00CABE"/>
</linearGradient>
</defs>
</svg>
