<svg width="30" height="30" viewBox="0 0 30 30" fill="none" xmlns="http://www.w3.org/2000/svg">
<path d="M14.044 24.8843C14.3946 24.8843 14.6788 24.6 14.6788 24.2494C14.6788 23.8988 14.3946 23.6146 14.044 23.6146C13.6934 23.6146 13.4092 23.8988 13.4092 24.2494C13.4092 24.6 13.6934 24.8843 14.044 24.8843Z" fill="url(#paint0_linear)"/>
<path d="M10.5679 8.45867L7.5478 6.30579L7.40137 7.24109L9.732 8.9022L10.5679 8.45867Z" fill="url(#paint1_linear)"/>
<path d="M11.9697 8.41869L16.7872 11.8526L21.6042 15.287C23.7888 11.9267 23.5336 7.82704 20.9639 5.99452C18.3941 4.16201 14.432 5.25771 11.9697 8.41869Z" fill="url(#paint2_linear)"/>
<path d="M10.4191 20.0536L10.4153 20.0587L8.3335 22.9788C8.19782 23.1692 8.24216 23.4335 8.43254 23.5692C8.62291 23.7049 8.88724 23.6606 9.02292 23.4702L15.6559 14.1663L14.9665 13.6749L10.4191 20.0536Z" fill="url(#paint3_linear)"/>
<path d="M17.8531 4.2781C16.398 3.66255 14.8387 3.33059 13.2591 3.30005H13.1977C10.9035 3.30005 9.02146 4.06776 7.83984 5.47494L11.2861 7.9317C13.0471 5.65946 15.522 4.3602 17.8531 4.2781Z" fill="url(#paint4_linear)"/>
<path d="M21.7887 5.5625L22.534 4.51674C22.5991 4.42786 22.6249 4.31622 22.6055 4.20779C22.5904 4.09463 22.5291 3.99277 22.4362 3.92636C22.3446 3.86162 22.2311 3.83589 22.1205 3.85483C22.0101 3.87217 21.9113 3.93317 21.8463 4.02412L21.1006 5.07115C21.2178 5.15029 21.3376 5.22224 21.4535 5.30476C21.5695 5.38729 21.6766 5.47743 21.7887 5.5625Z" fill="url(#paint5_linear)"/>
<path d="M21.874 17.5594L24.2047 19.2209L25.0405 18.7774L22.0209 16.6245L21.874 17.5594Z" fill="url(#paint6_linear)"/>
<path d="M26.0211 12.3992C25.4772 10.9162 24.6551 9.55055 23.5991 8.37573C24.2809 10.6061 23.8598 13.3697 22.2871 15.7744L25.7333 18.2311C26.6856 16.6402 26.7909 14.5877 26.0211 12.3992Z" fill="url(#paint7_linear)"/>
<path d="M20.0698 16.2726L20.9061 15.8291L16.2947 12.5415L11.683 9.25403L11.5361 10.1889L15.1127 12.7388L15.114 12.7392L16.0751 13.4248L20.0698 16.2726Z" fill="url(#paint8_linear)"/>
<path d="M14.6997 19.8057C14.0082 19.8057 13.3069 19.8387 12.6103 19.8967L9.71258 23.962C9.30553 24.5332 8.51256 24.6662 7.94143 24.2591C7.3703 23.8521 7.23729 23.0591 7.64434 22.488L9.06549 20.4942C6.54229 21.179 4.96582 22.276 4.96582 23.403C4.96582 25.1381 8.87716 27.0003 14.6997 27.0003C20.5223 27.0003 24.4336 25.1381 24.4336 23.403C24.4336 21.6678 20.5223 19.8057 14.6997 19.8057ZM14.0438 25.7306C13.2257 25.7306 12.5625 25.0675 12.5625 24.2494C12.5625 23.4313 13.2257 22.7682 14.0438 22.7682C14.8618 22.7682 15.525 23.4313 15.525 24.2494C15.525 25.0675 14.8618 25.7306 14.0438 25.7306ZM18.0643 23.6146C17.8305 23.6146 17.6411 23.4251 17.6411 23.1914C17.6411 22.9576 17.8305 22.7682 18.0643 22.7682C18.298 22.7682 18.4875 22.9576 18.4875 23.1914C18.4875 23.4251 18.298 23.6146 18.0643 23.6146ZM18.9107 22.3449C18.677 22.3449 18.4875 22.1555 18.4875 21.9217C18.4875 21.688 18.677 21.4985 18.9107 21.4985C19.1444 21.4985 19.3339 21.688 19.3339 21.9217C19.3339 22.1555 19.1444 22.3449 18.9107 22.3449ZM20.1803 23.1914C19.9466 23.1914 19.7571 23.0019 19.7571 22.7682C19.7571 22.5344 19.9466 22.3449 20.1803 22.3449C20.4141 22.3449 20.6036 22.5344 20.6036 22.7682C20.6036 23.0019 20.4141 23.1914 20.1803 23.1914Z" fill="url(#paint9_linear)"/>
<defs>
<linearGradient id="paint0_linear" x1="13.4092" y1="24.6198" x2="14.8035" y2="24.6218" gradientUnits="userSpaceOnUse">
<stop stop-color="#00B191"/>
<stop offset="1" stop-color="#00CABE"/>
</linearGradient>
<linearGradient id="paint1_linear" x1="7.40137" y1="8.36128" x2="10.8789" y2="8.36764" gradientUnits="userSpaceOnUse">
<stop stop-color="#00B191"/>
<stop offset="1" stop-color="#00CABE"/>
</linearGradient>
<linearGradient id="paint2_linear" x1="11.9697" y1="13.166" x2="24.1743" y2="13.1859" gradientUnits="userSpaceOnUse">
<stop stop-color="#00B191"/>
<stop offset="1" stop-color="#00CABE"/>
</linearGradient>
<linearGradient id="paint3_linear" x1="8.25488" y1="21.5702" x2="16.3829" y2="21.5792" gradientUnits="userSpaceOnUse">
<stop stop-color="#00B191"/>
<stop offset="1" stop-color="#00CABE"/>
</linearGradient>
<linearGradient id="paint4_linear" x1="7.83984" y1="6.96677" x2="18.8365" y2="7.00241" gradientUnits="userSpaceOnUse">
<stop stop-color="#00B191"/>
<stop offset="1" stop-color="#00CABE"/>
</linearGradient>
<linearGradient id="paint5_linear" x1="21.1006" y1="5.20547" x2="22.7603" y2="5.20766" gradientUnits="userSpaceOnUse">
<stop stop-color="#00B191"/>
<stop offset="1" stop-color="#00CABE"/>
</linearGradient>
<linearGradient id="paint6_linear" x1="21.874" y1="18.68" x2="25.3515" y2="18.6864" gradientUnits="userSpaceOnUse">
<stop stop-color="#00B191"/>
<stop offset="1" stop-color="#00CABE"/>
</linearGradient>
<linearGradient id="paint7_linear" x1="22.2871" y1="16.1779" x2="26.9483" y2="16.1809" gradientUnits="userSpaceOnUse">
<stop stop-color="#00B191"/>
<stop offset="1" stop-color="#00CABE"/>
</linearGradient>
<linearGradient id="paint8_linear" x1="11.5361" y1="14.8104" x2="21.8264" y2="14.831" gradientUnits="userSpaceOnUse">
<stop stop-color="#00B191"/>
<stop offset="1" stop-color="#00CABE"/>
</linearGradient>
<linearGradient id="paint9_linear" x1="4.96582" y1="25.5014" x2="26.3455" y2="25.5881" gradientUnits="userSpaceOnUse">
<stop stop-color="#00B191"/>
<stop offset="1" stop-color="#00CABE"/>
</linearGradient>
</defs>
</svg>
