<svg width="30" height="30" viewBox="0 0 30 30" fill="none" xmlns="http://www.w3.org/2000/svg">
<path d="M25.5908 24.7816H20.8224C20.5161 23.279 19.1845 22.1449 17.5928 22.1449C17.5921 22.1449 17.5915 22.1449 17.5908 22.1449C16.9729 21.3227 15.9976 20.8265 14.9561 20.8265C14.9554 20.8265 14.9548 20.8265 14.9541 20.8265C14.3362 20.0043 13.361 19.5082 12.3193 19.5082C11.2777 19.5082 10.3025 20.0043 9.68455 20.8265C9.68389 20.8265 9.68323 20.8265 9.68262 20.8265C8.64103 20.8265 7.66579 21.3227 7.04783 22.1449C7.04717 22.1449 7.04651 22.1449 7.0459 22.1449C5.22854 22.1449 3.75 23.6234 3.75 25.4408C3.75 25.8048 4.04514 26.1 4.40918 26.1H25.5908C25.9549 26.1 26.25 25.8048 26.25 25.4408C26.25 25.0768 25.9549 24.7816 25.5908 24.7816Z" fill="url(#paint0_linear)"/>
<path d="M19.1906 10.7341C19.1641 10.4127 18.9092 10.1578 18.5879 10.1313C18.5566 10.1287 17.814 10.069 16.9526 10.1191C15.6739 10.1937 14.8189 10.4634 14.3387 10.9436C13.3854 11.8969 13.2489 13.3615 13.9275 14.4622L15.5817 12.808C15.8391 12.5506 16.2565 12.5506 16.5139 12.808C16.7713 13.0654 16.7713 13.4828 16.5139 13.7402L14.8597 15.3944C15.3174 15.6766 15.8378 15.8185 16.3585 15.8185C17.0901 15.8185 17.8215 15.5401 18.3784 14.9832C18.8586 14.503 19.1282 13.648 19.2029 12.3693C19.2531 11.5079 19.1932 10.7653 19.1906 10.7341Z" fill="url(#paint1_linear)"/>
<path d="M12.3193 7.1156C12.6834 7.1156 12.9785 7.41074 12.9785 7.77478V10.1142C14.2367 9.81569 15.1758 8.68348 15.1758 7.33533C15.1758 6.6562 14.7619 5.86092 13.9104 4.90397C13.3369 4.25938 12.7695 3.77659 12.7456 3.75633C12.4996 3.54786 12.139 3.54786 11.8931 3.75633C11.8692 3.77655 11.3018 4.25938 10.7283 4.90397C9.87677 5.86092 9.46289 6.6562 9.46289 7.33533C9.46289 8.68348 10.402 9.81569 11.6602 10.1142V7.77478C11.6602 7.41074 11.9553 7.1156 12.3193 7.1156Z" fill="url(#paint2_linear)"/>
<path d="M8.12398 12.8081C8.38137 12.5507 8.79876 12.5507 9.0562 12.8081L10.7104 14.4623C11.389 13.3616 11.2525 11.8969 10.2991 10.9436C9.81896 10.4634 8.96391 10.1938 7.68519 10.1191C6.82377 10.0689 6.08119 10.1287 6.05003 10.1313C5.7287 10.1578 5.47369 10.4128 5.44723 10.7341C5.44464 10.7653 5.38483 11.5079 5.43506 12.3693C5.50963 13.648 5.77933 14.503 6.25956 14.9832C6.81644 15.5401 7.54791 15.8185 8.27938 15.8185C8.80008 15.8185 9.32044 15.6766 9.77817 15.3944L8.12398 13.7402C7.86655 13.4829 7.86655 13.0655 8.12398 12.8081Z" fill="url(#paint3_linear)"/>
<path d="M13.9277 14.4627L12.9783 15.4121V10.1144C12.7665 10.1646 12.546 10.192 12.3191 10.192C12.0922 10.192 11.8717 10.1646 11.6599 10.1144V15.4122L10.7105 14.4628C10.5963 14.648 10.4598 14.8233 10.2993 14.9837C10.1389 15.1442 9.96359 15.2807 9.77832 15.3949L11.6599 17.2765V18.2384C11.8771 18.2066 12.0973 18.19 12.3191 18.19C12.5409 18.19 12.7611 18.2066 12.9783 18.2384V17.2765L14.8599 15.3949C14.6746 15.2807 14.4994 15.1442 14.3389 14.9837C14.1785 14.8233 14.0419 14.648 13.9277 14.4627Z" fill="url(#paint4_linear)"/>
<path d="M22.5146 12.4769C21.7865 12.4769 21.1963 11.8867 21.1963 11.1586V7.64294C21.1963 6.91481 21.7865 6.32458 22.5146 6.32458C23.2428 6.32458 23.833 6.91481 23.833 7.64294V11.1586C23.833 11.8867 23.2428 12.4769 22.5146 12.4769Z" fill="url(#paint5_linear)"/>
<path d="M24.2998 15.553H23.1738V17.5305C23.1738 17.8946 22.8787 18.1897 22.5146 18.1897C22.1506 18.1897 21.8555 17.8946 21.8555 17.5305V15.553H20.7295C19.6541 15.553 18.7793 16.4278 18.7793 17.5031C18.7793 19.9245 20.0853 22.175 22.1876 23.3763C22.2889 23.4342 22.4018 23.4631 22.5146 23.4631C22.6275 23.4631 22.7404 23.4342 22.8417 23.3763C24.944 22.175 26.25 19.9245 26.25 17.5031C26.25 16.4278 25.3752 15.553 24.2998 15.553Z" fill="url(#paint6_linear)"/>
<path d="M23.1738 13.7115C22.9631 13.766 22.7422 13.795 22.5146 13.795C22.2871 13.795 22.0662 13.766 21.8555 13.7115V15.5528H23.1738V13.7115Z" fill="url(#paint7_linear)"/>
<defs>
<linearGradient id="paint0_linear" x1="3.75" y1="24.7267" x2="28.4594" y2="24.8531" gradientUnits="userSpaceOnUse">
<stop stop-color="#00B191"/>
<stop offset="1" stop-color="#00CABE"/>
</linearGradient>
<linearGradient id="paint1_linear" x1="13.5039" y1="14.627" x2="19.7846" y2="14.6364" gradientUnits="userSpaceOnUse">
<stop stop-color="#00B191"/>
<stop offset="1" stop-color="#00CABE"/>
</linearGradient>
<linearGradient id="paint2_linear" x1="9.46289" y1="8.75704" x2="15.7369" y2="8.76529" gradientUnits="userSpaceOnUse">
<stop stop-color="#00B191"/>
<stop offset="1" stop-color="#00CABE"/>
</linearGradient>
<linearGradient id="paint3_linear" x1="5.41504" y1="14.627" x2="11.6957" y2="14.6364" gradientUnits="userSpaceOnUse">
<stop stop-color="#00B191"/>
<stop offset="1" stop-color="#00CABE"/>
</linearGradient>
<linearGradient id="paint4_linear" x1="9.77832" y1="16.5459" x2="15.359" y2="16.5511" gradientUnits="userSpaceOnUse">
<stop stop-color="#00B191"/>
<stop offset="1" stop-color="#00CABE"/>
</linearGradient>
<linearGradient id="paint5_linear" x1="21.1963" y1="11.1952" x2="24.092" y2="11.197" gradientUnits="userSpaceOnUse">
<stop stop-color="#00B191"/>
<stop offset="1" stop-color="#00CABE"/>
</linearGradient>
<linearGradient id="paint6_linear" x1="18.7793" y1="21.8152" x2="26.9838" y2="21.8268" gradientUnits="userSpaceOnUse">
<stop stop-color="#00B191"/>
<stop offset="1" stop-color="#00CABE"/>
</linearGradient>
<linearGradient id="paint7_linear" x1="21.8555" y1="15.1692" x2="23.3033" y2="15.1708" gradientUnits="userSpaceOnUse">
<stop stop-color="#00B191"/>
<stop offset="1" stop-color="#00CABE"/>
</linearGradient>
</defs>
</svg>
