<svg width="30" height="30" viewBox="0 0 30 30" fill="none" xmlns="http://www.w3.org/2000/svg">
<path d="M15.1143 21.4393C15.8108 22.1367 15.8065 23.2587 15.1143 23.9509L13.548 25.5172C12.8615 26.2054 11.7332 26.2141 11.0364 25.5172L4.48279 18.9637C3.79062 18.2711 3.79062 17.1443 4.48279 16.4522L6.04915 14.8858C6.74136 14.1936 7.86334 14.1893 8.56074 14.8858L15.1143 21.4393ZM4.74682 20.6705C4.58659 20.5103 4.3202 20.5397 4.19651 20.7296C3.70515 21.4838 3.85668 22.3929 4.41974 22.956L7.04411 25.5803C7.60228 26.1385 8.51075 26.2991 9.27022 25.8038C9.46016 25.6799 9.48995 25.4136 9.32963 25.2533L4.74682 20.6705ZM16.1914 11.3904C15.9139 11.1134 15.4642 11.1134 15.1867 11.3904L11.3907 15.1864C11.1132 15.4639 11.1132 15.9136 11.3907 16.1911L13.809 18.6094C14.0856 18.886 14.5353 18.887 14.8138 18.6094L18.6098 14.8135C18.8873 14.536 18.8873 14.0862 18.6098 13.8088L16.1914 11.3904ZM25.2545 9.32853C25.4148 9.4889 25.6813 9.45902 25.8051 9.269C26.3 8.50936 26.1374 7.60068 25.5807 7.04394L22.9563 4.41961C22.3947 3.85834 21.4861 3.70366 20.731 4.19545C20.541 4.31914 20.5115 4.58557 20.6718 4.74584L25.2545 9.32853ZM18.9641 4.48265C18.2715 3.7905 17.1446 3.79006 16.4525 4.48265L14.8861 6.04899C14.1939 6.74115 14.1896 7.86311 14.8861 8.56055L21.4397 15.114C22.1378 15.8112 23.2598 15.8055 23.9513 15.114L25.5177 13.5477C26.2098 12.8555 26.2098 11.7287 25.5177 11.0361L18.9641 4.48265Z" fill="url(#paint0_linear)"/>
<defs>
<linearGradient id="paint0_linear" x1="3.90039" y1="21.475" x2="28.281" y2="21.5116" gradientUnits="userSpaceOnUse">
<stop stop-color="#00B191"/>
<stop offset="1" stop-color="#00CABE"/>
</linearGradient>
</defs>
</svg>
