<svg width="70" height="70" viewBox="0 0 70 70" fill="none" xmlns="http://www.w3.org/2000/svg">
<g clip-path="url(#clip0)">
<path d="M62.9985 37.128C62.9985 36.0678 62.7529 35.0551 62.3094 34.1287C62.2637 33.8932 62.2114 33.658 62.1461 33.4195L57.3425 21.8164L57.31 21.712C55.6293 16.8344 53.2379 12.3201 47.1741 12.3201H23.9896C17.7762 12.3201 15.5807 16.9463 13.8631 21.6849L8.83859 33.3163C8.1122 34.4507 7.69922 35.7483 7.69922 37.128V40.7385C7.69922 41.2967 7.76692 41.8428 7.89564 42.3687C7.7705 42.6865 7.69922 43.0289 7.69922 43.3899V54.1285C7.69922 55.7032 9.00894 56.98 10.6245 56.98H16.6951C18.3098 56.98 19.6195 55.7032 19.6195 54.1285V48.7584H51.4249V54.1285C51.4249 55.7032 52.7349 56.98 54.3506 56.98H60.0735C61.6897 56.98 62.9992 55.7032 62.9992 54.1285V43.3887C62.9992 43.029 62.9272 42.685 62.803 42.3683C62.9313 41.8416 62.9992 41.2961 62.9992 40.738V37.1281H62.9985V37.128ZM17.4281 22.8499C19.3408 17.5901 20.879 15.9844 23.9896 15.9844H47.1727C50.2605 15.9844 51.9799 17.7753 53.727 22.8272L57.2323 29.7509C56.0878 29.3378 54.8282 29.1085 53.5049 29.1085H17.1928C16.0013 29.1085 14.8627 29.2953 13.8121 29.6333L17.4281 22.8499ZM20.4393 42.1097H14.0342C12.881 42.1097 11.9457 41.1973 11.9457 40.0734C11.9457 38.9491 12.881 38.0373 14.0342 38.0373H20.4393C21.593 38.0373 22.5283 38.9491 22.5283 40.0734C22.5283 41.1973 21.5924 42.1097 20.4393 42.1097ZM43.0654 41.7019H28.1671C27.4366 41.7019 26.8447 41.1247 26.8447 40.413C26.8447 39.7001 27.4366 39.1231 28.1671 39.1231H43.0654C43.7968 39.1231 44.3885 39.7001 44.3885 40.413C44.3885 41.1247 43.7968 41.7019 43.0654 41.7019ZM56.502 42.1097H50.0972C48.943 42.1097 48.0082 41.1973 48.0082 40.0734C48.0082 38.9491 48.9437 38.0373 50.0972 38.0373H56.502C57.6562 38.0373 58.5917 38.9491 58.5917 40.0734C58.5917 41.1973 57.6562 42.1097 56.502 42.1097Z" fill="#39424A"/>
</g>
<defs>
<clipPath id="clip0">
<rect width="55.3" height="53.9" fill="white" transform="translate(7.69922 7.69995)"/>
</clipPath>
</defs>
</svg>
