<svg width="70" height="70" viewBox="0 0 70 70" fill="none" xmlns="http://www.w3.org/2000/svg">
<path d="M56.145 12.6H33.4535C30.8275 12.6 28.6992 14.7114 28.6992 17.3156V28.4022C29.8987 28.9935 31.1948 29.633 32.4045 30.2294L34.2554 26.5562C35.376 24.335 38.108 23.4325 40.3466 24.5421C42.59 25.6556 43.499 28.358 42.376 30.5835L39.0766 37.1303C39.1641 37.9968 39.0864 38.8704 38.8402 39.7158H41.0185L35.2732 55.3859C34.9323 56.3154 35.5912 57.4 36.6957 57.4C37.3132 57.4 37.894 57.022 38.1171 56.4115L44.2383 39.7158H45.2987L51.4822 56.4166C51.7072 57.024 52.2864 57.4 52.9035 57.4C53.9355 57.4 54.6921 56.3775 54.3229 55.382L48.5224 39.7158H56.145C58.7705 39.7158 60.8992 37.6044 60.8992 35.0002V17.3156C60.8992 14.7114 58.7705 12.6 56.145 12.6V12.6ZM52.9027 33.2859H46.1136C45.2782 33.2859 44.6004 32.6136 44.6004 31.785C44.6004 30.9556 45.2782 30.2841 46.1136 30.2841H52.9027C53.7389 30.2841 54.4159 30.9556 54.4159 31.785C54.4159 32.6136 53.7389 33.2859 52.9027 33.2859ZM52.9027 27.6588H46.1136C45.2782 27.6588 44.6004 26.9873 44.6004 26.1579C44.6004 25.3293 45.2782 24.657 46.1136 24.657H52.9027C53.7389 24.657 54.4159 25.3293 54.4159 26.1579C54.4159 26.9873 53.7389 27.6588 52.9027 27.6588ZM52.9027 22.0324H36.6957C35.8595 22.0324 35.1826 21.3602 35.1826 20.5316C35.1826 19.703 35.8595 19.0307 36.6957 19.0307H52.9027C53.7389 19.0307 54.4159 19.703 54.4159 20.5316C54.4159 21.3602 53.7389 22.0324 52.9027 22.0324Z" fill="#39424A"/>
<path d="M35.9152 38.9839C36.1906 38.1854 36.1886 37.3512 35.956 36.5901L39.7384 29.1052C40.1147 28.3602 39.8099 27.4541 39.057 27.0818C38.3044 26.7091 37.3888 27.0111 37.0122 27.7561L33.7862 34.1398C31.8581 33.1897 28.9287 31.7484 26.5688 30.587C24.3732 29.5066 22.8062 28.5377 20.1328 28.5377H18.7861C20.8678 28.5377 22.7257 27.5896 23.9418 26.1058C24.8697 24.9767 25.4245 23.5377 25.4245 21.9694C25.4245 18.3409 22.4526 15.4 18.7853 15.4C15.1197 15.4 12.1477 18.3409 12.1477 21.9694C12.1477 23.712 12.8336 25.2956 13.9524 26.4707C15.1621 27.7436 16.8803 28.5377 18.7849 28.5381C16.2313 28.5381 13.7349 29.562 11.939 31.3438C10.1081 33.1509 9.09961 35.5584 9.09961 38.123V42.9691C9.09961 45.0553 10.4685 46.8305 12.3644 47.462V55.8919C12.3644 56.7249 13.0467 57.4 13.8885 57.4H23.683C24.5248 57.4 25.207 56.7249 25.207 55.8919V38.947C26.6521 39.6618 28.5505 40.6008 30.0864 41.3612C31.1632 41.8937 32.4213 41.9416 33.5433 41.49C34.6622 41.0344 35.5246 40.1276 35.9092 39.0016C35.9112 38.9957 35.9132 38.9898 35.9152 38.9839Z" fill="#39424A"/>
</svg>
