<svg width="70" height="70" viewBox="0 0 70 70" fill="none" xmlns="http://www.w3.org/2000/svg">
<path d="M53.2925 23.3604C53.2774 23.1581 53.1081 23.0016 52.9054 23.0016H45.9164V21.0602C45.9164 14.8512 40.8648 9.80005 34.6562 9.80005C28.4476 9.80005 23.396 14.8512 23.396 21.0602V23.0016H16.407C16.2043 23.0016 16.035 23.1581 16.0199 23.3604L13.3019 59.0823C13.2937 59.1898 13.3306 59.2962 13.4044 59.3754C13.4778 59.455 13.5811 59.5 13.689 59.5H55.6234C55.7313 59.5 55.8346 59.455 55.908 59.3758C55.9814 59.2966 56.0187 59.1902 56.0105 59.0826L53.2925 23.3604ZM26.5023 21.0602C26.5023 16.5643 30.1599 12.9063 34.6562 12.9063C39.1525 12.9063 42.8101 16.5643 42.8101 21.0602V23.0016H26.5023V21.0602ZM24.9492 33.8735C22.8078 33.8735 21.0664 32.1317 21.0664 29.9907C21.0664 28.441 21.8429 27.0448 23.396 26.4321V29.9907C23.396 30.8472 24.093 31.5438 24.9492 31.5438C25.8053 31.5438 26.5023 30.8472 26.5023 29.9907V26.4344C28.0554 27.0471 28.832 28.4539 28.832 29.9907C28.832 32.1317 27.0905 33.8735 24.9492 33.8735ZM44.3632 33.8735C42.2219 33.8735 40.4804 32.1317 40.4804 29.9907C40.4804 28.441 41.257 27.0448 42.8101 26.4321V29.9907C42.8101 30.8472 43.5071 31.5438 44.3632 31.5438C45.2194 31.5438 45.9164 30.8472 45.9164 29.9907V26.4344C47.4695 27.0471 48.246 28.4539 48.246 29.9907C48.246 32.1317 46.5046 33.8735 44.3632 33.8735Z" fill="#39424A"/>
</svg>
