<svg width="70" height="70" viewBox="0 0 70 70" fill="none" xmlns="http://www.w3.org/2000/svg">
<path d="M46.9102 9.80005C46.9102 9.80005 43.1098 13.4872 38.9995 14.9738C8.56195 25.9832 21.3988 47.4374 21.8176 47.5081C21.8176 47.5081 23.5243 44.5358 25.83 42.8405C40.4604 32.085 43.4341 19.7048 43.4341 19.7048C43.4341 19.7048 40.151 34.6021 27.135 43.8716C24.2602 45.9178 22.3137 50.9561 21.4897 55.9918C21.4897 55.9918 23.5274 55.1685 24.4037 54.9455C24.7454 52.7156 25.4598 50.5804 26.6677 48.673C44.8591 50.8388 50.8172 36.1805 51.5955 31.0692C53.4326 18.9975 46.9102 9.80005 46.9102 9.80005Z" fill="#39424A"/>
</svg>
