<svg width="30" height="30" viewBox="0 0 30 30" fill="none" xmlns="http://www.w3.org/2000/svg">
<g clip-path="url(#clip0)">
<path d="M23.5698 10.9184C23.0887 10.0283 22.1992 9.45176 21.1903 9.37637C20.1814 9.30099 19.2162 9.73891 18.6083 10.5477L17.1432 12.4965C16.9002 12.8198 16.7704 13.2047 16.7679 13.6092C16.7655 14.0138 16.8906 14.4 17.1298 14.7265C17.3692 15.0527 17.7001 15.2882 18.0867 15.4075C18.4734 15.5268 18.8796 15.5185 19.2612 15.3837L19.2867 15.3746C20.2463 15.0436 21.3084 15.1267 22.2052 15.6037C22.4366 15.7268 22.686 15.7989 22.9418 15.818C23.0808 15.8284 23.2218 15.823 23.3628 15.8018C23.7629 15.7414 24.1251 15.5577 24.4104 15.2706C24.6955 14.9836 24.8768 14.6201 24.9346 14.2196C24.9924 13.819 24.9212 13.4193 24.7289 13.0632L23.5698 10.9184Z" fill="url(#paint0_linear)"/>
<path d="M17.6496 10.4729C18.0512 10.3521 18.3712 10.0597 18.5508 9.64954C18.7217 9.25921 18.744 8.80579 18.6134 8.37269C18.4827 7.93986 18.2135 7.57439 17.8553 7.34347C17.4791 7.101 17.0508 7.03409 16.6499 7.15518C15.8434 7.39803 15.4112 8.33998 15.6866 9.25542C15.9067 9.98412 16.5103 10.4788 17.1542 10.5269C17.3186 10.5392 17.4857 10.5224 17.6496 10.4729Z" fill="url(#paint1_linear)"/>
<path d="M20.3154 9.0593C21.2955 9.13254 22.1608 8.28367 22.2442 7.16703C22.3277 6.05011 21.5982 5.08189 20.6181 5.00866C19.6381 4.93543 18.7729 5.78449 18.6895 6.90141C18.606 8.01805 19.3354 8.98607 20.3154 9.0593Z" fill="url(#paint2_linear)"/>
<path d="M23.3478 9.78621L23.3479 9.78621C23.4949 9.84752 23.647 9.88292 23.8001 9.89437C24.5149 9.94777 25.2503 9.47959 25.5759 8.69994C25.7633 8.25115 25.7896 7.76376 25.6499 7.32766C25.5037 6.87112 25.1955 6.52464 24.7819 6.35197C24.3682 6.1793 23.9051 6.20383 23.4777 6.42088C23.0694 6.62822 22.7414 6.98964 22.5541 7.43845C22.1589 8.3852 22.515 9.4384 23.3478 9.78621Z" fill="url(#paint3_linear)"/>
<path d="M27.1086 9.82946L27.1083 9.82916C26.4697 9.27938 25.4427 9.42025 24.8188 10.1434C24.1953 10.867 24.2069 11.9033 24.8445 12.4534C25.077 12.6541 25.3613 12.763 25.6589 12.7852C26.1777 12.824 26.7372 12.5996 27.1344 12.1396C27.7577 11.416 27.7462 10.3797 27.1086 9.82946Z" fill="url(#paint4_linear)"/>
</g>
<g clip-path="url(#clip1)">
<path d="M7.09766 20.0949C7.51028 19.1621 8.35833 18.5119 9.36627 18.3559C10.3742 18.1998 11.3792 18.5631 12.0544 19.3276L13.6819 21.1696C13.9519 21.4752 14.1129 21.8516 14.1476 22.2579C14.1823 22.6643 14.0872 23.0625 13.8728 23.4096C13.6582 23.7565 13.3444 24.0195 12.9653 24.1702C12.5862 24.3208 12.1773 24.3448 11.7831 24.2398L11.7567 24.2326C10.7659 23.9763 9.70516 24.1443 8.84182 24.6951C8.6191 24.8371 8.37414 24.9295 8.11865 24.969C7.97975 24.9905 7.83757 24.9964 7.69424 24.9863C7.28734 24.9574 6.90868 24.8016 6.59911 24.5358C6.28974 24.27 6.07865 23.9192 5.98871 23.5212C5.89876 23.1233 5.93844 22.7158 6.10339 22.3427L7.09766 20.0949Z" fill="url(#paint5_linear)"/>
<path d="M13.0121 19.1768C12.599 19.0874 12.2541 18.819 12.041 18.4211C11.8381 18.0424 11.7797 17.5885 11.8764 17.1428C11.9733 16.6974 12.2148 16.3087 12.5564 16.0481C12.9152 15.7745 13.3403 15.6732 13.7529 15.763C14.5828 15.9429 15.092 16.8551 14.8881 17.7971C14.7248 18.5469 14.1577 19.0921 13.5143 19.1917C13.3501 19.2172 13.1808 19.2135 13.0121 19.1768Z" fill="url(#paint6_linear)"/>
<path d="M10.22 17.969C9.24086 18.1206 8.30372 17.3363 8.13102 16.2208C7.95827 15.1049 8.61437 14.0738 9.59353 13.9222C10.5726 13.7707 11.5097 14.5551 11.6824 15.671C11.8551 16.7865 11.1991 17.8174 10.22 17.969Z" fill="url(#paint7_linear)"/>
<path d="M7.23078 18.9405L7.23068 18.9405C7.0878 19.0138 6.93784 19.0615 6.78482 19.0852C6.07074 19.1958 5.29437 18.7838 4.90517 18.0261C4.68106 17.59 4.61585 17.1023 4.72157 16.6529C4.83215 16.1824 5.11436 15.8097 5.51628 15.6032C5.91829 15.3968 6.3857 15.3846 6.83251 15.5687C7.25933 15.7446 7.61772 16.0817 7.84164 16.5179C8.31415 17.4379 8.04012 18.5247 7.23078 18.9405Z" fill="url(#paint8_linear)"/>
<path d="M3.45448 19.2832L3.45471 19.2829C4.05274 18.6795 5.09609 18.7394 5.78072 19.4166C6.46485 20.0942 6.53565 21.1365 5.9387 21.7401C5.721 21.9603 5.44394 22.0924 5.14657 22.1384C4.62831 22.2186 4.04815 22.0376 3.61239 21.607C2.92835 20.9293 2.85746 19.887 3.45448 19.2832Z" fill="url(#paint9_linear)"/>
</g>
<defs>
<linearGradient id="paint0_linear" x1="16.7313" y1="14.0392" x2="25.7086" y2="14.7276" gradientUnits="userSpaceOnUse">
<stop stop-color="#00B191"/>
<stop offset="1" stop-color="#00CABE"/>
</linearGradient>
<linearGradient id="paint1_linear" x1="15.524" y1="9.69127" x2="18.9334" y2="9.95071" gradientUnits="userSpaceOnUse">
<stop stop-color="#00B191"/>
<stop offset="1" stop-color="#00CABE"/>
</linearGradient>
<linearGradient id="paint2_linear" x1="18.6012" y1="8.08261" x2="22.5048" y2="8.37946" gradientUnits="userSpaceOnUse">
<stop stop-color="#00B191"/>
<stop offset="1" stop-color="#00CABE"/>
</linearGradient>
<linearGradient id="paint3_linear" x1="22.3288" y1="9.01541" x2="25.9674" y2="9.29224" gradientUnits="userSpaceOnUse">
<stop stop-color="#00B191"/>
<stop offset="1" stop-color="#00CABE"/>
</linearGradient>
<linearGradient id="paint4_linear" x1="24.3058" y1="11.9894" x2="27.8164" y2="12.2568" gradientUnits="userSpaceOnUse">
<stop stop-color="#00B191"/>
<stop offset="1" stop-color="#00CABE"/>
</linearGradient>
<linearGradient id="paint5_linear" x1="14.2186" y1="22.6872" x2="5.25118" y2="24.0934" gradientUnits="userSpaceOnUse">
<stop stop-color="#00B191"/>
<stop offset="1" stop-color="#00CABE"/>
</linearGradient>
<linearGradient id="paint6_linear" x1="15.0862" y1="18.2222" x2="11.6804" y2="18.7542" gradientUnits="userSpaceOnUse">
<stop stop-color="#00B191"/>
<stop offset="1" stop-color="#00CABE"/>
</linearGradient>
<linearGradient id="paint7_linear" x1="11.8651" y1="16.8511" x2="7.96567" y2="17.46" gradientUnits="userSpaceOnUse">
<stop stop-color="#00B191"/>
<stop offset="1" stop-color="#00CABE"/>
</linearGradient>
<linearGradient id="paint8_linear" x1="8.1936" y1="18.0848" x2="4.5588" y2="18.6525" gradientUnits="userSpaceOnUse">
<stop stop-color="#00B191"/>
<stop offset="1" stop-color="#00CABE"/>
</linearGradient>
<linearGradient id="paint9_linear" x1="6.44315" y1="21.2309" x2="2.9363" y2="21.779" gradientUnits="userSpaceOnUse">
<stop stop-color="#00B191"/>
<stop offset="1" stop-color="#00CABE"/>
</linearGradient>
<clipPath id="clip0">
<rect width="12.1346" height="12.1346" fill="white" transform="translate(15.957 3.90015) rotate(4.27332)"/>
</clipPath>
<clipPath id="clip1">
<rect width="12.2334" height="12.2334" fill="white" transform="matrix(-0.988228 0.152989 0.152989 0.988228 14.1904 12.4365)"/>
</clipPath>
</defs>
</svg>
