<svg width="30" height="30" viewBox="0 0 30 30" fill="none" xmlns="http://www.w3.org/2000/svg">
<path d="M25.7629 13.9866C25.7411 13.972 25.7187 13.9585 25.6955 13.9462L24.1626 13.1207L15.6617 17.6215C15.4359 17.7411 15.1655 17.7411 14.9396 17.6215L6.43879 13.1207L4.90585 13.9462C4.53328 14.144 4.39152 14.6063 4.58929 14.9789C4.60158 15.002 4.61505 15.0245 4.62966 15.0463L15.3007 20.6958L25.9717 15.0463C26.2067 14.696 26.1133 14.2216 25.7629 13.9866Z" fill="url(#paint0_linear)"/>
<path d="M26.0073 18.2124C25.9358 18.08 25.8272 17.9713 25.6949 17.8999L24.162 17.0745L15.6611 21.5752C15.4352 21.6948 15.1648 21.6948 14.939 21.5752L6.43812 17.0745L4.90518 17.8999C4.53022 18.1023 4.39036 18.5703 4.59274 18.9453C4.6642 19.0777 4.77283 19.1863 4.90518 19.2577L14.9343 24.658C15.1626 24.7809 15.4374 24.7809 15.6657 24.658L25.6949 19.2577C26.0698 19.0553 26.2097 18.5873 26.0073 18.2124Z" fill="url(#paint1_linear)"/>
<path d="M25.7629 10.0329C25.7411 10.0183 25.7187 10.0048 25.6955 9.99251L15.6664 4.59218C15.4381 4.46927 15.1633 4.46927 14.935 4.59218L4.90585 9.99251C4.53328 10.1903 4.39152 10.6526 4.58929 11.0252C4.60158 11.0483 4.61505 11.0708 4.62966 11.0926L15.3007 16.7421L25.9717 11.0926C26.2067 10.7423 26.1133 10.2679 25.7629 10.0329Z" fill="url(#paint2_linear)"/>
<defs>
<linearGradient id="paint0_linear" x1="4.5" y1="19.1177" x2="28.2227" y2="19.2191" gradientUnits="userSpaceOnUse">
<stop stop-color="#00B191"/>
<stop offset="1" stop-color="#00CABE"/>
</linearGradient>
<linearGradient id="paint1_linear" x1="4.5" y1="23.1511" x2="28.2213" y2="23.2512" gradientUnits="userSpaceOnUse">
<stop stop-color="#00B191"/>
<stop offset="1" stop-color="#00CABE"/>
</linearGradient>
<linearGradient id="paint2_linear" x1="4.5" y1="14.1917" x2="28.2229" y2="14.2544" gradientUnits="userSpaceOnUse">
<stop stop-color="#00B191"/>
<stop offset="1" stop-color="#00CABE"/>
</linearGradient>
</defs>
</svg>
