<svg width="30" height="30" viewBox="0 0 30 30" fill="none" xmlns="http://www.w3.org/2000/svg">
<path d="M20.1048 4.20007C20.1048 4.20007 18.476 5.7803 16.7145 6.41739C3.66982 11.1357 9.17132 20.3304 9.3508 20.3607C9.3508 20.3607 10.0823 19.0868 11.0704 18.3603C17.3406 13.7508 18.615 8.44497 18.615 8.44497C18.615 8.44497 17.208 14.8295 11.6297 18.8022C10.3977 19.6791 9.56341 21.8384 9.21027 23.9965C9.21027 23.9965 10.0836 23.6437 10.4592 23.5481C10.6056 22.5925 10.9118 21.6774 11.4294 20.8599C19.2258 21.7881 21.7792 15.506 22.1128 13.3154C22.9001 8.14184 20.1048 4.20007 20.1048 4.20007Z" fill="url(#paint0_linear)"/>
<defs>
<linearGradient id="paint0_linear" x1="8.04785" y1="19.8723" x2="23.6478" y2="19.8891" gradientUnits="userSpaceOnUse">
<stop stop-color="#00B191"/>
<stop offset="1" stop-color="#00CABE"/>
</linearGradient>
</defs>
</svg>
