<svg width="30" height="30" viewBox="0 0 30 30" fill="none" xmlns="http://www.w3.org/2000/svg">
<path d="M24.0623 5.40015H14.3373C13.2119 5.40015 12.2998 6.30503 12.2998 7.42114V12.1725C12.8139 12.426 13.3693 12.7 13.8878 12.9556L14.681 11.3814C15.1613 10.4294 16.3321 10.0426 17.2915 10.5182C18.253 10.9954 18.6426 12.1536 18.1613 13.1074L16.7472 15.9132C16.7847 16.2845 16.7515 16.6589 16.6459 17.0212H17.5795L15.1172 23.737C14.9711 24.1353 15.2535 24.6001 15.7269 24.6001C15.9915 24.6001 16.2404 24.4382 16.336 24.1765L18.9594 17.0212H19.4139L22.0639 24.1787C22.1603 24.439 22.4086 24.6001 22.6731 24.6001C23.1154 24.6001 23.4396 24.1619 23.2814 23.7353L20.7955 17.0212H24.0623C25.1875 17.0212 26.0998 16.1163 26.0998 15.0002V7.42114C26.0998 6.30503 25.1875 5.40015 24.0623 5.40015V5.40015ZM22.6727 14.2655H19.7631C19.4051 14.2655 19.1146 13.9774 19.1146 13.6223C19.1146 13.2669 19.4051 12.9791 19.7631 12.9791H22.6727C23.0311 12.9791 23.3212 13.2669 23.3212 13.6223C23.3212 13.9774 23.0311 14.2655 22.6727 14.2655ZM22.6727 11.8539H19.7631C19.4051 11.8539 19.1146 11.5661 19.1146 11.2107C19.1146 10.8556 19.4051 10.5675 19.7631 10.5675H22.6727C23.0311 10.5675 23.3212 10.8556 23.3212 11.2107C23.3212 11.5661 23.0311 11.8539 22.6727 11.8539ZM22.6727 9.44263H15.7269C15.3685 9.44263 15.0784 9.15452 15.0784 8.7994C15.0784 8.44428 15.3685 8.15617 15.7269 8.15617H22.6727C23.0311 8.15617 23.3212 8.44428 23.3212 8.7994C23.3212 9.15452 23.0311 9.44263 22.6727 9.44263Z" fill="url(#paint0_linear)"/>
<path d="M15.3918 16.7072C15.5098 16.365 15.509 16.0075 15.4093 15.6813L17.0303 12.4735C17.1916 12.1542 17.0609 11.7659 16.7383 11.6063C16.4158 11.4466 16.0234 11.576 15.8619 11.8953L14.4794 14.6312C13.6531 14.224 12.3976 13.6063 11.3862 13.1086C10.4452 12.6455 9.77369 12.2303 8.62792 12.2303H8.05078C8.94294 12.2303 9.73916 11.824 10.2603 11.1881C10.658 10.7041 10.8958 10.0874 10.8958 9.41532C10.8958 7.86022 9.62213 6.59985 8.05044 6.59985C6.47943 6.59985 5.20575 7.86022 5.20575 9.41532C5.20575 10.1622 5.49968 10.8408 5.97918 11.3444C6.49763 11.8899 7.23398 12.2303 8.05027 12.2305C6.95587 12.2305 5.88597 12.6693 5.11628 13.4329C4.33163 14.2074 3.89941 15.2391 3.89941 16.3383V18.4152C3.89941 19.3093 4.48608 20.0701 5.29863 20.3407V23.9535C5.29863 24.3105 5.59102 24.5999 5.95179 24.5999H10.1494C10.5102 24.5999 10.8026 24.3105 10.8026 23.9535V16.6914C11.4219 16.9977 12.2355 17.4002 12.8938 17.7261C13.3552 17.9543 13.8944 17.9748 14.3753 17.7813C14.8548 17.586 15.2244 17.1974 15.3892 16.7148C15.3901 16.7123 15.3909 16.7097 15.3918 16.7072Z" fill="url(#paint1_linear)"/>
<defs>
<linearGradient id="paint0_linear" x1="12.2998" y1="20.6001" x2="27.4553" y2="20.6165" gradientUnits="userSpaceOnUse">
<stop stop-color="#00B191"/>
<stop offset="1" stop-color="#00CABE"/>
</linearGradient>
<linearGradient id="paint1_linear" x1="3.89941" y1="20.8499" x2="18.396" y2="20.8658" gradientUnits="userSpaceOnUse">
<stop stop-color="#00B191"/>
<stop offset="1" stop-color="#00CABE"/>
</linearGradient>
</defs>
</svg>
